<svg width="17" height="18" viewBox="0 0 17 18" fill="none" xmlns="http://www.w3.org/2000/svg">
<path fill-rule="evenodd" clip-rule="evenodd" d="M4.09921 1.99941C4.07556 0.864452 3.30793 0 2.06143 0C0.814922 0 0 0.864452 0 1.99941C0 3.11086 0.790836 4.0002 2.01413 4.0002H2.03742C3.30793 4.0002 4.09921 3.11086 4.09921 1.99941ZM3.85935 5.58008H0.215598V17.1555H3.85935V5.58008ZM12.805 5.30811C15.2027 5.30811 17.0003 6.96287 17.0003 10.5183L17.0002 17.1553H13.3565V10.9625C13.3565 9.40695 12.8293 8.34552 11.5102 8.34552C10.5036 8.34552 9.90395 9.06108 9.6406 9.75221C9.54426 9.9999 9.52061 10.345 9.52061 10.691V17.1556H5.87642C5.87642 17.1556 5.92445 6.6664 5.87642 5.58022H9.52061V7.21978C10.0042 6.43162 10.8704 5.30811 12.805 5.30811Z" fill="#CFCFCF"/>
</svg>
