<svg width="336" height="100" viewBox="0 0 336 100" fill="none" xmlns="http://www.w3.org/2000/svg">
<path d="M69.9972 50.004C70.1519 50.0802 70.3164 50.1181 70.4809 50.1181C70.6454 50.1181 70.8099 50.0802 70.9646 50.004C70.9647 50.004 70.9648 50.0039 70.965 50.0038L95.5717 37.7822L69.9972 50.004ZM69.9972 50.004C69.9971 50.004 69.9969 50.0039 69.9968 50.0038L45.3901 37.7822M69.9972 50.004L45.3901 37.7822M45.3901 37.7822C45.39 37.7821 45.3899 37.7821 45.3899 37.7821L45.3901 37.7822ZM96.2362 36.6681C96.2362 36.1844 95.9709 35.7528 95.5719 35.5542L96.2362 36.6681ZM96.2362 36.6681C96.2362 37.1518 95.9709 37.5834 95.5719 37.7821L96.2362 36.6681ZM49.1398 36.3994L48.5989 36.6681L49.1398 36.9368L70.3474 47.4708L70.4809 47.5371L70.6143 47.4708L91.8219 36.9368L92.3629 36.6681L91.8219 36.3994L70.6143 25.8654L70.4809 25.7991L70.3474 25.8654L49.1398 36.3994ZM45.3901 35.5541L69.9976 23.332C69.9976 23.3319 69.9977 23.3319 69.9977 23.3319C70.3044 23.1797 70.6573 23.1797 70.9641 23.3319C70.9641 23.3319 70.9641 23.3319 70.9641 23.332L95.5717 35.5541H45.3901Z" fill="#FFA200" stroke="white" stroke-width="0.6"/>
<path d="M52.5017 39.2224L52.5017 39.2224L52.5023 39.222C52.8306 39.0013 53.2415 38.9759 53.5931 39.1487C53.5933 39.1488 53.5935 39.1489 53.5936 39.149L70.3476 47.4702L70.4811 47.5365L70.6145 47.4702L87.3675 39.1488C87.3675 39.1487 87.3676 39.1487 87.3677 39.1486C87.7203 38.9746 88.1309 39.0011 88.458 39.2217L88.4594 39.2226C88.7916 39.4439 88.9988 39.8352 88.9988 40.2624V51.9453C88.9988 52.419 88.7455 52.8424 88.358 53.0475L70.9881 62.214C70.8292 62.2979 70.6545 62.3397 70.4811 62.3397C70.3077 62.3397 70.1329 62.2979 69.974 62.214L52.6041 53.0475C52.6041 53.0475 52.604 53.0474 52.6039 53.0474C52.2166 52.8423 51.9633 52.4189 51.9633 51.9453V40.2624C51.9633 39.8351 52.1707 39.4436 52.5017 39.2224ZM54.2584 51.0011V51.182L54.4184 51.2665L70.3411 59.6692L70.4811 59.7431L70.6211 59.6692L86.5438 51.2665L86.7038 51.182V51.0011V42.6702V42.1862L86.2703 42.4015L70.9643 50.0037C70.9643 50.0037 70.9643 50.0037 70.9643 50.0037C70.6575 50.156 70.3046 50.156 69.9979 50.0037C69.9979 50.0037 69.9978 50.0037 69.9978 50.0037L54.6918 42.4015L54.2584 42.1862V42.6702V51.0011Z" fill="#FFA200" stroke="white" stroke-width="0.6"/>
<path d="M95.0888 37.8957H70.481C69.8627 37.8957 69.3334 37.361 69.3334 36.6679C69.3334 35.9748 69.8627 35.4401 70.481 35.4401H95.0888C95.7071 35.4401 96.2363 35.9748 96.2363 36.6679C96.2363 37.361 95.7071 37.8957 95.0888 37.8957Z" fill="#FFA200" stroke="white" stroke-width="0.6"/>
<path d="M95.0884 51.6457C94.4701 51.6457 93.9409 51.111 93.9409 50.4179V36.6679C93.9409 35.9748 94.4701 35.4401 95.0884 35.4401C95.7067 35.4401 96.2359 35.9748 96.2359 36.6679V50.4179C96.2359 51.111 95.7067 51.6457 95.0884 51.6457Z" fill="#FFA200" stroke="white" stroke-width="0.6"/>
<path d="M70.481 40.9516C69.8627 40.9516 69.3334 40.417 69.3334 39.7238V33.6127C69.3334 32.9196 69.8627 32.385 70.481 32.385C71.0993 32.385 71.6285 32.9196 71.6285 33.6127V39.7238C71.6285 40.417 71.0993 40.9516 70.481 40.9516Z" fill="#FFA200" stroke="white" stroke-width="0.6"/>
<path d="M94.1382 49.7298L94.138 49.73L91.2431 54.3131C90.8822 54.8857 91.034 55.6546 91.5629 56.0269C91.759 56.1648 91.9779 56.2289 92.1922 56.2289C92.5565 56.2289 92.9198 56.0436 93.1444 55.6888C93.1444 55.6888 93.1444 55.6888 93.1444 55.6887C93.1444 55.6887 93.1445 55.6886 93.1445 55.6886L96.0393 51.1057L94.1382 49.7298ZM94.1382 49.7298C94.493 49.1668 95.1976 49.024 95.7192 49.3918L95.7194 49.392M94.1382 49.7298L95.7194 49.392M95.7194 49.392C96.2484 49.7641 96.4001 50.5329 96.0394 51.1055L95.7194 49.392Z" fill="#FFA200" stroke="white" stroke-width="0.6"/>
<path d="M94.4575 49.392L94.4575 49.392L94.4582 49.3915C94.9763 49.0245 95.6824 49.1663 96.039 49.7302L98.9339 54.3134C99.2945 54.8843 99.143 55.6546 98.614 56.0269C98.4179 56.1648 98.199 56.2289 97.9847 56.2289C97.6204 56.2289 97.2571 56.0436 97.0325 55.6888C97.0325 55.6888 97.0325 55.6888 97.0325 55.6887C97.0325 55.6887 97.0324 55.6886 97.0324 55.6886L94.1375 51.1055C93.7769 50.5346 93.9284 49.7643 94.4575 49.392Z" fill="#FFA200" stroke="white" stroke-width="0.6"/>
<path d="M70.481 54.7014C69.8627 54.7014 69.3334 54.1668 69.3334 53.4737V48.8903C69.3334 48.1972 69.8627 47.6625 70.481 47.6625C71.0993 47.6625 71.6285 48.1972 71.6285 48.8903V53.4737C71.6285 54.1668 71.0993 54.7014 70.481 54.7014Z" fill="#FFA200" stroke="white" stroke-width="0.6"/>
<path d="M74.8235 74.5612H66.1384C65.5201 74.5612 64.9909 74.0265 64.9909 73.3334C64.9909 72.6403 65.5201 72.1057 66.1384 72.1057H74.8235C75.4418 72.1057 75.9711 72.6403 75.9711 73.3334C75.9711 74.0265 75.4418 74.5612 74.8235 74.5612Z" fill="#FFA200" stroke="white" stroke-width="0.6"/>
<mask id="path-10-inside-1_2603_2901" fill="white">
<path fill-rule="evenodd" clip-rule="evenodd" d="M111.012 16.808V65.6953H108.117V18.3344C108.117 17.4911 107.468 16.8066 106.669 16.8066H34.2934C33.4944 16.8066 32.8459 17.4911 32.8459 18.3344V65.6953H29.9505V16.808C29.9505 15.1213 31.2489 13.7509 32.8469 13.7509H108.115C109.713 13.7509 111.012 15.1213 111.012 16.808ZM35.7409 65.6953V19.8622H105.222V65.6953H35.7409ZM34.2683 68.7509H29.9505V74.8605C29.9505 76.5471 31.2489 77.9175 32.8469 77.9175H108.115C109.713 77.9175 111.012 76.5471 111.012 74.8605V68.7509H106.694L106.669 68.7511H34.2934L34.2683 68.7509ZM27.0554 16.808V67.2231V74.8605C27.0554 78.2307 29.6537 80.9731 32.8469 80.9731H61.7552C61.4199 87.0583 59.0032 90.1402 54.5581 90.1402C54.5465 90.1402 54.535 90.1403 54.5235 90.1406H51.6632C49.269 90.1406 47.3206 92.197 47.3206 94.724C47.3206 97.2509 49.269 99.3073 51.6632 99.3073H89.2986C91.6928 99.3073 93.6412 97.2509 93.6412 94.724C93.6412 92.197 91.6928 90.1406 89.2986 90.1406H86.438C86.4265 90.1403 86.415 90.1402 86.4035 90.1402C81.9583 90.1402 79.5417 87.0583 79.2064 80.9731H108.115C111.308 80.9731 113.907 78.2307 113.907 74.8605V67.2231V16.808C113.907 13.4377 111.308 10.6953 108.115 10.6953H32.8469C29.6537 10.6953 27.0554 13.4377 27.0554 16.808ZM51.6632 93.1962C50.8656 93.1962 50.2156 93.8822 50.2156 94.724C50.2156 95.5658 50.8656 96.2517 51.6632 96.2517H89.2986C90.0962 96.2517 90.7462 95.5658 90.7462 94.724C90.7462 93.8822 90.0962 93.1962 89.2986 93.1962H51.6632ZM79.3541 90.1402H61.6089C63.3923 88.0563 64.4403 84.9534 64.6516 80.9735H76.3114C76.5213 84.9534 77.5707 88.0563 79.3541 90.1402Z"/>
</mask>
<path fill-rule="evenodd" clip-rule="evenodd" d="M111.012 16.808V65.6953H108.117V18.3344C108.117 17.4911 107.468 16.8066 106.669 16.8066H34.2934C33.4944 16.8066 32.8459 17.4911 32.8459 18.3344V65.6953H29.9505V16.808C29.9505 15.1213 31.2489 13.7509 32.8469 13.7509H108.115C109.713 13.7509 111.012 15.1213 111.012 16.808ZM35.7409 65.6953V19.8622H105.222V65.6953H35.7409ZM34.2683 68.7509H29.9505V74.8605C29.9505 76.5471 31.2489 77.9175 32.8469 77.9175H108.115C109.713 77.9175 111.012 76.5471 111.012 74.8605V68.7509H106.694L106.669 68.7511H34.2934L34.2683 68.7509ZM27.0554 16.808V67.2231V74.8605C27.0554 78.2307 29.6537 80.9731 32.8469 80.9731H61.7552C61.4199 87.0583 59.0032 90.1402 54.5581 90.1402C54.5465 90.1402 54.535 90.1403 54.5235 90.1406H51.6632C49.269 90.1406 47.3206 92.197 47.3206 94.724C47.3206 97.2509 49.269 99.3073 51.6632 99.3073H89.2986C91.6928 99.3073 93.6412 97.2509 93.6412 94.724C93.6412 92.197 91.6928 90.1406 89.2986 90.1406H86.438C86.4265 90.1403 86.415 90.1402 86.4035 90.1402C81.9583 90.1402 79.5417 87.0583 79.2064 80.9731H108.115C111.308 80.9731 113.907 78.2307 113.907 74.8605V67.2231V16.808C113.907 13.4377 111.308 10.6953 108.115 10.6953H32.8469C29.6537 10.6953 27.0554 13.4377 27.0554 16.808ZM51.6632 93.1962C50.8656 93.1962 50.2156 93.8822 50.2156 94.724C50.2156 95.5658 50.8656 96.2517 51.6632 96.2517H89.2986C90.0962 96.2517 90.7462 95.5658 90.7462 94.724C90.7462 93.8822 90.0962 93.1962 89.2986 93.1962H51.6632ZM79.3541 90.1402H61.6089C63.3923 88.0563 64.4403 84.9534 64.6516 80.9735H76.3114C76.5213 84.9534 77.5707 88.0563 79.3541 90.1402Z" fill="#2F5ED1"/>
<path d="M111.012 65.6953V66.2953H111.612V65.6953H111.012ZM108.117 65.6953H107.517V66.2953H108.117V65.6953ZM32.8459 65.6953V66.2953H33.4459V65.6953H32.8459ZM29.9505 65.6953H29.3505V66.2953H29.9505V65.6953ZM35.7409 19.8622V19.2622H35.1409V19.8622H35.7409ZM35.7409 65.6953H35.1409V66.2953H35.7409V65.6953ZM105.222 19.8622H105.822V19.2622H105.222V19.8622ZM105.222 65.6953V66.2953H105.822V65.6953H105.222ZM29.9505 68.7509V68.1509H29.3505V68.7509H29.9505ZM34.2683 68.7509L34.2737 68.1509H34.2683V68.7509ZM111.012 68.7509H111.612V68.1509H111.012V68.7509ZM106.694 68.7509V68.1508L106.689 68.1509L106.694 68.7509ZM106.669 68.7511V69.3511L106.675 69.3511L106.669 68.7511ZM34.2934 68.7511L34.288 69.3511H34.2934V68.7511ZM61.7552 80.9731L62.3543 81.0061L62.3891 80.3731H61.7552V80.9731ZM54.5235 90.1406V90.7406H54.5309L54.5383 90.7404L54.5235 90.1406ZM86.438 90.1406L86.4233 90.7404L86.4306 90.7406H86.438V90.1406ZM79.2064 80.9731V80.3731H78.5724L78.6073 81.0061L79.2064 80.9731ZM61.6089 90.1402L61.1531 89.7501L60.3057 90.7402H61.6089V90.1402ZM79.3541 90.1402V90.7402H80.6572L79.8099 89.7501L79.3541 90.1402ZM64.6516 80.9735V80.3735H64.0826L64.0525 80.9417L64.6516 80.9735ZM76.3114 80.9735L76.9105 80.9419L76.8806 80.3735H76.3114V80.9735ZM111.612 65.6953V16.808H110.412V65.6953H111.612ZM108.117 66.2953H111.012V65.0953H108.117V66.2953ZM107.517 18.3344V65.6953H108.717V18.3344H107.517ZM106.669 17.4066C107.107 17.4066 107.517 17.7915 107.517 18.3344H108.717C108.717 17.1906 107.83 16.2066 106.669 16.2066V17.4066ZM34.2934 17.4066H106.669V16.2066H34.2934V17.4066ZM33.4459 18.3344C33.4459 17.7915 33.8558 17.4066 34.2934 17.4066V16.2066C33.1329 16.2066 32.2459 17.1906 32.2459 18.3344H33.4459ZM33.4459 65.6953V18.3344H32.2459V65.6953H33.4459ZM29.9505 66.2953H32.8459V65.0953H29.9505V66.2953ZM29.3505 16.808V65.6953H30.5505V16.808H29.3505ZM32.8469 13.1509C30.8874 13.1509 29.3505 14.8208 29.3505 16.808H30.5505C30.5505 15.4217 31.6103 14.3509 32.8469 14.3509V13.1509ZM108.115 13.1509H32.8469V14.3509H108.115V13.1509ZM111.612 16.808C111.612 14.8208 110.075 13.1509 108.115 13.1509V14.3509C109.352 14.3509 110.412 15.4217 110.412 16.808H111.612ZM35.1409 19.8622V65.6953H36.3409V19.8622H35.1409ZM105.222 19.2622H35.7409V20.4622H105.222V19.2622ZM105.822 65.6953V19.8622H104.622V65.6953H105.822ZM35.7409 66.2953H105.222V65.0953H35.7409V66.2953ZM29.9505 69.3509H34.2683V68.1509H29.9505V69.3509ZM30.5505 74.8605V68.7509H29.3505V74.8605H30.5505ZM32.8469 77.3175C31.6103 77.3175 30.5505 76.2467 30.5505 74.8605H29.3505C29.3505 76.8476 30.8874 78.5175 32.8469 78.5175V77.3175ZM108.115 77.3175H32.8469V78.5175H108.115V77.3175ZM110.412 74.8605C110.412 76.2467 109.352 77.3175 108.115 77.3175V78.5175C110.075 78.5175 111.612 76.8476 111.612 74.8605H110.412ZM110.412 68.7509V74.8605H111.612V68.7509H110.412ZM106.694 69.3509H111.012V68.1509H106.694V69.3509ZM106.675 69.3511L106.7 69.3508L106.689 68.1509L106.664 68.1511L106.675 69.3511ZM34.2934 69.3511H106.669V68.1511H34.2934V69.3511ZM34.2629 69.3508L34.288 69.3511L34.2988 68.1511L34.2737 68.1509L34.2629 69.3508ZM27.6554 67.2231V16.808H26.4554V67.2231H27.6554ZM27.6554 74.8605V67.2231H26.4554V74.8605H27.6554ZM32.8469 80.3731C30.0152 80.3731 27.6554 77.9303 27.6554 74.8605H26.4554C26.4554 78.5312 29.2922 81.5731 32.8469 81.5731V80.3731ZM61.7552 80.3731H32.8469V81.5731H61.7552V80.3731ZM54.5581 90.7402C56.9361 90.7402 58.8377 89.9063 60.1698 88.209C61.4793 86.5406 62.1834 84.1075 62.3543 81.0061L61.1561 80.9401C60.9917 83.9238 60.3198 86.0743 59.2258 87.4681C58.1545 88.8331 56.6252 89.5402 54.5581 89.5402V90.7402ZM54.5383 90.7404C54.5449 90.7403 54.5515 90.7402 54.5581 90.7402V89.5402C54.5415 89.5402 54.5251 89.5404 54.5088 89.5408L54.5383 90.7404ZM54.5235 89.5406H51.6632V90.7406H54.5235V89.5406ZM51.6632 89.5406C48.9075 89.5406 46.7206 91.8966 46.7206 94.724H47.9206C47.9206 92.4975 49.6304 90.7406 51.6632 90.7406V89.5406ZM46.7206 94.724C46.7206 97.5514 48.9075 99.9073 51.6632 99.9073V98.7073C49.6304 98.7073 47.9206 96.9505 47.9206 94.724H46.7206ZM51.6632 99.9073H89.2986V98.7073H51.6632V99.9073ZM89.2986 99.9073C92.0543 99.9073 94.2412 97.5514 94.2412 94.724H93.0412C93.0412 96.9505 91.3314 98.7073 89.2986 98.7073V99.9073ZM94.2412 94.724C94.2412 91.8966 92.0543 89.5406 89.2986 89.5406V90.7406C91.3314 90.7406 93.0412 92.4975 93.0412 94.724H94.2412ZM89.2986 89.5406H86.438V90.7406H89.2986V89.5406ZM86.4035 90.7402C86.41 90.7402 86.4166 90.7403 86.4233 90.7404L86.4528 89.5408C86.4365 89.5404 86.42 89.5402 86.4035 89.5402V90.7402ZM78.6073 81.0061C78.7782 84.1075 79.4823 86.5406 80.7917 88.209C82.1239 89.9063 84.0255 90.7402 86.4035 90.7402V89.5402C84.3363 89.5402 82.807 88.8331 81.7357 87.4681C80.6417 86.0743 79.9699 83.9238 79.8055 80.9401L78.6073 81.0061ZM108.115 80.3731H79.2064V81.5731H108.115V80.3731ZM113.307 74.8605C113.307 77.9303 110.947 80.3731 108.115 80.3731V81.5731C111.67 81.5731 114.507 78.5312 114.507 74.8605H113.307ZM113.307 67.2231V74.8605H114.507V67.2231H113.307ZM113.307 16.808V67.2231H114.507V16.808H113.307ZM108.115 11.2953C110.947 11.2953 113.307 13.7381 113.307 16.808H114.507C114.507 13.1372 111.67 10.0953 108.115 10.0953V11.2953ZM32.8469 11.2953H108.115V10.0953H32.8469V11.2953ZM27.6554 16.808C27.6554 13.7381 30.0152 11.2953 32.8469 11.2953V10.0953C29.2922 10.0953 26.4554 13.1372 26.4554 16.808H27.6554ZM50.8156 94.724C50.8156 94.1826 51.227 93.7962 51.6632 93.7962V92.5962C50.5041 92.5962 49.6156 93.5817 49.6156 94.724H50.8156ZM51.6632 95.6517C51.227 95.6517 50.8156 95.2653 50.8156 94.724H49.6156C49.6156 95.8662 50.5041 96.8517 51.6632 96.8517V95.6517ZM89.2986 95.6517H51.6632V96.8517H89.2986V95.6517ZM90.1462 94.724C90.1462 95.2653 89.7348 95.6517 89.2986 95.6517V96.8517C90.4577 96.8517 91.3462 95.8662 91.3462 94.724H90.1462ZM89.2986 93.7962C89.7348 93.7962 90.1462 94.1826 90.1462 94.724H91.3462C91.3462 93.5817 90.4577 92.5962 89.2986 92.5962V93.7962ZM51.6632 93.7962H89.2986V92.5962H51.6632V93.7962ZM61.6089 90.7402H79.3541V89.5402H61.6089V90.7402ZM64.0525 80.9417C63.8453 84.8433 62.8211 87.801 61.1531 89.7501L62.0648 90.5303C63.9635 88.3117 65.0353 85.0635 65.2508 81.0053L64.0525 80.9417ZM76.3114 80.3735H64.6516V81.5735H76.3114V80.3735ZM79.8099 89.7501C78.1418 87.8009 77.1163 84.8432 76.9105 80.9419L75.7122 81.0051C75.9262 85.0636 76.9996 88.3118 78.8982 90.5303L79.8099 89.7501Z" fill="white" mask="url(#path-10-inside-1_2603_2901)"/>
<path d="M17.3702 68.7741C17.3702 67.4371 14.9798 66.2672 11.4739 65.7658C11.1552 62.089 10.0397 59.582 8.76479 59.582C7.48991 59.582 6.37439 62.089 5.89631 65.7658C2.3904 66.1 0 67.2699 0 68.607C0 69.944 2.3904 71.1139 5.89631 71.6153C6.21503 75.2921 7.33055 77.799 8.60543 77.799C9.88031 77.799 10.9958 75.2921 11.4739 71.6153C14.8205 71.1139 17.3702 70.1111 17.3702 68.7741Z" fill="#FFE48F"/>
<path d="M131.001 87.1061C131.001 85.7691 128.61 84.5992 125.104 84.0978C124.786 80.421 123.67 77.9141 122.395 77.9141C121.12 77.9141 120.005 80.421 119.527 84.0978C116.021 84.4321 113.63 85.602 113.63 86.939C113.63 88.276 116.021 89.4459 119.527 89.9473C119.845 93.6241 120.961 96.1311 122.236 96.1311C123.511 96.1311 124.626 93.6241 125.104 89.9473C128.451 89.4459 131.001 88.4432 131.001 87.1061Z" fill="#9FADF0"/>
<path d="M29.024 6.16718C29.024 5.27014 27.4202 4.48522 25.068 4.14883C24.8542 1.68195 24.1057 0 23.2504 0C22.395 0 21.6466 1.68195 21.3259 4.14883C18.9736 4.37309 17.3699 5.158 17.3699 6.05504C17.3699 6.95209 18.9736 7.737 21.3259 8.0734C21.5397 10.5403 22.2881 12.2222 23.1435 12.2222C23.9988 12.2222 24.7472 10.5403 25.068 8.0734C27.3133 7.737 29.024 7.06422 29.024 6.16718Z" fill="#9FADF0"/>
</svg>
