<svg width="49" height="45" viewBox="0 0 49 45" fill="none" xmlns="http://www.w3.org/2000/svg">
<path d="M12.3543 13.2298C12.2683 13.9661 11.6119 14.5231 10.8305 14.5231C6.59682 14.4993 3.1448 17.7328 3.11976 21.7455C3.09508 25.7577 6.50636 29.0295 10.7401 29.0532L12.3543 13.2298ZM12.3543 13.2298C13.1326 6.85281 19.2183 2.28106 25.9471 3.01875L12.3543 13.2298ZM9.53131 11.9324L9.71139 11.9128L9.74878 11.7355C10.9408 6.08517 15.6063 1.65851 21.587 0.528728C29.7683 -1.0167 37.703 4.01824 39.3277 11.7442L39.5723 11.6928L39.5435 11.9411C44.7856 12.5492 48.717 16.7482 48.7498 21.7269C48.7854 27.1931 44.1353 31.6747 38.3345 31.7093H30.6698C29.9483 31.7093 29.3866 31.1583 29.3866 30.5063C29.3866 29.8543 29.9483 29.3032 30.6698 29.3032H38.3349C42.6939 29.3032 46.2505 25.9512 46.2505 21.7883C46.2505 17.6252 42.6939 14.2731 38.3349 14.2731L38.3334 14.2731C37.6474 14.2773 37.0769 13.8099 36.9681 13.1932C36.296 7.71088 31.7355 3.40173 25.9743 2.77024C19.1217 2.01897 12.9025 6.67482 12.1061 13.1995L12.106 13.2008C12.036 13.8006 11.496 14.2727 10.8312 14.2731C6.47261 14.249 2.89575 17.581 2.86976 21.7439L2.86976 21.7439C2.84416 25.9068 6.37963 29.2788 10.7387 29.3032H10.7401H18.4052C19.1267 29.3032 19.6884 29.8543 19.6884 30.5063C19.6884 31.1583 19.1267 31.7093 18.4052 31.7093H10.7401H10.7399C5.40113 31.7128 0.927459 27.9221 0.319654 22.9221C-0.340197 17.4921 3.76954 12.5618 9.53131 11.9324Z" fill="white" stroke="#5263E3" stroke-width="0.5"/>
<path d="M29.756 36.2373L29.756 36.2374L29.7612 36.2322C29.7689 36.2244 29.7775 36.2164 29.7908 36.2043C30.302 35.7366 31.1212 35.7505 31.6145 36.2343C32.0999 36.7108 32.0866 37.4649 31.5831 37.9258L31.583 37.9257L31.5798 37.9288L25.0781 44.0924C24.9601 44.2043 24.8193 44.2938 24.6634 44.3553L24.6621 44.3558C24.3442 44.4831 23.985 44.4831 23.6676 44.3558L23.6662 44.3553C23.5104 44.2938 23.3694 44.2042 23.2509 44.0922L16.7494 37.9288L16.7494 37.9287L16.7466 37.9262C16.7359 37.9163 16.7255 37.9064 16.7146 37.8959C16.2293 37.4194 16.2426 36.6653 16.7462 36.2045L16.7462 36.2045C17.2575 35.7362 18.0772 35.7502 18.5701 36.2342L18.5701 36.2343L18.5733 36.2373L22.4597 39.9218L22.8817 40.3219V39.7404V21.4531C22.8817 20.8011 23.4433 20.25 24.1648 20.25C24.8859 20.25 25.4475 20.801 25.4475 21.4531V39.7404V40.3219L25.8695 39.9218L29.756 36.2373Z" fill="white" stroke="#5263E3" stroke-width="0.5"/>
</svg>
