<svg width="435" height="102" viewBox="0 0 435 102" fill="none" xmlns="http://www.w3.org/2000/svg">
<mask id="path-1-inside-1_2603_2779" fill="white">
<path d="M94.6627 49.072L80.0356 29.1416C79.4942 28.4045 78.5067 28.2227 77.758 28.722L68.3142 35.0219H55.9973C55.838 35.0219 55.6793 35.0575 55.5259 35.1044L45.9761 37.9879L36.0669 35.145L26.4384 28.722C25.7023 28.2311 24.7329 28.3975 24.1855 29.1095L8.00685 50.1295C7.42545 50.8848 7.52146 51.9877 8.22288 52.6206L16.7026 60.2751L24.3102 71.0285C22.0852 73.5147 22.1286 77.436 24.4435 79.8649C25.4696 80.9405 26.7745 81.5483 28.1166 81.6895C28.0699 82.0084 28.0459 82.3323 28.0459 82.661C28.0459 84.3576 28.676 85.9528 29.8195 87.1522C30.9636 88.3524 32.4845 89.0132 34.102 89.0132C34.124 89.0132 34.1454 89.0118 34.1667 89.0111C34.166 89.0545 34.164 89.0972 34.164 89.1405C34.164 90.8372 34.7941 92.4324 35.9376 93.6325C37.0817 94.8319 38.6026 95.4928 40.2201 95.4928C40.5395 95.4928 40.8555 95.4656 41.1655 95.4152C41.2969 96.8279 41.8776 98.2029 42.9071 99.2827C44.0872 100.521 45.6381 101.14 47.1889 101.14C48.7398 101.14 50.2906 100.521 51.4714 99.2827L52.3976 98.3113L52.7863 98.64C53.9571 99.8296 55.4773 100.424 56.9974 100.424C58.5483 100.424 60.0992 99.8051 61.2793 98.5665C62.4841 97.3028 63.0742 95.6348 63.0495 93.9752C64.631 94.0004 66.2219 93.3822 67.4267 92.1191C68.6302 90.8561 69.2203 89.1895 69.1969 87.5306C70.8445 87.5579 72.4073 86.8942 73.5735 85.671C74.7783 84.4073 75.3683 82.7393 75.3437 81.0797C76.9265 81.1049 78.5161 80.4866 79.7209 79.2229C81.7771 77.0661 82.0418 73.7322 80.517 71.2712L86.0716 59.0687L94.4226 51.531C95.1127 50.9079 95.2181 49.828 94.6627 49.072ZM25.8904 32.6168L32.8139 37.2346L17.7527 56.4811L11.7173 51.0323L25.8904 32.6168ZM26.8671 73.4231L28.9567 71.2313C29.0201 71.1649 29.0867 71.1019 29.1547 71.0432C29.5635 70.6935 30.0582 70.4851 30.5823 70.4354C30.5969 70.434 30.6123 70.434 30.6269 70.4333C30.7016 70.427 30.7763 70.4228 30.8516 70.4235C31.5677 70.434 32.2331 70.741 32.7265 71.2872C33.6946 72.3608 33.6426 74.1148 32.6105 75.1974L30.5843 77.3227C29.5595 78.3976 27.8919 78.3976 26.8671 77.3227C25.8423 76.2471 25.8423 74.498 26.8671 73.4231ZM32.2431 84.6101C31.7464 84.0897 31.473 83.3974 31.473 82.661C31.473 81.9245 31.7464 81.2322 32.2431 80.7111L36.2949 76.4611C37.071 75.6471 38.2912 75.424 39.2833 75.9198C40.3061 76.431 40.8815 77.5955 40.7315 78.7669C40.6515 79.3921 40.3741 79.981 39.9487 80.4279L35.9609 84.6101C35.4642 85.1311 34.8041 85.4178 34.102 85.4178C33.3999 85.4178 32.7398 85.1311 32.2431 84.6101ZM38.3612 91.0897C37.8645 90.5693 37.5911 89.877 37.5911 89.1405C37.5911 88.4041 37.8645 87.7117 38.3612 87.1907L42.4124 82.9407C43.2425 82.0707 44.5739 81.8833 45.5901 82.5036C46.5182 83.0701 47.0042 84.1821 46.8449 85.2898C46.7575 85.899 46.4815 86.4718 46.0661 86.9075L42.079 91.0897C41.5823 91.6107 40.9222 91.8974 40.2201 91.8974C39.518 91.8974 38.8579 91.6107 38.3612 91.0897ZM45.33 96.7405C44.3052 95.6656 44.3052 93.9165 45.33 92.8415L47.4196 90.6498C47.483 90.5833 47.549 90.5211 47.617 90.4623C47.619 90.4609 47.6203 90.4595 47.6216 90.4581C47.9617 90.1686 48.3611 89.9749 48.7871 89.8902C48.7971 89.8888 48.8071 89.8874 48.8171 89.886C48.8905 89.8721 48.9651 89.8609 49.0398 89.8539C49.0698 89.8511 49.0998 89.8511 49.1305 89.849C49.1918 89.8455 49.2525 89.8413 49.3145 89.842C50.0299 89.8525 50.696 90.1588 51.1894 90.7057C51.2501 90.7728 51.3068 90.8428 51.3588 90.9148C52.1469 91.9953 52.0409 93.6004 51.0627 94.627L49.0472 96.7412C48.0224 97.8161 46.3548 97.8154 45.33 96.7405ZM77.2972 76.6807C76.2725 77.7563 74.6049 77.7556 73.5801 76.6807C73.5428 76.6416 73.5035 76.6052 73.4634 76.5709L62.4448 64.8916C61.7787 64.1859 60.6939 64.1803 60.0211 64.879C59.3484 65.577 59.3431 66.7148 60.0085 67.4205L71.1465 79.225C71.1478 79.2264 71.1492 79.2278 71.1505 79.2292C72.1753 80.3041 72.1753 82.0539 71.1505 83.1288C70.6538 83.6498 69.9937 83.9366 69.2916 83.9366C68.5889 83.9366 67.9288 83.6498 67.4327 83.1288L59.9818 75.2323C59.3164 74.5267 58.2316 74.5211 57.5589 75.2191C56.8861 75.9177 56.8808 77.0556 57.5462 77.7612L64.8831 85.5367C64.9204 85.5857 64.9604 85.6325 65.0031 85.6773C66.0279 86.7522 66.0279 88.502 65.0031 89.5769C63.9776 90.6519 62.3094 90.6512 61.2846 89.5762L57.2181 85.2661C56.5521 84.5604 55.4673 84.5541 54.7945 85.2528C54.1218 85.9507 54.1164 87.0886 54.7818 87.7943L58.735 91.9834C58.7723 92.0324 58.8123 92.0799 58.8557 92.1247C59.8805 93.1996 59.8805 94.9494 58.8557 96.0243C57.8309 97.1 56.1633 97.0993 55.1386 96.0243C55.0205 95.9006 54.8819 95.8054 54.7498 95.6991C54.6378 95.6096 54.6085 95.5474 54.6645 95.4047C54.7212 95.2599 54.8059 95.1292 54.8625 94.9837C54.9252 94.8214 54.9759 94.6543 55.0252 94.4864C55.2879 93.5983 55.3653 92.6429 55.2472 91.7212C55.0205 89.9525 54.0931 88.3565 52.6876 87.3467C51.9282 86.8019 51.0494 86.4445 50.1386 86.3102C50.58 84.2681 50.0499 82.0539 48.6711 80.5258C47.5363 79.2684 46.0035 78.5627 44.3546 78.5389C44.2946 78.5382 44.2346 78.5382 44.1739 78.5389C44.2106 76.8884 43.6385 75.2484 42.5537 74.0462C41.4182 72.7888 39.8854 72.0831 38.2372 72.0593C37.7471 72.0523 37.2524 72.1069 36.775 72.2223C36.571 70.7333 35.8556 69.3556 34.7721 68.3702C33.6953 67.3925 32.3411 66.8498 30.899 66.8288C29.3808 66.8057 27.8893 67.3932 26.7618 68.4611L20.1377 59.0988L35.9849 38.8481L41.0355 40.2972L34.4394 52.5059C33.642 53.9822 33.4406 55.6957 33.872 57.3308C34.3034 58.9666 35.3155 60.3276 36.723 61.164C36.811 61.2164 36.8997 61.2661 36.9897 61.3137C36.9964 61.3171 37.003 61.3206 37.0104 61.3241C37.2471 61.4479 37.4904 61.5542 37.7371 61.6437C38.8859 62.0613 40.1267 62.1067 41.3236 61.7598C42.8824 61.3074 44.1799 60.245 44.9773 58.7694L49.2638 50.8351L56.9174 51.4044L77.2979 72.7811C78.322 73.8567 78.322 75.6058 77.2972 76.6807ZM78.0073 68.4415L58.8883 48.3881C58.8523 48.3496 58.8143 48.3132 58.775 48.279C58.4996 48.0384 58.1583 47.8929 57.7982 47.8663L48.4271 47.1691C47.779 47.1222 47.1349 47.4838 46.8149 48.0761L41.9956 56.9972C41.6496 57.6378 41.0862 58.0987 40.4094 58.2952C39.7334 58.4917 39.0239 58.3994 38.4125 58.0364C37.8018 57.6735 37.3624 57.0825 37.1751 56.3727C36.9877 55.6628 37.075 54.9187 37.4217 54.2781L43.8552 42.3687L46.4622 41.5819C46.4795 41.5763 46.4962 41.5693 46.5135 41.5637L56.2434 38.6166H67.9995L82.6759 58.1861L78.0073 68.4415ZM84.9208 55.3649L71.3485 37.2577L78.2754 32.637L90.9576 49.9162L84.9208 55.3649Z"/>
</mask>
<path d="M94.6627 49.072L80.0356 29.1416C79.4942 28.4045 78.5067 28.2227 77.758 28.722L68.3142 35.0219H55.9973C55.838 35.0219 55.6793 35.0575 55.5259 35.1044L45.9761 37.9879L36.0669 35.145L26.4384 28.722C25.7023 28.2311 24.7329 28.3975 24.1855 29.1095L8.00685 50.1295C7.42545 50.8848 7.52146 51.9877 8.22288 52.6206L16.7026 60.2751L24.3102 71.0285C22.0852 73.5147 22.1286 77.436 24.4435 79.8649C25.4696 80.9405 26.7745 81.5483 28.1166 81.6895C28.0699 82.0084 28.0459 82.3323 28.0459 82.661C28.0459 84.3576 28.676 85.9528 29.8195 87.1522C30.9636 88.3524 32.4845 89.0132 34.102 89.0132C34.124 89.0132 34.1454 89.0118 34.1667 89.0111C34.166 89.0545 34.164 89.0972 34.164 89.1405C34.164 90.8372 34.7941 92.4324 35.9376 93.6325C37.0817 94.8319 38.6026 95.4928 40.2201 95.4928C40.5395 95.4928 40.8555 95.4656 41.1655 95.4152C41.2969 96.8279 41.8776 98.2029 42.9071 99.2827C44.0872 100.521 45.6381 101.14 47.1889 101.14C48.7398 101.14 50.2906 100.521 51.4714 99.2827L52.3976 98.3113L52.7863 98.64C53.9571 99.8296 55.4773 100.424 56.9974 100.424C58.5483 100.424 60.0992 99.8051 61.2793 98.5665C62.4841 97.3028 63.0742 95.6348 63.0495 93.9752C64.631 94.0004 66.2219 93.3822 67.4267 92.1191C68.6302 90.8561 69.2203 89.1895 69.1969 87.5306C70.8445 87.5579 72.4073 86.8942 73.5735 85.671C74.7783 84.4073 75.3683 82.7393 75.3437 81.0797C76.9265 81.1049 78.5161 80.4866 79.7209 79.2229C81.7771 77.0661 82.0418 73.7322 80.517 71.2712L86.0716 59.0687L94.4226 51.531C95.1127 50.9079 95.2181 49.828 94.6627 49.072ZM25.8904 32.6168L32.8139 37.2346L17.7527 56.4811L11.7173 51.0323L25.8904 32.6168ZM26.8671 73.4231L28.9567 71.2313C29.0201 71.1649 29.0867 71.1019 29.1547 71.0432C29.5635 70.6935 30.0582 70.4851 30.5823 70.4354C30.5969 70.434 30.6123 70.434 30.6269 70.4333C30.7016 70.427 30.7763 70.4228 30.8516 70.4235C31.5677 70.434 32.2331 70.741 32.7265 71.2872C33.6946 72.3608 33.6426 74.1148 32.6105 75.1974L30.5843 77.3227C29.5595 78.3976 27.8919 78.3976 26.8671 77.3227C25.8423 76.2471 25.8423 74.498 26.8671 73.4231ZM32.2431 84.6101C31.7464 84.0897 31.473 83.3974 31.473 82.661C31.473 81.9245 31.7464 81.2322 32.2431 80.7111L36.2949 76.4611C37.071 75.6471 38.2912 75.424 39.2833 75.9198C40.3061 76.431 40.8815 77.5955 40.7315 78.7669C40.6515 79.3921 40.3741 79.981 39.9487 80.4279L35.9609 84.6101C35.4642 85.1311 34.8041 85.4178 34.102 85.4178C33.3999 85.4178 32.7398 85.1311 32.2431 84.6101ZM38.3612 91.0897C37.8645 90.5693 37.5911 89.877 37.5911 89.1405C37.5911 88.4041 37.8645 87.7117 38.3612 87.1907L42.4124 82.9407C43.2425 82.0707 44.5739 81.8833 45.5901 82.5036C46.5182 83.0701 47.0042 84.1821 46.8449 85.2898C46.7575 85.899 46.4815 86.4718 46.0661 86.9075L42.079 91.0897C41.5823 91.6107 40.9222 91.8974 40.2201 91.8974C39.518 91.8974 38.8579 91.6107 38.3612 91.0897ZM45.33 96.7405C44.3052 95.6656 44.3052 93.9165 45.33 92.8415L47.4196 90.6498C47.483 90.5833 47.549 90.5211 47.617 90.4623C47.619 90.4609 47.6203 90.4595 47.6216 90.4581C47.9617 90.1686 48.3611 89.9749 48.7871 89.8902C48.7971 89.8888 48.8071 89.8874 48.8171 89.886C48.8905 89.8721 48.9651 89.8609 49.0398 89.8539C49.0698 89.8511 49.0998 89.8511 49.1305 89.849C49.1918 89.8455 49.2525 89.8413 49.3145 89.842C50.0299 89.8525 50.696 90.1588 51.1894 90.7057C51.2501 90.7728 51.3068 90.8428 51.3588 90.9148C52.1469 91.9953 52.0409 93.6004 51.0627 94.627L49.0472 96.7412C48.0224 97.8161 46.3548 97.8154 45.33 96.7405ZM77.2972 76.6807C76.2725 77.7563 74.6049 77.7556 73.5801 76.6807C73.5428 76.6416 73.5035 76.6052 73.4634 76.5709L62.4448 64.8916C61.7787 64.1859 60.6939 64.1803 60.0211 64.879C59.3484 65.577 59.3431 66.7148 60.0085 67.4205L71.1465 79.225C71.1478 79.2264 71.1492 79.2278 71.1505 79.2292C72.1753 80.3041 72.1753 82.0539 71.1505 83.1288C70.6538 83.6498 69.9937 83.9366 69.2916 83.9366C68.5889 83.9366 67.9288 83.6498 67.4327 83.1288L59.9818 75.2323C59.3164 74.5267 58.2316 74.5211 57.5589 75.2191C56.8861 75.9177 56.8808 77.0556 57.5462 77.7612L64.8831 85.5367C64.9204 85.5857 64.9604 85.6325 65.0031 85.6773C66.0279 86.7522 66.0279 88.502 65.0031 89.5769C63.9776 90.6519 62.3094 90.6512 61.2846 89.5762L57.2181 85.2661C56.5521 84.5604 55.4673 84.5541 54.7945 85.2528C54.1218 85.9507 54.1164 87.0886 54.7818 87.7943L58.735 91.9834C58.7723 92.0324 58.8123 92.0799 58.8557 92.1247C59.8805 93.1996 59.8805 94.9494 58.8557 96.0243C57.8309 97.1 56.1633 97.0993 55.1386 96.0243C55.0205 95.9006 54.8819 95.8054 54.7498 95.6991C54.6378 95.6096 54.6085 95.5474 54.6645 95.4047C54.7212 95.2599 54.8059 95.1292 54.8625 94.9837C54.9252 94.8214 54.9759 94.6543 55.0252 94.4864C55.2879 93.5983 55.3653 92.6429 55.2472 91.7212C55.0205 89.9525 54.0931 88.3565 52.6876 87.3467C51.9282 86.8019 51.0494 86.4445 50.1386 86.3102C50.58 84.2681 50.0499 82.0539 48.6711 80.5258C47.5363 79.2684 46.0035 78.5627 44.3546 78.5389C44.2946 78.5382 44.2346 78.5382 44.1739 78.5389C44.2106 76.8884 43.6385 75.2484 42.5537 74.0462C41.4182 72.7888 39.8854 72.0831 38.2372 72.0593C37.7471 72.0523 37.2524 72.1069 36.775 72.2223C36.571 70.7333 35.8556 69.3556 34.7721 68.3702C33.6953 67.3925 32.3411 66.8498 30.899 66.8288C29.3808 66.8057 27.8893 67.3932 26.7618 68.4611L20.1377 59.0988L35.9849 38.8481L41.0355 40.2972L34.4394 52.5059C33.642 53.9822 33.4406 55.6957 33.872 57.3308C34.3034 58.9666 35.3155 60.3276 36.723 61.164C36.811 61.2164 36.8997 61.2661 36.9897 61.3137C36.9964 61.3171 37.003 61.3206 37.0104 61.3241C37.2471 61.4479 37.4904 61.5542 37.7371 61.6437C38.8859 62.0613 40.1267 62.1067 41.3236 61.7598C42.8824 61.3074 44.1799 60.245 44.9773 58.7694L49.2638 50.8351L56.9174 51.4044L77.2979 72.7811C78.322 73.8567 78.322 75.6058 77.2972 76.6807ZM78.0073 68.4415L58.8883 48.3881C58.8523 48.3496 58.8143 48.3132 58.775 48.279C58.4996 48.0384 58.1583 47.8929 57.7982 47.8663L48.4271 47.1691C47.779 47.1222 47.1349 47.4838 46.8149 48.0761L41.9956 56.9972C41.6496 57.6378 41.0862 58.0987 40.4094 58.2952C39.7334 58.4917 39.0239 58.3994 38.4125 58.0364C37.8018 57.6735 37.3624 57.0825 37.1751 56.3727C36.9877 55.6628 37.075 54.9187 37.4217 54.2781L43.8552 42.3687L46.4622 41.5819C46.4795 41.5763 46.4962 41.5693 46.5135 41.5637L56.2434 38.6166H67.9995L82.6759 58.1861L78.0073 68.4415ZM84.9208 55.3649L71.3485 37.2577L78.2754 32.637L90.9576 49.9162L84.9208 55.3649Z" fill="#2F5ED1" stroke="white" stroke-width="1.6" mask="url(#path-1-inside-1_2603_2779)"/>
<path d="M61.4948 30.8425C61.2366 31.1134 60.903 31.2451 60.5722 31.2451C60.2422 31.2451 59.9085 31.1134 59.6502 30.8425C59.1281 30.2949 59.1281 29.4 59.6502 28.8523L71.3556 16.5744C71.8674 16.0375 72.6884 16.0375 73.2002 16.5744C73.7223 17.122 73.7223 18.0169 73.2002 18.5645L61.4948 30.8425Z" fill="#FFA200" stroke="white" stroke-width="0.8"/>
<path d="M42.0749 31.2451C41.7441 31.2451 41.4105 31.1134 41.1523 30.8425L29.4468 18.5645C28.9247 18.0169 28.9247 17.122 29.4468 16.5744C29.9587 16.0375 30.7796 16.0375 31.2914 16.5744L42.9969 28.8523C43.519 29.4 43.519 30.2949 42.9969 30.8425C42.7386 31.1134 42.4049 31.2451 42.0749 31.2451Z" fill="#FFA200" stroke="white" stroke-width="0.8"/>
<path d="M52.6365 29.8497C52.6365 30.6394 52.0303 31.2471 51.3229 31.2471C50.6155 31.2471 50.0094 30.6394 50.0094 29.8497V19.6887C50.0094 18.899 50.6155 18.2914 51.3229 18.2914C52.0303 18.2914 52.6365 18.899 52.6365 19.6887V29.8497Z" fill="#FFA200" stroke="white" stroke-width="0.8"/>
<path d="M50.1142 13.0269L50.1141 13.0267C49.8708 12.4089 50.0857 11.6768 50.6005 11.32L50.6006 11.32C51.0615 11.0003 51.6754 11.0198 52.1166 11.3723L52.1168 11.3725C52.5508 11.7187 52.7443 12.356 52.5715 12.9167C52.3992 13.4723 51.9152 13.8514 51.3857 13.8803L51.3856 13.8803C50.8532 13.9094 50.3272 13.5684 50.1142 13.0269Z" fill="#FFA200" stroke="white" stroke-width="0.8"/>
<path d="M17.4784 81.7604C17.4784 80.4234 15.0731 79.2535 11.5454 78.7521C11.2246 75.0753 10.1022 72.5684 8.81937 72.5684C7.53655 72.5684 6.41408 75.0753 5.93303 78.7521C2.40528 79.0864 0 80.2563 0 81.5933C0 82.9303 2.40528 84.1002 5.93303 84.6016C6.25373 88.2784 7.3762 90.7853 8.65902 90.7853C9.94183 90.7853 11.0643 88.2784 11.5454 84.6016C14.9127 84.1002 17.4784 83.0975 17.4784 81.7604Z" fill="#FFE48F"/>
<path d="M103.281 24.4675C103.281 23.1304 100.876 21.9605 97.3483 21.4591C97.0276 17.7823 95.9052 15.2754 94.6223 15.2754C93.3395 15.2754 92.2171 17.7823 91.736 21.4591C88.2083 21.7934 85.803 22.9633 85.803 24.3003C85.803 25.6373 88.2083 26.8072 91.736 27.3086C92.0567 30.9855 93.1792 33.4924 94.462 33.4924C95.7448 33.4924 96.8673 30.9855 97.3483 27.3086C100.716 26.8072 103.281 25.8045 103.281 24.4675Z" fill="#9FADF0"/>
<path d="M14.5868 6.16718C14.5868 5.27014 12.973 4.48522 10.6062 4.14883C10.391 1.68195 9.63791 0 8.77724 0C7.91656 0 7.16347 1.68195 6.84072 4.14883C4.47387 4.37309 2.86011 5.158 2.86011 6.05504C2.86011 6.95209 4.47387 7.737 6.84072 8.0734C7.05589 10.5403 7.80898 12.2222 8.66965 12.2222C9.53033 12.2222 10.2834 10.5403 10.6062 8.0734C12.8654 7.737 14.5868 7.06422 14.5868 6.16718Z" fill="#9FADF0"/>
<rect width="7.83184" height="7.83184" transform="matrix(0.781779 -0.623556 0.781779 0.623556 422.563 91.2012)" fill="#E02287" fill-opacity="0.6"/>
</svg>
