<svg width="327" height="109" viewBox="0 0 327 109" fill="none" xmlns="http://www.w3.org/2000/svg">
<path d="M86.4036 41.9749H52.6572V26.5058C52.6572 24.2301 53.5533 22.0956 55.1808 20.4961C56.8073 18.8973 58.9536 18.0501 61.2288 18.0836C65.7749 18.1699 69.4732 22.0288 69.4732 26.6855V27.9608C69.4732 32.3947 73.0736 36.0017 77.4989 36.0017C81.9244 36.0017 85.5246 32.3945 85.5246 27.9608V26.5058C85.5246 19.9246 82.9476 13.743 78.2684 9.10023C73.648 4.51564 67.5483 2 61.068 2C60.987 2 60.9054 2.00054 60.8242 2.00107C47.4703 2.1307 36.6056 13.2507 36.6056 26.7889V41.9749H35.7266C31.3646 41.9749 27.8154 45.5306 27.8154 49.901V85.7405C27.8156 90.111 31.3646 93.6667 35.7268 93.6667H86.4036C90.7657 93.6667 94.3148 90.111 94.3148 85.7405V49.901C94.3146 45.5306 90.7657 41.9749 86.4036 41.9749ZM41.1917 26.7889C41.1917 15.7597 50.0187 6.70096 60.8685 6.59551C60.9347 6.59497 61.0004 6.59461 61.0664 6.59461C66.3301 6.59461 71.2863 8.63939 75.0411 12.3648C78.844 16.138 80.9382 21.1599 80.9382 26.5056V27.9608C80.9382 29.8609 79.3951 31.4069 77.4986 31.4069C75.602 31.4069 74.059 29.8609 74.059 27.9608V26.6855C74.059 19.5427 68.3421 13.6232 61.3155 13.4897C57.7942 13.4218 54.481 14.7463 51.9686 17.2163C49.4553 19.6874 48.0709 22.9863 48.0709 26.5062V41.9751H41.1917V26.7889V26.7889ZM89.7285 85.7405C89.7285 87.5773 88.2369 89.0719 86.4035 89.0719H35.7268C33.8935 89.0719 32.4017 87.5775 32.4017 85.7405V49.901C32.4017 48.0643 33.8933 46.5697 35.7268 46.5697H86.4036C88.2369 46.5697 89.7287 48.0641 89.7287 49.901V85.7405H89.7285Z" fill="#2F5ED1" stroke="white" stroke-width="2.5"/>
<path d="M61.0647 51.0879C55.4171 51.0879 50.8223 55.6913 50.8223 61.3495C50.8223 64.2553 52.0608 67.0157 54.1855 68.9489V82.256C54.1855 83.5246 55.2122 84.5534 56.4786 84.5534H65.6508C66.9173 84.5534 67.9439 83.5246 67.9439 82.256V68.9489C70.0686 67.0157 71.3072 64.2553 71.3072 61.3495C71.307 55.6913 66.7123 51.0879 61.0647 51.0879ZM64.326 65.9778C63.7187 66.4086 63.3578 67.1077 63.3578 67.853V79.9586H58.7717V67.853C58.7717 67.1077 58.4107 66.4086 57.8035 65.9778C56.3038 64.9142 55.4086 63.1841 55.4086 61.3494C55.4086 58.2246 57.9459 55.6825 61.0649 55.6825C64.1839 55.6825 66.7212 58.2246 66.7212 61.3494C66.7209 63.184 65.8256 64.9142 64.326 65.9778Z" fill="#FFA200" stroke="white" stroke-width="2.5"/>
<path d="M102.18 40.7313L94.17 36.0982C93.0735 35.4639 91.6711 35.8402 91.0376 36.9391C90.4043 38.0381 90.7801 39.4428 91.877 40.0775L99.8866 44.7106C100.248 44.9193 100.642 45.0189 101.031 45.0189C101.824 45.0189 102.594 44.6067 103.019 43.8696C103.652 42.7707 103.276 41.3658 102.18 40.7313Z" fill="#FFA200" stroke="white" stroke-width="2.5"/>
<path d="M93.0249 31.1961C93.4138 31.1961 93.8082 31.0965 94.1693 30.8878L102.179 26.2549C103.276 25.6205 103.652 24.2155 103.018 23.1165C102.385 22.0176 100.983 21.6409 99.8859 22.2756L91.8762 26.9085C90.7794 27.5429 90.4036 28.9479 91.0369 30.0469C91.4617 30.7839 92.2324 31.1961 93.0249 31.1961Z" fill="#FFA200" stroke="white" stroke-width="2.5"/>
<path d="M18.2987 75.36C18.2987 74.023 15.7805 72.8531 12.0872 72.3517C11.7515 68.6749 10.5763 66.168 9.2333 66.168C7.89027 66.168 6.71512 68.6749 6.21149 72.3517C2.51817 72.686 0 73.8559 0 75.1929C0 76.5299 2.51817 77.6998 6.21149 78.2012C6.54724 81.878 7.72239 84.385 9.06542 84.385C10.4084 84.385 11.5836 81.878 12.0872 78.2012C15.6127 77.6998 18.2987 76.6971 18.2987 75.36Z" fill="#FFE48F"/>
<path d="M108.032 99.0397C108.032 97.7027 105.514 96.5328 101.821 96.0314C101.485 92.3546 100.31 89.8477 98.9669 89.8477C97.6239 89.8477 96.4488 92.3546 95.9451 96.0314C92.2518 96.3657 89.7336 97.5356 89.7336 98.8726C89.7336 100.21 92.2518 101.38 95.9451 101.881C96.2809 105.558 97.456 108.065 98.7991 108.065C100.142 108.065 101.317 105.558 101.821 101.881C105.346 101.38 108.032 100.377 108.032 99.0397Z" fill="#9FADF0"/>
<path d="M123.303 28.0305C123.303 27.1334 121.614 26.3485 119.136 26.0121C118.91 23.5452 118.122 21.8633 117.221 21.8633C116.32 21.8633 115.531 23.5452 115.194 26.0121C112.716 26.2364 111.026 27.0213 111.026 27.9183C111.026 28.8154 112.716 29.6003 115.194 29.9367C115.419 32.4035 116.207 34.0855 117.108 34.0855C118.009 34.0855 118.798 32.4035 119.136 29.9367C121.501 29.6003 123.303 28.9275 123.303 28.0305Z" fill="#9FADF0"/>
</svg>
