<svg width="335" height="304" viewBox="0 0 335 304" fill="none" xmlns="http://www.w3.org/2000/svg">
<path fill-rule="evenodd" clip-rule="evenodd" d="M236.571 273.333C227.99 274.694 219.16 275.689 210.748 277.738C200.169 280.333 190.955 284.274 179.498 284.921C171.831 285.321 163.953 284.277 156.225 284.003C147.821 283.722 139.248 283.668 130.834 282.97C130.287 282.897 129.829 282.92 129.282 282.848C126.637 282.58 124.1 282.328 121.455 282.06C120.907 281.988 120.47 281.93 119.923 281.857C119.376 281.785 118.938 281.727 118.391 281.655C117.844 281.582 117.297 281.51 116.75 281.437C84.7809 277.285 52.1506 268.467 29.5053 250.731C26.1906 248.127 22.9551 245.201 21.6484 241.781C20.5512 238.888 20.866 235.766 20.7233 232.666C20.5702 229.149 19.4428 225.92 16.3865 223.184C12.1955 219.548 10.274 217.711 14.1078 213.141C26.0061 198.732 44.661 187.632 65.3092 180.377C94.1094 170.289 127.174 166.76 158.85 167.043C176.542 167.222 194.137 168.72 211.376 171.67C215.494 172.382 219.592 173.175 223.671 174.048C227.531 174.893 231.291 176.14 235.25 176.581C245.157 177.644 255.324 180.406 264.328 183.764C270.228 185.961 279.281 188.658 280.769 194.101C281.248 195.829 281.877 197.411 283.052 199.065C284.726 201.452 288.277 202.172 290.825 203.758C293.661 205.549 296.05 207.781 297.704 210.248C300.105 213.813 300.925 217.834 300.85 221.821C300.897 228.071 299.85 235.093 296.306 240.784C292.742 246.556 287.308 251.664 281.047 255.996C270.026 263.611 256.975 269.375 242.388 272.189C240.569 272.697 238.57 273.015 236.571 273.333Z" fill="#F1F3F7"/>
<path fill-rule="evenodd" clip-rule="evenodd" d="M297.703 237.295C305.777 222.717 308.883 205.582 307.516 188.958C306.771 180.262 304.783 171.439 301.429 163.51C298.199 155.966 293.852 148.933 294.224 140.365C294.597 131.925 299.442 123.485 296.833 115.557C291.988 100.851 270.249 100.467 258.696 94.713C242.174 86.6568 238.323 70.4165 229.628 55.5829C220.932 40.7493 207.764 28.4732 191.988 22.5909C176.211 16.7085 157.826 17.4758 143.167 25.9156C135.962 30.1355 131.366 35.2506 127.764 42.7953C125.031 48.5497 122.298 54.6878 117.205 58.1404C110.869 62.6161 102.919 61.2095 95.7138 61.8488C79.3161 63.2555 62.9185 69.2657 50.6203 80.6466C44.6576 86.1453 39.937 92.9228 36.7072 100.467C33.6016 107.884 31.9867 116.324 27.2661 123.102C22.6698 129.495 15.4648 133.46 11.117 140.109C5.52689 148.805 10.2474 158.267 9.00518 167.73C7.01759 182.82 -5.03218 203.791 5.40266 218.114C9.62629 223.868 15.7133 223.356 22.0487 223.229C30.3718 223.229 39.3159 222.589 47.2663 219.904C54.0986 217.602 60.8067 214.789 68.0117 214.533C73.3534 214.277 78.695 213.894 84.0367 213.766C87.5149 213.766 90.9932 214.789 94.4715 215.045C101.677 215.812 109.006 216.579 116.211 217.346C132.36 219.137 148.385 220.799 164.534 222.589C195.217 225.914 225.901 229.239 256.708 232.564C266.646 233.587 276.584 234.737 286.522 235.76C287.392 236.144 297.33 237.934 297.703 237.295Z" fill="#F1F3F7"/>
<path d="M186.105 247.67C186.105 257.486 207.187 265.418 233.1 265.418C259.013 265.418 280.095 257.486 280.095 247.67C280.095 237.855 259.013 229.922 233.1 229.922C207.187 229.922 186.105 237.855 186.105 247.67Z" fill="white"/>
<path d="M186.105 247.67C186.105 257.486 207.187 265.418 233.1 265.418C259.013 265.418 280.095 257.486 280.095 247.67C280.095 237.855 259.013 229.922 233.1 229.922C207.187 229.922 186.105 237.855 186.105 247.67Z" fill="white"/>
<path opacity="0.9" d="M233.1 266.762C205.043 266.762 182.298 258.214 182.298 247.669C182.298 237.124 205.043 228.576 233.1 228.576C261.157 228.576 283.901 237.124 283.901 247.669C283.901 258.214 261.157 266.762 233.1 266.762Z" fill="white"/>
<path d="M280.973 231.939C280.68 221.585 271.457 213.249 260.038 213.249C248.765 213.249 239.395 221.585 239.102 231.939C239.102 232.073 239.102 232.342 239.102 232.476C239.102 232.611 239.102 232.88 239.102 233.014C239.395 235.703 241.444 238.258 245.251 240.275C253.449 244.577 266.626 244.577 274.824 240.275C278.631 238.258 280.68 235.569 280.973 233.014C280.973 232.88 280.973 232.611 280.973 232.476C280.973 232.342 280.973 232.073 280.973 231.939Z" fill="white"/>
<path opacity="0.8" d="M280.973 231.939C280.68 221.585 271.457 213.249 260.038 213.249C248.765 213.249 239.395 221.585 239.102 231.939C239.102 232.073 239.102 232.342 239.102 232.476C239.102 232.611 239.102 232.88 239.102 233.014C239.395 235.703 241.444 238.258 245.251 240.275C253.449 244.577 266.626 244.577 274.824 240.275C278.631 238.258 280.68 235.569 280.973 233.014C280.973 232.88 280.973 232.611 280.973 232.476C280.973 232.342 280.973 232.073 280.973 231.939Z" fill="white"/>
<path opacity="0.3" d="M269.114 215.268C266.332 214.058 263.258 213.385 260.037 213.385C248.764 213.385 239.394 221.722 239.102 232.075C239.102 232.209 239.102 232.478 239.102 232.613C239.102 232.747 239.102 233.016 239.102 233.15C239.394 235.84 241.444 238.394 245.25 240.411C248.178 242.025 251.839 242.966 255.791 243.369C250.374 242.562 246.861 236.915 248.471 230.865C250.374 223.604 258.28 213.385 269.114 215.268Z" fill="white"/>
<path opacity="0.1" d="M280.973 233.017C280.973 232.882 280.973 232.613 280.973 232.479C280.973 232.344 280.973 232.075 280.973 231.941C280.826 226.428 278.045 221.453 273.946 218.092C276.142 220.243 281.266 228.311 275.849 234.496C272.189 238.529 255.06 244.311 241.005 236.916C242.03 238.126 243.494 239.336 245.397 240.412C253.596 244.714 266.772 244.714 274.97 240.412C278.63 238.26 280.68 235.706 280.973 233.017Z" fill="white"/>
<path opacity="0.5" d="M259.891 217.686C260.769 219.703 259.012 222.258 255.938 223.468C252.717 224.678 249.496 224.14 248.471 222.258C247.593 220.241 249.35 217.686 252.424 216.476C255.645 215.132 258.866 215.669 259.891 217.686Z" fill="white"/>
<path opacity="0.5" d="M247.739 225.62C248.178 226.696 247.446 227.906 246.129 228.444C244.811 228.982 243.347 228.578 242.761 227.637C242.322 226.561 243.054 225.351 244.372 224.814C245.836 224.141 247.3 224.545 247.739 225.62Z" fill="white"/>
<path d="M193.717 231.671C194.01 222.931 201.769 215.805 211.432 215.805C221.095 215.805 228.854 222.797 229.147 231.671C229.147 231.806 229.147 231.94 229.147 232.074C229.147 232.209 229.147 232.343 229.147 232.478C229 234.764 227.243 236.915 224.023 238.663C217.142 242.293 205.869 242.293 198.988 238.663C195.767 236.915 194.01 234.764 193.864 232.478C193.864 232.343 193.864 232.209 193.864 232.074C193.571 231.94 193.571 231.806 193.717 231.671Z" fill="white"/>
<path opacity="0.8" d="M193.717 231.671C194.01 222.931 201.769 215.805 211.432 215.805C221.095 215.805 228.854 222.797 229.147 231.671C229.147 231.806 229.147 231.94 229.147 232.074C229.147 232.209 229.147 232.343 229.147 232.478C229 234.764 227.243 236.915 224.023 238.663C217.142 242.293 205.869 242.293 198.988 238.663C195.767 236.915 194.01 234.764 193.864 232.478C193.864 232.343 193.864 232.209 193.864 232.074C193.571 231.94 193.571 231.806 193.717 231.671Z" fill="white"/>
<path opacity="0.3" d="M203.673 217.419C206.015 216.343 208.65 215.805 211.432 215.805C221.095 215.805 228.854 222.797 229.147 231.671C229.147 231.806 229.147 231.94 229.147 232.074C229.147 232.209 229.147 232.343 229.147 232.478C229 234.764 227.243 236.915 224.023 238.663C221.534 240.007 218.459 240.814 215.092 241.218C219.631 240.545 222.705 235.839 221.241 230.595C219.484 224.679 212.896 215.94 203.673 217.419Z" fill="white"/>
<path opacity="0.1" d="M193.717 232.611C193.717 232.476 193.717 232.342 193.717 232.207C193.717 232.073 193.717 231.938 193.717 231.804C193.864 227.098 196.206 222.93 199.72 219.972C197.817 221.854 193.571 228.711 198.109 233.821C201.184 237.317 215.678 242.157 227.683 235.838C226.804 236.913 225.633 237.854 223.876 238.796C216.995 242.426 205.722 242.426 198.841 238.796C195.62 237.048 193.864 234.762 193.717 232.611Z" fill="white"/>
<path opacity="0.5" d="M211.579 219.436C210.847 221.05 212.311 223.335 214.946 224.411C217.581 225.487 220.363 225.083 221.241 223.335C221.973 221.722 220.509 219.436 217.874 218.36C215.092 217.419 212.311 217.823 211.579 219.436Z" fill="white"/>
<path opacity="0.5" d="M221.827 226.296C221.387 227.102 221.973 228.178 223.144 228.716C224.316 229.119 225.633 228.85 225.926 228.043C226.365 227.237 225.78 226.161 224.608 225.623C223.584 225.085 222.266 225.354 221.827 226.296Z" fill="white"/>
<path d="M176.296 233.553C176.443 227.771 181.713 223.065 188.009 223.065C194.304 223.065 199.574 227.771 199.721 233.553C199.721 233.688 199.721 233.688 199.721 233.822C199.721 233.956 199.721 233.956 199.721 234.091C199.574 235.57 198.403 237.049 196.353 238.125C191.815 240.545 184.348 240.545 179.81 238.125C177.614 236.915 176.589 235.57 176.443 234.091C176.443 233.956 176.443 233.956 176.443 233.822C176.296 233.688 176.296 233.688 176.296 233.553Z" fill="white"/>
<path opacity="0.9" d="M176.296 233.553C176.443 227.771 181.713 223.065 188.009 223.065C194.304 223.065 199.574 227.771 199.721 233.553C199.721 233.688 199.721 233.688 199.721 233.822C199.721 233.956 199.721 233.956 199.721 234.091C199.574 235.57 198.403 237.049 196.353 238.125C191.815 240.545 184.348 240.545 179.81 238.125C177.614 236.915 176.589 235.57 176.443 234.091C176.443 233.956 176.443 233.956 176.443 233.822C176.296 233.688 176.296 233.688 176.296 233.553Z" fill="white"/>
<path opacity="0.5" d="M183.03 224.141C184.641 223.468 186.251 223.065 188.154 223.065C194.45 223.065 199.72 227.771 199.866 233.553C199.866 233.687 199.866 233.687 199.866 233.821C199.866 233.956 199.866 233.956 199.866 234.09C199.72 235.569 198.549 237.048 196.499 238.124C194.889 239.065 192.839 239.603 190.643 239.872C193.718 239.334 195.621 236.242 194.742 232.88C193.425 228.847 189.033 223.065 183.03 224.141Z" fill="white"/>
<path opacity="0.1" d="M176.296 234.093C176.296 233.959 176.296 233.959 176.296 233.824C176.296 233.69 176.296 233.69 176.296 233.555C176.443 230.463 177.907 227.639 180.249 225.757C178.932 226.967 176.15 231.538 179.224 234.9C181.274 237.186 190.79 240.413 198.842 236.244C198.257 236.917 197.378 237.589 196.353 238.127C191.815 240.547 184.348 240.547 179.81 238.127C177.614 237.051 176.443 235.572 176.296 234.093Z" fill="white"/>
<path opacity="0.5" d="M188.154 225.486C187.569 226.562 188.594 228.041 190.351 228.713C192.107 229.385 194.011 229.116 194.45 228.041C195.035 226.965 194.011 225.486 192.254 224.814C190.497 224.142 188.74 224.41 188.154 225.486Z" fill="white"/>
<path opacity="0.5" d="M195.035 229.922C194.742 230.46 195.181 231.267 195.913 231.536C196.646 231.805 197.524 231.67 197.817 230.998C198.11 230.46 197.67 229.653 196.938 229.384C196.06 229.115 195.181 229.384 195.035 229.922Z" fill="white"/>
<path d="M151.407 238.258C151.7 230.325 158.727 224.005 167.365 224.005C176.003 224.005 183.03 230.325 183.323 238.258C183.323 238.392 183.323 238.527 183.323 238.661C183.323 238.796 183.323 238.93 183.323 239.065C183.176 241.081 181.566 243.098 178.638 244.577C172.489 247.939 162.387 247.939 156.092 244.577C153.164 242.964 151.553 241.081 151.407 239.065C151.407 238.93 151.407 238.796 151.407 238.661C151.407 238.527 151.407 238.392 151.407 238.258Z" fill="white"/>
<path opacity="0.7" d="M151.407 238.258C151.7 230.325 158.727 224.005 167.365 224.005C176.003 224.005 183.03 230.325 183.323 238.258C183.323 238.392 183.323 238.527 183.323 238.661C183.323 238.796 183.323 238.93 183.323 239.065C183.176 241.081 181.566 243.098 178.638 244.577C172.489 247.939 162.387 247.939 156.092 244.577C153.164 242.964 151.553 241.081 151.407 239.065C151.407 238.93 151.407 238.796 151.407 238.661C151.407 238.527 151.407 238.392 151.407 238.258Z" fill="white"/>
<path opacity="0.3" d="M160.338 225.484C162.388 224.543 164.73 224.005 167.219 224.005C175.857 224.005 182.884 230.325 183.177 238.258C183.177 238.392 183.177 238.527 183.177 238.661C183.177 238.796 183.177 238.93 183.177 239.065C183.031 241.081 181.42 243.098 178.492 244.577C176.15 245.787 173.368 246.594 170.44 246.863C174.539 246.191 177.321 242.023 176.003 237.317C174.686 231.938 168.683 224.005 160.338 225.484Z" fill="white"/>
<path opacity="0.1" d="M151.407 239.068C151.407 238.933 151.407 238.799 151.407 238.664C151.407 238.53 151.407 238.395 151.407 238.261C151.553 234.093 153.603 230.328 156.824 227.639C155.067 229.252 151.261 235.437 155.36 240.143C158.141 243.236 171.171 247.673 181.859 242.026C181.127 242.967 179.955 243.908 178.491 244.715C172.342 248.076 162.241 248.076 155.945 244.715C153.164 243.101 151.553 241.084 151.407 239.068Z" fill="white"/>
<path opacity="0.5" d="M167.511 227.233C166.779 228.712 168.097 230.729 170.586 231.67C172.928 232.611 175.563 232.208 176.295 230.729C177.027 229.25 175.71 227.233 173.221 226.292C170.732 225.351 168.097 225.754 167.511 227.233Z" fill="white"/>
<path opacity="0.5" d="M176.734 233.418C176.295 234.225 176.881 235.166 177.906 235.569C178.93 235.973 180.102 235.704 180.394 234.897C180.834 234.09 180.248 233.149 179.223 232.746C178.198 232.342 177.027 232.611 176.734 233.418Z" fill="white"/>
<path d="M214.067 182.458C214.067 187.837 216.702 192.543 220.801 195.77C223.583 197.921 225.34 201.013 225.34 204.375V246.325C225.34 247.401 226.072 248.477 227.682 249.284C228.561 249.687 229.586 250.09 230.61 250.225C232.367 250.494 234.27 250.494 235.881 250.225C236.906 249.956 237.93 249.687 238.809 249.284C240.273 248.477 241.151 247.401 241.151 246.325V204.375C241.151 201.013 242.908 197.921 245.69 195.77C249.789 192.543 252.424 187.702 252.424 182.324C252.278 173.181 244.372 165.517 234.417 164.979C223.144 164.441 214.067 172.509 214.067 182.458Z" fill="white"/>
<path opacity="0.5" d="M214.067 182.458C214.067 187.837 216.702 192.543 220.801 195.77C223.583 197.921 225.34 201.013 225.34 204.375V246.325C225.34 247.401 226.072 248.477 227.682 249.284C228.561 249.687 229.586 250.09 230.61 250.225C232.367 250.494 234.27 250.494 235.881 250.225C236.906 249.956 237.93 249.687 238.809 249.284C240.273 248.477 241.151 247.401 241.151 246.325V204.375C241.151 201.013 242.908 197.921 245.69 195.77C249.789 192.543 252.424 187.702 252.424 182.324C252.278 173.181 244.372 165.517 234.417 164.979C223.144 164.441 214.067 172.509 214.067 182.458Z" fill="white"/>
<path d="M222.412 182.461C222.412 185.688 224.168 188.646 226.95 190.394C229.146 191.873 230.464 194.293 230.464 196.847V247.403C230.464 248.748 231.635 249.958 233.099 249.958C234.563 249.958 235.734 248.748 235.734 247.403V196.847C235.734 194.293 237.052 191.873 239.248 190.528C242.03 188.78 243.786 185.688 243.786 182.326C243.64 177.217 239.101 173.049 233.538 172.78C227.389 172.511 222.412 176.948 222.412 182.461Z" fill="white"/>
<path opacity="0.7" d="M222.412 182.461C222.412 185.688 224.168 188.646 226.95 190.394C229.146 191.873 230.464 194.293 230.464 196.847V247.403C230.464 248.748 231.635 249.958 233.099 249.958C234.563 249.958 235.734 248.748 235.734 247.403V196.847C235.734 194.293 237.052 191.873 239.248 190.528C242.03 188.78 243.786 185.688 243.786 182.326C243.64 177.217 239.101 173.049 233.538 172.78C227.389 172.511 222.412 176.948 222.412 182.461Z" fill="#FFE175"/>
<path opacity="0.8" d="M223.437 194.695C221.173 194.695 219.338 193.009 219.338 190.93C219.338 188.851 221.173 187.165 223.437 187.165C225.701 187.165 227.536 188.851 227.536 190.93C227.536 193.009 225.701 194.695 223.437 194.695Z" fill="white"/>
<path opacity="0.7" d="M228.121 179.905C228.121 178.426 226.803 177.082 225.047 177.082C223.436 177.082 221.972 178.292 221.972 179.905C221.972 181.384 223.29 182.729 225.047 182.729C226.803 182.729 228.121 181.384 228.121 179.905Z" fill="white"/>
<path opacity="0.8" d="M233.977 175.465C233.977 174.658 233.245 174.12 232.513 174.12C231.635 174.12 231.049 174.792 231.049 175.465C231.049 176.271 231.781 176.809 232.513 176.809C233.245 176.809 233.977 176.271 233.977 175.465Z" fill="white"/>
<path opacity="0.7" d="M245.983 177.081C245.983 175.064 244.226 173.316 241.883 173.316C239.687 173.316 237.784 174.929 237.784 177.081C237.784 179.232 239.541 180.846 241.883 180.846C244.079 180.846 245.983 179.232 245.983 177.081Z" fill="white"/>
<path opacity="0.8" d="M246.568 183.939C246.568 184.88 245.69 185.687 244.665 185.687C243.64 185.687 242.762 184.88 242.762 183.939C242.762 182.998 243.64 182.191 244.665 182.191C245.836 182.056 246.568 182.863 246.568 183.939Z" fill="white"/>
<path opacity="0.7" d="M246.421 190.526C246.421 188.644 244.811 187.165 242.761 187.165C240.712 187.165 239.101 188.644 239.101 190.526C239.101 192.409 240.712 193.888 242.761 193.888C244.811 194.022 246.421 192.543 246.421 190.526Z" fill="white"/>
<path opacity="0.7" d="M237.199 195.635C237.199 194.29 236.028 193.349 234.71 193.349C233.246 193.349 232.221 194.425 232.221 195.635C232.221 196.979 233.392 197.921 234.71 197.921C236.028 197.921 237.199 196.845 237.199 195.635Z" fill="white"/>
<path opacity="0.7" d="M250.229 179.903C250.229 179.231 249.643 178.693 248.911 178.693C248.179 178.693 247.593 179.231 247.593 179.903C247.593 180.575 248.179 181.113 248.911 181.113C249.643 181.113 250.229 180.575 250.229 179.903Z" fill="white"/>
<path opacity="0.8" d="M221.826 174.929C221.826 174.123 221.094 173.316 220.07 173.316C219.191 173.316 218.313 173.988 218.313 174.929C218.313 175.736 219.045 176.543 220.07 176.543C221.094 176.543 221.826 175.871 221.826 174.929Z" fill="white"/>
<path opacity="0.7" d="M220.216 182.726C220.216 181.785 219.484 181.113 218.459 181.113C217.434 181.113 216.702 181.785 216.702 182.726C216.702 183.667 217.434 184.34 218.459 184.34C219.337 184.205 220.216 183.533 220.216 182.726Z" fill="white"/>
<path opacity="0.8" d="M236.321 184.208C236.321 183.267 235.589 182.595 234.564 182.595C233.539 182.595 232.807 183.267 232.807 184.208C232.807 185.149 233.539 185.822 234.564 185.822C235.589 185.822 236.321 185.149 236.321 184.208Z" fill="white"/>
<path d="M133.4 240.811C133.546 235.971 137.792 232.071 143.062 232.071C148.333 232.071 152.578 235.971 152.725 240.811C152.725 240.945 152.725 240.945 152.725 241.08C152.725 241.214 152.725 241.214 152.725 241.349C152.578 242.559 151.7 243.769 149.943 244.71C146.137 246.727 139.988 246.727 136.181 244.71C134.425 243.769 133.4 242.559 133.4 241.349C133.4 241.214 133.4 241.214 133.4 241.08C133.4 240.945 133.4 240.811 133.4 240.811Z" fill="#FBFBFB"/>
<path opacity="0.5" d="M133.4 240.811C133.546 235.971 137.792 232.071 143.062 232.071C148.333 232.071 152.578 235.971 152.725 240.811C152.725 240.945 152.725 240.945 152.725 241.08C152.725 241.214 152.725 241.214 152.725 241.349C152.578 242.559 151.7 243.769 149.943 244.71C146.137 246.727 139.988 246.727 136.181 244.71C134.425 243.769 133.4 242.559 133.4 241.349C133.4 241.214 133.4 241.214 133.4 241.08C133.4 240.945 133.4 240.811 133.4 240.811Z" fill="#FBFBFB"/>
<path opacity="0.5" d="M138.817 233.012C140.134 232.475 141.452 232.071 143.062 232.071C148.333 232.071 152.578 235.971 152.725 240.811C152.725 240.945 152.725 240.945 152.725 241.08C152.725 241.214 152.725 241.214 152.725 241.349C152.578 242.559 151.7 243.769 149.943 244.71C148.626 245.383 146.869 245.92 145.112 246.055C147.601 245.651 149.211 243.097 148.479 240.273C147.601 236.912 143.941 232.071 138.817 233.012Z" fill="#FBFBFB"/>
<path opacity="0.2" d="M133.4 241.211C133.4 241.077 133.4 241.077 133.4 240.942C133.4 240.808 133.4 240.808 133.4 240.673C133.4 238.118 134.718 235.833 136.767 234.219C135.742 235.16 133.4 238.925 135.889 241.883C137.499 243.766 145.551 246.455 152.139 242.959C151.7 243.497 150.968 244.035 150.09 244.572C146.283 246.589 140.134 246.589 136.328 244.572C134.425 243.631 133.546 242.421 133.4 241.211Z" fill="#FBFBFB"/>
<path opacity="0.5" d="M143.208 234.087C142.769 235.028 143.648 236.238 145.112 236.776C146.576 237.314 148.186 237.045 148.479 236.238C148.918 235.297 148.04 234.087 146.576 233.549C145.112 232.876 143.648 233.145 143.208 234.087Z" fill="#FBFBFB"/>
<path opacity="0.5" d="M148.772 237.852C148.479 238.39 148.919 238.927 149.504 239.196C150.09 239.465 150.822 239.331 151.115 238.793C151.407 238.255 150.968 237.717 150.383 237.448C149.797 237.18 149.065 237.314 148.772 237.852Z" fill="#FBFBFB"/>
<path d="M147.894 248.073C148.04 241.485 154.043 236.106 161.216 236.106C168.537 236.106 174.393 241.485 174.539 248.073C174.539 248.208 174.539 248.342 174.539 248.476C174.539 248.611 174.539 248.745 174.539 248.88C174.393 250.628 173.075 252.241 170.586 253.586C165.316 256.409 156.824 256.409 151.7 253.586C149.211 252.241 147.894 250.628 147.747 248.88C147.747 248.745 147.747 248.611 147.747 248.476C147.894 248.342 147.894 248.208 147.894 248.073Z" fill="#FBFBFB"/>
<path opacity="0.6" d="M147.894 248.073C148.04 241.485 154.043 236.106 161.216 236.106C168.537 236.106 174.393 241.485 174.539 248.073C174.539 248.208 174.539 248.342 174.539 248.476C174.539 248.611 174.539 248.745 174.539 248.88C174.393 250.628 173.075 252.241 170.586 253.586C165.316 256.409 156.824 256.409 151.7 253.586C149.211 252.241 147.894 250.628 147.747 248.88C147.747 248.745 147.747 248.611 147.747 248.476C147.894 248.342 147.894 248.208 147.894 248.073Z" fill="#FBFBFB"/>
<path opacity="0.5" d="M155.506 237.317C157.263 236.51 159.166 236.107 161.362 236.107C168.682 236.107 174.538 241.485 174.685 248.074C174.685 248.208 174.685 248.343 174.685 248.477C174.685 248.611 174.685 248.746 174.685 248.88C174.538 250.628 173.221 252.242 170.732 253.586C168.829 254.662 166.486 255.2 163.997 255.469C167.511 254.931 169.707 251.301 168.682 247.401C167.511 242.83 162.387 236.241 155.506 237.317Z" fill="#FBFBFB"/>
<path opacity="0.1" d="M147.893 248.744C147.893 248.61 147.893 248.475 147.893 248.341C147.893 248.207 147.893 248.072 147.893 247.938C148.04 244.442 149.796 241.215 152.432 239.063C150.968 240.408 147.747 245.652 151.261 249.551C153.603 252.106 164.583 255.871 173.514 251.03C172.928 251.837 171.903 252.644 170.732 253.181C165.462 256.005 156.97 256.005 151.846 253.181C149.357 252.106 148.04 250.492 147.893 248.744Z" fill="#FBFBFB"/>
<path opacity="0.3" d="M161.362 238.931C160.777 240.141 161.948 241.889 163.997 242.696C166.047 243.503 168.097 243.099 168.682 241.889C169.268 240.679 168.097 238.931 166.047 238.124C164.144 237.318 162.094 237.721 161.362 238.931Z" fill="#FBFBFB"/>
<path opacity="0.3" d="M169.122 244.042C168.829 244.715 169.268 245.521 170.146 245.925C171.025 246.328 171.903 246.059 172.343 245.387C172.635 244.715 172.196 243.908 171.318 243.504C170.439 243.101 169.414 243.37 169.122 244.042Z" fill="#FBFBFB"/>
<path d="M171.611 254.121C171.903 245.919 179.223 239.331 188.154 239.331C197.085 239.331 204.551 245.919 204.698 254.121C204.698 254.256 204.698 254.39 204.698 254.525C204.698 254.659 204.698 254.794 204.698 254.928C204.551 257.079 202.941 259.096 199.866 260.71C193.425 264.206 182.884 264.206 176.442 260.71C173.367 259.096 171.757 257.079 171.611 254.928C171.611 254.794 171.611 254.659 171.611 254.525C171.611 254.39 171.611 254.256 171.611 254.121Z" fill="#FBFBFB"/>
<path opacity="0.8" d="M171.611 254.121C171.903 245.919 179.223 239.331 188.154 239.331C197.085 239.331 204.551 245.919 204.698 254.121C204.698 254.256 204.698 254.39 204.698 254.525C204.698 254.659 204.698 254.794 204.698 254.928C204.551 257.079 202.941 259.096 199.866 260.71C193.425 264.206 182.884 264.206 176.442 260.71C173.367 259.096 171.757 257.079 171.611 254.928C171.611 254.794 171.611 254.659 171.611 254.525C171.611 254.39 171.611 254.256 171.611 254.121Z" fill="#FBFBFB"/>
<path opacity="0.3" d="M180.98 240.81C183.176 239.869 185.665 239.331 188.154 239.331C197.085 239.331 204.551 245.919 204.698 254.121C204.698 254.256 204.698 254.39 204.698 254.525C204.698 254.659 204.698 254.794 204.698 254.928C204.551 257.079 202.941 259.096 199.866 260.71C197.524 261.92 194.596 262.727 191.521 263.13C195.767 262.458 198.549 258.021 197.231 253.18C195.913 247.533 189.618 239.331 180.98 240.81Z" fill="#FBFBFB"/>
<path opacity="0.1" d="M171.611 254.929C171.611 254.794 171.611 254.66 171.611 254.526C171.611 254.391 171.611 254.257 171.611 254.122C171.757 249.685 173.953 245.786 177.174 243.097C175.417 244.845 171.318 251.164 175.71 256.139C178.638 259.366 192.253 263.937 203.38 258.021C202.501 258.963 201.33 259.904 199.866 260.711C193.425 264.206 182.884 264.206 176.442 260.711C173.514 259.097 171.757 257.08 171.611 254.929Z" fill="#FBFBFB"/>
<path opacity="0.3" d="M188.447 242.693C187.715 244.306 189.179 246.323 191.668 247.399C194.157 248.475 196.792 247.937 197.524 246.458C198.256 244.844 196.792 242.827 194.303 241.752C191.814 240.676 189.179 241.079 188.447 242.693Z" fill="#FBFBFB"/>
<path opacity="0.3" d="M197.963 249.014C197.524 249.821 198.109 250.897 199.28 251.3C200.305 251.703 201.476 251.435 201.916 250.628C202.355 249.821 201.769 248.745 200.598 248.342C199.573 247.939 198.402 248.208 197.963 249.014Z" fill="#FBFBFB"/>
<path d="M231.05 251.028C231.196 244.171 237.345 238.658 244.958 238.658C252.425 238.658 258.574 244.171 258.866 251.028C258.866 251.163 258.866 251.297 258.866 251.432C258.866 251.566 258.866 251.701 258.866 251.835C258.72 253.583 257.402 255.331 254.767 256.675C249.35 259.499 240.566 259.499 235.149 256.675C232.66 255.331 231.196 253.583 231.05 251.835C231.05 251.701 231.05 251.566 231.05 251.432C231.05 251.297 231.05 251.163 231.05 251.028Z" fill="#FBFBFB"/>
<path opacity="0.8" d="M231.05 251.028C231.196 244.171 237.345 238.658 244.958 238.658C252.425 238.658 258.574 244.171 258.866 251.028C258.866 251.163 258.866 251.297 258.866 251.432C258.866 251.566 258.866 251.701 258.866 251.835C258.72 253.583 257.402 255.331 254.767 256.675C249.35 259.499 240.566 259.499 235.149 256.675C232.66 255.331 231.196 253.583 231.05 251.835C231.05 251.701 231.05 251.566 231.05 251.432C231.05 251.297 231.05 251.163 231.05 251.028Z" fill="#FBFBFB"/>
<path opacity="0.3" d="M238.809 240.003C240.565 239.196 242.615 238.792 244.811 238.792C252.278 238.792 258.426 244.305 258.719 251.163C258.719 251.297 258.719 251.431 258.719 251.566C258.719 251.7 258.719 251.835 258.719 251.969C258.573 253.717 257.255 255.465 254.62 256.81C252.57 257.885 250.228 258.558 247.593 258.827C251.253 258.289 253.595 254.524 252.424 250.49C251.253 245.515 246.129 238.792 238.809 240.003Z" fill="#FBFBFB"/>
<path opacity="0.1" d="M231.05 251.836C231.05 251.702 231.05 251.567 231.05 251.433C231.05 251.298 231.05 251.164 231.05 251.029C231.196 247.399 232.953 244.038 235.734 241.752C234.27 243.231 230.903 248.609 234.563 252.643C236.906 255.332 248.325 259.231 257.695 254.256C256.963 255.063 256.084 255.87 254.767 256.542C249.35 259.366 240.566 259.366 235.149 256.542C232.514 255.332 231.196 253.584 231.05 251.836Z" fill="#FBFBFB"/>
<path opacity="0.3" d="M245.104 241.616C244.519 242.96 245.69 244.708 247.74 245.515C249.789 246.322 251.985 246.053 252.717 244.708C253.303 243.364 252.132 241.616 250.082 240.809C247.886 239.868 245.69 240.271 245.104 241.616Z" fill="#FBFBFB"/>
<path opacity="0.3" d="M253.157 246.86C252.864 247.532 253.303 248.339 254.181 248.743C255.06 249.146 256.085 248.877 256.377 248.205C256.67 247.532 256.231 246.726 255.353 246.322C254.474 245.919 253.449 246.188 253.157 246.86Z" fill="#FBFBFB"/>
<path d="M207.918 253.719C208.065 247.668 213.481 242.828 220.07 242.828C226.658 242.828 232.075 247.668 232.221 253.719C232.221 253.853 232.221 253.988 232.221 253.988V254.256C232.075 255.87 230.903 257.349 228.707 258.559C224.022 261.114 216.263 261.114 211.432 258.559C209.236 257.349 208.065 255.87 207.918 254.256C207.918 254.122 207.918 253.988 207.918 253.988C207.918 253.988 207.918 253.853 207.918 253.719Z" fill="#FBFBFB"/>
<path opacity="0.8" d="M207.918 253.719C208.065 247.668 213.481 242.828 220.07 242.828C226.658 242.828 232.075 247.668 232.221 253.719C232.221 253.853 232.221 253.988 232.221 253.988V254.256C232.075 255.87 230.903 257.349 228.707 258.559C224.022 261.114 216.263 261.114 211.432 258.559C209.236 257.349 208.065 255.87 207.918 254.256C207.918 254.122 207.918 253.988 207.918 253.988C207.918 253.988 207.918 253.853 207.918 253.719Z" fill="#FBFBFB"/>
<path opacity="0.3" d="M214.799 243.903C216.409 243.231 218.166 242.828 220.07 242.828C226.658 242.828 232.075 247.668 232.221 253.719C232.221 253.853 232.221 253.988 232.221 253.988V254.256C232.075 255.87 230.903 257.349 228.707 258.559C226.95 259.5 224.901 260.038 222.558 260.307C225.779 259.769 227.829 256.542 226.804 253.046C225.779 248.878 221.241 242.828 214.799 243.903Z" fill="#FBFBFB"/>
<path opacity="0.1" d="M207.918 254.39C207.918 254.255 207.918 254.121 207.918 254.121V253.852C208.065 250.625 209.529 247.802 212.017 245.785C210.7 246.995 207.772 251.701 210.993 255.331C213.042 257.751 223.144 261.113 231.343 256.676C230.757 257.348 229.879 258.155 228.707 258.693C224.022 261.247 216.263 261.247 211.432 258.693C209.236 257.482 208.065 255.869 207.918 254.39Z" fill="#FBFBFB"/>
<path opacity="0.3" d="M220.216 245.38C219.63 246.456 220.655 248.07 222.558 248.742C224.462 249.549 226.365 249.145 226.804 248.07C227.39 246.994 226.365 245.38 224.462 244.708C222.705 243.901 220.802 244.17 220.216 245.38Z" fill="#FBFBFB"/>
<path opacity="0.3" d="M227.39 249.957C227.097 250.495 227.536 251.301 228.268 251.57C229 251.839 229.878 251.705 230.171 251.032C230.464 250.495 230.025 249.688 229.293 249.419C228.414 249.15 227.536 249.419 227.39 249.957Z" fill="#FBFBFB"/>
<path d="M125.201 242.826C125.347 239.868 127.836 237.582 131.057 237.582C134.278 237.582 136.913 239.868 136.913 242.826V242.96V243.095C136.913 243.902 136.327 244.574 135.156 245.112C132.814 246.322 129.154 246.322 126.811 245.112C125.787 244.574 125.201 243.767 125.054 243.095V242.96C125.201 242.96 125.201 242.826 125.201 242.826Z" fill="#FBFBFB"/>
<path opacity="0.2" d="M125.201 242.826C125.347 239.868 127.836 237.582 131.057 237.582C134.278 237.582 136.913 239.868 136.913 242.826V242.96V243.095C136.913 243.902 136.327 244.574 135.156 245.112C132.814 246.322 129.154 246.322 126.811 245.112C125.787 244.574 125.201 243.767 125.054 243.095V242.96C125.201 242.96 125.201 242.826 125.201 242.826Z" fill="#FBFBFB"/>
<path opacity="0.5" d="M128.423 238.12C129.155 237.717 130.034 237.583 130.912 237.583C134.133 237.583 136.768 239.868 136.768 242.826V242.961V243.095C136.768 243.902 136.182 244.574 135.011 245.112C134.133 245.515 133.108 245.784 132.083 245.919C133.547 245.65 134.572 244.171 134.133 242.423C133.694 240.541 131.498 237.583 128.423 238.12Z" fill="#FBFBFB"/>
<path opacity="0.05" d="M125.201 243.094V242.96V242.826C125.201 241.212 126.079 239.867 127.25 238.926C126.665 239.464 125.201 241.75 126.665 243.498C127.689 244.573 132.521 246.321 136.474 244.17C136.181 244.573 135.742 244.842 135.156 245.111C132.814 246.321 129.154 246.321 126.811 245.111C125.786 244.573 125.201 243.901 125.201 243.094Z" fill="#FBFBFB"/>
<path opacity="0.3" d="M131.057 238.791C130.764 239.329 131.35 240.136 132.228 240.405C133.106 240.808 133.985 240.539 134.278 240.001C134.57 239.464 133.985 238.657 133.106 238.388C132.228 238.119 131.35 238.253 131.057 238.791Z" fill="#FBFBFB"/>
<path opacity="0.3" d="M134.424 241.079C134.278 241.348 134.424 241.752 134.864 241.886C135.303 242.021 135.596 241.886 135.742 241.617C135.888 241.348 135.742 240.945 135.303 240.811C135.01 240.676 134.571 240.811 134.424 241.079Z" fill="#FBFBFB"/>
<path d="M326.504 236.241C326.358 231.4 322.112 227.501 316.842 227.501C311.571 227.501 307.325 231.4 307.179 236.241C307.179 236.375 307.179 236.375 307.179 236.51C307.179 236.644 307.179 236.644 307.179 236.779C307.325 237.989 308.204 239.199 309.961 240.14C313.767 242.157 319.916 242.157 323.723 240.14C325.479 239.199 326.504 237.989 326.504 236.779C326.504 236.644 326.504 236.644 326.504 236.51C326.504 236.375 326.504 236.241 326.504 236.241Z" fill="#FBFBFB"/>
<path opacity="0.5" d="M326.504 236.241C326.358 231.4 322.112 227.501 316.842 227.501C311.571 227.501 307.325 231.4 307.179 236.241C307.179 236.375 307.179 236.375 307.179 236.51C307.179 236.644 307.179 236.644 307.179 236.779C307.325 237.989 308.204 239.199 309.961 240.14C313.767 242.157 319.916 242.157 323.723 240.14C325.479 239.199 326.504 237.989 326.504 236.779C326.504 236.644 326.504 236.644 326.504 236.51C326.504 236.375 326.504 236.241 326.504 236.241Z" fill="#FBFBFB"/>
<path opacity="0.5" d="M320.941 228.441C319.624 227.903 318.306 227.5 316.695 227.5C311.425 227.5 307.179 231.399 307.033 236.24C307.033 236.374 307.033 236.374 307.033 236.509C307.033 236.643 307.033 236.643 307.033 236.778C307.179 237.988 308.058 239.198 309.815 240.139C311.132 240.811 312.889 241.349 314.646 241.484C312.157 241.08 310.547 238.525 311.279 235.702C312.303 232.34 315.963 227.634 320.941 228.441Z" fill="#FBFBFB"/>
<path opacity="0.2" d="M326.504 236.645C326.504 236.51 326.504 236.51 326.504 236.376C326.504 236.241 326.504 236.241 326.504 236.107C326.504 233.552 325.187 231.266 323.137 229.653C324.162 230.594 326.504 234.359 324.015 237.317C322.405 239.199 314.353 241.888 307.765 238.393C308.204 238.93 308.936 239.468 309.814 240.006C313.621 242.023 319.77 242.023 323.576 240.006C325.479 239.199 326.358 237.989 326.504 236.645Z" fill="#FBFBFB"/>
<path opacity="0.3" d="M316.695 229.517C317.134 230.458 316.255 231.668 314.791 232.206C313.327 232.744 311.717 232.475 311.424 231.668C310.985 230.727 311.863 229.517 313.327 228.979C314.645 228.441 316.255 228.576 316.695 229.517Z" fill="#FBFBFB"/>
<path opacity="0.3" d="M311.132 233.281C311.425 233.819 310.985 234.357 310.4 234.626C309.814 234.895 309.082 234.761 308.789 234.223C308.497 233.685 308.936 233.147 309.521 232.878C310.107 232.609 310.839 232.744 311.132 233.281Z" fill="#FBFBFB"/>
<path d="M305.715 239.599C305.568 232.608 299.273 226.96 291.66 226.96C284.047 226.96 277.752 232.608 277.605 239.599C277.605 239.734 277.605 239.868 277.605 240.003C277.605 240.137 277.605 240.272 277.605 240.406C277.752 242.154 279.069 243.902 281.705 245.381C287.268 248.339 296.198 248.339 301.615 245.381C304.251 244.036 305.568 242.289 305.715 240.406C305.715 240.272 305.715 240.137 305.715 240.003C305.715 239.868 305.715 239.734 305.715 239.599Z" fill="#FBFBFB"/>
<path opacity="0.7" d="M305.715 239.599C305.568 232.608 299.273 226.96 291.66 226.96C284.047 226.96 277.752 232.608 277.605 239.599C277.605 239.734 277.605 239.868 277.605 240.003C277.605 240.137 277.605 240.272 277.605 240.406C277.752 242.154 279.069 243.902 281.705 245.381C287.268 248.339 296.198 248.339 301.615 245.381C304.251 244.036 305.568 242.289 305.715 240.406C305.715 240.272 305.715 240.137 305.715 240.003C305.715 239.868 305.715 239.734 305.715 239.599Z" fill="#FBFBFB"/>
<path opacity="0.3" d="M297.663 228.305C295.759 227.498 293.71 226.96 291.514 226.96C283.901 226.96 277.605 232.608 277.459 239.599C277.459 239.734 277.459 239.868 277.459 240.003C277.459 240.137 277.459 240.272 277.459 240.406C277.605 242.154 278.923 243.902 281.558 245.381C283.608 246.457 286.097 247.129 288.586 247.398C284.926 246.86 282.583 243.095 283.754 238.927C285.072 233.952 290.342 227.095 297.663 228.305Z" fill="#FBFBFB"/>
<path opacity="0.1" d="M305.715 240.276C305.715 240.142 305.715 240.007 305.715 239.873C305.715 239.738 305.715 239.604 305.715 239.47C305.568 235.705 303.811 232.478 300.883 230.058C302.347 231.537 305.861 236.915 302.055 241.083C299.566 243.772 288.146 247.671 278.63 242.697C279.362 243.503 280.241 244.31 281.558 244.982C287.121 247.94 296.052 247.94 301.469 244.982C304.104 243.907 305.568 242.159 305.715 240.276Z" fill="#FBFBFB"/>
<path opacity="0.5" d="M291.514 229.921C292.099 231.265 290.928 233.013 288.879 233.82C286.683 234.627 284.486 234.358 283.901 233.013C283.315 231.669 284.486 229.921 286.536 229.114C288.586 228.307 290.782 228.576 291.514 229.921Z" fill="#FBFBFB"/>
<path opacity="0.5" d="M283.315 235.297C283.608 235.969 283.169 236.776 282.29 237.18C281.412 237.583 280.387 237.314 280.094 236.642C279.801 235.969 280.24 235.163 281.119 234.759C281.997 234.356 283.022 234.625 283.315 235.297Z" fill="#FBFBFB"/>
<path d="M318.013 247.265C317.866 240.676 311.864 235.298 304.69 235.298C297.37 235.298 291.514 240.676 291.368 247.265C291.368 247.399 291.368 247.533 291.368 247.668C291.368 247.802 291.368 247.937 291.368 248.071C291.514 249.819 292.832 251.433 295.32 252.777C300.591 255.601 309.082 255.601 314.206 252.777C316.695 251.433 318.013 249.819 318.159 248.071C318.159 247.937 318.159 247.802 318.159 247.668C318.159 247.399 318.159 247.265 318.013 247.265Z" fill="#FBFBFB"/>
<path opacity="0.6" d="M318.013 247.265C317.866 240.676 311.864 235.298 304.69 235.298C297.37 235.298 291.514 240.676 291.368 247.265C291.368 247.399 291.368 247.533 291.368 247.668C291.368 247.802 291.368 247.937 291.368 248.071C291.514 249.819 292.832 251.433 295.32 252.777C300.591 255.601 309.082 255.601 314.206 252.777C316.695 251.433 318.013 249.819 318.159 248.071C318.159 247.937 318.159 247.802 318.159 247.668C318.159 247.399 318.159 247.265 318.013 247.265Z" fill="#FBFBFB"/>
<path opacity="0.5" d="M310.546 236.507C308.789 235.701 306.886 235.297 304.69 235.297C297.37 235.297 291.514 240.676 291.367 247.264C291.367 247.398 291.367 247.533 291.367 247.667C291.367 247.802 291.367 247.936 291.367 248.071C291.514 249.819 292.831 251.432 295.32 252.777C297.223 253.852 299.566 254.39 302.055 254.659C298.541 254.121 296.345 250.491 297.37 246.592C298.541 241.886 303.519 235.297 310.546 236.507Z" fill="#FBFBFB"/>
<path opacity="0.15" d="M318.012 247.935C318.012 247.801 318.012 247.666 318.012 247.532C318.012 247.397 318.012 247.263 318.012 247.129C317.866 243.633 316.109 240.406 313.474 238.254C314.938 239.599 318.159 244.843 314.645 248.742C312.303 251.297 301.323 255.062 292.392 250.221C292.978 251.028 294.002 251.835 295.174 252.372C300.444 255.196 308.936 255.196 314.06 252.372C316.548 251.297 317.866 249.549 318.012 247.935Z" fill="#FBFBFB"/>
<path opacity="0.3" d="M304.544 237.988C305.129 239.198 303.958 240.946 301.909 241.753C299.859 242.56 297.809 242.156 297.224 240.946C296.638 239.736 297.809 237.988 299.859 237.181C301.909 236.375 303.958 236.778 304.544 237.988Z" fill="#FBFBFB"/>
<path opacity="0.3" d="M296.785 243.096C297.077 243.768 296.638 244.575 295.76 244.978C294.881 245.382 294.003 245.113 293.564 244.44C293.271 243.768 293.71 242.961 294.589 242.558C295.613 242.289 296.492 242.424 296.785 243.096Z" fill="#FBFBFB"/>
<path d="M289.757 252.642C289.464 244.44 282.144 237.852 273.213 237.852C264.283 237.852 256.816 244.44 256.67 252.642C256.67 252.776 256.67 252.911 256.67 253.045C256.67 253.18 256.67 253.314 256.67 253.449C256.816 255.6 258.427 257.617 261.501 259.23C267.943 262.726 278.484 262.726 284.926 259.23C288 257.617 289.61 255.6 289.757 253.449C289.757 253.314 289.757 253.18 289.757 253.045C289.757 252.911 289.757 252.776 289.757 252.642Z" fill="#FBFBFB"/>
<path opacity="0.8" d="M289.757 252.642C289.464 244.44 282.144 237.852 273.213 237.852C264.283 237.852 256.816 244.44 256.67 252.642C256.67 252.776 256.67 252.911 256.67 253.045C256.67 253.18 256.67 253.314 256.67 253.449C256.816 255.6 258.427 257.617 261.501 259.23C267.943 262.726 278.484 262.726 284.926 259.23C288 257.617 289.61 255.6 289.757 253.449C289.757 253.314 289.757 253.18 289.757 253.045C289.757 252.911 289.757 252.776 289.757 252.642Z" fill="#FBFBFB"/>
<path opacity="0.3" d="M280.387 239.331C278.191 238.39 275.703 237.852 273.214 237.852C264.283 237.852 256.817 244.44 256.67 252.642C256.67 252.777 256.67 252.911 256.67 253.046C256.67 253.18 256.67 253.315 256.67 253.449C256.817 255.6 258.427 257.617 261.502 259.231C263.844 260.441 266.772 261.248 269.846 261.651C265.601 260.979 262.819 256.542 264.137 251.701C265.454 246.054 271.75 237.852 280.387 239.331Z" fill="#FBFBFB"/>
<path opacity="0.1" d="M289.757 253.452C289.757 253.318 289.757 253.183 289.757 253.049C289.757 252.914 289.757 252.78 289.757 252.646C289.611 248.209 287.415 244.309 284.194 241.62C285.951 243.368 290.05 249.688 285.658 254.662C282.73 257.889 269.114 262.461 257.988 256.545C258.866 257.486 260.037 258.427 261.501 259.234C267.943 262.73 278.484 262.73 284.926 259.234C287.854 257.621 289.464 255.604 289.757 253.452Z" fill="#FBFBFB"/>
<path opacity="0.3" d="M272.921 241.214C273.653 242.828 272.189 244.845 269.7 245.92C267.211 246.996 264.576 246.458 263.844 244.979C263.112 243.366 264.576 241.349 267.065 240.273C269.554 239.198 272.189 239.601 272.921 241.214Z" fill="#FBFBFB"/>
<path opacity="0.3" d="M263.405 247.534C263.844 248.341 263.259 249.416 262.087 249.82C261.063 250.223 259.891 249.954 259.452 249.147C259.013 248.341 259.598 247.265 260.77 246.862C261.795 246.458 262.966 246.727 263.405 247.534Z" fill="#FBFBFB"/>
<path d="M200.745 262.728C200.891 255.198 207.626 249.148 215.824 249.148C224.023 249.148 230.757 255.198 230.904 262.728C230.904 262.863 230.904 262.997 230.904 263.131C230.904 263.266 230.904 263.4 230.904 263.535C230.757 265.417 229.293 267.3 226.512 268.779C220.656 271.871 210.993 271.871 205.137 268.779C202.355 267.3 200.891 265.417 200.745 263.535C200.745 263.4 200.745 263.266 200.745 263.131C200.745 262.997 200.745 262.863 200.745 262.728Z" fill="#FBFBFB"/>
<path opacity="0.9" d="M200.745 262.728C200.891 255.198 207.626 249.148 215.824 249.148C224.023 249.148 230.757 255.198 230.904 262.728C230.904 262.863 230.904 262.997 230.904 263.131C230.904 263.266 230.904 263.4 230.904 263.535C230.757 265.417 229.293 267.3 226.512 268.779C220.656 271.871 210.993 271.871 205.137 268.779C202.355 267.3 200.891 265.417 200.745 263.535C200.745 263.4 200.745 263.266 200.745 263.131C200.745 262.997 200.745 262.863 200.745 262.728Z" fill="#FBFBFB"/>
<path opacity="0.5" d="M209.383 250.492C211.432 249.551 213.628 249.147 215.971 249.147C224.169 249.147 230.904 255.198 231.05 262.728C231.05 262.862 231.05 262.997 231.05 263.131C231.05 263.265 231.05 263.4 231.05 263.534C230.904 265.417 229.44 267.299 226.658 268.778C224.462 269.988 221.827 270.661 219.045 270.929C222.998 270.257 225.487 266.223 224.316 261.786C222.852 256.677 217.288 249.147 209.383 250.492Z" fill="#FBFBFB"/>
<path opacity="0.1" d="M200.745 263.403C200.745 263.268 200.745 263.134 200.745 262.999C200.745 262.865 200.745 262.73 200.745 262.596C200.891 258.562 202.794 255.066 205.869 252.512C204.258 254.125 200.598 259.907 204.551 264.344C207.186 267.302 219.63 271.47 229.879 266.092C229.147 267.033 228.122 267.84 226.658 268.647C220.802 271.739 211.139 271.739 205.283 268.647C202.501 267.302 200.891 265.42 200.745 263.403Z" fill="#FBFBFB"/>
<path opacity="0.5" d="M216.117 252.24C215.385 253.719 216.703 255.602 219.045 256.543C221.388 257.484 223.73 257.081 224.462 255.602C225.194 254.123 223.876 252.24 221.534 251.299C219.191 250.492 216.703 250.896 216.117 252.24Z" fill="#FBFBFB"/>
<path opacity="0.5" d="M224.902 258.024C224.609 258.696 225.048 259.637 226.073 260.041C227.098 260.444 228.122 260.175 228.562 259.368C228.854 258.696 228.415 257.755 227.39 257.352C226.366 257.083 225.194 257.352 224.902 258.024Z" fill="#FBFBFB"/>
<path d="M263.991 264.206C263.844 257.08 257.403 251.298 249.643 251.298C241.884 251.298 235.442 257.08 235.296 264.206C235.296 264.34 235.296 264.475 235.296 264.609C235.296 264.744 235.296 264.878 235.296 265.012C235.442 266.895 236.906 268.643 239.542 269.987C245.105 272.945 254.328 272.945 259.892 269.987C262.527 268.643 263.991 266.76 264.137 265.012C264.137 264.878 264.137 264.744 264.137 264.609C263.991 264.475 263.991 264.34 263.991 264.206Z" fill="#FBFBFB"/>
<path opacity="0.9" d="M263.991 264.206C263.844 257.08 257.403 251.298 249.643 251.298C241.884 251.298 235.442 257.08 235.296 264.206C235.296 264.34 235.296 264.475 235.296 264.609C235.296 264.744 235.296 264.878 235.296 265.012C235.442 266.895 236.906 268.643 239.542 269.987C245.105 272.945 254.328 272.945 259.892 269.987C262.527 268.643 263.991 266.76 264.137 265.012C264.137 264.878 264.137 264.744 264.137 264.609C263.991 264.475 263.991 264.34 263.991 264.206Z" fill="#FBFBFB"/>
<path opacity="0.5" d="M255.938 252.642C254.035 251.835 251.985 251.297 249.643 251.297C241.884 251.297 235.442 257.079 235.295 264.205C235.295 264.34 235.295 264.474 235.295 264.609C235.295 264.743 235.295 264.878 235.295 265.012C235.442 266.894 236.906 268.642 239.541 269.987C241.591 271.063 244.08 271.735 246.715 272.004C242.908 271.466 240.566 267.567 241.737 263.398C243.055 258.424 248.472 251.432 255.938 252.642Z" fill="#FBFBFB"/>
<path opacity="0.1" d="M263.99 264.88C263.99 264.745 263.99 264.611 263.99 264.476C263.99 264.342 263.99 264.207 263.99 264.073C263.844 260.308 261.941 256.812 259.159 254.526C260.769 256.005 264.137 261.518 260.477 265.821C257.988 268.644 246.129 272.544 236.467 267.434C237.199 268.241 238.223 269.048 239.541 269.854C245.104 272.813 254.328 272.813 259.891 269.854C262.526 268.51 263.844 266.762 263.99 264.88Z" fill="#FBFBFB"/>
<path opacity="0.5" d="M249.497 254.256C250.082 255.601 248.911 257.349 246.715 258.29C244.519 259.231 242.323 258.828 241.591 257.483C241.005 256.139 242.176 254.391 244.372 253.449C246.568 252.508 248.911 252.912 249.497 254.256Z" fill="#FBFBFB"/>
<path opacity="0.5" d="M241.152 259.77C241.445 260.443 241.006 261.384 240.127 261.787C239.249 262.191 238.224 261.922 237.785 261.249C237.492 260.577 237.931 259.636 238.81 259.232C239.834 258.829 240.859 259.098 241.152 259.77Z" fill="#FBFBFB"/>
<path d="M226.658 268.776C226.804 265.817 229.293 263.532 232.514 263.532C235.735 263.532 238.37 265.817 238.37 268.776V268.91V269.044C238.37 269.851 237.785 270.524 236.613 271.061C234.271 272.271 230.611 272.271 228.268 271.061C227.244 270.524 226.658 269.717 226.512 269.044V268.91C226.658 268.91 226.658 268.91 226.658 268.776Z" fill="#FBFBFB"/>
<path opacity="0.9" d="M226.658 268.776C226.804 265.817 229.293 263.532 232.514 263.532C235.735 263.532 238.37 265.817 238.37 268.776V268.91V269.044C238.37 269.851 237.785 270.524 236.613 271.061C234.271 272.271 230.611 272.271 228.268 271.061C227.244 270.524 226.658 269.717 226.512 269.044V268.91C226.658 268.91 226.658 268.91 226.658 268.776Z" fill="#FBFBFB"/>
<path opacity="0.6" d="M230.025 264.07C230.757 263.666 231.636 263.532 232.514 263.532C235.735 263.532 238.37 265.817 238.37 268.776V268.91V269.044C238.37 269.851 237.785 270.524 236.613 271.061C235.735 271.465 234.71 271.734 233.685 271.868C235.149 271.599 236.174 270.12 235.735 268.372C235.296 266.49 233.1 263.532 230.025 264.07Z" fill="#FBFBFB"/>
<path opacity="0.1" d="M226.657 269.176V269.042V268.908C226.657 267.294 227.536 265.949 228.707 265.008C228.121 265.546 226.657 267.832 228.121 269.58C229.146 270.655 233.978 272.403 237.93 270.252C237.638 270.655 237.198 270.924 236.613 271.193C234.27 272.403 230.61 272.403 228.268 271.193C227.243 270.655 226.657 269.849 226.657 269.176Z" fill="#FBFBFB"/>
<path opacity="0.5" d="M232.66 264.742C232.367 265.28 232.953 266.087 233.831 266.355C234.71 266.759 235.588 266.49 235.881 265.952C236.174 265.414 235.588 264.607 234.71 264.339C233.831 264.07 232.807 264.204 232.66 264.742Z" fill="#FBFBFB"/>
<path opacity="0.5" d="M236.027 267.028C235.88 267.297 236.027 267.7 236.466 267.834C236.905 267.969 237.198 267.834 237.345 267.566C237.491 267.297 237.345 266.893 236.905 266.759C236.613 266.624 236.173 266.759 236.027 267.028Z" fill="#FBFBFB"/>
<path d="M334.703 238.256C334.556 235.297 332.067 233.012 328.847 233.012C325.626 233.012 322.991 235.297 322.991 238.256V238.39V238.524C322.991 239.331 323.576 240.003 324.747 240.541C327.09 241.751 330.75 241.751 333.092 240.541C334.117 240.003 334.703 239.197 334.849 238.524V238.39C334.703 238.39 334.703 238.39 334.703 238.256Z" fill="#FBFBFB"/>
<path opacity="0.2" d="M334.703 238.256C334.556 235.297 332.067 233.012 328.847 233.012C325.626 233.012 322.991 235.297 322.991 238.256V238.39V238.524C322.991 239.331 323.576 240.003 324.747 240.541C327.09 241.751 330.75 241.751 333.092 240.541C334.117 240.003 334.703 239.197 334.849 238.524V238.39C334.703 238.39 334.703 238.39 334.703 238.256Z" fill="#FBFBFB"/>
<path opacity="0.5" d="M331.336 233.55C330.604 233.147 329.726 233.012 328.847 233.012C325.626 233.012 322.991 235.298 322.991 238.256V238.39V238.525C322.991 239.332 323.577 240.004 324.748 240.542C325.626 240.945 326.651 241.214 327.676 241.349C326.212 241.08 325.187 239.601 325.626 237.853C326.212 235.97 328.408 233.012 331.336 233.55Z" fill="#FBFBFB"/>
<path opacity="0.05" d="M334.702 238.66V238.525V238.391C334.702 236.777 333.824 235.433 332.653 234.492C333.238 235.03 334.702 237.315 333.238 239.063C332.214 240.139 327.382 241.887 323.429 239.736C323.722 240.139 324.161 240.408 324.747 240.677C327.089 241.887 330.75 241.887 333.092 240.677C334.117 240.139 334.702 239.332 334.702 238.66Z" fill="#FBFBFB"/>
<path opacity="0.3" d="M328.846 234.223C329.139 234.761 328.554 235.567 327.675 235.836C326.797 236.24 325.918 235.971 325.626 235.433C325.333 234.895 325.918 234.088 326.797 233.82C327.529 233.551 328.554 233.685 328.846 234.223Z" fill="#FBFBFB"/>
<path opacity="0.3" d="M325.333 236.509C325.479 236.778 325.333 237.181 324.894 237.315C324.455 237.45 324.162 237.315 324.015 237.047C323.869 236.778 324.015 236.374 324.455 236.24C324.894 236.105 325.187 236.24 325.333 236.509Z" fill="#FBFBFB"/>
<path d="M213.92 161.215L216.409 151.4H249.935L252.424 161.215C253.01 164.173 251.253 167.266 246.861 169.552C239.394 173.585 227.096 173.585 219.63 169.552C215.091 167.266 213.335 164.173 213.92 161.215Z" fill="#555BCB"/>
<path d="M233.099 161.618C223.8 161.618 216.263 157.585 216.263 152.609C216.263 147.634 223.8 143.601 233.099 143.601C242.397 143.601 249.935 147.634 249.935 152.609C249.935 157.585 242.397 161.618 233.099 161.618Z" fill="#6A70E3"/>
<path d="M252.277 161.213C252.863 164.171 251.106 167.264 246.714 169.55C239.247 173.583 226.949 173.583 219.483 169.55C215.091 167.264 213.334 164.171 213.92 161.213L214.652 158.39C213.92 161.079 215.676 164.037 219.629 166.188C227.096 170.087 239.101 170.087 246.567 166.188C250.52 164.037 252.277 161.213 251.545 158.524L252.277 161.213Z" fill="#0C1F77"/>
<path d="M250.666 155.028C251.398 157.717 249.641 160.541 245.835 162.558C238.808 166.322 227.388 166.322 220.214 162.558C216.262 160.541 214.651 157.717 215.383 155.028L216.262 151.263C215.53 153.952 217.14 156.776 221.093 158.793C227.681 162.289 238.368 162.289 244.957 158.793C248.763 156.776 250.373 153.952 249.788 151.263L250.666 155.028Z" fill="#0C1F77"/>
<path opacity="0.1" d="M220.507 151.397H222.996C222.117 154.758 219.921 163.633 219.629 165.649C219.336 168.204 225.338 172.372 241.296 171.566C234.122 173.448 225.338 172.776 219.336 169.549C217.725 168.607 216.408 167.666 215.383 166.591L220.507 151.397Z" fill="white"/>
<path d="M233.099 161.618C223.8 161.618 216.263 157.585 216.263 152.609C216.263 147.634 223.8 143.601 233.099 143.601C242.397 143.601 249.935 147.634 249.935 152.609C249.935 157.585 242.397 161.618 233.099 161.618Z" fill="#6A70E3"/>
<path d="M199.427 79.8674C199.427 41.5472 216.995 8.60524 230.172 0.941199C230.318 0.806742 230.464 0.806742 230.464 0.672285C231.343 0.268914 232.075 0 233.1 0C233.978 0 234.856 0.268914 235.588 0.672285C235.735 0.672285 235.881 0.806742 235.881 0.941199C248.911 8.60524 266.626 41.6817 266.626 79.8674C266.626 116.709 255.353 149.247 254.328 152.34C254.328 152.474 254.328 152.474 254.182 152.609C253.303 154.76 251.4 156.777 248.325 158.39C239.834 162.827 226.072 162.827 217.727 158.39C214.506 156.642 212.457 154.491 211.725 152.34C210.7 149.247 199.427 116.709 199.427 79.8674Z" fill="#878CF0"/>
<path d="M220.509 10.0848C223.73 5.78214 227.097 2.68963 230.025 0.941687C230.171 0.80723 230.318 0.80723 230.318 0.672773C231.343 0.269402 232.075 0.000488281 233.099 0.000488281C233.978 0.000488281 234.856 0.269402 235.588 0.672773C235.735 0.80723 235.881 0.80723 235.881 0.941687C238.955 2.68963 242.176 5.91659 245.397 10.0848C247.3 12.6394 249.204 15.463 250.96 18.69C250.375 20.7069 248.618 22.5893 245.836 24.0683C238.663 27.8331 227.097 27.8331 219.923 24.0683C216.995 22.5893 215.385 20.7069 214.799 18.69C216.702 15.463 218.606 12.505 220.509 10.0848Z" fill="#6A70E3"/>
<path opacity="0.15" d="M266.626 79.8671C266.626 116.708 255.353 149.247 254.328 152.339C254.328 152.474 254.328 152.474 254.182 152.608C253.303 154.76 251.4 156.777 248.325 158.39C246.861 159.197 245.251 159.735 243.641 160.272C249.057 142.121 255.499 111.465 255.499 80.8083C255.499 38.4544 244.08 8.33605 235.881 0.940918C249.057 8.47051 266.626 41.5469 266.626 79.8671Z" fill="#041B86"/>
<path opacity="0.35" d="M199.427 79.8671C199.427 116.708 210.7 149.247 211.725 152.339C211.725 152.474 211.725 152.474 211.871 152.608C212.75 154.76 214.653 156.776 217.727 158.39C211.432 137.011 204.112 111.465 204.112 80.8083C204.112 38.4544 221.827 8.33605 230.172 0.940918C216.995 8.47051 199.427 41.5469 199.427 79.8671Z" fill="white"/>
<path d="M195.18 133.781L207.332 113.209L210.553 114.957L216.116 147.362L210.845 151.261C203.818 156.505 198.987 163.631 197.084 171.698L193.57 186.489C193.57 186.489 192.106 177.077 190.349 165.648C188.885 155.429 188.885 143.731 195.18 133.781Z" fill="#6A70E3"/>
<path d="M216.117 147.229L210.553 114.825L198.402 135.397C192.107 145.346 190.935 156.641 191.96 168.07L193.571 186.356L197.084 171.566C198.988 163.498 203.819 156.237 210.846 151.128L216.117 147.229Z" fill="#555BCB"/>
<path d="M271.018 133.781L258.866 113.209L255.645 114.957L250.082 147.362L255.352 151.261C262.38 156.505 267.211 163.631 269.114 171.698L272.628 186.489C272.628 186.489 274.092 177.077 275.849 165.648C277.166 155.429 277.166 143.731 271.018 133.781Z" fill="#6A70E3"/>
<path d="M249.936 147.229L255.499 114.825L267.651 135.397C273.946 145.346 275.117 156.641 274.092 168.07L272.482 186.356L268.968 171.566C267.065 163.498 262.234 156.237 255.206 151.128L249.936 147.229Z" fill="#555BCB"/>
<path d="M218.359 60.6168C217.685 53.1422 223.737 46.5814 231.875 45.9628C240.014 45.3442 247.158 50.9021 247.831 58.3767C248.505 65.8513 242.453 72.4121 234.315 73.0307C226.176 73.6493 219.032 68.0915 218.359 60.6168Z" fill="#555BCB"/>
<path d="M233.099 70.1874C226.631 70.1874 221.387 65.3716 221.387 59.4309C221.387 53.4902 226.631 48.6743 233.099 48.6743C239.568 48.6743 244.811 53.4902 244.811 59.4309C244.811 65.3716 239.568 70.1874 233.099 70.1874Z" fill="#878CF0"/>
<path opacity="0.7" d="M233.099 70.1874C226.631 70.1874 221.387 65.3716 221.387 59.4309C221.387 53.4902 226.631 48.6743 233.099 48.6743C239.568 48.6743 244.811 53.4902 244.811 59.4309C244.811 65.3716 239.568 70.1874 233.099 70.1874Z" fill="white"/>
<path d="M222.559 91.8332C222.559 97.2115 227.244 101.514 233.1 101.514C238.956 101.514 243.641 97.2115 243.641 91.8332C243.641 86.455 238.956 82.1523 233.1 82.1523C227.244 82.2868 222.559 86.5894 222.559 91.8332Z" fill="#555BCB"/>
<path d="M225.712 93.533C224.745 89.7751 227.279 86.0093 231.371 85.122C235.463 84.2346 239.563 86.5617 240.529 90.3196C241.496 94.0776 238.962 97.8434 234.87 98.7307C230.778 99.6181 226.678 97.291 225.712 93.533Z" fill="#878CF0"/>
<path opacity="0.7" d="M225.712 93.533C224.745 89.7751 227.279 86.0093 231.371 85.122C235.463 84.2346 239.563 86.5617 240.529 90.3196C241.496 94.0776 238.962 97.8434 234.87 98.7307C230.778 99.6181 226.678 97.291 225.712 93.533Z" fill="white"/>
<path d="M164.572 164.17L195.135 262.924L168.847 164.17H164.572Z" fill="#511954"/>
<path d="M134.642 164.17L104.078 262.924L130.366 164.17H134.642Z" fill="#511954"/>
<path d="M209.546 40.2549H86.4998V163.006H209.546V40.2549Z" fill="white"/>
<path d="M148.102 79.668H123.24L145.094 90.576C146.836 87.2308 147.944 83.5948 148.102 79.668Z" fill="#606BF1"/>
<path d="M94.5759 79.668C94.7343 88.6852 100.277 96.3935 108.195 100.611L120.547 79.668H94.5759Z" fill="#606BF1"/>
<path d="M121.814 79.9609V103.813C131.633 103.668 140.026 98.7227 144.618 91.3052L121.814 79.9609Z" fill="#606BF1"/>
<path d="M94.5759 78.7967H119.439L97.5848 67.8887C95.8428 71.2338 94.7343 74.8698 94.5759 78.7967Z" fill="#606BF1"/>
<path d="M134.483 57.8525L122.131 78.7959H148.102C147.944 69.7786 142.401 62.0703 134.483 57.8525Z" fill="#FBD15B"/>
<path d="M120.864 78.5064V54.6543C111.046 54.7997 102.653 59.7447 98.0601 67.1621L120.864 78.5064Z" fill="#606BF1"/>
<path d="M122.131 54.0718V76.9058L134.008 56.6897C130.366 55.0899 126.407 54.0718 122.131 54.0718Z" fill="#FFF7CF"/>
<path d="M120.864 80.9771L108.987 101.048C112.471 102.793 116.588 103.666 120.864 103.811V80.9771Z" fill="#606BF1"/>
<path d="M104.078 139.153H98.2188V159.515H104.078V139.153Z" fill="#878CF0"/>
<path d="M114.531 135.517H108.671V159.514H114.531V135.517Z" fill="#878CF0"/>
<path d="M125.14 131.882H119.281V159.516H125.14V131.882Z" fill="#878CF0"/>
<path d="M135.751 128.102H129.891V159.517H135.751V128.102Z" fill="#878CF0"/>
<path d="M146.361 124.465H140.501V159.516H146.361V124.465Z" fill="#878CF0"/>
<path d="M156.971 120.828H151.112V159.515H156.971V120.828Z" fill="#878CF0"/>
<path d="M167.581 117.192H161.721V159.515H167.581V117.192Z" fill="#878CF0"/>
<path d="M178.191 113.411H172.332V159.515H178.191V113.411Z" fill="#878CF0"/>
<path d="M188.801 109.776H182.942V159.517H188.801V109.776Z" fill="#878CF0"/>
<path d="M199.411 106.14H193.552V159.516H199.411V106.14Z" fill="#878CF0"/>
<path d="M200.836 85.1958C200.361 85.3412 186.267 87.5228 185.792 87.5228L190.543 88.6864C188.643 89.2681 178.666 92.7587 176.132 93.6313C175.34 96.6855 174.865 98.7217 174.39 100.467C172.173 100.322 167.897 99.8852 164.097 99.5943C162.671 100.758 151.903 109.63 150.636 110.793C147.31 110.357 143.035 109.921 140.026 109.484C137.175 111.811 123.24 122.574 120.389 124.755C117.697 123.883 113.738 122.719 111.204 121.992C110.254 122.574 92.3591 133.918 91.4089 134.645L92.3591 135.954L111.521 123.737C114.371 124.61 118.014 125.773 120.706 126.646C123.081 124.755 138.284 112.829 140.501 111.23C143.826 111.666 148.102 112.102 151.111 112.538C151.903 111.957 164.097 101.776 164.572 101.34C166.472 101.485 172.807 102.067 175.499 102.212C175.974 100.322 177.082 95.8129 177.399 94.7948L191.018 89.1227L189.909 93.4859L200.836 85.1958Z" fill="#CD3179"/>
<path d="M215.564 163.007H83.8076V165.334H215.564V163.007Z" fill="#241145"/>
<path d="M204.479 48.8369H156.97V52.0366H204.479V48.8369Z" fill="#C5C8EA"/>
<path d="M204.479 60.9053H156.97V64.1049H204.479V60.9053Z" fill="#C5C8EA"/>
<path d="M204.795 66.7246H157.287V69.9243H204.795V66.7246Z" fill="#C5C8EA"/>
<path d="M180.725 55.5259H156.97V57.8529H180.725V55.5259Z" fill="#C5C8EA"/>
<path d="M204.478 55.5259H185.792V57.8529H204.478V55.5259Z" fill="#C5C8EA"/>
<path d="M38.7417 255.36C38.7417 255.36 35.4162 260.014 32.4073 261.032C29.3984 261.905 26.7063 261.905 26.7063 262.486C26.7063 263.068 26.7063 263.359 26.7063 263.359H43.6509L43.0175 255.36H38.7417Z" fill="#3C3C6D"/>
<path d="M69.6223 255.796L70.2558 263.359H87.042C87.042 263.359 87.042 261.904 84.3499 261.904C81.6578 261.904 74.2148 257.396 73.5813 255.796H69.6223Z" fill="#3C3C6D"/>
<path d="M59.9621 134.354L53.1526 194.857C53.1526 194.857 40.8004 250.56 37.4749 256.087H44.6011L62.3375 213.473V204.456L75.1648 155.443L73.8979 198.784L71.8392 205.619L67.4051 256.087H75.1648L85.6166 201.111L89.734 134.208H59.9621V134.354Z" fill="#363666"/>
<path d="M65.6633 34.4375C65.5049 31.6742 60.5957 30.0743 58.3787 33.7103L59.0121 34.1466C61.0708 31.3833 64.7131 32.1105 65.6633 34.4375Z" fill="#3C3C6D"/>
<path d="M66.2969 64.3983L68.6723 49.418L75.6402 53.054L79.2825 64.1074C79.2825 64.1074 79.4408 77.197 66.2969 64.3983Z" fill="#FFC8AF"/>
<path d="M68.6723 49.418L75.6401 53.054L78.3323 60.9077C75.0067 60.9077 70.731 58.8716 68.3555 54.7992C68.1972 54.6538 68.1972 54.5084 68.0388 54.3629L68.6723 49.418Z" fill="#FFC8AF"/>
<path d="M75.9562 32.985C75.9562 32.985 81.8156 35.1666 81.8156 39.6752C81.8156 44.0384 84.191 55.0918 81.8156 57.2734C79.4401 59.455 71.6804 58.146 68.1965 52.7648C64.7126 47.3835 65.346 36.0392 66.4545 35.0211C67.4047 34.1485 73.7391 31.0943 75.9562 32.985Z" fill="#FFC8AF"/>
<path d="M71.681 34.7282V35.1645C71.681 35.1645 73.1063 40.5458 78.4906 41.5638C83.8748 42.4365 84.5083 39.8186 84.5083 39.8186C84.5083 39.8186 90.2093 42.0002 90.526 36.7643C91.0011 31.5285 86.0919 30.365 86.0919 30.365C86.0919 30.365 87.6755 33.8555 85.6168 33.5647C83.5581 33.1283 85.4585 30.2195 83.2414 29.4923C81.0243 28.7651 78.9657 29.9287 78.9657 29.9287C78.9657 29.9287 75.4817 29.6378 73.1063 28.4743C70.7309 27.3107 65.8217 28.3288 65.1882 30.2195C65.0299 31.9648 64.8715 33.2738 64.8715 33.2738C64.8715 32.8375 63.4463 33.4192 63.2879 33.4192C58.5371 35.8917 62.021 42.7274 64.3964 47.236C65.0299 48.545 65.8217 49.8539 66.6135 51.1629C67.0886 51.7446 67.5637 52.4718 68.0387 52.9082C68.0387 52.9082 65.3466 46.5088 66.2968 44.4726C67.0886 42.291 68.1971 44.6181 68.6722 42.4365C69.1473 40.2549 67.2469 39.964 67.2469 38.2187C67.2469 36.1826 71.681 34.7282 71.681 34.7282Z" fill="#3C3C6D"/>
<path d="M68.5134 44.4705C68.5134 44.4705 66.4547 41.2708 65.1878 42.2889C63.921 43.4524 66.138 49.9972 67.4049 49.4154C68.6718 48.8337 68.5134 44.4705 68.5134 44.4705Z" fill="#FFC8AF"/>
<path d="M67.7221 44.7635C67.7221 44.7635 66.1385 42.8728 65.8218 43.8909C65.3467 44.909 67.0886 49.1267 67.7221 48.5449C68.3555 47.9632 67.7221 44.7635 67.7221 44.7635Z" fill="#FFC8AF"/>
<path d="M90.8419 68.7624L91.1586 129.265L64.3956 131.156L55.2107 71.2349L66.1376 64.2538L74.5307 65.4173L80.2317 63.9629L90.8419 68.7624Z" fill="#F5F5F5"/>
<path d="M77.2231 67.5981L76.2729 70.9432H73.7391L72.1555 67.5981L74.5309 65.4165L77.2231 67.5981Z" fill="#3C3C6D"/>
<path d="M77.2227 69.1971L74.5305 65.4156L80.5482 63.5249L83.8738 65.5611L77.2227 69.1971Z" fill="white"/>
<path d="M72.3138 69.1987L74.5308 65.4173L66.1377 63.9629L62.9705 65.999L72.3138 69.1987Z" fill="white"/>
<path d="M76.2725 70.9424H73.7387L72.3135 106.139L76.1141 111.229L79.4397 105.557L76.2725 70.9424Z" fill="#3C3C6D"/>
<path d="M83.8742 65.561L76.9063 98.8667L62.1787 67.1609L55.0525 71.0878L59.3282 124.61L56.6361 136.39L92.9008 135.372L91.4755 119.519L92.109 67.8881L83.8742 65.561Z" fill="#3C3C6D"/>
<path d="M83.8739 65.561L76.906 98.8667L86.0909 82.1412L85.6159 80.5413L87.6746 77.4871L89.0998 66.2882L83.8739 65.561Z" fill="#3C3C6D"/>
<path d="M62.6537 66.4346L76.9062 98.8676L63.4455 81.5603V79.5242L60.595 77.7789L57.9028 67.7435L62.6537 66.4346Z" fill="#3C3C6D"/>
<path d="M80.3902 135.083L76.9063 98.8682L79.4401 134.355L59.4866 136.101L80.3902 135.083Z" fill="#3C3C6D"/>
<path d="M78.1739 96.1043C78.1739 96.1043 72.3145 95.5225 70.2558 96.1043C68.1971 96.686 64.3965 100.758 64.3965 100.758L63.4463 104.103H68.6722L73.8981 100.177L78.1739 96.1043Z" fill="#FFC8AF"/>
<path d="M64.5545 100.758C59.8036 96.3947 56.003 70.361 55.2112 71.0882C46.9764 78.6511 42.7006 115.011 59.6453 116.32C70.7305 117.047 80.5489 108.757 86.2499 102.794C84.983 101.194 83.3994 99.5944 82.9243 97.5582C76.7483 100.176 67.7217 103.667 64.5545 100.758Z" fill="#3C3C6D"/>
<path d="M92.1091 67.8877C92.1091 67.8877 97.335 68.6149 102.244 86.2131C107.312 103.811 101.611 114.719 91.634 110.356C83.5576 106.72 75.4812 101.339 75.4812 101.339L79.1235 95.8121C79.1235 95.8121 85.6163 98.8664 91.3173 97.7029C92.9009 97.412 90.5255 95.0849 90.8422 91.8853C91.634 82.868 90.8422 75.1597 92.1091 67.8877Z" fill="#3C3C6D"/>
<path d="M101.294 94.5046C101.294 94.2137 98.4438 94.2137 96.0684 94.2137C98.4438 94.0683 100.978 93.7774 100.661 93.4865C100.344 92.9047 92.5845 93.3411 92.5845 93.0502C92.5845 92.7593 100.027 93.4865 100.027 92.6138C100.027 91.7412 91.4759 91.7412 91.4759 91.7412L90.8425 92.1775L87.2002 94.9409L84.033 97.2679C86.7251 97.8497 88.6254 98.4314 91.6343 98.4314C92.5845 97.8497 93.3763 97.2679 93.5346 97.1225C93.5346 97.1225 99.7107 95.8135 99.7107 95.2318C99.7107 94.65 94.3264 95.959 94.1681 95.6681C94.0097 95.6681 101.294 95.0863 101.294 94.5046Z" fill="#FFC8AF"/>
<path d="M76.4316 95.2329L74.0562 100.032L75.7981 101.051L78.807 96.3964L76.4316 95.2329Z" fill="#FFF7CF"/>
<path d="M164.777 138.257L155.893 119L141.322 134.993L118.577 136.952L130.66 154.577L125.684 174.976L140.611 171.549C140.433 172.528 140.433 173.508 140.255 174.324C138.479 195.05 140.789 217.734 151.095 234.706L151.45 234.543C149.496 228.668 148.252 222.63 148.074 215.286C148.074 212.022 148.074 208.758 148.252 205.657C148.963 196.029 151.095 186.563 154.116 177.261C154.293 176.935 154.293 176.608 154.471 176.282C154.471 175.956 154.649 175.792 154.649 175.466C154.649 175.14 154.826 174.976 154.826 174.65C154.826 174.487 155.004 174.324 155.004 174.16L166.91 180.688L168.509 159.962L185.568 146.254L164.777 138.257Z" fill="#FBD15B"/>
<path d="M172.773 198.64L170.819 187.379L160.69 193.907L148.429 192.112L152.161 203.046L146.475 213.164L157.136 213.328V213.491C157.136 213.654 157.136 213.817 157.136 213.98C157.136 214.47 156.959 214.96 156.959 215.286C156.959 215.449 156.959 215.449 156.959 215.612C155.892 222.63 152.516 229.158 146.475 233.89L146.652 234.217C153.582 231.279 158.736 226.22 162.289 220.019C162.467 219.855 162.467 219.692 162.645 219.366C163 218.876 163.178 218.387 163.356 217.897C163.356 217.897 163.356 217.897 163.356 217.734C163.356 217.571 163.533 217.408 163.533 217.244L167.62 220.998L171.53 210.227L182.547 205.168L172.773 198.64Z" fill="#FFC41D"/>
<path d="M136.879 205.496C136.879 205.332 136.879 205.332 136.879 205.169C136.879 205.006 136.702 204.68 136.702 204.516L145.053 205.496L140.966 194.725L146.297 184.443L133.859 184.606L124.974 176.773L121.42 187.707L110.581 193.093L120.709 199.62L122.842 210.881L129.061 206.638C129.416 207.454 129.772 208.27 130.127 209.086V209.249C135.458 220.02 143.987 232.586 153.227 236.503L153.405 236.176C144.876 230.465 139.545 216.103 136.879 205.496Z" fill="#FFC41D"/>
<path d="M159.269 236.502C159.269 241.887 154.471 246.294 148.607 246.294C142.743 246.294 137.945 241.887 137.945 236.502C137.945 231.116 142.743 226.71 148.607 226.71C154.471 226.71 159.269 230.953 159.269 236.502Z" fill="#FFC41D"/>
<path d="M116.978 246.131V276.486H168.332H182.725V246.131H116.978Z" fill="#7A2B02"/>
<path d="M189.832 281.543H109.87V280.727C109.87 278.443 112.002 276.484 114.49 276.484H185.39C187.878 276.484 190.01 278.443 190.01 280.727V281.543H189.832Z" fill="#FFC41D"/>
<path d="M142.032 254.455H140.433H137.412H136.346H132.437H131.726V256.25V260.166V261.472V268.653H137.945H139.011H142.565H144.698H148.607H149.673H152.694H154.293H167.265V254.455H142.032Z" fill="#FBD15B"/>
<path d="M178.46 238.623H120.709V246.293H178.46V238.623Z" fill="#FBD15B"/>
<path d="M168.331 230.949H167.976H161.934H131.371C127.639 230.949 124.441 233.724 124.441 237.314V238.619H169.042H175.084V237.64V237.314C175.262 233.724 172.063 230.949 168.331 230.949Z" fill="#FFC41D"/>
</svg>
