<svg width="121" height="124" viewBox="0 0 121 124" fill="none" xmlns="http://www.w3.org/2000/svg">
<path d="M96.2452 87.5671L95.8916 88.0928L96.5248 88.1123C101.484 88.2657 105.494 92.4949 105.494 97.6989V104.378C105.494 105.185 104.865 105.818 104.116 105.818H19.0998C18.3508 105.818 17.7223 105.185 17.7223 104.378V97.6989C17.7223 92.4949 21.7321 88.2657 26.6914 88.1123L27.3246 88.0928L26.971 87.5671C26.1034 86.2775 25.5924 84.7114 25.5924 83.0215V81.3907C25.5924 76.9884 29.0466 73.4276 33.2657 73.4276C37.4849 73.4276 40.9391 76.9884 40.9391 81.3907V83.0215C40.9391 84.7114 40.4281 86.2775 39.5605 87.5671L39.2069 88.0927L39.8401 88.1123C42.8611 88.2058 45.5266 89.8089 47.1518 92.2286L47.4424 92.6611L47.7329 92.2286C49.3581 89.8089 52.0235 88.2056 55.0446 88.1123L55.6778 88.0928L55.3242 87.5671C54.4566 86.2775 53.9456 84.7114 53.9456 83.0215V81.3907C53.9456 76.9884 57.3999 73.4276 61.619 73.4276C65.8381 73.4276 69.2923 76.9884 69.2923 81.3907V83.0215C69.2923 84.7114 68.7813 86.2775 67.9137 87.5671L67.5602 88.0927L68.1933 88.1123C71.208 88.2056 73.8684 89.8022 75.4946 92.2132L75.7847 92.6434L76.0749 92.2132C77.7012 89.8022 80.3616 88.2054 83.3761 88.1123L84.0093 88.0928L83.6557 87.5671C82.7881 86.2775 82.2771 84.7114 82.2771 83.0215V81.3907C82.2771 76.9884 85.7313 73.4276 89.9504 73.4276C94.1696 73.4276 97.6238 76.9884 97.6238 81.3907V83.0215C97.6238 84.7114 97.1128 86.2775 96.2452 87.5671ZM20.4774 102.588V102.938H20.8274H45.7038H45.704H46.054V102.588V97.6989C46.054 94.0081 43.1533 90.9846 39.5616 90.9846H26.9698C23.3779 90.9846 20.4774 94.0083 20.4774 97.6989V102.588ZM48.8308 97.6989V98.0489H48.831V102.588V102.938H49.181H74.0574H74.4074V102.588V97.6989C74.4074 94.0081 71.5067 90.9846 67.915 90.9846H55.3232C51.7313 90.9846 48.8308 94.0083 48.8308 97.6989ZM77.1622 102.588V102.938H77.5122H102.389H102.389H102.739V102.588V97.6989C102.739 94.0081 99.8381 90.9846 96.2464 90.9846H83.6546C80.0627 90.9846 77.1622 94.0083 77.1622 97.6989V102.588ZM89.9504 76.3075C87.2266 76.3075 85.0322 78.5994 85.0322 81.3907V83.0215C85.0322 85.8129 87.2266 88.1048 89.9504 88.1048C92.6743 88.1048 94.8687 85.8129 94.8687 83.0215V81.3907C94.8687 78.5994 92.6743 76.3075 89.9504 76.3075ZM61.619 76.3075C58.8952 76.3075 56.7007 78.5994 56.7007 81.3907V83.0215C56.7007 85.8129 58.8952 88.1048 61.619 88.1048C64.3428 88.1048 66.5373 85.8129 66.5373 83.0215V81.3907C66.5373 78.5994 64.3428 76.3075 61.619 76.3075ZM33.2656 76.3075C30.5418 76.3075 28.3473 78.5994 28.3473 81.3907V83.0215C28.3473 85.8129 30.5418 88.1048 33.2656 88.1048C35.9894 88.1048 38.1839 85.8129 38.1839 83.0215V81.3907C38.1839 78.5994 35.9894 76.3075 33.2656 76.3075Z" fill="#2F5ED1" stroke="white" stroke-width="0.7"/>
<path d="M48.7076 63.4009L48.7078 63.4007C48.9645 63.1346 49.3199 62.9833 49.6772 62.9833C50.0346 62.9833 50.3899 63.1346 50.6465 63.4007L50.6467 63.4009C50.904 63.6672 51.0548 64.0413 51.0548 64.4232C51.0548 64.8041 50.9043 65.1768 50.6462 65.4458C50.3897 65.7118 50.0344 65.8631 49.6772 65.8631C49.32 65.8631 48.9646 65.7116 48.7077 65.4455L48.7076 65.4453C48.4504 65.1791 48.2997 64.805 48.2997 64.4232C48.2997 64.0398 48.4504 63.6673 48.7076 63.4009Z" fill="#FFA200" stroke="white" stroke-width="0.7"/>
<path d="M29.8062 62.6326V62.9826H30.1562H42.7672C43.5162 62.9826 44.1447 63.6156 44.1447 64.4225C44.1447 65.2294 43.5162 65.8624 42.7672 65.8624H28.4287C27.6797 65.8624 27.0512 65.2294 27.0512 64.4225V49.9581C27.0512 44.8384 31.0687 40.6939 35.9802 40.6939H41.651H42.4468L41.909 40.1074C40.0784 38.111 38.9504 35.4146 38.9504 32.4468V28.3325V26.4287V26.0004C38.9504 19.8536 43.7744 14.8734 49.6773 14.8734C55.5802 14.8734 60.4042 19.8536 60.4042 26.0004V26.4287V28.3325V32.4468C60.4042 35.4146 59.2762 38.111 57.4456 40.1074L56.9077 40.6939H57.7036H63.3744C68.2859 40.6939 72.3034 44.8384 72.3034 49.9581V64.4225C72.3034 65.2294 71.6749 65.8624 70.9259 65.8624H56.5874C55.8384 65.8624 55.2099 65.2294 55.2099 64.4225C55.2099 63.6156 55.8384 62.9826 56.5874 62.9826H69.1984H69.5484V62.6326V49.9581C69.5484 46.4492 66.7906 43.5738 63.3744 43.5738H60.5179H60.1679V43.9238V52.2915C60.1679 52.8759 59.8314 53.395 59.3261 53.618C59.1527 53.6944 58.9707 53.7314 58.7907 53.7314C58.4452 53.7314 58.1028 53.5954 57.8402 53.3341L51.6518 47.1732L51.0548 46.579V47.4213V52.81C51.0548 53.6169 50.4263 54.2499 49.6773 54.2499C48.9283 54.2499 48.2998 53.6169 48.2998 52.81V47.4213V46.579L47.7028 47.1732L41.5143 53.3341C41.1156 53.731 40.5318 53.8399 40.0286 53.618C39.5233 53.395 39.1867 52.8758 39.1867 52.2915V43.9238V43.5738H38.8367H35.9802C32.564 43.5738 29.8062 46.4492 29.8062 49.9581V62.6326ZM42.2918 43.5738H41.9418V43.9238V48.0893V48.9316L42.5387 48.3373L46.7229 44.1718L47.3237 43.5738H46.476H42.2918ZM56.8159 48.3375L57.4128 48.9318V48.0895V43.924V43.574H57.0628H52.8786H52.0309L52.6317 44.172L56.8159 48.3375ZM57.0764 25.4791L57.6766 25.8444L57.6066 25.1452C57.1926 21.008 53.8043 17.7535 49.6773 17.7535C45.2697 17.7535 41.7054 21.4646 41.7054 26.0006V26.4287V26.5426V26.8926H42.0554H44.8993C47.5419 26.8926 50.028 25.6885 51.7205 23.5958C52.1542 23.0596 52.8906 22.931 53.4655 23.281L57.0764 25.4791ZM42.0554 29.7724H41.7054V30.1224V32.4468C41.7054 36.9828 45.2699 40.6939 49.6775 40.6939C54.0851 40.6939 57.6493 36.9828 57.6493 32.4468V29.3569V29.1602L57.4813 29.0579L53.2606 26.4886L53.0297 26.3481L52.8354 26.536C50.6905 28.6095 47.8686 29.7724 44.8991 29.7724H42.0554Z" fill="#2F5ED1" stroke="white" stroke-width="0.7"/>
<path d="M80.5756 40.5551H80.6562H102.115C103.954 40.5551 105.472 39.0006 105.472 37.0641V18.3644C105.472 16.4279 103.954 14.8734 102.115 14.8734H76.046C74.2069 14.8734 72.6889 16.4279 72.6889 18.3644V42.1339C72.6889 42.6322 72.9349 43.0907 73.3324 43.3525C73.5565 43.4999 73.8113 43.574 74.0664 43.574C74.2635 43.574 74.4619 43.5297 74.6475 43.4395L80.5756 40.5551ZM80.5756 40.5551L80.5031 40.5904L74.6476 43.4395L80.5756 40.5551ZM75.4439 39.3158V39.8753L75.9471 39.6305L79.6895 37.8095C79.8719 37.7208 80.0703 37.6751 80.2708 37.6751H102.115C102.459 37.6751 102.717 37.3895 102.717 37.0639V18.3644C102.717 18.0388 102.459 17.7533 102.115 17.7533H76.046C75.702 17.7533 75.4439 18.0388 75.4439 18.3644V39.3158Z" fill="#FFA200" stroke="white" stroke-width="0.7"/>
<path d="M97.3126 25.3744H80.8472C80.098 25.3744 79.4696 24.7414 79.4696 23.9345C79.4696 23.1275 80.0981 22.4945 80.8472 22.4945H97.3126C98.0616 22.4945 98.6901 23.1275 98.6901 23.9345C98.6901 24.7414 98.0616 25.3744 97.3126 25.3744Z" fill="#FFA200" stroke="white" stroke-width="0.7"/>
<path d="M92.2062 32.5336H80.8472C80.098 32.5336 79.4696 31.9006 79.4696 31.0936C79.4696 30.2867 80.0981 29.6537 80.8472 29.6537H92.2062C92.9552 29.6537 93.5837 30.2867 93.5837 31.0936C93.5837 31.9005 92.9552 32.5336 92.2062 32.5336Z" fill="#FFA200" stroke="white" stroke-width="0.7"/>
<path d="M120.965 71.8288C120.965 70.4918 118.53 69.3219 114.958 68.8205C114.634 65.1436 113.497 62.6367 112.199 62.6367C110.9 62.6367 109.764 65.1436 109.277 68.8205C105.705 69.1547 103.27 70.3246 103.27 71.6616C103.27 72.9987 105.705 74.1686 109.277 74.67C109.601 78.3468 110.738 80.8537 112.036 80.8537C113.335 80.8537 114.471 78.3468 114.958 74.67C118.367 74.1686 120.965 73.1658 120.965 71.8288Z" fill="#FFE48F"/>
<path d="M17.6943 49.6764C17.6943 48.3394 15.2593 47.1695 11.688 46.6681C11.3633 42.9913 10.227 40.4844 8.92831 40.4844C7.62964 40.4844 6.49331 42.9913 6.00631 46.6681C2.43499 47.0024 0 48.1723 0 49.5093C0 50.8463 2.43499 52.0162 6.00631 52.5176C6.33098 56.1944 7.46731 58.7014 8.76597 58.7014C10.0646 58.7014 11.201 56.1944 11.688 52.5176C15.097 52.0162 17.6943 51.0135 17.6943 49.6764Z" fill="#9FADF0"/>
<path d="M70.7448 6.16718C70.7448 5.27014 69.1111 4.48522 66.715 4.14883C66.4972 1.68195 65.7348 0 64.8635 0C63.9922 0 63.2298 1.68195 62.9031 4.14883C60.507 4.37309 58.8733 5.158 58.8733 6.05504C58.8733 6.95209 60.507 7.737 62.9031 8.0734C63.1209 10.5403 63.8833 12.2222 64.7546 12.2222C65.6259 12.2222 66.3883 10.5403 66.715 8.0734C69.0022 7.737 70.7448 7.06422 70.7448 6.16718Z" fill="#9FADF0"/>
<rect width="7.89111" height="7.89111" transform="matrix(0.785491 -0.618873 0.785491 0.618873 107 118.884)" fill="#E02287" fill-opacity="0.6"/>
</svg>
