<svg width="125" height="113" viewBox="0 0 125 113" fill="none" xmlns="http://www.w3.org/2000/svg">
<path d="M52.7474 80.0954L52.7474 80.0954L52.5674 80.3559C52.5674 80.3559 52.5674 80.3559 52.5674 80.3559C52.1497 80.9608 52.2745 81.81 52.8364 82.25L52.8364 82.2501C53.0611 82.4262 53.3206 82.5099 53.5765 82.5099C53.9574 82.5099 54.3371 82.3246 54.5855 81.9668C54.5855 81.9667 54.5856 81.9667 54.5856 81.9667L54.768 81.703L52.7474 80.0954ZM52.7474 80.0954C53.1606 79.4973 53.9423 79.3748 54.4973 79.8078L52.7474 80.0954ZM54.4974 79.8078C55.0601 80.2474 55.186 81.0976 54.7681 81.7029L54.4974 79.8078Z" fill="#2F5ED1" stroke="white" stroke-width="0.4"/>
<path d="M56.0975 75.2437L56.0975 75.2437L52.747 80.0958L52.747 80.0958C52.3288 80.7013 52.4547 81.5516 53.0178 81.991L53.0179 81.9911C53.2422 82.1663 53.5009 82.2494 53.7563 82.2494C54.1383 82.2494 54.5192 82.0628 54.7681 81.7027L58.101 76.8762L58.1032 76.8731L58.1032 76.8731C58.2685 76.6434 58.3656 76.3563 58.3656 76.048C58.3655 75.973 58.3596 75.8973 58.348 75.8234L56.0975 75.2437ZM56.0975 75.2437C56.3991 74.8068 56.9112 74.6111 57.397 74.7335M56.0975 75.2437L57.397 74.7335M57.397 74.7335C57.8838 74.8571 58.2633 75.282 58.348 75.8233L57.397 74.7335Z" fill="#2F5ED1" stroke="white" stroke-width="0.4"/>
<path d="M58.2808 76.9856C58.4655 76.7192 58.5652 76.3786 58.5652 76.0478C58.5654 75.8073 58.5124 75.5696 58.4113 75.3542C58.1842 74.8711 57.7369 74.5487 57.2309 74.5029L58.2808 76.9856ZM58.2808 76.9856L54.7889 82.0233M58.2808 76.9856L54.7889 82.0233M54.7889 82.0233C54.5032 82.4356 54.0617 82.6539 53.6144 82.6539M54.7889 82.0233L53.6144 82.6539M53.6144 82.6539C53.3145 82.6539 53.0119 82.5556 52.7519 82.3522L53.6144 82.6539ZM57.2131 74.7021C57.6441 74.7412 58.0316 75.0167 58.2303 75.4393C58.3188 75.6279 58.3654 75.8366 58.3652 76.0476V76.0478C58.3652 76.3411 58.2762 76.6412 58.1165 76.8716L58.1164 76.8716L54.6246 81.9094L54.6245 81.9094C54.3759 82.2681 53.9957 82.4539 53.6144 82.4539C53.3588 82.4539 53.0997 82.3703 52.8751 82.1947L52.8751 82.1946C52.3129 81.755 52.1876 80.9052 52.6053 80.3C52.6053 80.3 52.6053 80.3 52.6053 80.3L56.097 75.2437L56.097 75.2437C56.3584 74.8651 56.7827 74.6643 57.2131 74.7021Z" fill="#2F5ED1" stroke="white" stroke-width="0.4"/>
<path d="M58.3562 100.442L58.3562 100.442C58.8345 100.973 58.8255 101.818 58.3366 102.338L58.3366 102.338L58.0138 102.681C58.0138 102.681 58.0138 102.681 58.0138 102.681C57.7751 102.935 57.4558 103.072 57.1288 103.072C57.0718 103.072 57.0145 103.068 56.9572 103.06C56.5714 103.003 56.2276 102.756 56.033 102.385L56.0329 102.385L56.0227 102.365C56.0227 102.365 56.0227 102.365 56.0227 102.365C56.0227 102.365 56.0227 102.365 56.0227 102.365C55.7332 101.814 55.8403 101.124 56.274 100.703L56.2741 100.703L56.6073 100.379L56.6073 100.379C57.11 99.8897 57.8839 99.9165 58.3562 100.442Z" fill="#2F5ED1" stroke="white" stroke-width="0.4"/>
<path d="M57.9419 100.703L57.9419 100.703L57.6087 100.379L57.6087 100.379C57.106 99.8897 56.3319 99.9165 55.8596 100.441L57.9419 100.703ZM57.9419 100.703C58.3728 101.122 58.4817 101.806 58.1985 102.356L58.1886 102.375L58.1886 102.375L58.1879 102.376C57.9948 102.75 57.6508 103 57.2638 103.059L57.2635 103.059C57.205 103.068 57.1463 103.072 57.0875 103.072C56.7605 103.072 56.4412 102.935 56.2027 102.682L56.2026 102.681L55.8793 102.338L55.8793 102.338M57.9419 100.703L55.8793 102.338M55.8793 102.338C55.3904 101.818 55.3812 100.973 55.8596 100.441L55.8793 102.338Z" fill="#2F5ED1" stroke="white" stroke-width="0.4"/>
<path d="M58.1058 100.584C58.4 100.869 58.5716 101.27 58.5803 101.693C58.5896 102.117 58.4353 102.525 58.1538 102.825M58.1058 100.584L58.1039 100.582C57.8788 100.358 57.5877 100.211 57.2669 100.173M58.1058 100.584L57.9666 100.727L57.9665 100.727C58.2216 100.975 58.3726 101.325 58.3803 101.698L58.3804 101.698C58.3885 102.07 58.2526 102.428 58.0081 102.688L58.1538 102.825M58.1058 100.584L57.9665 100.727L57.9648 100.726L57.9629 100.724L57.9629 100.724C57.7678 100.53 57.5175 100.404 57.2437 100.372L57.2669 100.173M57.2669 100.173C56.8373 100.123 56.4189 100.278 56.1146 100.579L56.1102 100.584C55.8155 100.87 55.6439 101.271 55.6353 101.695M57.2669 100.173L57.2438 100.372C56.8777 100.329 56.5186 100.461 56.2553 100.722L56.2547 100.722L56.2547 100.722L56.2503 100.726L56.2494 100.727L56.2494 100.727C55.994 100.975 55.8429 101.326 55.8353 101.699M55.6353 101.695C55.6268 102.12 55.782 102.529 56.0647 102.828L56.0801 102.844C56.3645 103.145 56.7361 103.295 57.1079 103.295C57.4811 103.295 57.854 103.143 58.1385 102.841L58.1538 102.825M55.6353 101.695L55.8353 101.699M55.6353 101.695L55.8353 101.699M58.1538 102.825L58.008 102.688L57.9928 102.704C57.7463 102.966 57.4261 103.095 57.1079 103.095C56.7908 103.095 56.4718 102.967 56.2253 102.707L56.2104 102.691L56.2101 102.69C55.9646 102.431 55.8277 102.073 55.8353 101.699" fill="#2F5ED1" stroke="white" stroke-width="0.4"/>
<path d="M57.5162 74.7362L57.5159 74.7361C57.0033 74.5615 56.4334 74.7612 56.113 75.2403L57.5162 74.7362ZM57.5162 74.7362C58.0342 74.9119 58.3973 75.4254 58.3973 76.0197V76.0234C58.3973 76.4679 58.1938 76.88 57.8587 77.1307L57.8586 77.1308C57.6396 77.2948 57.3873 77.3741 57.1374 77.3741C56.8156 77.3741 56.4943 77.2426 56.2503 76.9819L56.2503 76.9819M57.5162 74.7362L56.2503 76.9819M56.2503 76.9819C55.8134 76.5152 55.753 75.7792 56.1129 75.2403L56.2503 76.9819Z" fill="#2F5ED1" stroke="white" stroke-width="0.4"/>
<path d="M58.1157 75.2135L58.1156 75.2133C57.7905 74.7455 57.2265 74.5592 56.7177 74.7374C56.2062 74.9165 55.8501 75.4301 55.8501 76.0205V76.047C55.8501 76.5479 56.1147 77.0006 56.5234 77.234L58.1157 75.2135ZM58.1157 75.2135L58.1282 75.2313C58.1282 75.2313 58.1282 75.2313 58.1282 75.2314C58.3353 75.5292 58.4194 75.9068 58.3582 76.2747L58.3582 76.2747C58.2971 76.6427 58.097 76.9645 57.8095 77.1668L57.8094 77.1669M58.1157 75.2135L57.8094 77.1669M57.8094 77.1669C57.5987 77.3153 57.3545 77.3903 57.1109 77.3903C56.9091 77.3903 56.7069 77.3388 56.5234 77.234L57.8094 77.1669Z" fill="#2F5ED1" stroke="white" stroke-width="0.4"/>
<path d="M57.963 100.724L57.9627 100.724C57.4667 100.246 56.7089 100.266 56.2357 100.772C56.2357 100.772 56.2356 100.772 56.2355 100.772L56.2208 100.788L56.2204 100.789C55.8594 101.175 55.7497 101.759 55.9484 102.267L57.963 100.724ZM57.963 100.724L57.9797 100.74C57.9798 100.74 57.9798 100.74 57.9799 100.74C58.3678 101.113 58.5029 101.708 58.312 102.234L58.3119 102.234M57.963 100.724L58.3119 102.234M58.3119 102.234C58.1219 102.759 57.6525 103.095 57.1401 103.095H57.1081C56.6074 103.095 56.1467 102.774 55.9484 102.267L58.3119 102.234Z" fill="#2F5ED1" stroke="white" stroke-width="0.4"/>
<path d="M57.9341 100.696L57.9341 100.696C58.3592 101.102 58.4876 101.775 58.2305 102.321L58.2305 102.321C58.1604 102.47 58.0652 102.604 57.9507 102.715L57.9362 102.729L57.9362 102.729L57.9352 102.73C57.6939 102.964 57.3919 103.078 57.0925 103.078C56.7671 103.078 56.4403 102.944 56.1927 102.672L56.1927 102.671L56.1875 102.666C56.1875 102.666 56.1875 102.666 56.1875 102.666C55.8005 102.24 55.717 101.592 55.9868 101.069L55.9968 101.05L55.9969 101.049C56.1842 100.687 56.5142 100.44 56.8886 100.372L56.8889 100.372C57.2633 100.304 57.6479 100.422 57.9341 100.696Z" fill="#2F5ED1" stroke="white" stroke-width="0.4"/>
<mask id="path-11-inside-1_2603_2809" fill="white">
<path fill-rule="evenodd" clip-rule="evenodd" d="M73.9644 18.2779C78.6032 20.3449 79.286 25.5846 79.315 25.8274C79.3227 25.8924 79.3266 25.9577 79.3266 26.0231V37.1332C79.3266 38.4223 78.9812 39.6925 78.3282 40.8067C76.5513 43.8366 75.9351 47.5808 75.8696 48.005C74.9988 58.1976 70.9052 62.5515 68.5399 64.2405C68.5068 64.2641 68.4747 64.2883 68.4426 64.3123L68.4321 64.3202L68.3232 64.4013C68.1749 64.5099 68.0288 64.6197 67.8851 64.7304V67.1735C67.92 67.1837 67.9546 67.1955 67.9883 67.2083L73.5774 69.3385C73.5928 69.3444 73.6081 69.3505 73.6233 69.3569L91.7724 76.3384C95.1833 77.65 97.6703 80.8288 98.2628 84.6335L100.143 96.7065C100.4 98.3508 99.9649 100.023 98.9509 101.295C97.937 102.566 96.4562 103.296 94.888 103.296H57.1399L57.132 103.296L57.1077 103.296H19.3275C17.7598 103.296 16.2788 102.567 15.2646 101.295C14.2506 100.024 13.8158 98.3517 14.0719 96.7067L15.9523 84.6337C16.5449 80.8288 19.032 77.65 22.4429 76.3385L40.6005 69.3538C40.6134 69.3485 40.6263 69.3433 40.6393 69.3384L46.2283 67.2082C46.2621 67.1953 46.2963 67.1837 46.3308 67.1735V64.9497C46.1886 64.8418 46.0461 64.7366 45.9038 64.6344L45.8737 64.6126L45.846 64.5921L45.811 64.5659L45.7743 64.5383C38.6716 59.5398 38.3637 48.6101 38.3541 48.1473L38.3538 48.131L38.3537 48.1129V45.6541C38.2321 43.5327 37.4823 42.1272 36.8727 41.3201C35.6351 39.6816 34.9533 37.6078 34.9533 35.4812V27.3187C34.9533 18.8718 41.4166 12 49.3608 12H68.9255C69.019 12 69.1119 12.0095 69.2035 12.0285C71.3395 12.47 72.797 13.4778 73.5355 15.0243C74.085 16.175 74.0991 17.3577 73.9644 18.2779ZM38.6366 79.5884L41.1943 74.1349L48.2495 87.7734C48.2563 87.7866 48.2632 87.7996 48.2704 87.8125L51.6095 94.2671L42.1037 85.0215L43.6325 81.9182C43.8674 81.4416 43.8528 80.8696 43.5943 80.407C43.3357 79.9445 42.8699 79.6579 42.3639 79.6495L38.6366 79.5884ZM52.974 79.4155L52.4107 80.2281C52.4079 80.2322 52.405 80.2363 52.4022 80.2404L49.702 84.1503L43.2318 71.6427L46.5211 70.3891L52.0102 74.289L55.01 76.4672L52.974 79.4155ZM61.8394 80.2795C61.8361 80.2746 61.8328 80.2697 61.8294 80.2649L59.2068 76.4674L62.2303 74.2719L67.6952 70.3893L70.9843 71.6431L64.5135 84.1517L61.8394 80.2795ZM57.1114 78.6715L58.8626 81.2074L57.6561 83.0496C57.4408 83.378 57.3536 83.7824 57.4126 84.1781L58.999 94.8088L57.1074 98.4656L55.2408 94.8575L56.8345 84.1781C56.8936 83.7824 56.8062 83.3782 56.591 83.0496L55.3695 81.1844L57.1114 78.6715ZM53.5462 83.8246L51.2529 87.1454L52.9503 90.4271L53.8632 84.3086L53.5462 83.8246ZM61.2898 90.3788L60.384 84.3088L60.686 83.8477L62.9627 87.1445L61.2898 90.3788ZM65.2331 67.2251V68.4106L57.1084 74.1829L48.9831 68.4101V67.3142C50.9614 68.8765 53.8716 70.7927 56.2438 70.7925H56.2593C57.0557 70.8882 61.1174 71.1484 65.2331 67.2251ZM65.9377 87.8276L62.6077 94.265L72.1114 85.0213L70.5828 81.918C70.3481 81.4413 70.3625 80.8694 70.6212 80.4068C70.8797 79.9442 71.3456 79.6577 71.8516 79.6493L75.5786 79.5882L73.0216 74.1362L65.967 87.7736C65.9576 87.7918 65.9478 87.8099 65.9377 87.8276ZM72.9643 38.7586V47.7455H72.9642C72.1699 56.977 68.4705 60.5558 66.9143 61.6671C66.859 61.7066 66.8045 61.7475 66.7499 61.7883L66.6691 61.8488C65.8021 62.4838 64.9975 63.1567 64.2778 63.8483C60.3696 67.6048 56.6548 67.1121 56.4726 67.0849C56.3879 67.0715 56.302 67.0657 56.2163 67.0682C54.666 67.1105 51.8707 65.6043 48.9136 63.135C48.4613 62.7572 47.9976 62.3974 47.5352 62.0656L47.4993 62.0387C47.4643 62.0123 47.4294 61.9859 47.3883 61.9569C41.6567 57.9234 41.2817 48.4844 41.2691 48.0905V34.9671C41.2807 34.9161 41.2926 34.8656 41.3048 34.8155L72.9643 38.7586ZM41.3049 34.8154C41.3579 34.5986 41.417 34.3907 41.4814 34.1914C41.5719 33.911 41.673 33.6477 41.7828 33.4003C43.1131 30.4021 45.713 29.7529 46.2172 29.6535H52.5461C53.2905 29.6535 54.0225 29.5326 54.7222 29.2942C55.9255 28.8838 57.8347 28.1286 59.2244 27.5674C60.1543 27.1916 61.1838 27.1778 62.1229 27.5287L68.8979 30.0574C72.2849 31.3858 72.8894 34.5473 72.9643 35.0439V38.7586L41.3049 34.8154ZM41.3049 34.8154L41.3048 34.8155L38.3887 34.4523C38.3655 34.5631 38.3537 34.6762 38.3537 34.7897L38.3537 34.7898V37.9795C38.0363 37.1996 37.8683 36.3478 37.8683 35.4814V27.3191C37.8683 20.5816 43.0238 15.1 49.3605 15.1H68.7783C69.5822 15.2821 70.5592 15.6558 70.9299 16.4159C71.3837 17.3464 70.8667 18.6276 70.8662 18.6287C70.6798 19.0503 70.682 19.5385 70.8714 19.9584C71.061 20.3782 71.4184 20.6851 71.8444 20.7941C75.5553 21.7439 76.3123 25.5282 76.4109 26.1403V37.1325H76.4111C76.4111 37.8246 76.2275 38.5112 75.8798 39.1217V34.9381C75.8797 34.8823 75.8766 34.8266 75.8711 34.7707C75.8596 34.6582 75.7033 33.274 74.8807 31.6566C74.6653 31.233 74.4042 30.7935 74.0881 30.3567C73.1971 29.1253 71.8687 27.9151 69.8934 27.1437L69.8737 27.1361L63.0885 24.6035C62.3235 24.3179 61.5231 24.1754 60.7233 24.1754C59.9154 24.1754 59.108 24.3209 58.338 24.6115C58.2882 24.6303 58.2385 24.6496 58.189 24.6696C56.7068 25.2683 55.4792 25.7466 54.5787 26.0769C54.297 26.1802 54.0473 26.269 53.8317 26.3425C53.6261 26.4126 53.4151 26.4654 53.2003 26.5008C53.137 26.5112 53.0733 26.5201 53.0094 26.5274C52.8564 26.545 52.7017 26.5538 52.5459 26.5538H46.0998C46.0373 26.5538 45.9747 26.5581 45.9126 26.5665C45.6717 26.5998 40.1213 27.4389 38.4987 33.972C38.4597 34.1288 38.423 34.2888 38.3888 34.4522L41.3049 34.8154ZM17.4882 99.2903C17.9473 99.8661 18.6178 100.196 19.3277 100.196H53.3873L39.3081 86.5026C38.8201 86.028 38.6938 85.2632 39.0008 84.6401L39.9519 82.7096L36.2766 82.6492C35.7757 82.6412 35.3138 82.3601 35.0536 81.905C34.7931 81.4497 34.7709 80.8846 34.9945 80.4079L38.2 73.5733L23.4347 79.2529C21.0141 80.1839 19.2492 82.4394 18.8288 85.1398L16.9484 97.2128C16.8325 97.9576 17.0292 98.7147 17.4882 99.2903ZM94.8881 100.196C95.5979 100.196 96.2684 99.8659 96.7278 99.2902C97.187 98.7144 97.3837 97.9572 97.2678 97.2126L95.3874 85.1396C94.9669 82.4396 93.202 80.1837 90.7814 79.2527L76.016 73.5731L79.2217 80.408C79.4451 80.8848 79.4227 81.4499 79.1626 81.9052C78.9021 82.3601 78.4405 82.6413 77.9396 82.6494L74.2643 82.7096L75.2154 84.6401C75.5225 85.2633 75.3962 86.028 74.9079 86.5026L60.8287 100.196H94.8881Z"/>
</mask>
<path fill-rule="evenodd" clip-rule="evenodd" d="M73.9644 18.2779C78.6032 20.3449 79.286 25.5846 79.315 25.8274C79.3227 25.8924 79.3266 25.9577 79.3266 26.0231V37.1332C79.3266 38.4223 78.9812 39.6925 78.3282 40.8067C76.5513 43.8366 75.9351 47.5808 75.8696 48.005C74.9988 58.1976 70.9052 62.5515 68.5399 64.2405C68.5068 64.2641 68.4747 64.2883 68.4426 64.3123L68.4321 64.3202L68.3232 64.4013C68.1749 64.5099 68.0288 64.6197 67.8851 64.7304V67.1735C67.92 67.1837 67.9546 67.1955 67.9883 67.2083L73.5774 69.3385C73.5928 69.3444 73.6081 69.3505 73.6233 69.3569L91.7724 76.3384C95.1833 77.65 97.6703 80.8288 98.2628 84.6335L100.143 96.7065C100.4 98.3508 99.9649 100.023 98.9509 101.295C97.937 102.566 96.4562 103.296 94.888 103.296H57.1399L57.132 103.296L57.1077 103.296H19.3275C17.7598 103.296 16.2788 102.567 15.2646 101.295C14.2506 100.024 13.8158 98.3517 14.0719 96.7067L15.9523 84.6337C16.5449 80.8288 19.032 77.65 22.4429 76.3385L40.6005 69.3538C40.6134 69.3485 40.6263 69.3433 40.6393 69.3384L46.2283 67.2082C46.2621 67.1953 46.2963 67.1837 46.3308 67.1735V64.9497C46.1886 64.8418 46.0461 64.7366 45.9038 64.6344L45.8737 64.6126L45.846 64.5921L45.811 64.5659L45.7743 64.5383C38.6716 59.5398 38.3637 48.6101 38.3541 48.1473L38.3538 48.131L38.3537 48.1129V45.6541C38.2321 43.5327 37.4823 42.1272 36.8727 41.3201C35.6351 39.6816 34.9533 37.6078 34.9533 35.4812V27.3187C34.9533 18.8718 41.4166 12 49.3608 12H68.9255C69.019 12 69.1119 12.0095 69.2035 12.0285C71.3395 12.47 72.797 13.4778 73.5355 15.0243C74.085 16.175 74.0991 17.3577 73.9644 18.2779ZM38.6366 79.5884L41.1943 74.1349L48.2495 87.7734C48.2563 87.7866 48.2632 87.7996 48.2704 87.8125L51.6095 94.2671L42.1037 85.0215L43.6325 81.9182C43.8674 81.4416 43.8528 80.8696 43.5943 80.407C43.3357 79.9445 42.8699 79.6579 42.3639 79.6495L38.6366 79.5884ZM52.974 79.4155L52.4107 80.2281C52.4079 80.2322 52.405 80.2363 52.4022 80.2404L49.702 84.1503L43.2318 71.6427L46.5211 70.3891L52.0102 74.289L55.01 76.4672L52.974 79.4155ZM61.8394 80.2795C61.8361 80.2746 61.8328 80.2697 61.8294 80.2649L59.2068 76.4674L62.2303 74.2719L67.6952 70.3893L70.9843 71.6431L64.5135 84.1517L61.8394 80.2795ZM57.1114 78.6715L58.8626 81.2074L57.6561 83.0496C57.4408 83.378 57.3536 83.7824 57.4126 84.1781L58.999 94.8088L57.1074 98.4656L55.2408 94.8575L56.8345 84.1781C56.8936 83.7824 56.8062 83.3782 56.591 83.0496L55.3695 81.1844L57.1114 78.6715ZM53.5462 83.8246L51.2529 87.1454L52.9503 90.4271L53.8632 84.3086L53.5462 83.8246ZM61.2898 90.3788L60.384 84.3088L60.686 83.8477L62.9627 87.1445L61.2898 90.3788ZM65.2331 67.2251V68.4106L57.1084 74.1829L48.9831 68.4101V67.3142C50.9614 68.8765 53.8716 70.7927 56.2438 70.7925H56.2593C57.0557 70.8882 61.1174 71.1484 65.2331 67.2251ZM65.9377 87.8276L62.6077 94.265L72.1114 85.0213L70.5828 81.918C70.3481 81.4413 70.3625 80.8694 70.6212 80.4068C70.8797 79.9442 71.3456 79.6577 71.8516 79.6493L75.5786 79.5882L73.0216 74.1362L65.967 87.7736C65.9576 87.7918 65.9478 87.8099 65.9377 87.8276ZM72.9643 38.7586V47.7455H72.9642C72.1699 56.977 68.4705 60.5558 66.9143 61.6671C66.859 61.7066 66.8045 61.7475 66.7499 61.7883L66.6691 61.8488C65.8021 62.4838 64.9975 63.1567 64.2778 63.8483C60.3696 67.6048 56.6548 67.1121 56.4726 67.0849C56.3879 67.0715 56.302 67.0657 56.2163 67.0682C54.666 67.1105 51.8707 65.6043 48.9136 63.135C48.4613 62.7572 47.9976 62.3974 47.5352 62.0656L47.4993 62.0387C47.4643 62.0123 47.4294 61.9859 47.3883 61.9569C41.6567 57.9234 41.2817 48.4844 41.2691 48.0905V34.9671C41.2807 34.9161 41.2926 34.8656 41.3048 34.8155L72.9643 38.7586ZM41.3049 34.8154C41.3579 34.5986 41.417 34.3907 41.4814 34.1914C41.5719 33.911 41.673 33.6477 41.7828 33.4003C43.1131 30.4021 45.713 29.7529 46.2172 29.6535H52.5461C53.2905 29.6535 54.0225 29.5326 54.7222 29.2942C55.9255 28.8838 57.8347 28.1286 59.2244 27.5674C60.1543 27.1916 61.1838 27.1778 62.1229 27.5287L68.8979 30.0574C72.2849 31.3858 72.8894 34.5473 72.9643 35.0439V38.7586L41.3049 34.8154ZM41.3049 34.8154L41.3048 34.8155L38.3887 34.4523C38.3655 34.5631 38.3537 34.6762 38.3537 34.7897L38.3537 34.7898V37.9795C38.0363 37.1996 37.8683 36.3478 37.8683 35.4814V27.3191C37.8683 20.5816 43.0238 15.1 49.3605 15.1H68.7783C69.5822 15.2821 70.5592 15.6558 70.9299 16.4159C71.3837 17.3464 70.8667 18.6276 70.8662 18.6287C70.6798 19.0503 70.682 19.5385 70.8714 19.9584C71.061 20.3782 71.4184 20.6851 71.8444 20.7941C75.5553 21.7439 76.3123 25.5282 76.4109 26.1403V37.1325H76.4111C76.4111 37.8246 76.2275 38.5112 75.8798 39.1217V34.9381C75.8797 34.8823 75.8766 34.8266 75.8711 34.7707C75.8596 34.6582 75.7033 33.274 74.8807 31.6566C74.6653 31.233 74.4042 30.7935 74.0881 30.3567C73.1971 29.1253 71.8687 27.9151 69.8934 27.1437L69.8737 27.1361L63.0885 24.6035C62.3235 24.3179 61.5231 24.1754 60.7233 24.1754C59.9154 24.1754 59.108 24.3209 58.338 24.6115C58.2882 24.6303 58.2385 24.6496 58.189 24.6696C56.7068 25.2683 55.4792 25.7466 54.5787 26.0769C54.297 26.1802 54.0473 26.269 53.8317 26.3425C53.6261 26.4126 53.4151 26.4654 53.2003 26.5008C53.137 26.5112 53.0733 26.5201 53.0094 26.5274C52.8564 26.545 52.7017 26.5538 52.5459 26.5538H46.0998C46.0373 26.5538 45.9747 26.5581 45.9126 26.5665C45.6717 26.5998 40.1213 27.4389 38.4987 33.972C38.4597 34.1288 38.423 34.2888 38.3888 34.4522L41.3049 34.8154ZM17.4882 99.2903C17.9473 99.8661 18.6178 100.196 19.3277 100.196H53.3873L39.3081 86.5026C38.8201 86.028 38.6938 85.2632 39.0008 84.6401L39.9519 82.7096L36.2766 82.6492C35.7757 82.6412 35.3138 82.3601 35.0536 81.905C34.7931 81.4497 34.7709 80.8846 34.9945 80.4079L38.2 73.5733L23.4347 79.2529C21.0141 80.1839 19.2492 82.4394 18.8288 85.1398L16.9484 97.2128C16.8325 97.9576 17.0292 98.7147 17.4882 99.2903ZM94.8881 100.196C95.5979 100.196 96.2684 99.8659 96.7278 99.2902C97.187 98.7144 97.3837 97.9572 97.2678 97.2126L95.3874 85.1396C94.9669 82.4396 93.202 80.1837 90.7814 79.2527L76.016 73.5731L79.2217 80.408C79.4451 80.8848 79.4227 81.4499 79.1626 81.9052C78.9021 82.3601 78.4405 82.6413 77.9396 82.6494L74.2643 82.7096L75.2154 84.6401C75.5225 85.2633 75.3962 86.028 74.9079 86.5026L60.8287 100.196H94.8881Z" fill="#2F5ED1"/>
<path d="M41.2801 35.0139L72.9396 38.9571L72.9891 38.5601L41.3296 34.617L41.2801 35.0139ZM38.364 34.6507L41.2801 35.0139L41.3296 34.6169L38.4135 34.2537L38.364 34.6507ZM79.315 25.8274L79.7122 25.78L79.7122 25.78L79.315 25.8274ZM73.9644 18.2779L73.5686 18.22L73.5247 18.5199L73.8016 18.6433L73.9644 18.2779ZM78.3282 40.8067L78.6733 41.009L78.6733 41.0089L78.3282 40.8067ZM75.8696 48.005L75.4743 47.944L75.4722 47.9575L75.4711 47.971L75.8696 48.005ZM68.5399 64.2405L68.7719 64.5664L68.7724 64.5661L68.5399 64.2405ZM68.4426 64.3123L68.2023 63.9926L68.2023 63.9926L68.4426 64.3123ZM68.4321 64.3202L68.671 64.6411L68.6724 64.64L68.4321 64.3202ZM68.3232 64.4013L68.5596 64.724L68.562 64.7222L68.3232 64.4013ZM67.8851 64.7304L67.641 64.4136L67.4851 64.5337V64.7304H67.8851ZM67.8851 67.1735H67.4851V67.473L67.7725 67.5573L67.8851 67.1735ZM67.9883 67.2083L68.1308 66.8346L68.1303 66.8344L67.9883 67.2083ZM73.5774 69.3385L73.4349 69.7123L73.435 69.7123L73.5774 69.3385ZM73.6233 69.3569L73.4679 69.7257L73.4797 69.7303L73.6233 69.3569ZM91.7724 76.3384L91.6288 76.7117L91.6288 76.7117L91.7724 76.3384ZM98.2628 84.6335L97.8676 84.695L97.8676 84.6951L98.2628 84.6335ZM100.143 96.7065L99.748 96.768L99.748 96.7681L100.143 96.7065ZM98.9509 101.295L98.6381 101.045L98.6381 101.045L98.9509 101.295ZM57.1399 103.296L57.1388 103.696H57.1399V103.296ZM57.132 103.296L57.1332 102.896L57.1285 102.896L57.132 103.296ZM57.1077 103.296V103.696L57.1113 103.696L57.1077 103.296ZM15.2646 101.295L14.9519 101.545L14.9519 101.545L15.2646 101.295ZM14.0719 96.7067L13.6767 96.6451L13.6767 96.6451L14.0719 96.7067ZM15.9523 84.6337L16.3476 84.6952L16.3476 84.6952L15.9523 84.6337ZM22.4429 76.3385L22.5865 76.7119L22.5865 76.7119L22.4429 76.3385ZM40.6005 69.3538L40.7442 69.7273L40.7539 69.7232L40.6005 69.3538ZM40.6393 69.3384L40.7817 69.7121L40.7817 69.7121L40.6393 69.3384ZM46.2283 67.2082L46.0861 66.8343L46.0858 66.8344L46.2283 67.2082ZM46.3308 67.1735L46.4443 67.5571L46.7308 67.4723V67.1735H46.3308ZM46.3308 64.9497H46.7308V64.7511L46.5726 64.6311L46.3308 64.9497ZM45.9038 64.6344L45.6691 64.9583L45.6705 64.9594L45.9038 64.6344ZM45.8737 64.6126L45.6355 64.934L45.6389 64.9365L45.8737 64.6126ZM45.846 64.5921L45.606 64.9121L45.6079 64.9135L45.846 64.5921ZM45.811 64.5659L45.5708 64.8857L45.571 64.8859L45.811 64.5659ZM45.7743 64.5383L46.0147 64.2183L46.0045 64.2112L45.7743 64.5383ZM38.3541 48.1473L37.9541 48.1527L37.9541 48.1556L38.3541 48.1473ZM38.3538 48.131L37.9538 48.1335L37.9539 48.1365L38.3538 48.131ZM38.3537 48.1129H37.9537L37.9537 48.1154L38.3537 48.1129ZM38.3537 45.6541H38.7537V45.6427L38.7531 45.6312L38.3537 45.6541ZM36.8727 41.3201L37.1919 41.0791L37.1919 41.0791L36.8727 41.3201ZM69.2035 12.0285L69.1224 12.4201L69.1226 12.4202L69.2035 12.0285ZM73.5355 15.0243L73.8965 14.8519L73.8965 14.8519L73.5355 15.0243ZM41.1943 74.1349L41.5496 73.9511L41.1767 73.2303L40.8321 73.965L41.1943 74.1349ZM38.6366 79.5884L38.2744 79.4186L38.012 79.9782L38.63 79.9884L38.6366 79.5884ZM48.2495 87.7734L48.6048 87.5897L48.6047 87.5896L48.2495 87.7734ZM48.2704 87.8125L48.6258 87.6286L48.6204 87.6189L48.2704 87.8125ZM51.6095 94.2671L51.3306 94.5538L51.9647 94.0833L51.6095 94.2671ZM42.1037 85.0215L41.7449 84.8447L41.6164 85.1055L41.8248 85.3082L42.1037 85.0215ZM43.6325 81.9182L43.2738 81.7414L43.2737 81.7415L43.6325 81.9182ZM43.5943 80.407L43.9435 80.2119L43.9434 80.2117L43.5943 80.407ZM42.3639 79.6495L42.3705 79.2495L42.3704 79.2495L42.3639 79.6495ZM52.974 79.4155L53.3028 79.6434L53.3032 79.6428L52.974 79.4155ZM52.4107 80.2281L52.7377 80.4586L52.7395 80.456L52.4107 80.2281ZM52.4022 80.2404L52.0731 80.013L52.0731 80.0131L52.4022 80.2404ZM49.702 84.1503L49.3467 84.3341L49.6527 84.9256L50.0312 84.3776L49.702 84.1503ZM43.2318 71.6427L43.0893 71.269L42.6706 71.4285L42.8765 71.8265L43.2318 71.6427ZM46.5211 70.3891L46.7528 70.0631L46.5785 69.9392L46.3787 70.0154L46.5211 70.3891ZM52.0102 74.289L52.2452 73.9653L52.2419 73.9629L52.0102 74.289ZM55.01 76.4672L55.3391 76.6945L55.5611 76.3731L55.245 76.1435L55.01 76.4672ZM61.8394 80.2795L61.5076 80.503L61.5102 80.5068L61.8394 80.2795ZM61.8294 80.2649L61.5003 80.4922L61.5003 80.4923L61.8294 80.2649ZM59.2068 76.4674L58.9717 76.1437L58.6556 76.3732L58.8776 76.6947L59.2068 76.4674ZM62.2303 74.2719L61.9987 73.9458L61.9953 73.9482L62.2303 74.2719ZM67.6952 70.3893L67.8377 70.0155L67.6378 69.9394L67.4635 70.0632L67.6952 70.3893ZM70.9843 71.6431L71.3396 71.8269L71.5455 71.4289L71.1268 71.2693L70.9843 71.6431ZM64.5135 84.1517L64.1843 84.379L64.5628 84.927L64.8687 84.3355L64.5135 84.1517ZM58.8626 81.2074L59.1972 81.4266L59.3446 81.2015L59.1918 80.9801L58.8626 81.2074ZM57.1114 78.6715L57.4405 78.4442L57.112 77.9685L56.7826 78.4437L57.1114 78.6715ZM57.6561 83.0496L57.9906 83.2689L57.9907 83.2688L57.6561 83.0496ZM57.4126 84.1781L57.0169 84.237L57.0169 84.2371L57.4126 84.1781ZM58.999 94.8088L59.3542 94.9925L59.4137 94.8777L59.3946 94.7497L58.999 94.8088ZM57.1074 98.4656L56.7522 98.6494L57.1075 99.3362L57.4627 98.6494L57.1074 98.4656ZM55.2408 94.8575L54.8452 94.7984L54.8261 94.9264L54.8856 95.0413L55.2408 94.8575ZM56.8345 84.1781L56.4389 84.119L56.4389 84.1191L56.8345 84.1781ZM56.591 83.0496L56.2564 83.2688L56.2564 83.2688L56.591 83.0496ZM55.3695 81.1844L55.0407 80.9566L54.8872 81.1781L55.0349 81.4036L55.3695 81.1844ZM53.5462 83.8246L53.8808 83.6054L53.555 83.1079L53.2171 83.5973L53.5462 83.8246ZM51.2529 87.1454L50.9237 86.9181L50.7872 87.1158L50.8976 87.3292L51.2529 87.1454ZM52.9503 90.4271L52.595 90.6109L53.1633 91.7096L53.3459 90.4861L52.9503 90.4271ZM53.8632 84.3086L54.2589 84.3677L54.2814 84.2169L54.1979 84.0895L53.8632 84.3086ZM61.2898 90.3788L60.8942 90.4379L61.0768 91.6614L61.6451 90.5626L61.2898 90.3788ZM60.384 84.3088L60.0494 84.0896L59.9659 84.2171L59.9883 84.3678L60.384 84.3088ZM60.686 83.8477L61.0151 83.6204L60.6772 83.1312L60.3514 83.6286L60.686 83.8477ZM62.9627 87.1445L63.318 87.3282L63.4283 87.1148L63.2918 86.9172L62.9627 87.1445ZM65.2331 68.4106L65.4647 68.7367L65.6331 68.6171V68.4106H65.2331ZM65.2331 67.2251H65.6331V66.2912L64.9571 66.9356L65.2331 67.2251ZM57.1084 74.1829L56.8768 74.509L57.1084 74.6736L57.3401 74.509L57.1084 74.1829ZM48.9831 68.4101H48.5831V68.6166L48.7514 68.7361L48.9831 68.4101ZM48.9831 67.3142L49.231 67.0003L48.5831 66.4886V67.3142H48.9831ZM56.2438 70.7925L56.2438 70.3925L56.2438 70.3925L56.2438 70.7925ZM56.2593 70.7925L56.307 70.3954L56.2832 70.3925H56.2593V70.7925ZM62.6077 94.265L62.2524 94.0812L62.8866 94.5517L62.6077 94.265ZM65.9377 87.8276L65.5898 87.6302L65.586 87.637L65.5824 87.6438L65.9377 87.8276ZM72.1114 85.0213L72.3903 85.308L72.5987 85.1053L72.4703 84.8445L72.1114 85.0213ZM70.5828 81.918L70.2239 82.0947L70.224 82.0948L70.5828 81.918ZM70.6212 80.4068L70.9703 80.602L70.9704 80.6019L70.6212 80.4068ZM71.8516 79.6493L71.8451 79.2493L71.845 79.2493L71.8516 79.6493ZM75.5786 79.5882L75.5851 79.9882L76.2032 79.9781L75.9407 79.4184L75.5786 79.5882ZM73.0216 74.1362L73.3837 73.9664L73.0392 73.2316L72.6663 73.9524L73.0216 74.1362ZM65.967 87.7736L65.6117 87.5898L65.6117 87.5899L65.967 87.7736ZM72.9643 47.7455V48.1455H73.3643V47.7455H72.9643ZM72.9642 47.7455V47.3455H72.5971L72.5656 47.7112L72.9642 47.7455ZM66.9143 61.6671L66.6818 61.3415L66.6813 61.3419L66.9143 61.6671ZM66.7499 61.7883L66.5103 61.468L66.5102 61.4681L66.7499 61.7883ZM66.6691 61.8488L66.9055 62.1715L66.9088 62.169L66.6691 61.8488ZM64.2778 63.8483L64.0006 63.5599L64.0006 63.5599L64.2778 63.8483ZM56.4726 67.0849L56.41 67.48L56.4135 67.4805L56.4726 67.0849ZM56.2163 67.0682L56.2272 67.4681L56.228 67.4681L56.2163 67.0682ZM48.9136 63.135L48.6572 63.442L48.6572 63.442L48.9136 63.135ZM47.5352 62.0656L47.2954 62.3859L47.302 62.3906L47.5352 62.0656ZM47.4993 62.0387L47.258 62.3578L47.2596 62.359L47.4993 62.0387ZM47.3883 61.9569L47.619 61.6301L47.6185 61.6298L47.3883 61.9569ZM41.2691 48.0905H40.8688L40.8693 48.1033L41.2691 48.0905ZM41.2691 34.9671L40.879 34.8784L40.8691 34.9222V34.9671H41.2691ZM41.4814 34.1914L41.1007 34.0684L41.1007 34.0684L41.4814 34.1914ZM41.7828 33.4003L41.4172 33.2381L41.4172 33.2381L41.7828 33.4003ZM46.2172 29.6535V29.2535H46.1781L46.1398 29.261L46.2172 29.6535ZM54.7222 29.2942L54.8512 29.6728L54.8513 29.6728L54.7222 29.2942ZM59.2244 27.5674L59.3742 27.9382L59.3743 27.9382L59.2244 27.5674ZM62.1229 27.5287L61.9829 27.9034L61.983 27.9034L62.1229 27.5287ZM68.8979 30.0574L69.044 29.685L69.0378 29.6826L68.8979 30.0574ZM72.9643 35.0439H73.3643V35.0139L73.3599 34.9843L72.9643 35.0439ZM38.3887 34.4523L38.4382 34.0554L38.0728 34.0099L37.9973 34.3702L38.3887 34.4523ZM38.3537 34.7897L38.7533 34.8087L38.7537 34.7992L38.7537 34.7897L38.3537 34.7897ZM38.3537 34.7898L37.9542 34.7707L37.9537 34.7803V34.7898H38.3537ZM38.3537 37.9795L37.9832 38.1303L38.7537 37.9795H38.3537ZM68.7783 15.1L68.8667 14.7099L68.8231 14.7H68.7783V15.1ZM70.9299 16.4159L70.5703 16.5912L70.5703 16.5913L70.9299 16.4159ZM70.8662 18.6287L70.5039 18.4589L70.5004 18.4669L70.8662 18.6287ZM70.8714 19.9584L70.5068 20.1229L70.5069 20.123L70.8714 19.9584ZM71.8444 20.7941L71.9436 20.4066L71.9436 20.4066L71.8444 20.7941ZM76.4109 26.1403H76.8109V26.1083L76.8058 26.0767L76.4109 26.1403ZM76.4109 37.1325H76.0109V37.5325H76.4109V37.1325ZM76.4111 37.1325H76.8111V36.7325H76.4111V37.1325ZM75.8798 39.1217H75.4798V40.6325L76.2274 39.3197L75.8798 39.1217ZM75.8798 34.9381L76.2798 34.9381L76.2798 34.9369L75.8798 34.9381ZM75.8711 34.7707L76.2691 34.7311L76.269 34.7302L75.8711 34.7707ZM74.8807 31.6566L74.5241 31.8379L74.5241 31.8379L74.8807 31.6566ZM74.0881 30.3567L74.4121 30.1222L74.4121 30.1222L74.0881 30.3567ZM69.8934 27.1437L70.0389 26.7711L70.0361 26.77L69.8934 27.1437ZM69.8737 27.1361L70.0164 26.7624L70.0136 26.7614L69.8737 27.1361ZM63.0885 24.6035L62.9486 24.9782L62.9486 24.9782L63.0885 24.6035ZM58.338 24.6115L58.4791 24.9858L58.4792 24.9857L58.338 24.6115ZM58.189 24.6696L58.0392 24.2987L58.0392 24.2988L58.189 24.6696ZM54.5787 26.0769L54.7164 26.4525L54.7164 26.4524L54.5787 26.0769ZM53.8317 26.3425L53.9608 26.7211L53.9608 26.7211L53.8317 26.3425ZM53.2003 26.5008L53.1353 26.1061L53.1353 26.1061L53.2003 26.5008ZM53.0094 26.5274L53.0551 26.9248L53.0551 26.9248L53.0094 26.5274ZM45.9126 26.5665L45.8589 26.1702L45.8579 26.1703L45.9126 26.5665ZM38.4987 33.972L38.8869 34.0684L38.8869 34.0684L38.4987 33.972ZM38.3888 34.4522L37.9973 34.3701L37.908 34.7954L38.3393 34.8491L38.3888 34.4522ZM17.4882 99.2903L17.801 99.041L17.801 99.0409L17.4882 99.2903ZM53.3873 100.196V100.596H54.3723L53.6662 99.9095L53.3873 100.196ZM39.3081 86.5026L39.587 86.2159L39.587 86.2159L39.3081 86.5026ZM39.0008 84.6401L39.3596 84.8169L39.3596 84.8169L39.0008 84.6401ZM39.9519 82.7096L40.3107 82.8863L40.5897 82.32L39.9585 82.3096L39.9519 82.7096ZM36.2766 82.6492L36.2832 82.2493L36.2831 82.2493L36.2766 82.6492ZM35.0536 81.905L35.4009 81.7065L35.4008 81.7063L35.0536 81.905ZM34.9945 80.4079L35.3566 80.5777L35.3566 80.5777L34.9945 80.4079ZM38.2 73.5733L38.5621 73.7432L38.9843 72.8431L38.0564 73.2L38.2 73.5733ZM23.4347 79.2529L23.5783 79.6262L23.5783 79.6262L23.4347 79.2529ZM18.8288 85.1398L19.224 85.2014L19.224 85.2014L18.8288 85.1398ZM16.9484 97.2128L16.5531 97.1512L16.5531 97.1513L16.9484 97.2128ZM96.7278 99.2902L97.0405 99.5396L97.0405 99.5396L96.7278 99.2902ZM97.2678 97.2126L97.6631 97.1511L97.663 97.1511L97.2678 97.2126ZM95.3874 85.1396L94.9922 85.2012L94.9922 85.2012L95.3874 85.1396ZM90.7814 79.2527L90.6378 79.626L90.6379 79.6261L90.7814 79.2527ZM76.016 73.5731L76.1596 73.1998L75.2317 72.8429L75.6539 73.743L76.016 73.5731ZM79.2217 80.408L79.5839 80.2383L79.5838 80.2382L79.2217 80.408ZM79.1626 81.9052L79.5097 82.1039L79.5099 82.1036L79.1626 81.9052ZM77.9396 82.6494L77.9331 82.2495L77.933 82.2495L77.9396 82.6494ZM74.2643 82.7096L74.2577 82.3096L73.6264 82.32L73.9055 82.8863L74.2643 82.7096ZM75.2154 84.6401L74.8565 84.8169L74.8566 84.8169L75.2154 84.6401ZM74.9079 86.5026L74.6291 86.2158L74.629 86.2159L74.9079 86.5026ZM60.8287 100.196L60.5498 99.9093L59.8437 100.596H60.8287V100.196ZM79.7122 25.78C79.6949 25.6353 79.5095 24.218 78.7301 22.5661C77.9499 20.9121 76.5613 18.9971 74.1272 17.9126L73.8016 18.6433C76.0063 19.6257 77.2785 21.364 78.0066 22.9074C78.7356 24.4527 78.9061 25.7767 78.9178 25.8748L79.7122 25.78ZM79.7266 26.0231C79.7266 25.9419 79.7218 25.8607 79.7122 25.78L78.9178 25.8747C78.9237 25.924 78.9266 25.9735 78.9266 26.0231H79.7266ZM79.7266 37.1332V26.0231H78.9266V37.1332H79.7266ZM78.6733 41.0089C79.3622 39.8336 79.7266 38.4935 79.7266 37.1332H78.9266C78.9266 38.351 78.6003 39.5514 77.9831 40.6044L78.6733 41.0089ZM76.2649 48.0661C76.3293 47.6488 76.9372 43.9693 78.6733 41.009L77.9832 40.6043C76.1655 43.7039 75.5409 47.5127 75.4743 47.944L76.2649 48.0661ZM68.7724 64.5661C71.2384 62.805 75.3879 58.3416 76.2681 48.0391L75.4711 47.971C74.6096 58.0535 70.5719 62.2979 68.3074 63.915L68.7724 64.5661ZM68.6829 64.6321C68.7156 64.6076 68.7437 64.5865 68.7719 64.5664L68.3079 63.9147C68.2699 63.9417 68.2337 63.969 68.2023 63.9926L68.6829 64.6321ZM68.6724 64.64L68.6829 64.6321L68.2023 63.9926L68.1918 64.0005L68.6724 64.64ZM68.562 64.7222L68.671 64.6411L68.1933 63.9994L68.0843 64.0805L68.562 64.7222ZM68.1293 65.0472C68.2704 64.9385 68.4139 64.8307 68.5596 64.724L68.0868 64.0786C67.9359 64.1891 67.7873 64.3008 67.641 64.4136L68.1293 65.0472ZM68.2851 67.1735V64.7304H67.4851V67.1735H68.2851ZM68.1303 66.8344C68.0879 66.8183 68.0435 66.8031 67.9978 66.7897L67.7725 67.5573C67.7965 67.5644 67.8213 67.5728 67.8464 67.5823L68.1303 66.8344ZM73.7198 68.9647L68.1308 66.8346L67.8459 67.5821L73.4349 69.7123L73.7198 68.9647ZM73.7787 68.9884C73.7591 68.9801 73.7394 68.9722 73.7197 68.9647L73.435 69.7123C73.4462 69.7166 73.4571 69.721 73.4679 69.7255L73.7787 68.9884ZM91.916 75.965L73.7669 68.9836L73.4797 69.7303L91.6288 76.7117L91.916 75.965ZM98.6581 84.5719C98.0449 80.6351 95.4691 77.3313 91.916 75.965L91.6288 76.7117C94.8975 77.9686 97.2956 81.0225 97.8676 84.695L98.6581 84.5719ZM100.538 96.6449L98.6581 84.5719L97.8676 84.6951L99.748 96.768L100.538 96.6449ZM99.2636 101.544C100.349 100.183 100.812 98.3969 100.538 96.6449L99.748 96.7681C99.9875 98.3046 99.5805 99.8637 98.6381 101.045L99.2636 101.544ZM94.888 103.696C96.583 103.696 98.1771 102.907 99.2636 101.544L98.6381 101.045C97.6969 102.226 96.3293 102.896 94.888 102.896V103.696ZM57.1399 103.696H94.888V102.896H57.1399V103.696ZM57.1309 103.696L57.1388 103.696L57.1411 102.896L57.1332 102.896L57.1309 103.696ZM57.1113 103.696L57.1355 103.696L57.1285 102.896L57.1042 102.896L57.1113 103.696ZM19.3275 103.696H57.1077V102.896H19.3275V103.696ZM14.9519 101.545C16.0388 102.907 17.6329 103.696 19.3275 103.696V102.896C17.8867 102.896 16.5189 102.226 15.5773 101.046L14.9519 101.545ZM13.6767 96.6451C13.4038 98.3978 13.8662 100.183 14.9519 101.545L15.5773 101.046C14.635 99.8643 14.2278 98.3055 14.4672 96.7682L13.6767 96.6451ZM15.5571 84.5721L13.6767 96.6451L14.4672 96.7682L16.3476 84.6952L15.5571 84.5721ZM22.2994 75.9652C18.7462 77.3313 16.1702 80.6351 15.5571 84.5721L16.3476 84.6952C16.9196 81.0225 19.3178 77.9686 22.5865 76.7119L22.2994 75.9652ZM40.4569 68.9805L22.2993 75.9652L22.5865 76.7119L40.7441 69.7271L40.4569 68.9805ZM40.4968 68.9646C40.4801 68.9709 40.4636 68.9775 40.4471 68.9844L40.7539 69.7232C40.7631 69.7194 40.7724 69.7157 40.7817 69.7121L40.4968 68.9646ZM46.0858 66.8344L40.4968 68.9646L40.7817 69.7121L46.3707 67.582L46.0858 66.8344ZM46.2173 66.7899C46.1726 66.8032 46.1288 66.8181 46.0861 66.8343L46.3705 67.582C46.3953 67.5726 46.4199 67.5643 46.4443 67.5571L46.2173 66.7899ZM45.9308 64.9497V67.1735H46.7308V64.9497H45.9308ZM45.6705 64.9594C45.8099 65.0594 45.9495 65.1625 46.089 65.2684L46.5726 64.6311C46.4276 64.5211 46.2823 64.4138 46.1371 64.3095L45.6705 64.9594ZM45.6389 64.9365L45.6691 64.9583L46.1386 64.3105L46.1084 64.2887L45.6389 64.9365ZM45.6079 64.9135L45.6356 64.934L46.1118 64.2912L46.0841 64.2706L45.6079 64.9135ZM45.571 64.8859L45.606 64.9121L46.0859 64.272L46.051 64.2458L45.571 64.8859ZM45.5341 64.8581L45.5708 64.8857L46.0513 64.246L46.0145 64.2185L45.5341 64.8581ZM37.9541 48.1556C37.9593 48.4044 38.0405 51.2901 39.0194 54.7508C39.9964 58.2046 41.8843 62.2898 45.5441 64.8654L46.0045 64.2112C42.5617 61.7883 40.7443 57.9093 39.7892 54.533C38.8361 51.1635 38.7584 48.353 38.754 48.139L37.9541 48.1556ZM37.9539 48.1365L37.9541 48.1527L38.754 48.1418L38.7538 48.1256L37.9539 48.1365ZM37.9537 48.1154L37.9538 48.1335L38.7538 48.1285L38.7537 48.1104L37.9537 48.1154ZM37.9537 45.6541V48.1129H38.7537V45.6541H37.9537ZM36.5535 41.5612C37.1218 42.3137 37.8378 43.6447 37.9544 45.677L38.7531 45.6312C38.6263 43.4207 37.8427 41.9408 37.1919 41.0791L36.5535 41.5612ZM34.5533 35.4812C34.5533 37.6915 35.2615 39.8507 36.5536 41.5612L37.1919 41.0791C36.0087 39.5125 35.3533 37.5241 35.3533 35.4812H34.5533ZM34.5533 27.3187V35.4812H35.3533V27.3187H34.5533ZM49.3608 11.6C41.1729 11.6 34.5533 18.6743 34.5533 27.3187H35.3533C35.3533 19.0692 41.6602 12.4 49.3608 12.4V11.6ZM68.9255 11.6H49.3608V12.4H68.9255V11.6ZM69.2847 11.6368C69.1663 11.6123 69.0461 11.6 68.9255 11.6V12.4C68.9918 12.4 69.0576 12.4067 69.1224 12.4201L69.2847 11.6368ZM73.8965 14.8519C73.0897 13.1625 71.5062 12.096 69.2845 11.6367L69.1226 12.4202C71.1729 12.844 72.5043 13.7931 73.1746 15.1967L73.8965 14.8519ZM74.3602 18.3359C74.502 17.3673 74.4912 16.0975 73.8965 14.8519L73.1746 15.1967C73.6787 16.2524 73.6963 17.3481 73.5686 18.22L74.3602 18.3359ZM40.8321 73.965L38.2744 79.4186L38.9987 79.7583L41.5564 74.3047L40.8321 73.965ZM48.6047 87.5896L41.5496 73.9511L40.839 74.3187L47.8942 87.9572L48.6047 87.5896ZM48.6204 87.6189C48.6151 87.6092 48.6098 87.5995 48.6048 87.5897L47.8942 87.9572C47.9027 87.9737 47.9114 87.99 47.9203 88.0061L48.6204 87.6189ZM51.9647 94.0833L48.6256 87.6287L47.9151 87.9963L51.2542 94.4509L51.9647 94.0833ZM41.8248 85.3082L51.3306 94.5538L51.8883 93.9803L42.3826 84.7347L41.8248 85.3082ZM43.2737 81.7415L41.7449 84.8447L42.4626 85.1982L43.9914 82.095L43.2737 81.7415ZM43.2451 80.6021C43.4393 80.9496 43.4506 81.3826 43.2738 81.7414L43.9913 82.0951C44.2843 81.5007 44.2663 80.7896 43.9435 80.2119L43.2451 80.6021ZM42.3572 80.0494C42.7129 80.0553 43.0521 80.257 43.2452 80.6022L43.9434 80.2117C43.6192 79.632 43.027 79.2604 42.3705 79.2495L42.3572 80.0494ZM38.63 79.9884L42.3573 80.0494L42.3704 79.2495L38.6431 79.1885L38.63 79.9884ZM52.6453 79.1877L52.082 80.0003L52.7395 80.456L53.3028 79.6434L52.6453 79.1877ZM52.0838 79.9977C52.0801 80.003 52.0765 80.0081 52.0731 80.013L52.7313 80.4677C52.7336 80.4644 52.7357 80.4614 52.7377 80.4586L52.0838 79.9977ZM52.0731 80.0131L49.3729 83.923L50.0312 84.3776L52.7314 80.4677L52.0731 80.0131ZM50.0573 83.9665L43.5871 71.459L42.8765 71.8265L49.3467 84.3341L50.0573 83.9665ZM43.3742 72.0165L46.6636 70.7629L46.3787 70.0154L43.0893 71.269L43.3742 72.0165ZM46.2894 70.7152L51.7785 74.6151L52.2419 73.9629L46.7528 70.0631L46.2894 70.7152ZM51.7752 74.6127L54.7749 76.7909L55.245 76.1435L52.2452 73.9654L51.7752 74.6127ZM54.6808 76.2399L52.6449 79.1883L53.3032 79.6428L55.3391 76.6945L54.6808 76.2399ZM62.1711 80.056C62.167 80.0498 62.1628 80.0437 62.1585 80.0375L61.5003 80.4923C61.5028 80.4958 61.5052 80.4994 61.5076 80.503L62.1711 80.056ZM62.1586 80.0376L59.5359 76.24L58.8776 76.6947L61.5003 80.4922L62.1586 80.0376ZM59.4418 76.791L62.4654 74.5955L61.9953 73.9482L58.9717 76.1437L59.4418 76.791ZM62.462 74.598L67.9268 70.7154L67.4635 70.0632L61.9987 73.9458L62.462 74.598ZM67.5527 70.7631L70.8419 72.0168L71.1268 71.2693L67.8377 70.0155L67.5527 70.7631ZM70.6291 71.4593L64.1582 83.9679L64.8687 84.3355L71.3396 71.8269L70.6291 71.4593ZM64.8426 83.9244L62.1685 80.0522L61.5102 80.5068L64.1843 84.379L64.8426 83.9244ZM59.1918 80.9801L57.4405 78.4442L56.7822 78.8988L58.5335 81.4347L59.1918 80.9801ZM58.528 80.9883L57.3214 82.8305L57.9907 83.2688L59.1972 81.4266L58.528 80.9883ZM57.3215 82.8304C57.0514 83.2426 56.9438 83.7464 57.0169 84.237L57.8082 84.1192C57.7634 83.8185 57.8303 83.5134 57.9906 83.2689L57.3215 82.8304ZM57.0169 84.2371L58.6033 94.8678L59.3946 94.7497L57.8082 84.1191L57.0169 84.2371ZM58.6437 94.625L56.7522 98.2818L57.4627 98.6494L59.3542 94.9925L58.6437 94.625ZM57.4627 98.2818L55.5961 94.6737L54.8856 95.0413L56.7522 98.6494L57.4627 98.2818ZM55.6365 94.9165L57.2301 84.2371L56.4389 84.1191L54.8452 94.7984L55.6365 94.9165ZM57.2301 84.2372C57.3034 83.7462 57.1956 83.2426 56.9256 82.8305L56.2564 83.2688C56.4168 83.5137 56.4837 83.8186 56.4389 84.119L57.2301 84.2372ZM56.9256 82.8305L55.7041 80.9653L55.0349 81.4036L56.2564 83.2688L56.9256 82.8305ZM55.6982 81.4123L57.4401 78.8994L56.7826 78.4437L55.0407 80.9566L55.6982 81.4123ZM53.2171 83.5973L50.9237 86.9181L51.582 87.3727L53.8754 84.0519L53.2171 83.5973ZM50.8976 87.3292L52.595 90.6109L53.3056 90.2433L51.6082 86.9617L50.8976 87.3292ZM53.4676 84.2496L52.5547 90.3681L53.3459 90.4861L54.2589 84.3677L53.4676 84.2496ZM53.2116 84.0437L53.5286 84.5278L54.1979 84.0895L53.8808 83.6054L53.2116 84.0437ZM61.6854 90.3198L60.7796 84.2498L59.9883 84.3678L60.8942 90.4379L61.6854 90.3198ZM60.7186 84.528L61.0206 84.0669L60.3514 83.6286L60.0494 84.0896L60.7186 84.528ZM63.2918 86.9172L61.0151 83.6204L60.3569 84.075L62.6335 87.3718L63.2918 86.9172ZM61.6451 90.5626L63.318 87.3282L62.6074 86.9607L60.9345 90.1951L61.6451 90.5626ZM65.6331 68.4106V67.2251H64.8331V68.4106H65.6331ZM57.3401 74.509L65.4647 68.7367L65.0014 68.0845L56.8768 73.8568L57.3401 74.509ZM48.7514 68.7361L56.8768 74.509L57.3401 73.8568L49.2147 68.084L48.7514 68.7361ZM48.5831 67.3142V68.4101H49.3831V67.3142H48.5831ZM56.2438 70.3925C55.1545 70.3926 53.9031 69.9488 52.6532 69.2859C51.4109 68.6271 50.2098 67.7732 49.231 67.0003L48.7352 67.6281C49.7347 68.4175 50.9778 69.3029 52.2783 69.9927C53.5711 70.6783 54.9609 71.1926 56.2438 71.1925L56.2438 70.3925ZM56.2593 70.3925H56.2438V71.1925H56.2593V70.3925ZM64.9571 66.9356C60.9563 70.7493 57.0306 70.4823 56.307 70.3954L56.2116 71.1897C57.0809 71.2941 61.2784 71.5475 65.509 67.5147L64.9571 66.9356ZM62.9629 94.4488L66.293 88.0114L65.5824 87.6438L62.2524 94.0812L62.9629 94.4488ZM71.8325 84.7345L62.3288 93.9782L62.8866 94.5517L72.3903 85.308L71.8325 84.7345ZM70.224 82.0948L71.7526 85.198L72.4703 84.8445L70.9416 81.7413L70.224 82.0948ZM70.272 80.2116C69.949 80.7894 69.9313 81.5003 70.2239 82.0947L70.9417 81.7414C70.7648 81.3822 70.7761 80.9494 70.9703 80.602L70.272 80.2116ZM71.845 79.2493C71.1887 79.2603 70.5961 79.6315 70.272 80.2117L70.9704 80.6019C71.1632 80.2568 71.5025 80.0551 71.8583 80.0492L71.845 79.2493ZM75.572 79.1883L71.8451 79.2493L71.8582 80.0492L75.5851 79.9882L75.572 79.1883ZM72.6594 74.3061L75.2164 79.7581L75.9407 79.4184L73.3837 73.9664L72.6594 74.3061ZM66.3223 87.9574L73.3769 74.32L72.6663 73.9524L65.6117 87.5898L66.3223 87.9574ZM66.2856 88.025C66.2983 88.0027 66.3105 87.9801 66.3223 87.9573L65.6117 87.5899C65.6046 87.6036 65.5973 87.617 65.5898 87.6302L66.2856 88.025ZM73.3643 47.7455V38.7586H72.5643V47.7455H73.3643ZM72.9642 48.1455H72.9643V47.3455H72.9642V48.1455ZM67.1467 61.9926C68.803 60.8099 72.5589 57.1221 73.3627 47.7798L72.5656 47.7112C71.7809 56.8319 68.138 60.3017 66.6818 61.3415L67.1467 61.9926ZM66.9896 62.1085C67.0447 62.0673 67.0959 62.029 67.1472 61.9922L66.6813 61.3419C66.6222 61.3843 66.5643 61.4276 66.5103 61.468L66.9896 62.1085ZM66.9088 62.169L66.9897 62.1085L66.5102 61.4681L66.4293 61.5286L66.9088 62.169ZM64.555 64.1367C65.2609 63.4583 66.0517 62.7968 66.9054 62.1715L66.4327 61.5261C65.5524 62.1709 64.7341 62.855 64.0006 63.5599L64.555 64.1367ZM56.4135 67.4805C56.6711 67.519 60.5278 68.0076 64.555 64.1367L64.0006 63.5599C60.2115 67.202 56.6385 66.7052 56.5317 66.6893L56.4135 67.4805ZM56.228 67.4681C56.2881 67.4663 56.3491 67.4703 56.41 67.48L56.5352 66.6898C56.4267 66.6726 56.3159 66.6652 56.2046 66.6684L56.228 67.4681ZM48.6572 63.442C50.1511 64.6894 51.6114 65.7 52.9028 66.3956C54.1783 67.0827 55.3425 67.4922 56.2272 67.4681L56.2054 66.6684C55.5397 66.6865 54.5311 66.364 53.2822 65.6913C52.0491 65.027 50.6332 64.0498 49.17 62.828L48.6572 63.442ZM47.302 62.3906C47.7561 62.7164 48.2121 63.0703 48.6572 63.442L49.17 62.828C48.7105 62.4442 48.239 62.0783 47.7683 61.7406L47.302 62.3906ZM47.2596 62.359L47.2954 62.3858L47.7749 61.7454L47.739 61.7185L47.2596 62.359ZM47.1577 62.2837C47.1928 62.3085 47.2229 62.3312 47.258 62.3578L47.7406 61.7197C47.7057 61.6933 47.6661 61.6634 47.619 61.6301L47.1577 62.2837ZM40.8693 48.1033C40.8761 48.3165 40.975 50.81 41.7987 53.7662C42.6197 56.7122 44.1799 60.1882 47.1581 62.284L47.6185 61.6298C44.8651 59.6921 43.372 56.4319 42.5694 53.5515C41.7696 50.6813 41.6746 48.2585 41.6688 48.0777L40.8693 48.1033ZM40.8691 34.9671V48.0905H41.6691V34.9671H40.8691ZM40.9163 34.7204C40.9035 34.7726 40.8911 34.8253 40.879 34.8784L41.6591 35.0558C41.6702 35.0069 41.6816 34.9585 41.6934 34.9106L40.9163 34.7204ZM73.0138 38.3617L41.3543 34.4185L41.2554 35.2124L72.9149 39.1555L73.0138 38.3617ZM41.1007 34.0684C41.0333 34.2771 40.9716 34.4943 40.9163 34.7203L41.6934 34.9105C41.7442 34.7029 41.8006 34.5043 41.862 34.3144L41.1007 34.0684ZM41.4172 33.2381C41.3016 33.4985 41.1956 33.7749 41.1007 34.0684L41.862 34.3144C41.9483 34.0472 42.0444 33.7969 42.1484 33.5626L41.4172 33.2381ZM46.1398 29.261C45.5832 29.3708 42.8252 30.0645 41.4172 33.2381L42.1484 33.5626C43.4009 30.7396 45.8427 30.135 46.2946 30.0459L46.1398 29.261ZM52.5461 29.2535H46.2172V30.0535H52.5461V29.2535ZM54.5931 28.9156C53.9354 29.1398 53.247 29.2535 52.5461 29.2535V30.0535C53.3341 30.0535 54.1097 29.9255 54.8512 29.6728L54.5931 28.9156ZM59.0746 27.1965C57.6837 27.7582 55.7844 28.5093 54.5931 28.9156L54.8513 29.6728C56.0666 29.2583 57.9857 28.499 59.3742 27.9382L59.0746 27.1965ZM62.2629 27.154C61.23 26.768 60.0971 26.7832 59.0745 27.1965L59.3743 27.9382C60.2115 27.5999 61.1376 27.5875 61.9829 27.9034L62.2629 27.154ZM69.0378 29.6826L62.2628 27.1539L61.983 27.9034L68.758 30.4321L69.0378 29.6826ZM73.3599 34.9843C73.2794 34.4513 72.6397 31.0953 69.044 29.685L68.7518 30.4298C71.9301 31.6763 72.4994 34.6433 72.5688 35.1036L73.3599 34.9843ZM73.3643 38.7586V35.0439H72.5643V38.7586H73.3643ZM41.2554 35.2123L72.9149 39.1555L73.0138 38.3617L41.3543 34.4185L41.2554 35.2123ZM41.6935 34.91L41.6935 34.91L40.9162 34.7209L40.9162 34.7209L41.6935 34.91ZM38.3393 34.8492L41.2554 35.2124L41.3543 34.4185L38.4382 34.0554L38.3393 34.8492ZM38.7537 34.7897C38.7537 34.7039 38.7626 34.6183 38.7802 34.5344L37.9973 34.3702C37.9684 34.5079 37.9537 34.6485 37.9537 34.7897L38.7537 34.7897ZM38.7533 34.8088L38.7533 34.8087L37.9542 34.7707L37.9542 34.7707L38.7533 34.8088ZM38.7537 37.9795V34.7898H37.9537V37.9795H38.7537ZM37.4683 35.4814C37.4683 36.3991 37.6462 37.3022 37.9832 38.1303L38.7242 37.8287C38.4264 37.097 38.2683 36.2964 38.2683 35.4814H37.4683ZM37.4683 27.3191V35.4814H38.2683V27.3191H37.4683ZM49.3605 14.7C42.7802 14.7 37.4683 20.3841 37.4683 27.3191H38.2683C38.2683 20.779 43.2675 15.5 49.3605 15.5V14.7ZM68.7783 14.7H49.3605V15.5H68.7783V14.7ZM71.2894 16.2407C71.0543 15.7585 70.6396 15.423 70.2066 15.1892C69.772 14.9545 69.2885 14.8054 68.8667 14.7099L68.69 15.4901C69.0721 15.5767 69.479 15.7055 69.8265 15.8931C70.1757 16.0817 70.4348 16.3132 70.5703 16.5912L71.2894 16.2407ZM71.2284 18.7984C71.2449 18.7633 71.3847 18.4075 71.463 17.9364C71.5405 17.4697 71.5705 16.817 71.2894 16.2406L70.5703 16.5913C70.743 16.9453 70.7414 17.3984 70.6738 17.8052C70.6069 18.2077 70.488 18.493 70.504 18.4589L71.2284 18.7984ZM71.236 19.7938C71.0933 19.4775 71.0917 19.1079 71.232 18.7904L70.5004 18.4669C70.2679 18.9927 70.2707 19.5996 70.5068 20.1229L71.236 19.7938ZM71.9436 20.4066C71.6415 20.3293 71.3783 20.1089 71.236 19.7937L70.5069 20.123C70.7438 20.6475 71.1952 21.0409 71.7452 21.1816L71.9436 20.4066ZM76.8058 26.0767C76.7525 25.7458 76.5278 24.593 75.8278 23.3924C75.1241 22.1853 73.9294 20.9148 71.9436 20.4066L71.7452 21.1816C73.4704 21.6232 74.5096 22.7197 75.1367 23.7953C75.7676 24.8773 75.9707 25.9227 76.016 26.204L76.8058 26.0767ZM76.8109 37.1325V26.1403H76.0109V37.1325H76.8109ZM76.4111 36.7325H76.4109V37.5325H76.4111V36.7325ZM76.2274 39.3197C76.6088 38.6499 76.8111 37.8952 76.8111 37.1325H76.0111C76.0111 37.754 75.8462 38.3725 75.5322 38.9238L76.2274 39.3197ZM75.4798 34.9381V39.1217H76.2798V34.9381H75.4798ZM75.473 34.8103C75.4774 34.8543 75.4797 34.8972 75.4798 34.9393L76.2798 34.9369C76.2796 34.8673 76.2758 34.7988 76.2691 34.7311L75.473 34.8103ZM74.5241 31.8379C75.3163 33.3954 75.4645 34.7263 75.4731 34.8112L76.269 34.7302C76.2548 34.5901 76.0903 33.1525 75.2372 31.4752L74.5241 31.8379ZM73.764 30.5912C74.0668 31.0096 74.3172 31.431 74.5241 31.8379L75.2372 31.4752C75.0133 31.035 74.7416 30.5775 74.4121 30.1222L73.764 30.5912ZM69.7479 27.5162C71.6432 28.2565 72.9124 29.4142 73.764 30.5912L74.4121 30.1222C73.4818 28.8365 72.0943 27.5738 70.0389 26.7711L69.7479 27.5162ZM69.7311 27.5098L69.7508 27.5173L70.0361 26.77L70.0164 26.7624L69.7311 27.5098ZM62.9486 24.9782L69.7338 27.5109L70.0136 26.7614L63.2283 24.2287L62.9486 24.9782ZM60.7233 24.5754C61.4755 24.5754 62.2285 24.7094 62.9486 24.9782L63.2283 24.2287C62.4185 23.9264 61.5707 23.7754 60.7233 23.7754V24.5754ZM58.4792 24.9857C59.204 24.7122 59.9635 24.5754 60.7233 24.5754V23.7754C59.8673 23.7754 59.012 23.9295 58.1968 24.2372L58.4792 24.9857ZM58.3388 25.0405C58.3854 25.0217 58.4322 25.0035 58.4791 24.9858L58.1969 24.2372C58.1442 24.2571 58.0916 24.2776 58.0392 24.2987L58.3388 25.0405ZM54.7164 26.4524C55.6227 26.12 56.8548 25.6399 58.3388 25.0405L58.0392 24.2988C56.5588 24.8967 55.3357 25.3732 54.441 25.7014L54.7164 26.4524ZM53.9608 26.7211C54.18 26.6464 54.4327 26.5565 54.7164 26.4525L54.441 25.7014C54.1613 25.8039 53.9145 25.8916 53.7027 25.9639L53.9608 26.7211ZM53.2652 26.8954C53.5017 26.8565 53.7341 26.7983 53.9608 26.7211L53.7027 25.9638C53.518 26.0268 53.3285 26.0743 53.1353 26.1061L53.2652 26.8954ZM53.0551 26.9248C53.1255 26.9167 53.1955 26.9069 53.2652 26.8954L53.1353 26.1061C53.0784 26.1154 53.0212 26.1234 52.9636 26.1301L53.0551 26.9248ZM52.5459 26.9538C52.7168 26.9538 52.8867 26.9442 53.0551 26.9248L52.9637 26.13C52.8261 26.1459 52.6867 26.1538 52.5459 26.1538V26.9538ZM46.0998 26.9538H52.5459V26.1538H46.0998V26.9538ZM45.9662 26.9629C46.0109 26.9569 46.0556 26.9538 46.0998 26.9538V26.1538C46.019 26.1538 45.9385 26.1594 45.8589 26.1702L45.9662 26.9629ZM38.8869 34.0684C40.4476 27.7845 45.7701 26.99 45.9672 26.9628L45.8579 26.1703C45.5732 26.2096 39.795 27.0932 38.1105 33.8756L38.8869 34.0684ZM38.7802 34.5344C38.8135 34.3757 38.8491 34.2204 38.8869 34.0684L38.1105 33.8756C38.0703 34.0371 38.0326 34.2019 37.9973 34.3701L38.7802 34.5344ZM41.3543 34.4185L38.4382 34.0553L38.3393 34.8491L41.2554 35.2123L41.3543 34.4185ZM19.3277 99.7963C18.7446 99.7963 18.1874 99.5257 17.801 99.041L17.1755 99.5397C17.7071 100.207 18.4909 100.596 19.3277 100.596V99.7963ZM53.3873 99.7963H19.3277V100.596H53.3873V99.7963ZM39.0292 86.7894L53.1085 100.483L53.6662 99.9095L39.587 86.2159L39.0292 86.7894ZM38.642 84.4633C38.2605 85.2376 38.4136 86.1906 39.0292 86.7894L39.587 86.2159C39.2267 85.8654 39.1272 85.2887 39.3596 84.8169L38.642 84.4633ZM39.5931 82.5328L38.642 84.4634L39.3596 84.8169L40.3107 82.8863L39.5931 82.5328ZM36.2701 83.0492L39.9453 83.1095L39.9585 82.3096L36.2832 82.2493L36.2701 83.0492ZM34.7063 82.1035C35.0326 82.6742 35.6202 83.0387 36.2702 83.0492L36.2831 82.2493C35.9311 82.2436 35.5949 82.0459 35.4009 81.7065L34.7063 82.1035ZM34.6324 80.238C34.3537 80.8321 34.3809 81.5347 34.7064 82.1036L35.4008 81.7063C35.2053 81.3647 35.188 80.9372 35.3566 80.5777L34.6324 80.238ZM37.8378 73.4035L34.6324 80.238L35.3566 80.5777L38.5621 73.7432L37.8378 73.4035ZM23.5783 79.6262L38.3436 73.9467L38.0564 73.2L23.2911 78.8796L23.5783 79.6262ZM19.224 85.2014C19.6239 82.6331 21.2999 80.5025 23.5783 79.6262L23.2911 78.8796C20.7283 79.8653 18.8746 82.2457 18.4335 85.0783L19.224 85.2014ZM17.3436 97.2744L19.224 85.2014L18.4335 85.0783L16.5531 97.1512L17.3436 97.2744ZM17.801 99.0409C17.4136 98.5552 17.2445 97.9115 17.3436 97.2743L16.5531 97.1513C16.4205 98.0037 16.6448 98.8743 17.1755 99.5397L17.801 99.0409ZM96.4151 99.0407C96.0283 99.5255 95.471 99.7961 94.8881 99.7961V100.596C95.7248 100.596 96.5085 100.206 97.0405 99.5396L96.4151 99.0407ZM96.8726 97.2741C96.9717 97.9111 96.8026 98.5548 96.4151 99.0408L97.0405 99.5396C97.5714 98.8739 97.7957 98.0034 97.6631 97.1511L96.8726 97.2741ZM94.9922 85.2012L96.8726 97.2742L97.663 97.1511L95.7826 85.0781L94.9922 85.2012ZM90.6379 79.6261C92.9162 80.5023 94.5923 82.6333 94.9922 85.2012L95.7826 85.0781C95.3416 82.2459 93.4879 79.8651 90.925 78.8794L90.6379 79.6261ZM75.8724 73.9465L90.6378 79.626L90.9251 78.8794L76.1596 73.1998L75.8724 73.9465ZM79.5838 80.2382L76.3782 73.4033L75.6539 73.743L78.8595 80.5779L79.5838 80.2382ZM79.5099 82.1036C79.8349 81.5348 79.8623 80.8324 79.5839 80.2383L78.8595 80.5778C79.0279 80.9372 79.0106 81.3649 78.8153 81.7067L79.5099 82.1036ZM77.946 83.0494C78.5962 83.0389 79.1832 82.6741 79.5097 82.1039L78.8155 81.7064C78.6209 82.0461 78.2848 82.2438 77.9331 82.2495L77.946 83.0494ZM74.2708 83.1095L77.9461 83.0494L77.933 82.2495L74.2577 82.3096L74.2708 83.1095ZM75.5742 84.4633L74.6231 82.5328L73.9055 82.8863L74.8565 84.8169L75.5742 84.4633ZM75.1867 86.7895C75.8028 86.1907 75.9558 85.2378 75.5742 84.4633L74.8566 84.8169C75.0892 85.2889 74.9897 85.8653 74.6291 86.2158L75.1867 86.7895ZM61.1075 100.483L75.1868 86.7894L74.629 86.2159L60.5498 99.9093L61.1075 100.483ZM94.8881 99.7961H60.8287V100.596H94.8881V99.7961Z" fill="white" mask="url(#path-11-inside-1_2603_2809)"/>
<path d="M13.941 58.1921C13.941 56.855 12.0225 55.6851 9.20872 55.1837C8.95292 51.5069 8.05763 49 7.03444 49C6.01125 49 5.11595 51.5069 4.73226 55.1837C1.91848 55.518 0 56.6879 0 58.0249C0 59.362 1.91848 60.5319 4.73226 61.0332C4.98805 64.7101 5.88335 67.217 6.90654 67.217C7.92973 67.217 8.82502 64.7101 9.20872 61.0332C11.8946 60.5319 13.941 59.5291 13.941 58.1921Z" fill="#FFE48F"/>
<path d="M124.941 103.192C124.941 101.855 123.022 100.685 120.209 100.184C119.953 96.5069 119.058 94 118.034 94C117.011 94 116.116 96.5069 115.732 100.184C112.918 100.518 111 101.688 111 103.025C111 104.362 112.918 105.532 115.732 106.033C115.988 109.71 116.883 112.217 117.907 112.217C118.93 112.217 119.825 109.71 120.209 106.033C122.895 105.532 124.941 104.529 124.941 103.192Z" fill="#9FADF0"/>
<path d="M33.3533 6.16718C33.3533 5.27014 32.0662 4.48522 30.1784 4.14883C30.0067 1.68195 29.4061 0 28.7196 0C28.0331 0 27.4324 1.68195 27.175 4.14883C25.2872 4.37309 24 5.158 24 6.05504C24 6.95209 25.2872 7.737 27.175 8.0734C27.3466 10.5403 27.9473 12.2222 28.6338 12.2222C29.3202 12.2222 29.9209 10.5403 30.1784 8.0734C31.9804 7.737 33.3533 7.06422 33.3533 6.16718Z" fill="#9FADF0"/>
<rect x="111.25" y="46.5508" width="6.90644" height="6.90644" transform="rotate(-45 111.25 46.5508)" fill="#E02287" fill-opacity="0.6"/>
</svg>
