<svg width="39" height="34" viewBox="0 0 39 34" fill="none" xmlns="http://www.w3.org/2000/svg">
<g opacity="0.6">
<path fill-rule="evenodd" clip-rule="evenodd" d="M11.3447 22.6667C11.3447 21.8875 12.074 21.25 12.9654 21.25C13.8567 21.25 14.586 21.8875 14.586 22.6667C14.586 23.4459 13.8567 24.0834 12.9654 24.0834C12.074 24.0834 11.3447 23.4459 11.3447 22.6667ZM19.448 21.25H25.9306C26.822 21.25 27.5513 21.8875 27.5513 22.6667C27.5513 23.4459 26.822 24.0834 25.9306 24.0834H19.448C18.5566 24.0834 17.8273 23.4459 17.8273 22.6667C17.8273 21.8875 18.5566 21.25 19.448 21.25ZM29.172 28.3334H9.72404C8.83106 28.3334 8.10338 27.6973 8.10338 26.9167V18.4167H30.7926V26.9167C30.7926 27.6973 30.0649 28.3334 29.172 28.3334M9.72404 8.50004H11.3447V9.91671C11.3447 10.6959 12.074 11.3334 12.9654 11.3334C13.8567 11.3334 14.586 10.6959 14.586 9.91671V8.50004H24.31V9.91671C24.31 10.6959 25.0393 11.3334 25.9306 11.3334C26.822 11.3334 27.5513 10.6959 27.5513 9.91671V8.50004H29.172C30.0649 8.50004 30.7926 9.13612 30.7926 9.91671V15.5834H8.10338V9.91671C8.10338 9.13612 8.83106 8.50004 9.72404 8.50004M29.172 5.66671H27.5513V4.25004C27.5513 3.47087 26.822 2.83337 25.9306 2.83337C25.0393 2.83337 24.31 3.47087 24.31 4.25004V5.66671H14.586V4.25004C14.586 3.47087 13.8567 2.83337 12.9654 2.83337C12.074 2.83337 11.3447 3.47087 11.3447 4.25004V5.66671H9.72404C7.04347 5.66671 4.86206 7.57354 4.86206 9.91671V26.9167C4.86206 29.2599 7.04347 31.1667 9.72404 31.1667H29.172C31.8525 31.1667 34.0339 29.2599 34.0339 26.9167V9.91671C34.0339 7.57354 31.8525 5.66671 29.172 5.66671" fill="#231F20"/>
<mask id="mask0_2603_810" style="mask-type:luminance" maskUnits="userSpaceOnUse" x="4" y="2" width="31" height="30">
<path fill-rule="evenodd" clip-rule="evenodd" d="M11.3447 22.6667C11.3447 21.8875 12.074 21.25 12.9654 21.25C13.8567 21.25 14.586 21.8875 14.586 22.6667C14.586 23.4459 13.8567 24.0834 12.9654 24.0834C12.074 24.0834 11.3447 23.4459 11.3447 22.6667ZM19.448 21.25H25.9306C26.822 21.25 27.5513 21.8875 27.5513 22.6667C27.5513 23.4459 26.822 24.0834 25.9306 24.0834H19.448C18.5566 24.0834 17.8273 23.4459 17.8273 22.6667C17.8273 21.8875 18.5566 21.25 19.448 21.25ZM29.172 28.3334H9.72404C8.83106 28.3334 8.10338 27.6973 8.10338 26.9167V18.4167H30.7926V26.9167C30.7926 27.6973 30.0649 28.3334 29.172 28.3334M9.72404 8.50004H11.3447V9.91671C11.3447 10.6959 12.074 11.3334 12.9654 11.3334C13.8567 11.3334 14.586 10.6959 14.586 9.91671V8.50004H24.31V9.91671C24.31 10.6959 25.0393 11.3334 25.9306 11.3334C26.822 11.3334 27.5513 10.6959 27.5513 9.91671V8.50004H29.172C30.0649 8.50004 30.7926 9.13612 30.7926 9.91671V15.5834H8.10338V9.91671C8.10338 9.13612 8.83106 8.50004 9.72404 8.50004M29.172 5.66671H27.5513V4.25004C27.5513 3.47087 26.822 2.83337 25.9306 2.83337C25.0393 2.83337 24.31 3.47087 24.31 4.25004V5.66671H14.586V4.25004C14.586 3.47087 13.8567 2.83337 12.9654 2.83337C12.074 2.83337 11.3447 3.47087 11.3447 4.25004V5.66671H9.72404C7.04347 5.66671 4.86206 7.57354 4.86206 9.91671V26.9167C4.86206 29.2599 7.04347 31.1667 9.72404 31.1667H29.172C31.8525 31.1667 34.0339 29.2599 34.0339 26.9167V9.91671C34.0339 7.57354 31.8525 5.66671 29.172 5.66671" fill="white"/>
</mask>
<g mask="url(#mask0_2603_810)">
<rect width="38.8958" height="34" fill="#405CE1"/>
</g>
</g>
</svg>
