<svg width="155" height="95" viewBox="0 0 155 95" fill="none" xmlns="http://www.w3.org/2000/svg">
<path d="M54.55 78L53.3114 78.8461C53.5909 79.2553 54.0545 79.5 54.55 79.5V78ZM48.73 69.48L49.9686 68.6339C49.694 68.2319 49.2414 67.9882 48.7546 67.9802C48.2679 67.9722 47.8075 68.2009 47.5199 68.5937L48.73 69.48ZM42.49 78V79.5C42.9681 79.5 43.4176 79.2721 43.7001 78.8863L42.49 78ZM30.13 78L28.9358 77.0923C28.591 77.546 28.533 78.1559 28.7862 78.6665C29.0394 79.177 29.5601 79.5 30.13 79.5V78ZM42.49 61.74L43.6842 62.6477C44.0872 62.1176 44.0924 61.3851 43.6969 60.8493L42.49 61.74ZM30.49 45.48V43.98C29.9239 43.98 29.4061 44.2987 29.151 44.804C28.8959 45.3093 28.947 45.9152 29.2831 46.3707L30.49 45.48ZM43.33 45.48L44.5584 44.6192C44.2777 44.2186 43.8192 43.98 43.33 43.98V45.48ZM49.09 53.7L47.8616 54.5608C48.1394 54.9572 48.5914 55.1953 49.0755 55.1999C49.5596 55.2046 50.0162 54.9754 50.3016 54.5844L49.09 53.7ZM55.09 45.48V43.98C54.611 43.98 54.1608 44.2088 53.8784 44.5956L55.09 45.48ZM67.15 45.48L68.3456 46.3858C68.6895 45.9319 68.7467 45.3224 68.4933 44.8124C68.2398 44.3025 67.7195 43.98 67.15 43.98V45.48ZM55.15 61.32L53.9544 60.4142C53.5513 60.9462 53.5483 61.6805 53.9469 62.2158L55.15 61.32ZM67.57 78V79.5C68.1372 79.5 68.6559 79.18 68.9105 78.6731C69.165 78.1662 69.1119 77.5591 68.7731 77.1042L67.57 78ZM55.7886 77.1539L49.9686 68.6339L47.4914 70.3261L53.3114 78.8461L55.7886 77.1539ZM47.5199 68.5937L41.2799 77.1137L43.7001 78.8863L49.9402 70.3663L47.5199 68.5937ZM42.49 76.5H30.13V79.5H42.49V76.5ZM31.3242 78.9077L43.6842 62.6477L41.2958 60.8323L28.9358 77.0923L31.3242 78.9077ZM43.6969 60.8493L31.6969 44.5893L29.2831 46.3707L41.2831 62.6307L43.6969 60.8493ZM30.49 46.98H43.33V43.98H30.49V46.98ZM42.1016 46.3408L47.8616 54.5608L50.3184 52.8392L44.5584 44.6192L42.1016 46.3408ZM50.3016 54.5844L56.3016 46.3644L53.8784 44.5956L47.8784 52.8156L50.3016 54.5844ZM55.09 46.98H67.15V43.98H55.09V46.98ZM65.9544 44.5742L53.9544 60.4142L56.3456 62.2258L68.3456 46.3858L65.9544 44.5742ZM53.9469 62.2158L66.3669 78.8958L68.7731 77.1042L56.3531 60.4242L53.9469 62.2158ZM67.57 76.5H54.55V79.5H67.57V76.5Z" fill="#2F5ED1"/>
<path d="M120.25 65.44H121.75C121.75 64.6116 121.078 63.94 120.25 63.94V65.44ZM120.25 78V79.5C121.078 79.5 121.75 78.8284 121.75 78H120.25ZM76.65 78H75.15C75.15 78.8284 75.8216 79.5 76.65 79.5V78ZM76.65 68.08L75.6255 66.9844C75.3222 67.268 75.15 67.6647 75.15 68.08H76.65ZM97.61 48.48L98.6345 49.5756L98.6416 49.5689L97.61 48.48ZM101.69 43.6L103.021 44.292C103.024 44.285 103.028 44.2779 103.032 44.2708L101.69 43.6ZM89.77 35.12L90.4737 36.4447C90.4786 36.4421 90.4834 36.4395 90.4883 36.4368L89.77 35.12ZM85.53 39.12L84.7993 40.43C85.4933 40.8171 86.3688 40.5958 86.7955 39.9253L85.53 39.12ZM73.77 32.56L72.4854 31.7855C72.2755 32.1337 72.2159 32.5522 72.3203 32.9452C72.4247 33.3381 72.6842 33.6719 73.0393 33.87L73.77 32.56ZM82.97 24L83.6694 25.327L83.6694 25.327L82.97 24ZM108.25 22.96L107.662 24.3399L107.67 24.3433L108.25 22.96ZM115.93 28.96L114.698 29.8151C114.704 29.8247 114.711 29.8343 114.718 29.8438L115.93 28.96ZM116.73 46.56L115.383 45.8997L115.378 45.9109L116.73 46.56ZM109.21 55.68L108.198 54.5729L108.192 54.5784L109.21 55.68ZM98.65 65.44L97.6319 64.3384C97.1784 64.7575 97.0281 65.4117 97.2532 65.9866C97.4782 66.5616 98.0325 66.94 98.65 66.94V65.44ZM118.75 65.44V78H121.75V65.44H118.75ZM120.25 76.5H76.65V79.5H120.25V76.5ZM78.15 78V68.08H75.15V78H78.15ZM77.6745 69.1756L98.6345 49.5756L96.5855 47.3844L75.6255 66.9844L77.6745 69.1756ZM98.6416 49.5689C100.704 47.615 102.21 45.8504 103.021 44.292L100.359 42.908C99.7829 44.0163 98.5692 45.505 96.5784 47.3911L98.6416 49.5689ZM103.032 44.2708C103.817 42.7007 104.23 41.0858 104.23 39.44H101.23C101.23 40.5675 100.95 41.7259 100.348 42.9292L103.032 44.2708ZM104.23 39.44C104.23 37.2494 103.468 35.3837 101.845 34.0436L99.9347 36.3564C100.766 37.043 101.23 38.0039 101.23 39.44H104.23ZM101.845 34.0436C100.248 32.7239 98.065 32.18 95.53 32.18V35.18C97.6883 35.18 99.0788 35.6494 99.9347 36.3564L101.845 34.0436ZM95.53 32.18C93.2088 32.18 91.0405 32.7184 89.0517 33.8032L90.4883 36.4368C92.0195 35.6016 93.6912 35.18 95.53 35.18V32.18ZM89.0663 33.7953C87.1125 34.8332 85.5123 36.3538 84.2645 38.3147L86.7955 39.9253C87.7877 38.3662 89.0141 37.2201 90.4737 36.4447L89.0663 33.7953ZM86.2607 37.81L74.5007 31.25L73.0393 33.87L84.7993 40.43L86.2607 37.81ZM75.0546 33.3345C77.0925 29.9546 79.951 27.2867 83.6694 25.327L82.2706 22.673C78.0957 24.8733 74.8209 27.9121 72.4854 31.7855L75.0546 33.3345ZM83.6694 25.327C87.3601 23.3819 91.7769 22.38 96.97 22.38V19.38C91.3898 19.38 86.4733 20.4581 82.2706 22.673L83.6694 25.327ZM96.97 22.38C101.075 22.38 104.629 23.0471 107.662 24.3399L108.838 21.5801C105.365 20.0996 101.398 19.38 96.97 19.38V22.38ZM107.67 24.3433C110.748 25.634 113.067 27.4653 114.698 29.8151L117.162 28.1049C115.166 25.2281 112.366 23.0593 108.83 21.5767L107.67 24.3433ZM114.718 29.8438C116.383 32.1269 117.23 34.7983 117.23 37.92H120.23C120.23 34.215 119.211 30.9131 117.142 28.0762L114.718 29.8438ZM117.23 37.92C117.23 40.732 116.615 43.386 115.383 45.8998L118.077 47.2202C119.511 44.294 120.23 41.188 120.23 37.92H117.23ZM115.378 45.9109C114.22 48.3237 111.876 51.2103 108.198 54.573L110.222 56.787C114.011 53.323 116.68 50.1297 118.082 47.2091L115.378 45.9109ZM108.192 54.5784L97.6319 64.3384L99.6681 66.5416L110.228 56.7816L108.192 54.5784ZM98.65 66.94H120.25V63.94H98.65V66.94Z" fill="#FFA200"/>
<path d="M13.941 52.1921C13.941 50.855 12.0225 49.6851 9.20872 49.1837C8.95292 45.5069 8.05763 43 7.03444 43C6.01125 43 5.11595 45.5069 4.73226 49.1837C1.91848 49.518 0 50.6879 0 52.0249C0 53.362 1.91848 54.5319 4.73226 55.0332C4.98805 58.7101 5.88335 61.217 6.90654 61.217C7.92973 61.217 8.82502 58.7101 9.20872 55.0332C11.8946 54.5319 13.941 53.5291 13.941 52.1921Z" fill="#FFE48F"/>
<path d="M154.941 43.1921C154.941 41.855 153.022 40.6851 150.209 40.1837C149.953 36.5069 149.058 34 148.034 34C147.011 34 146.116 36.5069 145.732 40.1837C142.918 40.518 141 41.6879 141 43.0249C141 44.362 142.918 45.5319 145.732 46.0332C145.988 49.7101 146.883 52.217 147.907 52.217C148.93 52.217 149.825 49.7101 150.209 46.0332C152.895 45.5319 154.941 44.5291 154.941 43.1921Z" fill="#9FADF0"/>
<path d="M77.3533 6.16718C77.3533 5.27014 76.0662 4.48522 74.1784 4.14883C74.0067 1.68195 73.4061 0 72.7196 0C72.0331 0 71.4324 1.68195 71.175 4.14883C69.2872 4.37309 68 5.158 68 6.05504C68 6.95209 69.2872 7.737 71.175 8.0734C71.3466 10.5403 71.9473 12.2222 72.6338 12.2222C73.3202 12.2222 73.9209 10.5403 74.1784 8.0734C75.9804 7.737 77.3533 7.06422 77.3533 6.16718Z" fill="#9FADF0"/>
<rect x="80.25" y="89.7031" width="6.90644" height="6.90644" transform="rotate(-45 80.25 89.7031)" fill="#E02287" fill-opacity="0.6"/>
</svg>
