<svg width="135" height="86" viewBox="0 0 135 86" fill="none" xmlns="http://www.w3.org/2000/svg">
<g filter="url(#filter0_d_2603_3477)">
<rect x="20.7498" y="19.75" width="93.5" height="44.5" rx="4.25" stroke="white" stroke-width="1.5"/>
</g>
<path d="M29.461 58.9316V56.0796L35.487 50.4446C35.9163 50.046 36.2307 49.6933 36.43 49.3866C36.6447 49.08 36.7827 48.804 36.844 48.5586C36.9207 48.298 36.959 48.0603 36.959 47.8456C36.959 47.3243 36.7827 46.918 36.43 46.6266C36.0927 46.3353 35.579 46.1896 34.889 46.1896C34.3063 46.1896 33.762 46.32 33.256 46.5806C32.75 46.8413 32.336 47.2323 32.014 47.7536L28.633 45.8676C29.231 44.8556 30.0973 44.043 31.232 43.4296C32.3667 42.8163 33.7237 42.5096 35.303 42.5096C36.545 42.5096 37.6337 42.709 38.569 43.1076C39.5043 43.5063 40.2327 44.0736 40.754 44.8096C41.2907 45.5456 41.559 46.412 41.559 47.4086C41.559 47.93 41.49 48.4513 41.352 48.9726C41.214 49.4786 40.9457 50.023 40.547 50.6056C40.1637 51.173 39.5887 51.8093 38.822 52.5146L34.038 56.9306L33.279 55.3206H41.996V58.9316H29.461ZM47.5076 58.9316V44.4646L49.4626 46.3506H44.5176V42.8316H52.0616V58.9316H47.5076ZM63.7748 59.2536C62.2722 59.2536 60.9612 58.9546 59.8418 58.3566C58.7378 57.7586 57.8715 56.8693 57.2428 55.6886C56.6295 54.508 56.3228 53.0513 56.3228 51.3186C56.3228 49.448 56.6832 47.861 57.4038 46.5576C58.1398 45.239 59.1442 44.2346 60.4168 43.5446C61.7048 42.8546 63.1922 42.5096 64.8788 42.5096C65.7835 42.5096 66.6498 42.617 67.4778 42.8316C68.3212 43.031 69.0342 43.3146 69.6168 43.6826L67.9608 46.9486C67.5008 46.6266 67.0178 46.412 66.5118 46.3046C66.0212 46.182 65.5152 46.1206 64.9938 46.1206C63.7518 46.1206 62.7552 46.4963 62.0038 47.2476C61.2678 47.999 60.8998 49.0953 60.8998 50.5366C60.8998 50.7973 60.8998 51.0733 60.8998 51.3646C60.9152 51.6406 60.9458 51.9243 60.9918 52.2156L59.8418 51.2726C60.1485 50.7053 60.5165 50.23 60.9458 49.8466C61.3905 49.4633 61.9118 49.172 62.5098 48.9726C63.1232 48.7733 63.8055 48.6736 64.5568 48.6736C65.5688 48.6736 66.4888 48.8883 67.3168 49.3176C68.1602 49.7316 68.8348 50.322 69.3408 51.0886C69.8468 51.84 70.0998 52.7293 70.0998 53.7566C70.0998 54.876 69.8162 55.8496 69.2488 56.6776C68.6815 57.4903 67.9225 58.1266 66.9718 58.5866C66.0212 59.0313 64.9555 59.2536 63.7748 59.2536ZM63.4988 56.0106C63.9282 56.0106 64.3038 55.9263 64.6258 55.7576C64.9632 55.589 65.2238 55.3513 65.4078 55.0446C65.5918 54.738 65.6838 54.3776 65.6838 53.9636C65.6838 53.3503 65.4768 52.8596 65.0628 52.4916C64.6642 52.1236 64.1352 51.9396 63.4758 51.9396C63.0312 51.9396 62.6402 52.024 62.3028 52.1926C61.9808 52.3613 61.7202 52.599 61.5208 52.9056C61.3368 53.2123 61.2448 53.5726 61.2448 53.9866C61.2448 54.3853 61.3368 54.738 61.5208 55.0446C61.7048 55.336 61.9655 55.5736 62.3028 55.7576C62.6402 55.9263 63.0388 56.0106 63.4988 56.0106ZM80.2064 59.2536C78.8264 59.2536 77.5997 58.924 76.5264 58.2646C75.4684 57.6053 74.6327 56.6546 74.0194 55.4126C73.406 54.1706 73.0994 52.6603 73.0994 50.8816C73.0994 49.103 73.406 47.5926 74.0194 46.3506C74.6327 45.1086 75.4684 44.158 76.5264 43.4986C77.5997 42.8393 78.8264 42.5096 80.2064 42.5096C81.571 42.5096 82.7824 42.8393 83.8404 43.4986C84.9137 44.158 85.757 45.1086 86.3704 46.3506C86.9837 47.5926 87.2904 49.103 87.2904 50.8816C87.2904 52.6603 86.9837 54.1706 86.3704 55.4126C85.757 56.6546 84.9137 57.6053 83.8404 58.2646C82.7824 58.924 81.571 59.2536 80.2064 59.2536ZM80.2064 55.5276C80.697 55.5276 81.1264 55.3743 81.4944 55.0676C81.8777 54.761 82.1767 54.2703 82.3914 53.5956C82.606 52.9056 82.7134 52.001 82.7134 50.8816C82.7134 49.747 82.606 48.8423 82.3914 48.1676C82.1767 47.493 81.8777 47.0023 81.4944 46.6956C81.1264 46.389 80.697 46.2356 80.2064 46.2356C79.7157 46.2356 79.2787 46.389 78.8954 46.6956C78.5274 47.0023 78.2284 47.493 77.9984 48.1676C77.7837 48.8423 77.6764 49.747 77.6764 50.8816C77.6764 52.001 77.7837 52.9056 77.9984 53.5956C78.2284 54.2703 78.5274 54.761 78.8954 55.0676C79.2787 55.3743 79.7157 55.5276 80.2064 55.5276Z" fill="white"/>
<path d="M31.3758 35.12C30.2238 35.12 29.3198 34.796 28.6638 34.148C28.0158 33.5 27.6918 32.564 27.6918 31.34V26.6H29.2518V31.28C29.2518 32.144 29.4358 32.772 29.8038 33.164C30.1798 33.556 30.7078 33.752 31.3878 33.752C32.0678 33.752 32.5918 33.556 32.9598 33.164C33.3278 32.772 33.5118 32.144 33.5118 31.28V26.6H35.0478V31.34C35.0478 32.564 34.7198 33.5 34.0638 34.148C33.4158 34.796 32.5198 35.12 31.3758 35.12ZM36.9925 35V26.6H38.5525V33.68H42.9445V35H36.9925ZM44.855 35V27.92H42.071V26.6H49.199V27.92H46.415V35H44.855ZM50.1297 35V26.6H53.5857C54.3297 26.6 54.9657 26.72 55.4937 26.96C56.0297 27.2 56.4417 27.544 56.7297 27.992C57.0177 28.44 57.1617 28.972 57.1617 29.588C57.1617 30.204 57.0177 30.736 56.7297 31.184C56.4417 31.624 56.0297 31.964 55.4937 32.204C54.9657 32.436 54.3297 32.552 53.5857 32.552H50.9937L51.6897 31.844V35H50.1297ZM55.6257 35L53.5017 31.952H55.1697L57.3057 35H55.6257ZM51.6897 32.012L50.9937 31.268H53.5137C54.2017 31.268 54.7177 31.12 55.0617 30.824C55.4137 30.528 55.5897 30.116 55.5897 29.588C55.5897 29.052 55.4137 28.64 55.0617 28.352C54.7177 28.064 54.2017 27.92 53.5137 27.92H50.9937L51.6897 27.152V32.012ZM57.4791 35L61.2591 26.6H62.7951L66.5871 35H64.9551L61.7031 27.428H62.3271L59.0871 35H57.4791ZM59.2191 33.056L59.6391 31.832H64.1751L64.5951 33.056H59.2191ZM75.8198 26.6H78.1958V35H75.8198V26.6ZM72.5798 35H70.2038V26.6H72.5798V35ZM75.9878 31.724H72.4118V29.756H75.9878V31.724ZM79.6317 35V26.6H83.6037C84.5317 26.6 85.3477 26.772 86.0517 27.116C86.7557 27.46 87.3037 27.944 87.6957 28.568C88.0957 29.192 88.2957 29.936 88.2957 30.8C88.2957 31.656 88.0957 32.4 87.6957 33.032C87.3037 33.656 86.7557 34.14 86.0517 34.484C85.3477 34.828 84.5317 35 83.6037 35H79.6317ZM82.0077 33.104H83.5077C83.9877 33.104 84.4037 33.016 84.7557 32.84C85.1157 32.656 85.3957 32.392 85.5957 32.048C85.7957 31.696 85.8957 31.28 85.8957 30.8C85.8957 30.312 85.7957 29.896 85.5957 29.552C85.3957 29.208 85.1157 28.948 84.7557 28.772C84.4037 28.588 83.9877 28.496 83.5077 28.496H82.0077V33.104ZM92.126 33.092V32.012L96.266 26.6H97.934L93.854 32.012L93.074 31.772H99.734V33.092H92.126ZM96.734 35V33.092L96.782 31.772V30.08H98.246V35H96.734ZM102.143 33.02L102.059 31.172L106.463 26.6H108.215L104.555 30.488L103.691 31.436L102.143 33.02ZM100.751 35V26.6H102.311V35H100.751ZM106.607 35L103.391 31.172L104.423 30.032L108.431 35H106.607Z" fill="white"/>
<defs>
<filter id="filter0_d_2603_3477" x="-0.000244141" y="0" width="135" height="86" filterUnits="userSpaceOnUse" color-interpolation-filters="sRGB">
<feFlood flood-opacity="0" result="BackgroundImageFix"/>
<feColorMatrix in="SourceAlpha" type="matrix" values="0 0 0 0 0 0 0 0 0 0 0 0 0 0 0 0 0 0 127 0" result="hardAlpha"/>
<feOffset dy="1"/>
<feGaussianBlur stdDeviation="10"/>
<feColorMatrix type="matrix" values="0 0 0 0 0.0904167 0 0 0 0 0.135562 0 0 0 0 0.35 0 0 0 0.2 0"/>
<feBlend mode="normal" in2="BackgroundImageFix" result="effect1_dropShadow_2603_3477"/>
<feBlend mode="normal" in="SourceGraphic" in2="effect1_dropShadow_2603_3477" result="shape"/>
</filter>
</defs>
</svg>
