<svg width="395" height="104" viewBox="0 0 395 104" fill="none" xmlns="http://www.w3.org/2000/svg">
<path d="M104.569 62.8359C102.824 62.8359 101.095 63.7241 99.7266 65.524C98.3532 67.3308 97.5635 69.7837 97.5635 72.4466C97.5635 75.1916 98.4138 77.6354 99.7294 79.3662C101.045 81.0965 102.769 82.0576 104.569 82.0581V62.8359ZM104.569 62.8359C106.37 62.8359 108.094 63.7968 109.409 65.5271C110.725 67.2579 111.575 69.702 111.575 72.4475C111.575 75.1104 110.785 77.5632 109.412 79.3701C108.044 81.1698 106.315 82.058 104.569 82.0581L104.569 62.8359ZM104.569 77.3966C105.78 77.3966 106.829 76.7691 107.551 75.8213L106.556 75.064L107.552 75.82C108.268 74.8761 108.629 73.6728 108.629 72.4475C108.629 71.1786 108.239 69.9825 107.551 69.0767C106.862 68.1704 105.82 67.4983 104.569 67.4983C103.36 67.4983 102.31 68.1239 101.588 69.0743C100.871 70.0174 100.509 71.2219 100.509 72.4475C100.509 73.7162 100.9 74.9122 101.588 75.8179C102.276 76.724 103.318 77.3966 104.569 77.3966Z" fill="#2F5ED1" stroke="white" stroke-width="2.5"/>
<path d="M61.3035 65.5259L61.3037 65.5257C62.6714 63.7254 64.4003 62.8379 66.1462 62.8379H66.1462H66.1462H66.1462H66.1462H66.1462H66.1462H66.1462H66.1462H66.1462H66.1462H66.1463H66.1463H66.1463H66.1463H66.1463H66.1463H66.1463H66.1463H66.1463H66.1463H66.1463H66.1463H66.1464H66.1464H66.1464H66.1464H66.1464H66.1464H66.1464H66.1464H66.1464H66.1464H66.1464H66.1465H66.1465H66.1465H66.1465H66.1465H66.1465H66.1465H66.1465H66.1465H66.1465H66.1465H66.1465H66.1465H66.1466H66.1466H66.1466H66.1466H66.1466H66.1466H66.1466H66.1466H66.1466H66.1466H66.1466H66.1466H66.1466H66.1467H66.1467H66.1467H66.1467H66.1467H66.1467H66.1467H66.1467H66.1467H66.1467H66.1467H66.1467H66.1468H66.1468H66.1468H66.1468H66.1468H66.1468H66.1468H66.1468H66.1468H66.1468H66.1468H66.1469H66.1469H66.1469C67.9469 62.8379 69.6709 63.7987 70.9861 65.529C72.3016 67.2597 73.1519 69.7035 73.1519 72.4485C73.1519 75.1125 72.3628 77.5643 70.9895 79.3711C69.6215 81.1709 67.8925 82.0591 66.1469 82.0591C64.3464 82.0591 62.6223 81.0983 61.307 79.368C59.9914 77.6373 59.1411 75.1935 59.1411 72.4485C59.1411 69.7846 59.9309 67.3318 61.3035 65.5259ZM66.1469 67.4984C64.937 67.4984 63.8864 68.1256 63.1648 69.0757L63.1646 69.076C62.4475 70.0193 62.0868 71.2227 62.0868 72.4476C62.0868 73.7165 62.4771 74.9127 63.1651 75.8187C63.8534 76.7251 64.8958 77.3977 66.1469 77.3977C67.3577 77.3977 68.4065 76.7696 69.128 75.8207C69.8454 74.8773 70.2062 73.6737 70.2062 72.4485C70.2062 71.1796 69.8159 69.9834 69.1281 69.0775C68.44 68.1712 67.3978 67.4984 66.1469 67.4984Z" fill="#2F5ED1" stroke="white" stroke-width="2.5"/>
<path d="M42.2443 70.3867C42.5738 70.3867 42.9438 70.56 43.2641 70.9815C43.585 71.4036 43.8126 72.0312 43.8126 72.766C43.8126 73.5003 43.5851 74.1279 43.2641 74.5503C42.9436 74.972 42.5736 75.1453 42.2443 75.1453C41.9146 75.1453 41.5446 74.9719 41.2243 74.5504C40.9034 74.1281 40.676 73.5005 40.676 72.766C40.676 72.0311 40.9035 71.4035 41.2243 70.9814C41.5444 70.5601 41.9143 70.3867 42.2443 70.3867Z" fill="#FFA200" stroke="white" stroke-width="2"/>
<path d="M52.1378 70.3867C52.4673 70.3867 52.837 70.5599 53.1572 70.9813C53.478 71.4035 53.7054 72.0311 53.7054 72.766C53.7054 73.5005 53.478 74.1281 53.1572 74.5505C52.8368 74.9721 52.4671 75.1453 52.1378 75.1453C51.8081 75.1453 51.4382 74.972 51.1179 74.5504C50.797 74.1281 50.5696 73.5005 50.5696 72.766C50.5696 72.0311 50.797 71.4035 51.1178 70.9814C51.438 70.5601 51.8079 70.3867 52.1378 70.3867Z" fill="#FFA200" stroke="white" stroke-width="2"/>
<path d="M80.119 70.3867C80.449 70.3867 80.8189 70.5601 81.1391 70.9814C81.4599 71.4035 81.6873 72.0311 81.6873 72.766C81.6873 73.5005 81.4599 74.1281 81.139 74.5504C80.8187 74.972 80.4488 75.1453 80.119 75.1453C79.7898 75.1453 79.4198 74.972 79.0993 74.5503C78.7783 74.1279 78.5508 73.5003 78.5508 72.766C78.5508 72.0312 78.7783 71.4036 79.0992 70.9815C79.4196 70.56 79.7895 70.3867 80.119 70.3867Z" fill="#FFA200" stroke="white" stroke-width="2"/>
<path d="M90.0131 70.3867C90.343 70.3867 90.713 70.5601 91.0331 70.9814C91.3539 71.4035 91.5814 72.0311 91.5814 72.766C91.5814 73.5005 91.354 74.1281 91.0331 74.5504C90.7128 74.972 90.3428 75.1453 90.0131 75.1453C89.6838 75.1453 89.3138 74.972 88.9933 74.5503C88.6723 74.1279 88.4448 73.5003 88.4448 72.766C88.4448 72.0312 88.6724 71.4036 88.9933 70.9815C89.3136 70.56 89.6836 70.3867 90.0131 70.3867Z" fill="#FFA200" stroke="white" stroke-width="2"/>
<path d="M59.6262 83.4507H73.1659C73.4437 83.4507 73.7843 83.5957 74.0963 84.006C74.4091 84.4173 74.6388 85.0408 74.6388 85.7814C74.6388 86.522 74.4091 87.1455 74.0963 87.5568C73.7843 87.9672 73.4437 88.1121 73.1659 88.1121H59.6262C59.3484 88.1121 59.0078 87.9672 58.6958 87.5568C58.383 87.1455 58.1533 86.522 58.1533 85.7814C58.1533 85.0408 58.383 84.4173 58.6958 84.006C59.0078 83.5957 59.3484 83.4507 59.6262 83.4507Z" fill="#FFA200" stroke="white" stroke-width="2.5"/>
<path d="M26.4087 75.6749L27.2123 76.7559L28.0146 75.6739L34.7728 66.5592C34.7729 66.5592 34.7729 66.5592 34.7729 66.5591C35.0909 66.1304 35.4352 66.0005 35.6949 66C35.9544 65.9995 36.2982 66.1279 36.6165 66.555L36.6169 66.5555C36.9435 66.9934 37.1347 67.6125 37.1354 68.2759C37.1362 68.9393 36.9465 69.5597 36.6202 69.9995L36.6202 69.9996L28.1369 81.4409C28.1368 81.441 28.1368 81.441 28.1368 81.441C27.8285 81.8568 27.4838 82 27.2145 82H27.2132C26.9432 82 26.5991 81.857 26.291 81.4421L26.2908 81.4418L22.9228 76.91C22.9228 76.91 22.9227 76.91 22.9227 76.91C22.5964 76.4709 22.4061 75.8509 22.4063 75.1875C22.4064 74.5241 22.5969 73.9046 22.9235 73.4661L22.9237 73.4658C23.2422 73.0377 23.5863 72.9087 23.8457 72.9088C24.105 72.9089 24.4489 73.0381 24.7673 73.4667L24.7676 73.4671L26.4087 75.6749Z" fill="#2F5ED1" stroke="white" stroke-width="2"/>
<path d="M288.418 24.4H289.668C289.668 23.7096 289.109 23.15 288.418 23.15V24.4ZM288.418 58V59.25C289.109 59.25 289.668 58.6904 289.668 58H288.418ZM278.914 58H277.664C277.664 58.6904 278.224 59.25 278.914 59.25V58ZM278.914 31.744H280.164C280.164 31.0536 279.605 30.494 278.914 30.494V31.744ZM272.674 31.744H271.424C271.424 32.4344 271.984 32.994 272.674 32.994V31.744ZM272.674 24.4V23.15C271.984 23.15 271.424 23.7096 271.424 24.4H272.674ZM287.168 24.4V58H289.668V24.4H287.168ZM288.418 56.75H278.914V59.25H288.418V56.75ZM280.164 58V31.744H277.664V58H280.164ZM278.914 30.494H272.674V32.994H278.914V30.494ZM273.924 31.744V24.4H271.424V31.744H273.924ZM272.674 25.65H288.418V23.15H272.674V25.65Z" fill="#FFA200"/>
<path d="M343.876 50.464H344.876C344.876 49.9117 344.428 49.464 343.876 49.464V50.464ZM343.876 58V59C344.428 59 344.876 58.5523 344.876 58H343.876ZM317.716 58H316.716C316.716 58.5523 317.163 59 317.716 59V58ZM317.716 52.048L317.033 51.3176C316.83 51.5067 316.716 51.7711 316.716 52.048H317.716ZM330.292 40.288L330.975 41.0184L330.979 41.014L330.292 40.288ZM332.74 37.36L333.627 37.8214C333.629 37.8167 333.632 37.8119 333.634 37.8072L332.74 37.36ZM325.588 32.272L326.057 33.1552L326.066 33.1499L325.588 32.272ZM323.044 34.672L322.556 35.5453C323.019 35.8034 323.603 35.6559 323.887 35.2089L323.044 34.672ZM315.988 30.736L315.131 30.2197C314.991 30.4518 314.951 30.7308 315.021 30.9928C315.091 31.2548 315.264 31.4773 315.5 31.6093L315.988 30.736ZM321.508 25.6L321.974 26.4847L321.974 26.4847L321.508 25.6ZM336.676 24.976L336.283 25.8959L336.289 25.8982L336.676 24.976ZM341.284 28.576L340.462 29.1461C340.466 29.1525 340.471 29.1589 340.476 29.1652L341.284 28.576ZM341.764 39.136L340.866 38.6958L340.862 38.7033L341.764 39.136ZM337.252 44.608L336.577 43.87L336.573 43.8736L337.252 44.608ZM330.916 50.464L330.237 49.7296C329.934 50.009 329.834 50.4451 329.984 50.8284C330.134 51.2118 330.504 51.464 330.916 51.464V50.464ZM342.876 50.464V58H344.876V50.464H342.876ZM343.876 57H317.716V59H343.876V57ZM318.716 58V52.048H316.716V58H318.716ZM318.399 52.7784L330.975 41.0184L329.609 39.5576L317.033 51.3176L318.399 52.7784ZM330.979 41.014C332.219 39.8393 333.133 38.7714 333.627 37.8214L331.852 36.8986C331.514 37.5486 330.796 38.4327 329.604 39.562L330.979 41.014ZM333.634 37.8072C334.111 36.8529 334.364 35.8688 334.364 34.864H332.364C332.364 35.5232 332.2 36.2031 331.845 36.9128L333.634 37.8072ZM334.364 34.864C334.364 33.5245 333.896 32.3749 332.896 31.549L331.623 33.091C332.095 33.4811 332.364 34.0275 332.364 34.864H334.364ZM332.896 31.549C331.913 30.7368 330.577 30.408 329.044 30.408V32.408C330.326 32.408 331.134 32.6872 331.623 33.091L332.896 31.549ZM329.044 30.408C327.635 30.408 326.317 30.7349 325.109 31.3941L326.066 33.1499C326.97 32.6571 327.956 32.408 329.044 32.408V30.408ZM325.118 31.3889C323.93 32.0204 322.957 32.9452 322.2 34.1351L323.887 35.2089C324.474 34.2868 325.197 33.6116 326.057 33.1551L325.118 31.3889ZM323.531 33.7987L316.475 29.8627L315.5 31.6093L322.556 35.5453L323.531 33.7987ZM316.844 31.2523C318.057 29.2408 319.758 27.6525 321.974 26.4847L321.041 24.7153C318.521 26.0435 316.542 27.8792 315.131 30.2197L316.844 31.2523ZM321.974 26.4847C324.171 25.3266 326.805 24.728 329.908 24.728V22.728C326.546 22.728 323.58 23.3774 321.041 24.7153L321.974 26.4847ZM329.908 24.728C332.36 24.728 334.478 25.1265 336.283 25.8959L337.068 24.0561C334.969 23.1615 332.575 22.728 329.908 22.728V24.728ZM336.289 25.8982C338.12 26.6662 339.496 27.7537 340.462 29.1461L342.105 28.0059C340.895 26.2623 339.199 24.9498 337.062 24.0538L336.289 25.8982ZM340.476 29.1652C341.461 30.5166 341.964 32.0984 341.964 33.952H343.964C343.964 31.7096 343.346 29.7074 342.092 27.9868L340.476 29.1652ZM341.964 33.952C341.964 35.624 341.598 37.2014 340.866 38.6958L342.661 39.5762C343.529 37.8066 343.964 35.928 343.964 33.952H341.964ZM340.862 38.7033C340.175 40.134 338.78 41.8558 336.577 43.87L337.926 45.346C340.203 43.2642 341.816 41.338 342.665 39.5687L340.862 38.7033ZM336.573 43.8736L330.237 49.7296L331.594 51.1984L337.93 45.3424L336.573 43.8736ZM330.916 51.464H343.876V49.464H330.916V51.464Z" fill="#2F5ED1"/>
<path d="M385.732 37.84L384.999 37.1592C384.754 37.4237 384.669 37.8001 384.779 38.1441C384.889 38.488 385.176 38.7461 385.529 38.8193L385.732 37.84ZM392.116 41.296L391.355 41.9445C391.359 41.9495 391.363 41.9545 391.368 41.9595L392.116 41.296ZM392.74 53.008L391.898 52.468L391.891 52.4794L392.74 53.008ZM387.844 57.136L388.27 58.0408L388.275 58.0381L387.844 57.136ZM372.676 57.808L372.433 58.7781L372.437 58.7789L372.676 57.808ZM366.676 55.36L365.776 54.9249C365.553 55.385 365.714 55.9388 366.147 56.2089L366.676 55.36ZM370.132 48.208L370.696 47.3822C370.455 47.218 370.155 47.1667 369.874 47.2418C369.593 47.3169 369.358 47.5108 369.232 47.7729L370.132 48.208ZM374.548 50.272L374.266 51.2314L374.271 51.2328L374.548 50.272ZM383.332 50.08L383.867 50.9248L383.867 50.9248L383.332 50.08ZM375.652 44.224H374.652C374.652 44.7763 375.1 45.224 375.652 45.224V44.224ZM375.652 38.224L374.918 37.5446C374.747 37.7294 374.652 37.9721 374.652 38.224H375.652ZM381.652 31.744L382.386 32.4234C382.656 32.1318 382.727 31.7079 382.568 31.3436C382.409 30.9794 382.049 30.744 381.652 30.744V31.744ZM368.404 31.744H367.404C367.404 32.2963 367.852 32.744 368.404 32.744V31.744ZM368.404 24.4V23.4C367.852 23.4 367.404 23.8477 367.404 24.4H368.404ZM392.692 24.4H393.692C393.692 23.8477 393.244 23.4 392.692 23.4V24.4ZM392.692 30.352L393.424 31.0328C393.596 30.8478 393.692 30.6046 393.692 30.352H392.692ZM385.529 38.8193C388.152 39.3618 390.06 40.4247 391.355 41.9445L392.877 40.6475C391.228 38.7113 388.88 37.4702 385.935 36.8607L385.529 38.8193ZM391.368 41.9595C392.697 43.4586 393.372 45.2811 393.372 47.488H395.372C395.372 44.8309 394.543 42.5254 392.864 40.6325L391.368 41.9595ZM393.372 47.488C393.372 49.2774 392.885 50.9305 391.898 52.468L393.582 53.548C394.771 51.6935 395.372 49.6666 395.372 47.488H393.372ZM391.891 52.4794C390.956 53.9807 389.487 55.2415 387.412 56.2339L388.275 58.0381C390.616 56.9185 392.412 55.4273 393.589 53.5366L391.891 52.4794ZM387.418 56.2312C385.413 57.1748 382.865 57.672 379.732 57.672V59.672C383.063 59.672 385.923 59.1452 388.27 58.0408L387.418 56.2312ZM379.732 57.672C377.446 57.672 375.174 57.3941 372.915 56.8371L372.437 58.7789C374.85 59.3739 377.282 59.672 379.732 59.672V57.672ZM372.918 56.8379C370.697 56.2825 368.797 55.5028 367.204 54.5111L366.147 56.2089C367.947 57.3292 370.047 58.1815 372.433 58.7781L372.918 56.8379ZM367.576 55.7951L371.032 48.6431L369.232 47.7729L365.776 54.9249L367.576 55.7951ZM369.568 49.0338C370.972 49.9928 372.541 50.7239 374.266 51.2314L374.83 49.3126C373.291 48.8601 371.916 48.2152 370.696 47.3822L369.568 49.0338ZM374.271 51.2328C376.017 51.7367 377.743 51.992 379.444 51.992V49.992C377.945 49.992 376.406 49.7673 374.825 49.3112L374.271 51.2328ZM379.444 51.992C381.187 51.992 382.692 51.6693 383.867 50.9248L382.797 49.2352C382.052 49.7067 380.965 49.992 379.444 49.992V51.992ZM383.867 50.9248C385.111 50.1367 385.772 48.9567 385.772 47.488H383.772C383.772 48.2593 383.473 48.8073 382.797 49.2352L383.867 50.9248ZM385.772 47.488C385.772 46.0877 385.193 44.939 384.024 44.196C382.932 43.5019 381.422 43.224 379.636 43.224V45.224C381.274 45.224 382.332 45.4901 382.952 45.884C383.494 46.229 383.772 46.7123 383.772 47.488H385.772ZM379.636 43.224H375.652V45.224H379.636V43.224ZM376.652 44.224V38.224H374.652V44.224H376.652ZM376.386 38.9034L382.386 32.4234L380.918 31.0646L374.918 37.5446L376.386 38.9034ZM381.652 30.744H368.404V32.744H381.652V30.744ZM369.404 31.744V24.4H367.404V31.744H369.404ZM368.404 25.4H392.692V23.4H368.404V25.4ZM391.692 24.4V30.352H393.692V24.4H391.692ZM391.959 29.6712L384.999 37.1592L386.464 38.5208L393.424 31.0328L391.959 29.6712Z" fill="#2F5ED1"/>
<path d="M141.045 52.8171C141.045 51.48 139.126 50.3101 136.313 49.8087C136.057 46.1319 135.162 43.625 134.138 43.625C133.115 43.625 132.22 46.1319 131.836 49.8087C129.022 50.143 127.104 51.3129 127.104 52.6499C127.104 53.987 129.022 55.1569 131.836 55.6582C132.092 59.3351 132.987 61.842 134.011 61.842C135.034 61.842 135.929 59.3351 136.313 55.6582C138.999 55.1569 141.045 54.1541 141.045 52.8171Z" fill="#FFE48F"/>
<path d="M14.0555 40.1921C14.0555 38.855 12.137 37.6851 9.32322 37.1837C9.06742 33.5069 8.17213 31 7.14894 31C6.12575 31 5.23045 33.5069 4.84676 37.1837C2.03298 37.518 0.114502 38.6879 0.114502 40.0249C0.114502 41.362 2.03298 42.5319 4.84676 43.0332C5.10256 46.7101 5.99785 49.217 7.02104 49.217C8.04423 49.217 8.93952 46.7101 9.32322 43.0332C12.0091 42.5319 14.0555 41.5291 14.0555 40.1921Z" fill="#9FADF0"/>
<path d="M87.0303 97.1672C87.0303 96.2701 85.7432 95.4852 83.8554 95.1488C83.6837 92.682 83.0831 91 82.3966 91C81.7101 91 81.1094 92.682 80.852 95.1488C78.9642 95.3731 77.677 96.158 77.677 97.055C77.677 97.9521 78.9642 98.737 80.852 99.0734C81.0236 101.54 81.6243 103.222 82.3108 103.222C82.9972 103.222 83.5979 101.54 83.8554 99.0734C85.6574 98.737 87.0303 98.0642 87.0303 97.1672Z" fill="#9FADF0"/>
<rect x="343.25" y="5.73047" width="6.90644" height="6.90644" transform="rotate(-45 343.25 5.73047)" fill="#E02287" fill-opacity="0.6"/>
</svg>
