<svg width="157" height="97" viewBox="0 0 157 97" fill="none" xmlns="http://www.w3.org/2000/svg">
<mask id="path-1-inside-1_2603_2734" fill="white">
<path d="M107.881 47.2896C107.62 45.851 106.433 44.8108 105.051 44.81H102.268L102.063 43.5098C101.859 42.204 100.888 41.1838 99.654 40.9783C99.3801 40.9325 99.1033 40.9019 98.8309 40.8622C99.303 38.5265 98.9108 36.0879 97.7353 34.0498C98.3564 32.3425 98.2404 30.4325 97.4181 28.8236C96.5958 27.2146 95.1497 26.0683 93.4611 25.6868C92.3815 19.5634 87.3551 15.1124 81.4774 15.0748C81.3333 15.0748 81.2049 15.0947 81.068 15.0993C80.1288 13.5361 78.5804 12.4987 76.8452 12.27C75.11 12.0412 73.3691 12.6451 72.0972 13.9168C70.4949 12.813 68.6254 12.2245 66.7144 12.2225C63.6353 12.2358 60.7334 13.7505 58.8464 16.3291C56.7511 15.6816 54.4917 16.0792 52.7063 17.4096C50.9209 18.74 49.8034 20.8588 49.6694 23.1675C47.4686 24.1479 46.0366 26.4307 46.0352 28.9608C46.0398 29.3994 46.0881 29.8362 46.1794 30.264C44.2331 33.3735 43.7246 37.2515 44.7969 40.8057C44.4106 40.8622 44.0156 40.9126 43.6437 40.9707C42.4034 41.169 41.424 42.1898 41.2161 43.5007L41.0114 44.8054H38.2205C36.8408 44.8064 35.6551 45.8433 35.3922 47.2789L29.0796 81.6264C28.8331 82.9715 29.1674 84.363 29.9909 85.4194C30.8144 86.4759 32.0407 87.0864 33.3337 87.0836H63.3959C64.5895 89.1705 68.2165 90.1392 71.6359 90.1392C75.0192 90.1392 78.6116 89.1935 79.8398 87.0836H109.938C111.231 87.0863 112.457 86.476 113.28 85.4199C114.104 84.3639 114.438 82.9728 114.192 81.6279L107.881 47.2896ZM50.3945 31.7261C49.2241 30.9803 48.6654 29.4996 49.028 28.1042C49.3906 26.7087 50.5857 25.7398 51.9514 25.7341C52.9072 25.7311 53.8068 26.2127 54.3718 27.0297C54.6787 27.468 55.183 27.6995 55.6946 27.6369C56.2063 27.5743 56.6475 27.2272 56.8522 26.7263C57.0569 26.2254 56.9939 25.6469 56.6869 25.2086C55.7081 23.8221 54.2246 22.9351 52.5987 22.7641C53.0284 20.6245 54.8088 19.0928 56.8729 19.0868C57.0488 19.0962 57.224 19.1166 57.3976 19.1479C57.2816 19.4611 57.1806 19.7803 57.0949 20.1043C56.9155 20.913 57.3787 21.7255 58.1377 21.9332C58.8967 22.1409 59.6732 21.6678 59.8857 20.8682C60.0497 20.1967 60.3015 19.5529 60.6339 18.9554C61.9126 16.685 64.2196 15.2899 66.7144 15.278C68.0722 15.2844 69.3989 15.7091 70.5331 16.5003C70.317 17.1436 70.2026 17.8203 70.1943 18.5032C70.1943 19.3469 70.8397 20.031 71.6359 20.031C72.432 20.031 73.0774 19.3469 73.0774 18.5032C73.0774 16.7283 74.4351 15.2895 76.1098 15.2895C77.7845 15.2895 79.1421 16.7283 79.1421 18.5032C79.1421 19.3469 79.7875 20.031 80.5836 20.031C81.3798 20.031 82.0252 19.3469 82.0252 18.5032C82.0252 18.3855 81.9978 18.274 81.992 18.1564C86.1197 18.4263 89.5907 21.5358 90.529 25.8044C89.8565 26.0119 89.2247 26.3457 88.6636 26.7898C88.2516 27.1173 88.0357 27.6529 88.0973 28.1948C88.1589 28.7367 88.4886 29.2026 88.9622 29.417C89.4359 29.6314 89.9814 29.5618 90.3934 29.2343C91.5454 28.3304 93.1367 28.4025 94.2117 29.4073C95.2867 30.412 95.553 32.0763 94.8507 33.4005C94.5369 33.9853 94.0601 34.4528 93.4856 34.7389C92.8831 35.048 92.5607 35.756 92.7072 36.4482C92.8536 37.1404 93.4304 37.6347 94.0997 37.6417C94.3111 37.642 94.5199 37.5924 94.7109 37.4965C95.093 37.3003 95.454 37.0611 95.7878 36.783C96.5329 39.0282 96.0656 41.5253 94.5682 43.299L94.5336 43.3372C92.6556 45.4933 89.6597 46.076 87.1817 44.7672C86.9389 44.6313 86.7058 44.4772 86.4839 44.3058C87.5458 42.7282 87.6924 40.6559 86.8645 38.928C86.6328 38.4403 86.1731 38.1207 85.6587 38.0896C85.1443 38.0585 84.6533 38.3205 84.3707 38.7771C84.088 39.2337 84.0567 39.8153 84.2884 40.303C84.7625 41.3128 84.4668 42.5382 83.5936 43.1829C83.0808 43.5447 82.4474 43.6591 81.8504 43.4978C81.2535 43.3364 80.7492 42.9144 80.4625 42.3365C80.2321 41.8483 79.7733 41.5274 79.2591 41.4948C78.7449 41.4623 78.2534 41.7229 77.9697 42.1785C77.6859 42.6342 77.6531 43.2156 77.8836 43.7039C78.729 45.5126 80.4709 46.6548 82.3755 46.6494C82.9955 46.645 83.6093 46.517 84.1847 46.2721C84.6995 46.7498 85.2668 47.1602 85.8742 47.4943C87.9287 48.6229 90.3178 48.857 92.5327 48.1466C91.1081 50.2081 88.9761 51.5936 86.5964 52.0043C85.856 52.132 85.3318 52.8401 85.3909 53.6326C85.45 54.425 86.0726 55.0371 86.8227 55.04C86.8994 55.04 86.9761 55.0338 87.0519 55.0217C87.9297 54.8606 88.7876 54.5951 89.6092 54.2303C90.0533 55.0624 90.4138 55.9416 90.6846 56.8535C90.7343 57.0127 90.7596 57.1793 90.7596 57.3469C90.7592 58.0072 90.3871 58.6036 89.8139 58.8625C89.1509 59.1343 88.398 58.9198 87.9529 58.3323C86.8365 56.9429 85.3746 55.9134 83.7334 55.3608C80.6182 54.2547 79.416 53.2662 78.9057 52.1907C79.6536 52.0918 80.3927 51.9283 81.1156 51.7018C81.6079 51.5413 81.9821 51.1147 82.0972 50.5825C82.2122 50.0504 82.0507 49.4936 81.6733 49.122C81.296 48.7503 80.7603 48.6202 80.2679 48.7807C79.4591 49.0437 78.6241 49.2062 77.7798 49.265C76.1532 49.3997 74.5191 49.1384 73.0025 48.5011C72.433 48.2657 71.7854 48.4365 71.3865 48.9273C69.2876 51.4825 65.6954 51.9168 63.1075 49.9282C60.5196 47.9397 59.7922 44.1863 61.4311 41.2778C61.6966 40.8081 61.7055 40.224 61.4544 39.7455C61.2034 39.2669 60.7305 38.9667 60.214 38.9579C59.6974 38.949 59.2157 39.2329 58.9502 39.7026C58.6062 40.323 58.3296 40.9826 58.1256 41.6689C56.9904 41.6056 56.0953 40.6215 56.0771 39.4169V39.3787C56.0764 38.9756 55.9237 38.5895 55.6529 38.3063C55.3822 38.0231 55.0159 37.8663 54.6356 37.8708C53.836 37.8792 53.1924 38.5695 53.194 39.4169C53.2004 42.1264 55.1284 44.3973 57.6701 44.6893C57.6752 45.2014 57.7191 45.7123 57.8012 46.2171C54.5825 46.9552 51.2441 45.729 49.1467 43.0383C47.0492 40.3476 46.543 36.6417 47.8343 33.4311C48.1568 33.7769 48.5168 34.081 48.9068 34.3371C49.5878 34.7598 50.463 34.5237 50.8702 33.8072C51.2775 33.0908 51.0655 32.1604 50.3945 31.72V31.7261ZM44.0517 43.9987C44.7162 43.8948 45.4024 43.8032 46.0842 43.7085C48.7496 48.2225 53.8472 50.4143 58.7267 49.1443C60.0378 51.7815 62.4336 53.6206 65.2066 54.1187C67.9797 54.6168 70.8135 53.7171 72.8713 51.685C73.8509 51.9947 74.8599 52.1883 75.8798 52.2625C76.5761 55.0614 78.5885 56.7572 82.8166 58.259C83.9564 58.6377 84.9732 59.3475 85.7516 60.3078C86.617 61.3983 87.8899 62.0321 89.2344 62.0418C89.8225 62.0416 90.4044 61.9158 90.9456 61.6721C92.5796 60.932 93.6397 59.2303 93.6398 57.3469C93.6412 56.8558 93.5672 56.3676 93.4207 55.9017C93.0965 54.8222 92.6696 53.7805 92.1464 52.7926C94.5977 50.925 96.3053 48.1573 96.9367 45.0285C97.2437 44.6419 97.5213 44.2301 97.767 43.7971C98.2499 43.8628 98.7329 43.9208 99.2187 44.0064L104.423 77.1805C94.2503 73.5806 83.2498 73.5806 73.0774 77.1805V58.0558C73.0774 57.212 72.432 56.528 71.6359 56.528C70.8397 56.528 70.1943 57.212 70.1943 58.0558V77.1867C60.0231 73.5834 49.0228 73.5792 38.8491 77.1744L44.0517 43.9987ZM32.2107 83.4658C31.9383 83.1171 31.8273 82.6576 31.908 82.213L38.2205 47.8655H40.527L36.0034 76.6779C35.8443 77.7266 36.2087 78.7879 36.9665 79.4831C37.7243 80.1782 38.7676 80.4082 39.7241 80.091C47.409 77.4523 55.5963 76.9017 63.5343 78.4898L63.1047 84.028H48.2192H33.3337C32.8988 84.0284 32.4866 83.822 32.2107 83.4658ZM71.6359 87.0836C68.1632 87.0836 66.1709 85.9958 65.8783 85.5115L66.3742 79.1712C67.9593 79.5895 69.5105 80.1407 71.0131 80.8197C71.2075 80.9189 71.4202 80.9711 71.6359 80.9725C71.8522 80.9721 72.0656 80.9199 72.2601 80.8197C73.7618 80.1368 75.3125 79.5819 76.8976 79.1605L77.3935 85.51C77.1008 85.9958 75.1086 87.0836 71.6359 87.0836ZM111.061 83.4658C110.785 83.822 110.373 84.0284 109.938 84.028H80.1714L79.7389 78.4791C87.6813 76.8943 95.8721 77.4496 103.559 80.094C104.515 80.4071 105.557 80.1738 106.311 79.4774C107.066 78.7809 107.428 77.7203 107.267 76.6733L102.748 47.8671H105.054L111.368 82.2115C111.448 82.6572 111.335 83.1175 111.061 83.4658Z"/>
</mask>
<path d="M107.881 47.2896C107.62 45.851 106.433 44.8108 105.051 44.81H102.268L102.063 43.5098C101.859 42.204 100.888 41.1838 99.654 40.9783C99.3801 40.9325 99.1033 40.9019 98.8309 40.8622C99.303 38.5265 98.9108 36.0879 97.7353 34.0498C98.3564 32.3425 98.2404 30.4325 97.4181 28.8236C96.5958 27.2146 95.1497 26.0683 93.4611 25.6868C92.3815 19.5634 87.3551 15.1124 81.4774 15.0748C81.3333 15.0748 81.2049 15.0947 81.068 15.0993C80.1288 13.5361 78.5804 12.4987 76.8452 12.27C75.11 12.0412 73.3691 12.6451 72.0972 13.9168C70.4949 12.813 68.6254 12.2245 66.7144 12.2225C63.6353 12.2358 60.7334 13.7505 58.8464 16.3291C56.7511 15.6816 54.4917 16.0792 52.7063 17.4096C50.9209 18.74 49.8034 20.8588 49.6694 23.1675C47.4686 24.1479 46.0366 26.4307 46.0352 28.9608C46.0398 29.3994 46.0881 29.8362 46.1794 30.264C44.2331 33.3735 43.7246 37.2515 44.7969 40.8057C44.4106 40.8622 44.0156 40.9126 43.6437 40.9707C42.4034 41.169 41.424 42.1898 41.2161 43.5007L41.0114 44.8054H38.2205C36.8408 44.8064 35.6551 45.8433 35.3922 47.2789L29.0796 81.6264C28.8331 82.9715 29.1674 84.363 29.9909 85.4194C30.8144 86.4759 32.0407 87.0864 33.3337 87.0836H63.3959C64.5895 89.1705 68.2165 90.1392 71.6359 90.1392C75.0192 90.1392 78.6116 89.1935 79.8398 87.0836H109.938C111.231 87.0863 112.457 86.476 113.28 85.4199C114.104 84.3639 114.438 82.9728 114.192 81.6279L107.881 47.2896ZM50.3945 31.7261C49.2241 30.9803 48.6654 29.4996 49.028 28.1042C49.3906 26.7087 50.5857 25.7398 51.9514 25.7341C52.9072 25.7311 53.8068 26.2127 54.3718 27.0297C54.6787 27.468 55.183 27.6995 55.6946 27.6369C56.2063 27.5743 56.6475 27.2272 56.8522 26.7263C57.0569 26.2254 56.9939 25.6469 56.6869 25.2086C55.7081 23.8221 54.2246 22.9351 52.5987 22.7641C53.0284 20.6245 54.8088 19.0928 56.8729 19.0868C57.0488 19.0962 57.224 19.1166 57.3976 19.1479C57.2816 19.4611 57.1806 19.7803 57.0949 20.1043C56.9155 20.913 57.3787 21.7255 58.1377 21.9332C58.8967 22.1409 59.6732 21.6678 59.8857 20.8682C60.0497 20.1967 60.3015 19.5529 60.6339 18.9554C61.9126 16.685 64.2196 15.2899 66.7144 15.278C68.0722 15.2844 69.3989 15.7091 70.5331 16.5003C70.317 17.1436 70.2026 17.8203 70.1943 18.5032C70.1943 19.3469 70.8397 20.031 71.6359 20.031C72.432 20.031 73.0774 19.3469 73.0774 18.5032C73.0774 16.7283 74.4351 15.2895 76.1098 15.2895C77.7845 15.2895 79.1421 16.7283 79.1421 18.5032C79.1421 19.3469 79.7875 20.031 80.5836 20.031C81.3798 20.031 82.0252 19.3469 82.0252 18.5032C82.0252 18.3855 81.9978 18.274 81.992 18.1564C86.1197 18.4263 89.5907 21.5358 90.529 25.8044C89.8565 26.0119 89.2247 26.3457 88.6636 26.7898C88.2516 27.1173 88.0357 27.6529 88.0973 28.1948C88.1589 28.7367 88.4886 29.2026 88.9622 29.417C89.4359 29.6314 89.9814 29.5618 90.3934 29.2343C91.5454 28.3304 93.1367 28.4025 94.2117 29.4073C95.2867 30.412 95.553 32.0763 94.8507 33.4005C94.5369 33.9853 94.0601 34.4528 93.4856 34.7389C92.8831 35.048 92.5607 35.756 92.7072 36.4482C92.8536 37.1404 93.4304 37.6347 94.0997 37.6417C94.3111 37.642 94.5199 37.5924 94.7109 37.4965C95.093 37.3003 95.454 37.0611 95.7878 36.783C96.5329 39.0282 96.0656 41.5253 94.5682 43.299L94.5336 43.3372C92.6556 45.4933 89.6597 46.076 87.1817 44.7672C86.9389 44.6313 86.7058 44.4772 86.4839 44.3058C87.5458 42.7282 87.6924 40.6559 86.8645 38.928C86.6328 38.4403 86.1731 38.1207 85.6587 38.0896C85.1443 38.0585 84.6533 38.3205 84.3707 38.7771C84.088 39.2337 84.0567 39.8153 84.2884 40.303C84.7625 41.3128 84.4668 42.5382 83.5936 43.1829C83.0808 43.5447 82.4474 43.6591 81.8504 43.4978C81.2535 43.3364 80.7492 42.9144 80.4625 42.3365C80.2321 41.8483 79.7733 41.5274 79.2591 41.4948C78.7449 41.4623 78.2534 41.7229 77.9697 42.1785C77.6859 42.6342 77.6531 43.2156 77.8836 43.7039C78.729 45.5126 80.4709 46.6548 82.3755 46.6494C82.9955 46.645 83.6093 46.517 84.1847 46.2721C84.6995 46.7498 85.2668 47.1602 85.8742 47.4943C87.9287 48.6229 90.3178 48.857 92.5327 48.1466C91.1081 50.2081 88.9761 51.5936 86.5964 52.0043C85.856 52.132 85.3318 52.8401 85.3909 53.6326C85.45 54.425 86.0726 55.0371 86.8227 55.04C86.8994 55.04 86.9761 55.0338 87.0519 55.0217C87.9297 54.8606 88.7876 54.5951 89.6092 54.2303C90.0533 55.0624 90.4138 55.9416 90.6846 56.8535C90.7343 57.0127 90.7596 57.1793 90.7596 57.3469C90.7592 58.0072 90.3871 58.6036 89.8139 58.8625C89.1509 59.1343 88.398 58.9198 87.9529 58.3323C86.8365 56.9429 85.3746 55.9134 83.7334 55.3608C80.6182 54.2547 79.416 53.2662 78.9057 52.1907C79.6536 52.0918 80.3927 51.9283 81.1156 51.7018C81.6079 51.5413 81.9821 51.1147 82.0972 50.5825C82.2122 50.0504 82.0507 49.4936 81.6733 49.122C81.296 48.7503 80.7603 48.6202 80.2679 48.7807C79.4591 49.0437 78.6241 49.2062 77.7798 49.265C76.1532 49.3997 74.5191 49.1384 73.0025 48.5011C72.433 48.2657 71.7854 48.4365 71.3865 48.9273C69.2876 51.4825 65.6954 51.9168 63.1075 49.9282C60.5196 47.9397 59.7922 44.1863 61.4311 41.2778C61.6966 40.8081 61.7055 40.224 61.4544 39.7455C61.2034 39.2669 60.7305 38.9667 60.214 38.9579C59.6974 38.949 59.2157 39.2329 58.9502 39.7026C58.6062 40.323 58.3296 40.9826 58.1256 41.6689C56.9904 41.6056 56.0953 40.6215 56.0771 39.4169V39.3787C56.0764 38.9756 55.9237 38.5895 55.6529 38.3063C55.3822 38.0231 55.0159 37.8663 54.6356 37.8708C53.836 37.8792 53.1924 38.5695 53.194 39.4169C53.2004 42.1264 55.1284 44.3973 57.6701 44.6893C57.6752 45.2014 57.7191 45.7123 57.8012 46.2171C54.5825 46.9552 51.2441 45.729 49.1467 43.0383C47.0492 40.3476 46.543 36.6417 47.8343 33.4311C48.1568 33.7769 48.5168 34.081 48.9068 34.3371C49.5878 34.7598 50.463 34.5237 50.8702 33.8072C51.2775 33.0908 51.0655 32.1604 50.3945 31.72V31.7261ZM44.0517 43.9987C44.7162 43.8948 45.4024 43.8032 46.0842 43.7085C48.7496 48.2225 53.8472 50.4143 58.7267 49.1443C60.0378 51.7815 62.4336 53.6206 65.2066 54.1187C67.9797 54.6168 70.8135 53.7171 72.8713 51.685C73.8509 51.9947 74.8599 52.1883 75.8798 52.2625C76.5761 55.0614 78.5885 56.7572 82.8166 58.259C83.9564 58.6377 84.9732 59.3475 85.7516 60.3078C86.617 61.3983 87.8899 62.0321 89.2344 62.0418C89.8225 62.0416 90.4044 61.9158 90.9456 61.6721C92.5796 60.932 93.6397 59.2303 93.6398 57.3469C93.6412 56.8558 93.5672 56.3676 93.4207 55.9017C93.0965 54.8222 92.6696 53.7805 92.1464 52.7926C94.5977 50.925 96.3053 48.1573 96.9367 45.0285C97.2437 44.6419 97.5213 44.2301 97.767 43.7971C98.2499 43.8628 98.7329 43.9208 99.2187 44.0064L104.423 77.1805C94.2503 73.5806 83.2498 73.5806 73.0774 77.1805V58.0558C73.0774 57.212 72.432 56.528 71.6359 56.528C70.8397 56.528 70.1943 57.212 70.1943 58.0558V77.1867C60.0231 73.5834 49.0228 73.5792 38.8491 77.1744L44.0517 43.9987ZM32.2107 83.4658C31.9383 83.1171 31.8273 82.6576 31.908 82.213L38.2205 47.8655H40.527L36.0034 76.6779C35.8443 77.7266 36.2087 78.7879 36.9665 79.4831C37.7243 80.1782 38.7676 80.4082 39.7241 80.091C47.409 77.4523 55.5963 76.9017 63.5343 78.4898L63.1047 84.028H48.2192H33.3337C32.8988 84.0284 32.4866 83.822 32.2107 83.4658ZM71.6359 87.0836C68.1632 87.0836 66.1709 85.9958 65.8783 85.5115L66.3742 79.1712C67.9593 79.5895 69.5105 80.1407 71.0131 80.8197C71.2075 80.9189 71.4202 80.9711 71.6359 80.9725C71.8522 80.9721 72.0656 80.9199 72.2601 80.8197C73.7618 80.1368 75.3125 79.5819 76.8976 79.1605L77.3935 85.51C77.1008 85.9958 75.1086 87.0836 71.6359 87.0836ZM111.061 83.4658C110.785 83.822 110.373 84.0284 109.938 84.028H80.1714L79.7389 78.4791C87.6813 76.8943 95.8721 77.4496 103.559 80.094C104.515 80.4071 105.557 80.1738 106.311 79.4774C107.066 78.7809 107.428 77.7203 107.267 76.6733L102.748 47.8671H105.054L111.368 82.2115C111.448 82.6572 111.335 83.1175 111.061 83.4658Z" fill="#2F5ED1" stroke="white" stroke-width="1.2" mask="url(#path-1-inside-1_2603_2734)"/>
<path d="M67.0664 34.8751C67.531 34.4301 68.2431 34.4661 68.6662 34.9617L68.6662 34.9617L68.6693 34.9652C70.7422 37.3183 74.1309 37.7309 76.657 35.9278L76.6571 35.9278L76.6595 35.9259C77.9712 34.9692 78.8695 33.5061 79.1653 31.8575L79.1653 31.8575L79.1661 31.8528C79.2385 31.4078 79.53 31.0496 79.9145 30.9052C80.2969 30.7616 80.7248 30.8462 81.0358 31.1346C81.349 31.425 81.4947 31.8784 81.4069 32.3206L81.4069 32.3206L81.4061 32.3248C80.7325 35.9903 77.9844 38.8106 74.5323 39.4168L74.3603 39.4471L74.3016 39.6116C73.287 42.459 70.7174 44.324 67.8693 44.3119H67.868C67.2537 44.3119 66.7264 43.7789 66.7264 43.0841C66.7264 42.3894 67.2537 41.8564 67.868 41.8564C69.3667 41.8586 70.7664 41.0898 71.626 39.8059L71.8689 39.4432L71.4432 39.3465C69.7271 38.9564 68.167 38.0042 66.9847 36.6208C66.5534 36.1149 66.5923 35.3299 67.0664 34.8751Z" fill="#2F5ED1" stroke="white" stroke-width="0.6"/>
<path d="M62.975 31.4726C62.975 32.1673 62.4477 32.7004 61.8334 32.7004C61.5365 32.7004 61.2479 32.5755 61.0323 32.347C60.8161 32.118 60.6919 31.8038 60.6918 31.4728C60.6957 27.7421 63.5442 24.7489 67.0232 24.7448C67.6374 24.7449 68.1646 25.2779 68.1646 25.9726C68.1646 26.6673 67.6373 27.2004 67.023 27.2004C65.9436 27.2004 64.9122 27.655 64.1545 28.4579C63.3975 29.2603 62.975 30.345 62.975 31.4726Z" fill="#2F5ED1" stroke="white" stroke-width="0.6"/>
<path d="M72.7775 1.52778V3.05556C72.7775 3.7503 72.2502 4.28333 71.6359 4.28333C71.0216 4.28333 70.4943 3.7503 70.4943 3.05556V1.52778C70.4943 0.833039 71.0216 0.3 71.6359 0.3C72.2502 0.3 72.7775 0.833039 72.7775 1.52778Z" fill="#FFA200" stroke="white" stroke-width="0.6"/>
<path d="M95.51 11.1692L95.5101 11.1692L95.5136 11.1653C95.802 10.8489 96.2223 10.7272 96.6136 10.8357C97.0067 10.9448 97.3245 11.274 97.4321 11.7097C97.5399 12.1463 97.4155 12.6069 97.1156 12.9139L97.1156 12.9139L97.112 12.9177L95.6705 14.4454L95.6704 14.4454L95.6669 14.4493C95.3785 14.7657 94.9582 14.8874 94.5669 14.7789C94.1738 14.6698 93.856 14.3406 93.7484 13.9049C93.6406 13.4683 93.765 13.0077 94.0649 12.7007L94.0649 12.7007L94.0685 12.6969L95.51 11.1692Z" fill="#FFA200" stroke="white" stroke-width="0.6"/>
<path d="M47.7582 11.1654L47.7582 11.1654C47.4698 10.8489 47.0495 10.7272 46.6582 10.8357C46.2651 10.9448 45.9473 11.274 45.8397 11.7097C45.7319 12.1463 45.8563 12.6069 46.1562 12.9139L46.1598 12.9176L46.1598 12.9177L47.6014 14.4454L47.6014 14.4455C47.8169 14.674 48.1054 14.7989 48.4023 14.799L47.7582 11.1654ZM47.7582 11.1654L47.7618 11.1692M47.7582 11.1654L47.7618 11.1692M47.7618 11.1692L49.2033 12.6969C49.2033 12.6969 49.2033 12.6969 49.2033 12.6969C49.5338 13.0473 49.6364 13.581 49.4545 14.0466C49.2733 14.5101 48.8536 14.7988 48.4024 14.799L47.7618 11.1692Z" fill="#FFA200" stroke="white" stroke-width="0.6"/>
<path d="M59.9309 8.2782C59.7931 8.3381 59.6463 8.36884 59.4984 8.3692C59.0473 8.36915 58.6276 8.08064 58.4463 7.61726L56.7914 3.38237L56.7915 3.38235L56.7891 3.37652C56.6178 2.96404 56.6715 2.48578 56.9255 2.12947C57.1781 1.77507 57.5847 1.60084 57.9856 1.65968C58.3876 1.71868 58.7388 2.00567 58.893 2.42485L58.893 2.42487L58.8952 2.43056L60.5515 6.66556L60.5516 6.66562C60.6706 6.96978 60.6707 7.31253 60.5519 7.61678C60.4332 7.92053 60.2079 8.15645 59.9309 8.2782Z" fill="#FFA200" stroke="white" stroke-width="0.6"/>
<path d="M85.1041 7.72843L86.759 3.49343C86.906 3.11887 86.9064 2.69773 86.7601 2.32287C86.6138 1.94801 86.3328 1.6502 85.9791 1.4951M85.1041 7.72843L84.8247 7.61913L86.4796 3.38424L86.4797 3.38385C86.5991 3.07955 86.5995 2.73649 86.4806 2.43194C86.3619 2.12773 86.1361 1.89152 85.8586 1.76984M85.1041 7.72843C84.8808 8.29919 84.3551 8.67122 83.7721 8.67107M85.1041 7.72843L84.8247 7.61924C84.6433 8.08261 84.2236 8.37109 83.7724 8.37107M85.8586 1.76984C85.8587 1.76984 85.8587 1.76985 85.8587 1.76985L85.9791 1.4951M85.8586 1.76984L85.9791 1.4951M85.8586 1.76984C85.2907 1.52084 84.6231 1.79908 84.3758 2.4309L84.0965 2.32162M85.9791 1.4951C85.2439 1.17274 84.4012 1.54268 84.0965 2.32162M84.0965 2.32162L84.3758 2.43094L82.7195 6.6659L82.7194 6.66621C82.6 6.9705 82.5997 7.31356 82.7185 7.61812C82.8372 7.92218 83.0628 8.15831 83.3401 8.28004M84.0965 2.32162L82.4401 6.55662C82.2931 6.93119 82.2927 7.35232 82.439 7.72718C82.5853 8.10205 82.8663 8.39986 83.22 8.55496M83.22 8.55496C83.3952 8.6312 83.5827 8.67064 83.7721 8.67107M83.22 8.55496L83.3405 8.28021C83.3403 8.28016 83.3402 8.2801 83.3401 8.28004M83.22 8.55496L83.3397 8.27988C83.3398 8.27993 83.3399 8.27999 83.3401 8.28004M83.7721 8.67107L83.7728 8.37107C83.7727 8.37107 83.7725 8.37107 83.7724 8.37107M83.7721 8.67107L83.7722 8.37107C83.7723 8.37107 83.7723 8.37107 83.7724 8.37107M83.7724 8.37107C83.6246 8.37068 83.4778 8.33993 83.3401 8.28004" fill="#FFA200" stroke="white" stroke-width="0.6"/>
<path d="M100.935 26.5604L100.935 26.5604C100.402 26.5621 99.9223 26.1618 99.8122 25.5754C99.7017 24.9868 100.003 24.4124 100.503 24.1945L100.504 24.1941L104.5 22.4402C104.5 22.4402 104.5 22.4402 104.5 22.4402C104.871 22.2774 105.297 22.3354 105.619 22.598C105.944 22.8624 106.118 23.2969 106.062 23.7399C106.007 24.1825 105.735 24.5503 105.362 24.7141L105.362 24.7141L101.367 26.468L101.366 26.4683C101.229 26.529 101.083 26.5601 100.935 26.5604Z" fill="#FFA200" stroke="white" stroke-width="0.6"/>
<path d="M41.9045 26.4684L41.9044 26.4684L37.9099 24.7145L37.9098 24.7145C37.3314 24.4607 37.0381 23.7424 37.2881 23.1023C37.5351 22.4699 38.2032 22.1913 38.7715 22.4406C38.7715 22.4406 38.7715 22.4406 38.7715 22.4406L42.7674 24.1944C43.3459 24.4486 43.6389 25.1672 43.3886 25.8073C43.1412 26.4398 42.4728 26.7181 41.9045 26.4684Z" fill="#FFA200" stroke="white" stroke-width="0.6"/>
<path d="M13.941 83.1921C13.941 81.855 12.0225 80.6851 9.20872 80.1837C8.95292 76.5069 8.05763 74 7.03444 74C6.01125 74 5.11595 76.5069 4.73226 80.1837C1.91848 80.518 0 81.6879 0 83.0249C0 84.362 1.91848 85.5319 4.73226 86.0332C4.98805 89.7101 5.88335 92.217 6.90654 92.217C7.92973 92.217 8.82502 89.7101 9.20872 86.0332C11.8946 85.5319 13.941 84.5291 13.941 83.1921Z" fill="#FFE48F"/>
<path d="M137.941 36.1921C137.941 34.855 136.022 33.6851 133.209 33.1837C132.953 29.5069 132.058 27 131.034 27C130.011 27 129.116 29.5069 128.732 33.1837C125.918 33.518 124 34.6879 124 36.0249C124 37.362 125.918 38.5319 128.732 39.0332C128.988 42.7101 129.883 45.217 130.907 45.217C131.93 45.217 132.825 42.7101 133.209 39.0332C135.895 38.5319 137.941 37.5291 137.941 36.1921Z" fill="#9FADF0"/>
<path d="M29.3533 15.1672C29.3533 14.2701 28.0662 13.4852 26.1784 13.1488C26.0067 10.682 25.4061 9 24.7196 9C24.0331 9 23.4324 10.682 23.175 13.1488C21.2872 13.3731 20 14.158 20 15.055C20 15.9521 21.2872 16.737 23.175 17.0734C23.3466 19.5403 23.9473 21.2222 24.6338 21.2222C25.3202 21.2222 25.9209 19.5403 26.1784 17.0734C27.9804 16.737 29.3533 16.0642 29.3533 15.1672Z" fill="#9FADF0"/>
<rect x="147" y="91.8838" width="6.90644" height="6.90644" transform="rotate(-45 147 91.8838)" fill="#E02287" fill-opacity="0.6"/>
</svg>
