<svg width="341" height="259" viewBox="0 0 341 259" fill="none" xmlns="http://www.w3.org/2000/svg">
<path fill-rule="evenodd" clip-rule="evenodd" d="M65.9288 152.608C75.4547 150.817 85.252 149.388 94.3708 147.054C105.849 143.989 115.501 139.778 128.482 138.533C137.085 137.728 146.345 138.262 155.352 138.087C165.086 137.868 174.83 137.476 184.691 137.611C185.27 137.644 185.853 137.591 186.432 137.624C189.475 137.713 192.518 137.802 195.561 137.89C196.139 137.924 196.718 137.957 197.297 137.99C197.876 138.024 198.454 138.057 199.033 138.09C199.612 138.124 200.335 138.165 200.914 138.199C238.393 140.271 277.822 146.702 307.791 162.033C312.173 164.279 316.537 166.87 318.844 169.95C320.74 172.572 321.166 175.543 322.03 178.452C323.022 181.716 317.947 168.905 322.03 171.306C327.67 174.491 324.038 177.499 326.887 186.446C323.088 204.499 304.965 222.012 283.071 230.024C252.456 241.086 215.473 246.235 179.257 247.789C159.042 248.618 138.456 248.212 118.087 246.432C113.176 245.976 108.411 245.528 103.509 244.899C98.897 244.287 94.3029 243.329 89.6684 243.148C78.08 242.741 65.8488 240.736 54.8111 238.107C47.4994 236.386 36.5749 234.371 33.6432 229.349C32.7112 227.735 31.6255 226.286 29.8164 224.795C27.3152 222.658 23.1328 222.157 19.8633 220.842C16.1687 219.33 12.9307 217.41 10.4341 215.186C6.82928 211.946 4.9877 208.286 4.16791 204.513C2.73242 198.624 2.20544 192.007 4.9614 186.447C7.72185 180.799 12.7749 175.718 18.954 171.307C29.8069 163.526 43.3326 157.373 59.4727 153.969C61.5343 153.395 63.7315 153.002 65.9288 152.608Z" fill="#F1F3F7"/>
<path fill-rule="evenodd" clip-rule="evenodd" d="M23.4441 207.89C15.0722 194.053 11.8966 177.749 13.34 161.994C14.0618 153.774 16.2269 145.28 19.6911 137.745C23.011 130.621 27.4857 123.908 27.197 115.688C26.764 107.604 21.8563 99.6583 24.4545 92.1232C29.5065 78.149 51.8797 77.738 63.8602 72.2579C80.8928 64.5858 84.9344 49.1046 93.8837 34.9935C102.833 20.8823 116.401 9.23712 132.712 3.62005C149.023 -1.99702 167.932 -1.17501 183.088 6.77109C190.449 10.7441 195.213 15.6762 198.966 22.8003C201.853 28.2804 204.595 34.1714 209.791 37.3225C216.287 41.5695 224.514 40.1995 232.02 40.8845C248.908 42.2546 265.797 47.8716 278.499 58.6948C284.706 63.9008 289.469 70.3399 292.789 77.601C295.964 84.5881 297.697 92.6712 302.46 99.1103C307.223 105.138 314.585 108.974 319.059 115.276C324.833 123.497 319.925 132.539 321.225 141.581C323.245 155.966 335.659 175.831 324.977 189.531C320.647 195.012 314.296 194.464 307.801 194.327C299.284 194.327 290.046 193.779 281.819 191.175C274.746 188.983 267.817 186.38 260.456 186.106C254.971 185.832 249.486 185.558 243.856 185.421C240.248 185.421 236.639 186.38 233.031 186.654C225.669 187.339 218.019 188.161 210.657 188.846C194.058 190.49 177.458 192.134 160.859 193.779C129.248 196.93 97.4922 200.081 65.7367 203.232C55.4883 204.191 45.2399 205.287 34.9916 206.246C34.1255 206.794 23.8771 208.438 23.4441 207.89Z" fill="#F1F3F7"/>
<path fill-rule="evenodd" clip-rule="evenodd" d="M65.574 25.8574C62.4251 31.4883 65.2877 36.6747 71.7287 36.971C77.7403 37.4156 84.3243 32.6738 87.3301 27.4874C89.0477 24.5238 90.1928 18.8929 86.7576 16.6702C85.6125 15.9292 84.1812 15.9292 82.7499 16.0774C76.3089 16.3738 69.0092 19.782 65.574 25.8574Z" fill="#EDEEF7"/>
<path fill-rule="evenodd" clip-rule="evenodd" d="M211.383 3C211.932 3 212.343 3 212.891 3.16036C216.455 4.44321 215.633 10.0557 213.165 12.3007C211.658 13.5836 210.15 12.9422 208.916 11.6593C206.311 8.77287 208.231 3.32071 211.383 3Z" fill="#EDEEF7"/>
<path d="M245.636 133.516H243.208V208.542H245.636V133.516Z" fill="#3C3C6D"/>
<path d="M168.489 156.536H163.396V163.903H168.489V156.536Z" fill="#303030"/>
<path d="M168.067 158.556H163.633V194.343H168.067V158.556Z" fill="#56585E"/>
<path d="M189.989 201.124L168.759 189.243V194.643L183.986 201.124V202.311H189.989V201.124Z" fill="#0A2126"/>
<path d="M168.759 194.645H163.009V189.244V184.888H168.759V194.645Z" fill="#0A2126"/>
<path d="M141.778 201.124L163.008 189.243V194.643L147.798 201.124V202.311H141.778V201.124Z" fill="#0A2126"/>
<path d="M163.953 189.243V202.311H162.519V203.232H168.758V202.311H167.443L167.865 189.243H163.953Z" fill="#0A2126"/>
<path d="M175.166 138.509H154.071L148.287 100.827C147.242 94.0629 152.216 87.9185 158.742 87.9185H170.495C177.021 87.9185 181.996 94.0629 180.95 100.827L175.166 138.509Z" fill="#004555"/>
<path d="M151.205 119.809L142.537 123.422L147.866 146.672L150.193 146.317L147.63 126.06L152.233 123.971L151.205 119.809Z" fill="#282859"/>
<path d="M177.477 119.81L184.88 125.21L183.649 147.876L180.664 147.292L181.71 127.743L175.774 124.095L177.477 119.81Z" fill="#282859"/>
<path d="M187.105 150.425H147.629V146.317H183.193C185.351 146.317 187.105 148.158 187.105 150.425Z" fill="#56548C"/>
<path d="M173.97 72.4952C173.97 72.4952 173.127 82.3229 175.707 85.0321C178.287 87.7413 178.641 87.6705 179.535 87.4049C179.535 87.4049 178.944 89.0694 177.309 89.1756C177.191 89.1756 177.089 89.1756 176.955 89.1756C175.049 89.0517 177.106 90.6808 178.101 91.0526C179.096 91.4245 176.111 91.8318 174.037 91.3182C172.756 90.9995 159.4 91.1766 157.326 89.2288C156.028 88.0247 161.694 81.9687 161.964 78.923C162.655 70.9724 173.97 72.4952 173.97 72.4952Z" fill="#606BF1"/>
<path d="M200.815 71.6445C200.815 71.6445 199.567 74.4069 199.027 77.5765C198.488 80.7462 199.314 86.3594 200.815 88.7145C202.316 91.0696 202.467 91.9373 203.833 91.9373C205.199 91.9373 210.646 89.4228 211.135 83.597C211.624 77.7713 201.203 71.6445 201.203 71.6445H200.815V71.6445Z" fill="#FFBC9D"/>
<path d="M257.12 121.457C257.12 121.457 253.612 119.775 252.533 118.641C251.454 117.508 248.031 114.551 246.311 114.551C244.591 114.551 235.94 118.624 237.154 119.084C238.368 119.545 245.012 117.455 245.012 117.455C245.012 117.455 237.238 120.819 238.621 121.457C240.004 122.094 244.237 120.359 244.237 120.359C244.237 120.359 242.078 121.457 242.078 122.271C242.078 123.086 245.248 121.457 247.069 121.457C248.908 121.457 253.747 124.627 253.747 124.627L257.12 121.457Z" fill="#FFC8AF"/>
<path d="M276.428 171.355C275.77 172.081 274.573 172.542 273.224 172.489C271.875 172.435 270.711 171.887 270.104 171.125C270.762 170.399 271.959 169.939 273.308 169.992C274.657 170.045 275.821 170.594 276.428 171.355Z" fill="#AF9BE2"/>
<path d="M291.115 200.963C290.221 194.5 289.8 187.966 289.901 181.431C289.935 178.173 290.103 174.915 290.339 171.657C290.575 168.417 290.946 165.176 291.385 161.953C292.262 155.508 293.51 149.115 295.044 142.812C295.82 139.66 296.68 136.525 297.607 133.427C298.552 130.328 299.546 127.247 300.71 124.219L301.081 124.378C299.968 127.388 299.007 130.487 298.096 133.586C297.203 136.685 296.376 139.819 295.651 142.971C294.184 149.275 293.021 155.649 292.228 162.077C291.84 165.282 291.503 168.505 291.301 171.745C291.098 174.968 290.963 178.209 290.98 181.449C290.946 187.912 291.435 194.376 292.413 200.75L291.115 200.963Z" fill="#AF9BE2"/>
<path d="M302.531 111.273C300.777 112.389 299.378 114.744 298.99 117.613C298.602 120.499 299.327 123.155 300.71 124.731C302.464 123.616 303.863 121.26 304.251 118.392C304.639 115.523 303.914 112.867 302.531 111.273Z" fill="#AF9BE2"/>
<path d="M292.195 121.189C291.975 122.853 292.667 124.907 294.134 126.554C295.618 128.218 297.506 129.051 299.108 128.944C299.328 127.28 298.636 125.226 297.169 123.579C295.685 121.932 293.797 121.082 292.195 121.189Z" fill="#AF9BE2"/>
<path d="M299.26 129.884C300.609 130.805 302.649 131.017 304.707 130.327C306.764 129.618 308.298 128.184 308.889 126.608C307.54 125.687 305.499 125.475 303.442 126.166C301.368 126.874 299.833 128.308 299.26 129.884Z" fill="#AF9BE2"/>
<path d="M297.405 136.009C298.754 136.93 300.794 137.142 302.852 136.452C304.909 135.761 306.443 134.309 307.034 132.733C305.685 131.812 303.644 131.6 301.587 132.291C299.513 132.999 297.978 134.433 297.405 136.009Z" fill="#AF9BE2"/>
<path d="M295.297 143.321C296.646 144.242 298.687 144.455 300.744 143.764C302.801 143.073 304.336 141.621 304.926 140.045C303.577 139.125 301.536 138.912 299.479 139.603C297.422 140.311 295.87 141.763 295.297 143.321Z" fill="#AF9BE2"/>
<path d="M293.898 150.142C295.247 151.062 297.287 151.275 299.344 150.584C301.402 149.894 302.936 148.442 303.526 146.866C302.177 145.945 300.137 145.732 298.08 146.423C296.006 147.131 294.471 148.566 293.898 150.142Z" fill="#AF9BE2"/>
<path d="M294.471 148.759C293.122 149.68 291.081 149.893 289.024 149.202C286.967 148.511 285.432 147.059 284.842 145.483C286.191 144.563 288.232 144.35 290.289 145.041C292.363 145.749 293.898 147.201 294.471 148.759Z" fill="#AF9BE2"/>
<path d="M290.306 127.688C290.086 129.352 290.778 131.406 292.245 133.053C293.729 134.718 295.617 135.55 297.219 135.444C297.439 133.779 296.747 131.725 295.28 130.078C293.796 128.414 291.908 127.564 290.306 127.688Z" fill="#AF9BE2"/>
<path d="M288.148 135.051C287.929 136.715 288.62 138.769 290.087 140.416C291.571 142.081 293.459 142.913 295.061 142.807C295.281 141.142 294.589 139.088 293.122 137.441C291.638 135.777 289.75 134.927 288.148 135.051Z" fill="#AF9BE2"/>
<path d="M330.725 141.309C328.027 142.867 325.515 144.708 323.07 146.639C320.625 148.586 318.298 150.676 316.055 152.889C313.829 155.103 311.704 157.44 309.698 159.866C307.691 162.31 305.819 164.877 304.066 167.516C300.558 172.81 297.641 178.547 295.28 184.515C292.987 190.518 291.267 196.768 290.188 203.143L291.486 203.373C292.464 197.069 294.049 190.889 296.224 184.922C298.467 178.99 301.266 173.271 304.673 167.958C306.376 165.302 308.197 162.735 310.136 160.273C312.092 157.812 314.166 155.475 316.358 153.226C318.551 150.995 320.844 148.87 323.238 146.886C325.65 144.921 328.145 143.044 330.793 141.45L330.725 141.309Z" fill="#AF9BE2"/>
<path d="M340.658 134.027C340.506 136.17 339.157 138.56 336.898 140.225C334.638 141.889 332.041 142.438 330.068 141.854C330.22 139.711 331.569 137.338 333.829 135.656C336.105 133.992 338.685 133.443 340.658 134.027Z" fill="#AF9BE2"/>
<path d="M325.414 132.223C326.932 133.675 327.859 136.278 327.69 139.164C327.539 142.068 326.325 144.529 324.672 145.787C323.154 144.335 322.227 141.732 322.396 138.828C322.547 135.941 323.762 133.48 325.414 132.223Z" fill="#AF9BE2"/>
<path d="M316.409 136.949C318.231 137.923 319.782 140.172 320.372 143.005C320.962 145.838 320.423 148.565 319.141 150.247C317.32 149.273 315.769 147.024 315.178 144.191C314.605 141.358 315.128 138.631 316.409 136.949Z" fill="#AF9BE2"/>
<path d="M310.339 142.832C312.16 143.806 313.711 146.055 314.302 148.888C314.892 151.721 314.352 154.448 313.071 156.13C311.249 155.156 309.698 152.908 309.108 150.074C308.534 147.223 309.057 144.497 310.339 142.832Z" fill="#AF9BE2"/>
<path d="M303.357 148.852C305.364 149.312 307.405 151.065 308.669 153.65C309.917 156.236 310.069 159.016 309.243 160.981C307.236 160.521 305.195 158.785 303.931 156.182C302.666 153.597 302.531 150.817 303.357 148.852Z" fill="#AF9BE2"/>
<path d="M298.433 156.395C300.255 156.307 302.413 157.334 304.049 159.282C305.684 161.229 306.409 163.585 306.106 165.479C304.285 165.568 302.126 164.541 300.491 162.593C298.855 160.663 298.147 158.29 298.433 156.395Z" fill="#AF9BE2"/>
<path d="M294.859 161.138C296.68 161.05 298.838 162.077 300.474 164.025C302.11 165.972 302.835 168.327 302.531 170.222C300.71 170.311 298.552 169.284 296.916 167.336C295.28 165.406 294.572 163.033 294.859 161.138Z" fill="#AF9BE2"/>
<path d="M292.818 168.132C294.386 168.062 296.224 168.947 297.624 170.611C299.024 172.276 299.648 174.295 299.395 175.924C297.826 175.994 295.988 175.109 294.589 173.445C293.189 171.78 292.565 169.761 292.818 168.132Z" fill="#AF9BE2"/>
<path d="M290.845 175.446C291.992 174.773 293.678 174.684 295.348 175.357C297.017 176.03 298.214 177.287 298.619 178.598C297.473 179.271 295.786 179.359 294.117 178.686C292.464 177.996 291.25 176.739 290.845 175.446Z" fill="#AF9BE2"/>
<path d="M290.053 181.45C290.761 180.636 292.026 180.122 293.442 180.175C294.875 180.246 296.09 180.866 296.713 181.751C296.005 182.566 294.741 183.079 293.324 183.026C291.891 182.973 290.677 182.335 290.053 181.45Z" fill="#AF9BE2"/>
<path d="M336.897 150.018C335.16 151.152 332.53 151.382 329.899 150.426C327.285 149.469 325.346 147.592 324.655 145.556C326.392 144.423 329.022 144.193 331.653 145.149C334.267 146.105 336.189 148 336.897 150.018Z" fill="#AF9BE2"/>
<path d="M331.366 154.784C329.629 155.917 326.999 156.147 324.368 155.191C321.754 154.235 319.815 152.358 319.124 150.322C320.861 149.188 323.491 148.958 326.122 149.914C328.736 150.888 330.675 152.765 331.366 154.784Z" fill="#AF9BE2"/>
<path d="M325.481 160.678C323.745 161.812 321.114 162.042 318.483 161.086C315.87 160.129 313.93 158.252 313.239 156.216C314.976 155.083 317.606 154.853 320.237 155.809C322.851 156.765 324.773 158.66 325.481 160.678Z" fill="#AF9BE2"/>
<path d="M318.837 164.594C317.421 165.514 315.279 165.709 313.154 164.93C311.03 164.151 309.462 162.628 308.888 160.981C310.305 160.061 312.446 159.866 314.571 160.645C316.696 161.406 318.264 162.947 318.837 164.594Z" fill="#AF9BE2"/>
<path d="M313.847 168.331C312.683 169.11 310.946 169.305 309.226 168.667C307.506 168.048 306.241 166.773 305.803 165.409C306.967 164.63 308.703 164.435 310.423 165.073C312.143 165.693 313.408 166.968 313.847 168.331Z" fill="#AF9BE2"/>
<path d="M310.878 173.147C309.715 173.927 307.978 174.121 306.258 173.484C304.538 172.864 303.273 171.589 302.835 170.226C303.998 169.447 305.735 169.252 307.455 169.889C309.175 170.509 310.44 171.784 310.878 173.147Z" fill="#AF9BE2"/>
<path d="M307.624 177.501C306.68 178.333 305.111 178.741 303.425 178.457C301.739 178.174 300.373 177.271 299.732 176.155C300.676 175.323 302.245 174.916 303.931 175.199C305.617 175.483 306.983 176.386 307.624 177.501Z" fill="#AF9BE2"/>
<path d="M304.47 182.969C303.408 183.288 302.008 183.005 300.76 182.102C299.512 181.216 298.754 179.941 298.652 178.79C299.715 178.472 301.114 178.755 302.362 179.658C303.593 180.561 304.369 181.836 304.47 182.969Z" fill="#AF9BE2"/>
<path d="M300.963 186.248C300.12 186.319 299.108 185.912 298.298 185.044C297.489 184.194 297.084 183.114 297.152 182.246C297.995 182.158 299.007 182.583 299.816 183.45C300.625 184.3 301.03 185.38 300.963 186.248Z" fill="#AF9BE2"/>
<path d="M298.636 187.117C298.079 187.206 297.438 186.975 296.933 186.444C296.427 185.913 296.207 185.24 296.292 184.656C296.848 184.567 297.489 184.797 297.995 185.329C298.501 185.86 298.72 186.533 298.636 187.117Z" fill="#AF9BE2"/>
<path d="M297.877 188.73C297.321 188.818 296.68 188.588 296.174 188.057C295.668 187.525 295.449 186.853 295.533 186.268C296.09 186.18 296.731 186.41 297.236 186.941C297.742 187.472 297.961 188.163 297.877 188.73Z" fill="#AF9BE2"/>
<path d="M270.897 135.887C272.819 138.1 274.505 140.509 276.107 142.97C277.709 145.449 279.16 148.017 280.492 150.655C281.824 153.293 283.021 156.003 284.1 158.783C285.163 161.563 286.073 164.396 286.866 167.265C288.434 173.019 289.378 178.969 289.749 184.954C290.07 190.939 289.783 196.96 288.923 202.91L287.709 202.697C288.636 196.854 289.007 190.922 288.771 185.007C288.485 179.093 287.642 173.197 286.174 167.477C285.433 164.608 284.573 161.793 283.561 159.013C282.532 156.251 281.385 153.524 280.104 150.885C278.822 148.247 277.406 145.661 275.854 143.165C274.303 140.686 272.634 138.26 270.762 136.029L270.897 135.887Z" fill="#CFC3EE"/>
<path d="M264.236 126.379C263.747 128.309 264.27 130.823 265.788 133.001C267.305 135.18 269.43 136.472 271.319 136.578C271.808 134.648 271.285 132.134 269.767 129.956C268.267 127.778 266.142 126.485 264.236 126.379Z" fill="#CFC3EE"/>
<path d="M278.148 129.566C276.411 130.363 274.86 132.363 274.168 134.949C273.477 137.552 273.848 140.084 274.944 141.713C276.681 140.916 278.232 138.915 278.923 136.33C279.615 133.727 279.244 131.177 278.148 129.566Z" fill="#CFC3EE"/>
<path d="M284.707 136.543C282.819 136.827 280.829 138.314 279.514 140.634C278.198 142.953 277.895 145.503 278.536 147.38C280.407 147.097 282.414 145.609 283.729 143.29C285.062 140.97 285.348 138.42 284.707 136.543Z" fill="#CFC3EE"/>
<path d="M288.366 143.591C286.478 143.874 284.488 145.361 283.173 147.681C281.857 150.001 281.554 152.551 282.195 154.428C284.083 154.144 286.073 152.657 287.388 150.337C288.72 148.018 289.024 145.468 288.366 143.591Z" fill="#CFC3EE"/>
<path d="M292.802 151.083C290.913 150.852 288.62 151.755 286.782 153.632C284.944 155.509 284.033 157.9 284.202 159.883C286.09 160.113 288.384 159.21 290.222 157.333C292.06 155.456 292.97 153.066 292.802 151.083Z" fill="#CFC3EE"/>
<path d="M294.977 159.244C293.392 158.607 291.217 158.837 289.227 160.024C287.237 161.21 285.939 163.069 285.652 164.822C287.237 165.46 289.412 165.23 291.402 164.043C293.409 162.857 294.707 160.997 294.977 159.244Z" fill="#CFC3EE"/>
<path d="M296.765 164.539C295.179 163.902 293.004 164.132 291.014 165.318C289.025 166.505 287.726 168.364 287.439 170.117C289.025 170.754 291.2 170.524 293.19 169.338C295.196 168.134 296.495 166.292 296.765 164.539Z" fill="#CFC3EE"/>
<path d="M296.579 171.319C295.23 170.77 293.358 170.965 291.655 171.992C289.952 173.019 288.839 174.595 288.586 176.1C289.935 176.649 291.807 176.454 293.51 175.427C295.213 174.4 296.343 172.824 296.579 171.319Z" fill="#CFC3EE"/>
<path d="M296.242 178.349C295.432 177.392 293.965 176.79 292.313 176.861C290.66 176.932 289.244 177.658 288.519 178.667C289.328 179.623 290.795 180.226 292.448 180.155C294.1 180.084 295.517 179.358 296.242 178.349Z" fill="#CFC3EE"/>
<path d="M295.23 183.875C294.842 182.937 293.881 182.087 292.616 181.697C291.351 181.307 290.104 181.485 289.294 182.051C289.682 182.99 290.643 183.84 291.908 184.229C293.173 184.636 294.437 184.459 295.23 183.875Z" fill="#CFC3EE"/>
<path d="M263.005 141.606C264.219 143.146 266.462 144.174 269.025 144.156C271.589 144.138 273.831 143.093 275.012 141.535C273.798 139.995 271.555 138.968 268.992 138.985C266.429 138.985 264.203 140.048 263.005 141.606Z" fill="#CFC3EE"/>
<path d="M266.513 147.523C267.727 149.063 269.97 150.09 272.533 150.073C275.096 150.055 277.339 149.01 278.519 147.452C277.305 145.911 275.062 144.884 272.499 144.902C269.936 144.92 267.693 145.964 266.513 147.523Z" fill="#CFC3EE"/>
<path d="M270.003 154.535C271.217 156.075 273.46 157.102 276.023 157.085C278.586 157.067 280.829 156.022 282.009 154.464C280.795 152.923 278.553 151.896 275.989 151.914C273.426 151.932 271.2 152.977 270.003 154.535Z" fill="#CFC3EE"/>
<path d="M274.741 160.058C275.719 161.315 277.558 162.147 279.632 162.13C281.723 162.112 283.544 161.262 284.505 159.987C283.527 158.73 281.689 157.897 279.615 157.915C277.524 157.933 275.703 158.801 274.741 160.058Z" fill="#CFC3EE"/>
<path d="M278.046 164.909C278.839 165.954 280.323 166.662 282.009 166.662C283.695 166.645 285.162 165.936 285.955 164.874C285.162 163.829 283.679 163.121 281.992 163.121C280.306 163.121 278.822 163.847 278.046 164.909Z" fill="#CFC3EE"/>
<path d="M279.295 170.062C280.087 171.107 281.571 171.815 283.257 171.815C284.944 171.797 286.411 171.089 287.203 170.026C286.411 168.982 284.927 168.273 283.241 168.273C281.554 168.273 280.07 168.999 279.295 170.062Z" fill="#CFC3EE"/>
<path d="M280.93 174.897C281.521 175.924 282.785 176.774 284.354 177.058C285.922 177.341 287.372 176.969 288.249 176.19C287.659 175.163 286.394 174.313 284.826 174.03C283.257 173.764 281.79 174.136 280.93 174.897Z" fill="#CFC3EE"/>
<path d="M282.127 180.705C282.971 181.307 284.286 181.501 285.635 181.112C286.984 180.722 288.013 179.837 288.434 178.863C287.591 178.261 286.276 178.066 284.927 178.456C283.578 178.845 282.549 179.731 282.127 180.705Z" fill="#CFC3EE"/>
<path d="M284.286 184.69C284.994 185.026 286.006 184.973 286.967 184.477C287.928 183.981 288.586 183.167 288.771 182.37C288.063 182.034 287.051 182.087 286.09 182.583C285.129 183.078 284.471 183.893 284.286 184.69Z" fill="#CFC3EE"/>
<path d="M286.09 186.159C286.546 186.407 287.186 186.407 287.777 186.106C288.367 185.805 288.755 185.273 288.839 184.742C288.384 184.494 287.743 184.494 287.153 184.795C286.562 185.096 286.175 185.628 286.09 186.159Z" fill="#CFC3EE"/>
<path d="M286.292 187.827C286.748 188.075 287.389 188.075 287.979 187.774C288.569 187.473 288.957 186.941 289.041 186.41C288.586 186.162 287.945 186.162 287.355 186.463C286.765 186.764 286.377 187.296 286.292 187.827Z" fill="#CFC3EE"/>
<path d="M311.621 129.317C309.664 131.796 307.961 134.488 306.359 137.233C304.774 139.977 303.324 142.828 302.026 145.75C300.727 148.672 299.564 151.646 298.552 154.692C297.54 157.738 296.697 160.837 295.989 163.989C294.572 170.275 293.864 176.72 293.763 183.183C293.712 189.647 294.319 196.128 295.55 202.467L296.849 202.184C295.55 195.95 294.859 189.576 294.808 183.201C294.808 176.809 295.432 170.416 296.731 164.166C297.388 161.049 298.181 157.95 299.125 154.905C300.086 151.859 301.199 148.884 302.447 145.962C303.695 143.041 305.095 140.19 306.629 137.41C308.181 134.647 309.85 131.938 311.755 129.441L311.621 129.317Z" fill="#8475AA"/>
<path d="M318.298 118.73C318.922 120.785 318.483 123.511 316.966 125.955C315.448 128.381 313.222 129.886 311.182 130.099C310.558 128.045 310.996 125.318 312.514 122.874C314.049 120.448 316.258 118.943 318.298 118.73Z" fill="#8475AA"/>
<path d="M303.493 122.91C305.415 123.672 307.186 125.743 308.046 128.488C308.906 131.25 308.653 134.013 307.557 135.819C305.651 135.057 303.864 132.986 303.004 130.241C302.127 127.479 302.38 124.716 303.493 122.91Z" fill="#8475AA"/>
<path d="M296.781 130.789C298.822 131.002 301.048 132.489 302.582 134.897C304.117 137.323 304.572 140.05 303.965 142.104C301.924 141.892 299.699 140.404 298.164 137.996C296.613 135.57 296.174 132.843 296.781 130.789Z" fill="#8475AA"/>
<path d="M293.173 138.582C295.213 138.795 297.439 140.282 298.974 142.69C300.508 145.116 300.963 147.843 300.356 149.897C298.316 149.685 296.09 148.197 294.556 145.789C293.021 143.381 292.566 140.636 293.173 138.582Z" fill="#8475AA"/>
<path d="M288.788 146.887C290.812 146.533 293.324 147.383 295.398 149.296C297.472 151.226 298.569 153.74 298.484 155.9C296.461 156.255 293.948 155.405 291.874 153.492C289.8 151.562 288.704 149.03 288.788 146.887Z" fill="#8475AA"/>
<path d="M286.849 155.81C288.519 155.031 290.879 155.155 293.088 156.324C295.297 157.492 296.781 159.422 297.169 161.299C295.5 162.079 293.139 161.955 290.93 160.786C288.721 159.599 287.237 157.687 286.849 155.81Z" fill="#8475AA"/>
<path d="M285.18 161.602C286.849 160.823 289.21 160.947 291.419 162.116C293.628 163.284 295.112 165.214 295.5 167.091C293.83 167.87 291.469 167.747 289.26 166.578C287.068 165.391 285.568 163.479 285.18 161.602Z" fill="#8475AA"/>
<path d="M285.736 168.899C287.17 168.226 289.193 168.332 291.082 169.342C292.97 170.351 294.252 171.998 294.589 173.609C293.156 174.282 291.132 174.176 289.244 173.166C287.338 172.139 286.057 170.51 285.736 168.899Z" fill="#8475AA"/>
<path d="M286.444 176.44C287.271 175.378 288.822 174.652 290.593 174.634C292.38 174.616 293.931 175.325 294.775 176.369C293.948 177.432 292.397 178.158 290.626 178.175C288.839 178.193 287.287 177.503 286.444 176.44Z" fill="#8475AA"/>
<path d="M287.793 182.354C288.164 181.327 289.159 180.353 290.508 179.857C291.857 179.361 293.206 179.485 294.1 180.052C293.729 181.079 292.734 182.053 291.385 182.548C290.053 183.044 288.704 182.92 287.793 182.354Z" fill="#8475AA"/>
<path d="M320.389 135.038C319.158 136.756 316.798 137.995 314.032 138.119C311.267 138.243 308.805 137.234 307.439 135.623C308.67 133.905 311.03 132.665 313.796 132.542C316.578 132.418 319.023 133.427 320.389 135.038Z" fill="#8475AA"/>
<path d="M316.915 141.609C315.684 143.326 313.324 144.566 310.558 144.69C307.793 144.814 305.331 143.804 303.982 142.193C305.213 140.475 307.573 139.236 310.339 139.112C313.104 138.988 315.566 139.997 316.915 141.609Z" fill="#8475AA"/>
<path d="M313.492 149.363C312.261 151.08 309.901 152.32 307.135 152.444C304.37 152.568 301.908 151.558 300.559 149.947C301.79 148.229 304.15 146.99 306.916 146.866C309.681 146.742 312.143 147.751 313.492 149.363Z" fill="#8475AA"/>
<path d="M308.686 155.563C307.691 156.962 305.769 157.971 303.51 158.06C301.267 158.166 299.26 157.334 298.147 156.023C299.142 154.624 301.064 153.615 303.324 153.526C305.584 153.438 307.573 154.252 308.686 155.563Z" fill="#8475AA"/>
<path d="M305.364 160.965C304.555 162.151 303.003 162.983 301.182 163.054C299.361 163.143 297.742 162.434 296.849 161.337C297.658 160.15 299.209 159.318 301.014 159.247C302.852 159.176 304.471 159.867 305.364 160.965Z" fill="#8475AA"/>
<path d="M304.268 166.578C303.459 167.764 301.908 168.597 300.086 168.668C298.265 168.756 296.646 168.048 295.753 166.95C296.562 165.764 298.113 164.931 299.918 164.86C301.756 164.79 303.375 165.48 304.268 166.578Z" fill="#8475AA"/>
<path d="M302.767 171.89C302.194 173.041 300.862 174.015 299.193 174.405C297.523 174.794 295.938 174.475 294.943 173.696C295.516 172.545 296.849 171.571 298.518 171.182C300.187 170.792 301.789 171.111 302.767 171.89Z" fill="#8475AA"/>
<path d="M301.756 178.208C300.879 178.916 299.479 179.182 298.012 178.828C296.545 178.473 295.382 177.588 294.893 176.561C295.77 175.853 297.169 175.587 298.636 175.941C300.103 176.295 301.25 177.181 301.756 178.208Z" fill="#8475AA"/>
<path d="M299.631 182.601C298.872 182.991 297.776 182.991 296.731 182.513C295.668 182.034 294.927 181.185 294.69 180.352C295.449 179.963 296.528 179.963 297.591 180.441C298.653 180.919 299.395 181.751 299.631 182.601Z" fill="#8475AA"/>
<path d="M297.759 184.302C297.287 184.603 296.596 184.638 295.955 184.337C295.314 184.036 294.859 183.487 294.741 182.921C295.23 182.62 295.904 182.584 296.545 182.885C297.203 183.186 297.641 183.735 297.759 184.302Z" fill="#8475AA"/>
<path d="M297.625 186.089C297.152 186.39 296.461 186.426 295.82 186.125C295.18 185.824 294.724 185.275 294.606 184.708C295.095 184.407 295.77 184.372 296.411 184.673C297.068 184.974 297.507 185.523 297.625 186.089Z" fill="#8475AA"/>
<path d="M283.156 181.13C280.256 176.685 277.221 172.329 273.966 168.15L274.017 168.097C277.355 172.205 280.475 176.491 283.46 180.882C286.444 185.291 289.244 189.824 291.773 194.534C292.38 195.685 292.97 196.836 293.544 198.005C293.324 198.129 293.088 198.271 292.869 198.412C292.313 197.226 291.739 196.057 291.149 194.889C288.755 190.178 286.04 185.592 283.156 181.13Z" fill="#AF9BE2"/>
<path d="M270.779 162.484C271.841 162.59 272.954 163.334 273.645 164.556C274.337 165.778 274.455 167.159 274.033 168.186C272.971 168.08 271.858 167.336 271.167 166.114C270.475 164.892 270.357 163.529 270.779 162.484Z" fill="#AF9BE2"/>
<path d="M278.704 165.086C279.143 165.971 279.16 167.317 278.671 168.645C278.182 169.973 277.305 170.947 276.411 171.301C275.973 170.416 275.956 169.07 276.445 167.742C276.934 166.414 277.811 165.44 278.704 165.086Z" fill="#AF9BE2"/>
<path d="M278.974 174.88C278.249 175.535 277.018 175.854 275.669 175.659C274.32 175.465 273.224 174.792 272.701 173.959C273.427 173.304 274.657 172.986 276.006 173.18C277.339 173.375 278.435 174.048 278.974 174.88Z" fill="#AF9BE2"/>
<path d="M282.178 179.217C281.453 179.872 280.222 180.191 278.873 179.996C277.524 179.802 276.428 179.129 275.905 178.296C276.63 177.641 277.861 177.322 279.21 177.517C280.543 177.712 281.639 178.385 282.178 179.217Z" fill="#AF9BE2"/>
<path d="M284.353 182.67C283.628 183.325 282.397 183.644 281.048 183.449C279.699 183.254 278.603 182.581 278.081 181.749C278.806 181.094 280.037 180.775 281.386 180.97C282.718 181.165 283.814 181.838 284.353 182.67Z" fill="#AF9BE2"/>
<path d="M286.764 186.479C286.039 187.134 284.808 187.453 283.459 187.258C282.11 187.063 281.014 186.39 280.491 185.558C281.217 184.903 282.448 184.584 283.797 184.779C285.129 184.991 286.225 185.664 286.764 186.479Z" fill="#AF9BE2"/>
<path d="M281.487 168.804C281.925 169.69 281.942 171.035 281.453 172.364C280.964 173.692 280.087 174.665 279.194 175.02C278.755 174.134 278.738 172.788 279.227 171.46C279.733 170.132 280.593 169.158 281.487 168.804Z" fill="#AF9BE2"/>
<path d="M284.151 172.632C284.589 173.518 284.606 174.864 284.117 176.192C283.628 177.52 282.751 178.494 281.858 178.848C281.419 177.962 281.402 176.617 281.891 175.289C282.38 173.961 283.257 172.987 284.151 172.632Z" fill="#AF9BE2"/>
<path d="M286.681 176.507C287.119 177.393 287.136 178.739 286.647 180.067C286.158 181.395 285.281 182.369 284.387 182.723C283.949 181.837 283.932 180.492 284.421 179.164C284.927 177.818 285.804 176.844 286.681 176.507Z" fill="#AF9BE2"/>
<path d="M289.143 180.281C289.581 181.166 289.598 182.512 289.109 183.84C288.62 185.168 287.743 186.142 286.849 186.496C286.411 185.611 286.394 184.265 286.883 182.937C287.372 181.609 288.249 180.635 289.143 180.281Z" fill="#AF9BE2"/>
<path d="M281.25 191.324H300.457C303.644 193.042 305.668 195.574 305.668 198.425C305.668 201.471 303.357 204.162 299.799 205.862H281.925C278.35 204.162 276.057 201.471 276.057 198.425C276.023 195.574 278.063 193.024 281.25 191.324Z" fill="#405CE1"/>
<path d="M283.055 192.921C281.166 192.691 278.62 194.196 277.979 197.207C277.085 203.156 282.751 204.892 285.854 203.386C283.156 202.678 280.205 201.386 280.121 198.446C279.969 196.906 280.846 195.436 280.846 195.4C280.964 195.223 281.217 194.781 281.655 194.249C282.043 193.754 282.532 193.329 283.055 192.921Z" fill="#F8F0A1"/>
<path d="M280.354 191.847H301.568V190.448H280.354V191.847Z" fill="#6B9FC5"/>
<path d="M63.7549 167.704C63.0973 168.43 61.9 168.89 60.551 168.837C59.202 168.784 58.0385 168.235 57.4314 167.473C58.089 166.747 59.2863 166.287 60.6353 166.34C61.9843 166.376 63.1479 166.924 63.7549 167.704Z" fill="#AF9BE2"/>
<path d="M78.442 197.385C77.5483 190.921 77.1267 184.387 77.2279 177.853C77.2616 174.595 77.4302 171.337 77.6663 168.079C77.9024 164.838 78.2734 161.598 78.7118 158.375C79.5886 151.93 80.8365 145.537 82.371 139.233C83.1467 136.082 84.0067 132.947 84.9341 129.848C85.8784 126.75 86.8733 123.669 88.0369 120.641L88.4078 120.8C87.2949 123.81 86.3337 126.909 85.4231 130.008C84.5294 133.107 83.72 136.241 82.9781 139.393C81.511 145.697 80.3475 152.071 79.5549 158.499C79.1671 161.704 78.8298 164.927 78.6275 168.167C78.4251 171.39 78.2902 174.631 78.3071 177.871C78.2734 184.334 78.7624 190.798 79.7404 197.172L78.442 197.385Z" fill="#AF9BE2"/>
<path d="M89.858 107.695C88.1043 108.811 86.7046 111.166 86.3168 114.035C85.929 116.921 86.6541 119.577 88.0368 121.153C89.7905 120.037 91.1901 117.682 91.578 114.814C91.9658 111.945 91.2576 109.271 89.858 107.695Z" fill="#AF9BE2"/>
<path d="M79.5215 117.61C79.3023 119.275 79.9937 121.329 81.4607 122.976C82.9446 124.64 84.8333 125.473 86.4352 125.366C86.6544 123.702 85.9631 121.648 84.496 120.001C83.0121 118.354 81.1235 117.504 79.5215 117.61Z" fill="#AF9BE2"/>
<path d="M86.5872 125.916C87.9362 126.836 89.9766 127.049 92.0338 126.358C94.0911 125.65 95.6256 124.216 96.2158 122.64C94.8667 121.719 92.8264 121.507 90.7691 122.197C88.695 122.905 87.1605 124.357 86.5872 125.916Z" fill="#AF9BE2"/>
<path d="M84.7324 132.431C86.0814 133.352 88.1218 133.564 90.1791 132.874C92.2363 132.165 93.7708 130.731 94.361 129.155C93.012 128.234 90.9716 128.022 88.9144 128.712C86.8403 129.421 85.3058 130.855 84.7324 132.431Z" fill="#AF9BE2"/>
<path d="M82.6243 139.743C83.9733 140.664 86.0137 140.876 88.0709 140.186C90.1282 139.478 91.6627 138.043 92.2529 136.467C90.9039 135.547 88.8635 135.334 86.8062 136.025C84.749 136.733 83.2145 138.185 82.6243 139.743Z" fill="#AF9BE2"/>
<path d="M81.2246 146.564C82.5736 147.484 84.614 147.697 86.6713 147.006C88.7285 146.298 90.263 144.864 90.8532 143.288C89.5042 142.367 87.4638 142.154 85.4066 142.845C83.3325 143.553 81.7979 144.988 81.2246 146.564Z" fill="#AF9BE2"/>
<path d="M81.8146 145.181C80.4656 146.102 78.4252 146.314 76.368 145.624C74.3107 144.916 72.7762 143.481 72.186 141.905C73.5351 140.985 75.5754 140.772 77.6327 141.463C79.6899 142.171 81.2244 143.605 81.8146 145.181Z" fill="#AF9BE2"/>
<path d="M77.6331 124.095C77.4139 125.759 78.1052 127.813 79.5723 129.46C81.0562 131.125 82.9448 131.957 84.5468 131.851C84.766 130.186 84.0746 128.132 82.6076 126.485C81.1405 124.839 79.235 123.989 77.6331 124.095Z" fill="#AF9BE2"/>
<path d="M75.4744 131.458C75.2552 133.123 75.9465 135.177 77.4136 136.823C78.8975 138.488 80.7862 139.32 82.3881 139.214C82.6073 137.549 81.916 135.495 80.4489 133.849C78.965 132.202 77.0763 131.352 75.4744 131.458Z" fill="#AF9BE2"/>
<path d="M118.069 137.727C115.371 139.286 112.859 141.127 110.414 143.057C107.968 145.005 105.641 147.095 103.399 149.308C101.156 151.521 99.0481 153.859 97.0246 156.302C95.0179 158.746 93.1461 161.314 91.3924 163.952C87.885 169.247 84.9677 174.984 82.6069 180.951C80.3136 186.954 78.5936 193.205 77.5144 199.579L78.8128 199.81C79.7909 193.506 81.376 187.326 83.5513 181.358C85.794 175.426 88.5932 169.707 91.9995 164.395C93.7026 161.739 95.5238 159.171 97.463 156.71C99.4191 154.248 101.493 151.911 103.685 149.662C105.877 147.431 108.171 145.306 110.565 143.323C112.977 141.357 115.472 139.48 118.12 137.887L118.069 137.727Z" fill="#AF9BE2"/>
<path d="M127.985 130.449C127.834 132.592 126.485 134.965 124.225 136.647C121.965 138.311 119.368 138.86 117.396 138.276C117.547 136.133 118.896 133.76 121.156 132.078C123.432 130.414 126.012 129.865 127.985 130.449Z" fill="#AF9BE2"/>
<path d="M112.741 128.625C114.258 130.077 115.186 132.68 115.017 135.584C114.865 138.488 113.651 140.95 111.999 142.207C110.481 140.755 109.554 138.152 109.722 135.248C109.874 132.362 111.088 129.9 112.741 128.625Z" fill="#AF9BE2"/>
<path d="M103.753 133.372C105.574 134.346 107.126 136.594 107.716 139.428C108.306 142.261 107.766 144.988 106.485 146.67C104.664 145.696 103.112 143.447 102.522 140.614C101.932 137.763 102.472 135.054 103.753 133.372Z" fill="#AF9BE2"/>
<path d="M97.6825 139.25C99.5037 140.223 101.055 142.472 101.645 145.305C102.235 148.156 101.696 150.866 100.414 152.548C98.5931 151.574 97.0417 149.325 96.4515 146.492C95.8613 143.641 96.401 140.914 97.6825 139.25Z" fill="#AF9BE2"/>
<path d="M90.6843 145.269C92.691 145.729 94.7314 147.465 95.9961 150.068C97.2439 152.653 97.3957 155.433 96.5694 157.398C94.5628 156.938 92.5224 155.185 91.2577 152.6C89.993 149.997 89.8581 147.234 90.6843 145.269Z" fill="#AF9BE2"/>
<path d="M85.7606 152.814C87.5818 152.726 89.7402 153.753 91.3759 155.701C93.0116 157.649 93.7367 160.004 93.4332 161.898C91.612 161.987 89.4536 160.96 87.8179 159.012C86.1822 157.064 85.474 154.709 85.7606 152.814Z" fill="#AF9BE2"/>
<path d="M82.2026 157.56C84.0237 157.472 86.1822 158.499 87.8179 160.447C89.4535 162.394 90.1786 164.749 89.8751 166.644C88.0539 166.733 85.8955 165.706 84.2598 163.758C82.6241 161.81 81.899 159.455 82.2026 157.56Z" fill="#AF9BE2"/>
<path d="M80.1622 164.552C81.7304 164.481 83.5684 165.366 84.968 167.031C86.3676 168.695 86.9916 170.714 86.7386 172.343C85.1704 172.414 83.3324 171.528 81.9327 169.864C80.5163 168.199 79.9092 166.181 80.1622 164.552Z" fill="#AF9BE2"/>
<path d="M78.1724 171.848C79.319 171.176 81.0053 171.087 82.6747 171.76C84.3441 172.433 85.5414 173.69 85.9461 175C84.7994 175.673 83.1131 175.762 81.4437 175.089C79.7912 174.416 78.5939 173.159 78.1724 171.848Z" fill="#AF9BE2"/>
<path d="M77.3799 177.869C78.0881 177.055 79.3528 176.541 80.7693 176.594C82.2026 176.665 83.4167 177.285 84.0407 178.17C83.3324 178.985 82.0677 179.498 80.6513 179.445C79.2348 179.374 78.0038 178.755 77.3799 177.869Z" fill="#AF9BE2"/>
<path d="M124.224 146.44C122.487 147.574 119.857 147.804 117.226 146.848C114.613 145.892 112.673 144.015 111.982 141.978C113.719 140.845 116.349 140.615 118.98 141.571C121.594 142.527 123.516 144.404 124.224 146.44Z" fill="#AF9BE2"/>
<path d="M118.694 151.202C116.957 152.335 114.326 152.566 111.695 151.609C109.082 150.653 107.143 148.776 106.451 146.74C108.188 145.607 110.819 145.376 113.449 146.333C116.063 147.289 118.002 149.184 118.694 151.202Z" fill="#AF9BE2"/>
<path d="M112.808 157.097C111.071 158.23 108.441 158.46 105.81 157.504C103.196 156.548 101.257 154.671 100.566 152.634C102.303 151.501 104.933 151.271 107.564 152.227C110.178 153.183 112.1 155.078 112.808 157.097Z" fill="#AF9BE2"/>
<path d="M106.165 161.011C104.748 161.932 102.607 162.127 100.482 161.347C98.3571 160.568 96.7889 159.045 96.2156 157.399C97.632 156.478 99.7736 156.283 101.898 157.062C104.023 157.824 105.591 159.364 106.165 161.011Z" fill="#AF9BE2"/>
<path d="M101.19 164.75C100.026 165.529 98.2894 165.724 96.5694 165.086C94.8494 164.467 93.5847 163.192 93.1462 161.828C94.3098 161.049 96.0466 160.854 97.7666 161.492C99.4698 162.111 100.734 163.386 101.19 164.75Z" fill="#AF9BE2"/>
<path d="M98.2052 169.566C97.0416 170.345 95.3048 170.539 93.5848 169.902C91.8648 169.282 90.6001 168.007 90.1616 166.644C91.3252 165.865 93.062 165.67 94.782 166.307C96.502 166.927 97.7667 168.202 98.2052 169.566Z" fill="#AF9BE2"/>
<path d="M94.9506 173.919C94.0063 174.751 92.438 175.159 90.7518 174.875C89.0655 174.592 87.6996 173.689 87.0588 172.573C88.0031 171.741 89.5714 171.334 91.2577 171.617C92.9439 171.901 94.3098 172.804 94.9506 173.919Z" fill="#AF9BE2"/>
<path d="M91.7971 179.394C90.7348 179.713 89.3352 179.43 88.0873 178.527C86.8395 177.641 86.0807 176.366 85.9795 175.215C87.0418 174.897 88.4414 175.18 89.6893 176.083C90.9371 176.986 91.6959 178.243 91.7971 179.394Z" fill="#AF9BE2"/>
<path d="M88.2904 182.666C87.4472 182.755 86.4355 182.33 85.6261 181.462C84.8167 180.612 84.412 179.532 84.4794 178.664C85.3226 178.576 86.3343 179.001 87.1437 179.868C87.97 180.718 88.3747 181.798 88.2904 182.666Z" fill="#AF9BE2"/>
<path d="M85.9632 183.539C85.4068 183.627 84.766 183.397 84.2601 182.866C83.7711 182.335 83.535 181.662 83.6193 181.077C84.1758 180.989 84.8166 181.219 85.3225 181.75C85.8283 182.281 86.0475 182.954 85.9632 183.539Z" fill="#AF9BE2"/>
<path d="M85.2038 185.149C84.6473 185.237 84.0066 185.007 83.5007 184.476C82.9948 183.945 82.7756 183.272 82.8599 182.687C83.4164 182.599 84.0571 182.829 84.563 183.36C85.0689 183.892 85.305 184.564 85.2038 185.149Z" fill="#AF9BE2"/>
<path d="M58.224 132.309C60.1464 134.522 61.8326 136.93 63.4346 139.392C65.0197 141.871 66.4867 144.438 67.8189 147.077C69.151 149.715 70.3483 152.424 71.4275 155.205C72.4899 157.985 73.4005 160.818 74.193 163.686C75.7781 169.441 76.7055 175.391 77.0765 181.376C77.3969 187.361 77.1102 193.382 76.2502 199.332L75.0361 199.119C75.9636 193.276 76.3346 187.344 76.0985 181.429C75.8118 175.515 74.9687 169.618 73.5016 163.899C72.7597 161.03 71.8997 158.215 70.8879 155.435C69.8593 152.672 68.7126 149.945 67.4311 147.307C66.1495 144.669 64.733 142.083 63.1816 139.587C61.6303 137.108 59.9609 134.682 58.0891 132.45L58.224 132.309Z" fill="#CFC3EE"/>
<path d="M51.5796 122.801C51.0906 124.731 51.6133 127.245 53.131 129.423C54.6486 131.601 56.7733 132.894 58.662 133C59.151 131.07 58.6282 128.556 57.1106 126.378C55.5929 124.2 53.4682 122.907 51.5796 122.801Z" fill="#CFC3EE"/>
<path d="M65.4752 125.973C63.7383 126.769 62.187 128.77 61.4956 131.356C60.8042 133.959 61.1752 136.491 62.2713 138.12C64.0081 137.323 65.5595 135.322 66.2509 132.737C66.9422 130.152 66.5881 127.602 65.4752 125.973Z" fill="#CFC3EE"/>
<path d="M72.0341 132.965C70.1455 133.248 68.1557 134.736 66.8404 137.055C65.5251 139.375 65.2216 141.925 65.8623 143.802C67.751 143.519 69.7408 142.031 71.0561 139.712C72.3882 137.392 72.6917 134.842 72.0341 132.965Z" fill="#CFC3EE"/>
<path d="M75.7106 140.013C73.822 140.296 71.8322 141.783 70.5169 144.103C69.2016 146.423 68.8981 148.973 69.5389 150.85C71.4275 150.566 73.4173 149.079 74.7326 146.759C76.0479 144.439 76.3514 141.89 75.7106 140.013Z" fill="#CFC3EE"/>
<path d="M80.1286 147.504C78.24 147.274 75.9467 148.177 74.1086 150.054C72.2706 151.931 71.36 154.322 71.5286 156.305C73.4173 156.535 75.7106 155.632 77.5486 153.755C79.3867 151.878 80.2973 149.488 80.1286 147.504Z" fill="#CFC3EE"/>
<path d="M82.3043 155.666C80.7192 155.029 78.544 155.259 76.5542 156.446C74.5643 157.632 73.2659 159.491 72.9792 161.244C74.5643 161.882 76.7396 161.652 78.7294 160.465C80.7361 159.279 82.0345 157.419 82.3043 155.666Z" fill="#CFC3EE"/>
<path d="M84.1083 160.961C82.5232 160.323 80.3479 160.554 78.3581 161.74C76.3683 162.926 75.0699 164.786 74.7832 166.539C76.3683 167.176 78.5436 166.946 80.5334 165.76C82.5232 164.556 83.8216 162.714 84.1083 160.961Z" fill="#CFC3EE"/>
<path d="M83.906 167.741C82.557 167.192 80.6852 167.387 78.9821 168.414C77.279 169.441 76.166 171.017 75.9131 172.522C77.2621 173.071 79.1339 172.876 80.837 171.849C82.557 170.822 83.6699 169.246 83.906 167.741Z" fill="#CFC3EE"/>
<path d="M83.5686 174.77C82.7592 173.814 81.2921 173.212 79.6396 173.283C77.987 173.354 76.5706 174.08 75.8455 175.089C76.6549 176.045 78.1219 176.647 79.7745 176.577C81.427 176.506 82.8435 175.78 83.5686 174.77Z" fill="#CFC3EE"/>
<path d="M82.5736 180.297C82.1858 179.358 81.2246 178.508 79.9599 178.119C78.6952 177.729 77.4305 177.906 76.6379 178.473C77.0258 179.412 77.987 180.261 79.2517 180.651C80.5164 181.041 81.7642 180.881 82.5736 180.297Z" fill="#CFC3EE"/>
<path d="M50.3491 138.011C51.5632 139.552 53.806 140.579 56.3691 140.561C58.9323 140.543 61.175 139.499 62.3554 137.94C61.1413 136.4 58.8985 135.373 56.3354 135.391C53.7723 135.408 51.5295 136.471 50.3491 138.011Z" fill="#CFC3EE"/>
<path d="M53.8398 143.945C55.054 145.485 57.2967 146.512 59.8598 146.495C62.423 146.477 64.6657 145.414 65.8461 143.874C64.632 142.333 62.3892 141.306 59.8261 141.324C57.263 141.342 55.0371 142.386 53.8398 143.945Z" fill="#CFC3EE"/>
<path d="M57.3472 150.957C58.5613 152.497 60.804 153.524 63.3672 153.507C65.9303 153.489 68.173 152.427 69.3534 150.886C68.1393 149.345 65.8966 148.318 63.3334 148.336C60.7703 148.354 58.5276 149.399 57.3472 150.957Z" fill="#CFC3EE"/>
<path d="M62.0686 156.48C63.0466 157.737 64.8847 158.569 66.9588 158.551C69.0498 158.534 70.8709 157.684 71.8321 156.409C70.8541 155.152 69.016 154.319 66.9419 154.337C64.851 154.355 63.0298 155.222 62.0686 156.48Z" fill="#CFC3EE"/>
<path d="M65.3738 161.331C66.1663 162.376 67.6502 163.084 69.3365 163.084C71.0228 163.067 72.4899 162.358 73.2655 161.296C72.473 160.251 70.9891 159.543 69.3028 159.543C67.6334 159.543 66.1663 160.269 65.3738 161.331Z" fill="#CFC3EE"/>
<path d="M66.6216 166.484C67.4141 167.528 68.898 168.237 70.5843 168.237C72.2706 168.219 73.7376 167.511 74.5302 166.448C73.7376 165.404 72.2537 164.695 70.5675 164.695C68.8812 164.695 67.4141 165.421 66.6216 166.484Z" fill="#CFC3EE"/>
<path d="M68.2571 171.319C68.8473 172.346 70.112 173.196 71.6802 173.48C73.2484 173.763 74.6986 173.391 75.5755 172.612C74.9853 171.585 73.7206 170.735 72.1524 170.452C70.5841 170.186 69.1339 170.558 68.2571 171.319Z" fill="#CFC3EE"/>
<path d="M69.4714 177.127C70.3146 177.729 71.6299 177.923 72.9789 177.534C74.3279 177.144 75.3565 176.259 75.7781 175.285C74.935 174.683 73.6197 174.488 72.2706 174.878C70.9216 175.267 69.8761 176.153 69.4714 177.127Z" fill="#CFC3EE"/>
<path d="M71.6128 181.092C72.321 181.429 73.3328 181.375 74.294 180.88C75.2551 180.384 75.9128 179.569 76.0983 178.772C75.39 178.436 74.3783 178.489 73.4171 178.985C72.4559 179.481 71.7983 180.295 71.6128 181.092Z" fill="#CFC3EE"/>
<path d="M73.4175 182.581C73.8728 182.829 74.5136 182.829 75.1037 182.528C75.6939 182.227 76.0818 181.695 76.1661 181.164C75.7108 180.916 75.07 180.916 74.4798 181.217C73.8896 181.518 73.5018 182.05 73.4175 182.581Z" fill="#CFC3EE"/>
<path d="M73.6196 184.249C74.0749 184.497 74.7157 184.497 75.3059 184.196C75.8961 183.895 76.2839 183.363 76.3682 182.832C75.913 182.584 75.2722 182.584 74.682 182.885C74.0918 183.186 73.7039 183.7 73.6196 184.249Z" fill="#CFC3EE"/>
<path d="M98.9475 125.742C96.9914 128.221 95.2883 130.913 93.6863 133.658C92.1012 136.402 90.651 139.253 89.3526 142.175C88.0541 145.097 86.8906 148.072 85.8788 151.117C84.8671 154.163 84.024 157.262 83.3157 160.414C81.8992 166.7 81.191 173.145 81.0898 179.608C81.0392 186.072 81.6463 192.553 82.8773 198.892L84.1757 198.609C82.8773 192.376 82.1859 186.001 82.1353 179.626C82.1353 173.234 82.7592 166.841 84.0577 160.591C84.7153 157.474 85.5079 154.375 86.4522 151.33C87.4134 148.284 88.5263 145.309 89.7741 142.387C91.022 139.466 92.4216 136.597 93.9561 133.835C95.5075 131.072 97.1769 128.363 99.0824 125.866L98.9475 125.742Z" fill="#8475AA"/>
<path d="M105.642 115.133C106.266 117.187 105.827 119.914 104.31 122.358C102.792 124.784 100.566 126.289 98.5259 126.501C97.9019 124.447 98.3404 121.72 99.858 119.277C101.376 116.868 103.602 115.363 105.642 115.133Z" fill="#8475AA"/>
<path d="M90.8199 119.328C92.7422 120.09 94.5128 122.162 95.3728 124.906C96.2328 127.669 95.9799 130.431 94.8838 132.237C92.9783 131.476 91.1909 129.404 90.3309 126.659C89.454 123.897 89.7069 121.135 90.8199 119.328Z" fill="#8475AA"/>
<path d="M84.1079 127.207C86.1483 127.42 88.3742 128.907 89.9087 131.315C91.4432 133.741 91.8985 136.468 91.2914 138.522C89.251 138.31 87.0252 136.822 85.4907 134.414C83.9562 131.988 83.5009 129.261 84.1079 127.207Z" fill="#8475AA"/>
<path d="M80.5162 135.001C82.5565 135.213 84.7824 136.701 86.3169 139.109C87.8514 141.535 88.3067 144.262 87.6997 146.316C85.6593 146.103 83.4334 144.616 81.8989 142.208C80.3475 139.799 79.9091 137.055 80.5162 135.001Z" fill="#8475AA"/>
<path d="M76.1154 143.305C78.1389 142.951 80.6514 143.801 82.7256 145.714C84.7997 147.644 85.8957 150.158 85.8114 152.318C83.7879 152.673 81.2754 151.823 79.2012 149.91C77.1271 147.98 76.0311 145.448 76.1154 143.305Z" fill="#8475AA"/>
<path d="M74.1758 152.228C75.8452 151.449 78.206 151.573 80.415 152.741C82.624 153.91 84.1079 155.84 84.4958 157.717C82.8264 158.496 80.4656 158.372 78.2566 157.204C76.0644 156.017 74.5636 154.105 74.1758 152.228Z" fill="#8475AA"/>
<path d="M72.5066 158.021C74.176 157.242 76.5368 157.366 78.7458 158.535C80.9548 159.703 82.4387 161.634 82.8266 163.511C81.1572 164.29 78.7964 164.166 76.5874 162.979C74.3952 161.811 72.8944 159.898 72.5066 158.021Z" fill="#8475AA"/>
<path d="M73.063 165.316C74.4963 164.643 76.5198 164.75 78.4085 165.759C80.2971 166.768 81.5787 168.415 81.9159 170.026C80.4826 170.699 78.4591 170.593 76.5704 169.584C74.6818 168.557 73.4002 166.91 73.063 165.316Z" fill="#8475AA"/>
<path d="M73.771 172.861C74.5973 171.799 76.1486 171.073 77.9192 171.055C79.7067 171.038 81.258 171.746 82.1012 172.791C81.2749 173.853 79.7235 174.579 77.9529 174.597C76.1655 174.614 74.6141 173.924 73.771 172.861Z" fill="#8475AA"/>
<path d="M75.137 178.756C75.5079 177.729 76.5028 176.755 77.8519 176.259C79.2009 175.764 80.5499 175.888 81.4436 176.454C81.0726 177.481 80.0777 178.455 78.7287 178.951C77.3797 179.447 76.0307 179.34 75.137 178.756Z" fill="#8475AA"/>
<path d="M107.716 131.46C106.485 133.178 104.124 134.418 101.359 134.541C98.5932 134.665 96.1312 133.656 94.7822 132.045C96.0132 130.327 98.374 129.088 101.139 128.964C103.905 128.84 106.367 129.849 107.716 131.46Z" fill="#8475AA"/>
<path d="M104.242 138.03C103.011 139.748 100.65 140.987 97.8846 141.111C95.1191 141.235 92.6571 140.226 91.2913 138.615C92.5222 136.897 94.883 135.658 97.6485 135.534C100.431 135.41 102.893 136.419 104.242 138.03Z" fill="#8475AA"/>
<path d="M100.836 145.783C99.6048 147.501 97.244 148.741 94.4786 148.865C91.7131 148.988 89.2511 147.979 87.9021 146.368C89.1331 144.65 91.4939 143.411 94.2593 143.287C97.008 143.145 99.4699 144.172 100.836 145.783Z" fill="#8475AA"/>
<path d="M96.0128 151.985C95.0179 153.383 93.0956 154.393 90.836 154.481C88.5932 154.588 86.5866 153.755 85.4736 152.445C86.4685 151.046 88.3909 150.037 90.6505 149.948C92.9101 149.86 94.8999 150.674 96.0128 151.985Z" fill="#8475AA"/>
<path d="M92.6912 157.382C91.8818 158.568 90.3304 159.401 88.5093 159.472C86.6881 159.56 85.0693 158.852 84.1755 157.754C84.9849 156.568 86.5363 155.735 88.3575 155.664C90.1787 155.576 91.7975 156.284 92.6912 157.382Z" fill="#8475AA"/>
<path d="M91.6121 162.997C90.8027 164.184 89.2513 165.016 87.4302 165.104C85.609 165.193 83.9902 164.485 83.0964 163.387C83.9058 162.2 85.4572 161.368 87.2615 161.297C89.0996 161.209 90.7015 161.899 91.6121 162.997Z" fill="#8475AA"/>
<path d="M90.0946 168.308C89.5212 169.459 88.1891 170.433 86.5197 170.823C84.8503 171.212 83.2652 170.894 82.2703 170.115C82.8436 168.964 84.1758 167.99 85.8452 167.6C87.5146 167.211 89.1165 167.529 90.0946 168.308Z" fill="#8475AA"/>
<path d="M89.0824 174.629C88.2055 175.338 86.8059 175.603 85.3388 175.249C83.8718 174.895 82.7083 174.01 82.2192 172.983C83.0961 172.274 84.4957 172.009 85.9628 172.363C87.4298 172.699 88.5765 173.602 89.0824 174.629Z" fill="#8475AA"/>
<path d="M86.9581 179.023C86.1993 179.413 85.1201 179.413 84.0577 178.935C82.9954 178.457 82.2534 177.607 82.0173 176.774C82.7762 176.385 83.8554 176.385 84.9177 176.863C85.9801 177.341 86.722 178.173 86.9581 179.023Z" fill="#8475AA"/>
<path d="M85.1029 180.723C84.6139 181.024 83.9394 181.042 83.2986 180.759C82.6578 180.458 82.2025 179.909 82.0845 179.342C82.5735 179.041 83.248 179.006 83.8888 179.307C84.5296 179.59 84.968 180.139 85.1029 180.723Z" fill="#8475AA"/>
<path d="M84.9676 182.509C84.4786 182.81 83.8041 182.845 83.1633 182.544C82.5225 182.243 82.0673 181.694 81.9492 181.128C82.4382 180.827 83.1127 180.791 83.7535 181.092C84.3943 181.393 84.8327 181.942 84.9676 182.509Z" fill="#8475AA"/>
<path d="M70.4827 177.552C67.5823 173.107 64.547 168.751 61.2925 164.572L61.3431 164.519C64.6819 168.627 67.8184 172.912 70.8031 177.304C73.7878 181.713 76.587 186.246 79.1164 190.956C79.7234 192.107 80.3136 193.258 80.887 194.427C80.6678 194.551 80.4317 194.693 80.2125 194.834C79.656 193.648 79.0827 192.479 78.4925 191.328C76.0811 186.583 73.3662 182.014 70.4827 177.552Z" fill="#AF9BE2"/>
<path d="M58.0888 158.906C59.1511 159.012 60.264 159.756 60.9554 160.978C61.6468 162.199 61.7648 163.581 61.3433 164.608C60.2809 164.501 59.168 163.758 58.4766 162.536C57.7852 161.314 57.6841 159.951 58.0888 158.906Z" fill="#AF9BE2"/>
<path d="M66.0313 161.508C66.4697 162.393 66.4865 163.739 65.9975 165.067C65.5085 166.395 64.6317 167.369 63.7379 167.723C63.2995 166.838 63.2826 165.492 63.7717 164.164C64.2775 162.836 65.1375 161.862 66.0313 161.508Z" fill="#AF9BE2"/>
<path d="M66.301 171.302C65.5759 171.957 64.3449 172.276 62.9959 172.081C61.6469 171.887 60.5508 171.214 60.0281 170.381C60.7532 169.726 61.9842 169.407 63.3332 169.602C64.6653 169.797 65.7783 170.47 66.301 171.302Z" fill="#AF9BE2"/>
<path d="M69.5044 175.639C68.7793 176.294 67.5483 176.613 66.1993 176.418C64.8503 176.223 63.7542 175.55 63.2314 174.718C63.9565 174.063 65.1875 173.744 66.5365 173.939C67.8687 174.134 68.9648 174.807 69.5044 175.639Z" fill="#AF9BE2"/>
<path d="M71.6804 179.092C70.9553 179.747 69.7243 180.066 68.3753 179.871C67.0263 179.676 65.9302 179.003 65.4075 178.171C66.1326 177.516 67.3635 177.197 68.7126 177.392C70.0447 177.587 71.1408 178.26 71.6804 179.092Z" fill="#AF9BE2"/>
<path d="M74.0918 182.901C73.3667 183.556 72.1357 183.875 70.7867 183.68C69.4377 183.485 68.3416 182.812 67.8188 181.98C68.5439 181.325 69.7749 181.006 71.1239 181.201C72.4561 181.413 73.5522 182.069 74.0918 182.901Z" fill="#AF9BE2"/>
<path d="M68.814 165.226C69.2524 166.112 69.2693 167.457 68.7803 168.785C68.2912 170.113 67.4144 171.087 66.5207 171.441C66.0822 170.556 66.0654 169.21 66.5544 167.882C67.0603 166.554 67.9371 165.58 68.814 165.226Z" fill="#AF9BE2"/>
<path d="M71.4781 169.054C71.9165 169.94 71.9334 171.285 71.4443 172.614C70.9553 173.942 70.0784 174.915 69.1847 175.27C68.7463 174.384 68.7294 173.039 69.2184 171.71C69.7243 170.382 70.5843 169.408 71.4781 169.054Z" fill="#AF9BE2"/>
<path d="M74.0237 172.914C74.4621 173.799 74.479 175.145 73.99 176.473C73.5009 177.801 72.6241 178.775 71.7304 179.129C71.2919 178.244 71.2751 176.898 71.7641 175.57C72.2531 174.242 73.13 173.268 74.0237 172.914Z" fill="#AF9BE2"/>
<path d="M76.469 176.703C76.9074 177.588 76.9243 178.934 76.4353 180.262C75.9463 181.59 75.0694 182.564 74.1757 182.918C73.7373 182.033 73.7204 180.687 74.2094 179.359C74.7153 178.031 75.5753 177.057 76.469 176.703Z" fill="#AF9BE2"/>
<path d="M68.5778 187.749H87.7845C90.9715 189.467 92.995 191.999 92.995 194.85C92.995 197.896 90.6849 200.587 87.1268 202.287H69.2524C65.6775 200.587 63.3841 197.896 63.3841 194.85C63.3673 191.999 65.3908 189.449 68.5778 187.749Z" fill="#405CE1"/>
<path d="M70.382 189.344C68.4934 189.114 65.9472 190.601 65.2895 193.629C64.3958 199.579 70.0617 201.314 73.1644 199.809C70.4664 199.101 67.5154 197.808 67.4311 194.869C67.2793 193.328 68.1562 191.858 68.1562 191.823C68.2742 191.646 68.5103 191.203 68.9656 190.672C69.3871 190.176 69.8593 189.751 70.382 189.344Z" fill="#F8F0A1"/>
<path d="M67.6727 188.262H88.886V186.863H67.6727V188.262Z" fill="#6B9FC5"/>
<path d="M295.724 102.78V15.0039L213.687 15.0039V102.78L295.724 102.78Z" fill="#290096"/>
<path d="M294.15 16.6484H215.267V101.113H294.15V16.6484Z" fill="#F1ECFF"/>
<path d="M231.809 81.0814H228.335V94.9109H231.809V81.0814Z" fill="#D7CEEE"/>
<path d="M238.116 78.5863H234.642V94.9126H238.116V78.5863Z" fill="#D7CEEE"/>
<path d="M244.405 76.0905H240.931V94.9135H244.405V76.0905Z" fill="#D7CEEE"/>
<path d="M250.712 73.59H247.238V94.9097H250.712V73.59Z" fill="#D7CEEE"/>
<path d="M257.001 71.0779H253.528V94.8944H257.001V71.0779Z" fill="#D7CEEE"/>
<path d="M263.308 68.5828H259.834V94.896H263.308V68.5828Z" fill="#D7CEEE"/>
<path d="M269.598 66.0822H266.124V94.8922H269.598V66.0822Z" fill="#D7CEEE"/>
<path d="M275.905 63.59H272.431V94.8967H275.905V63.59Z" fill="#D7CEEE"/>
<path d="M282.212 61.089H278.738V94.8925H282.212V61.089Z" fill="#D7CEEE"/>
<path d="M288.502 58.5939H285.028V94.9118H288.502V58.5939Z" fill="#D7CEEE"/>
<path d="M289.412 44.4103C289.108 44.4634 280.778 46.0217 280.474 46.0217L283.324 46.8362C282.211 47.2789 276.259 49.6517 274.792 50.236C274.353 52.2901 274.033 53.7244 273.78 54.8754C272.431 54.7337 269.901 54.5035 267.709 54.2733C266.883 55.0524 260.509 61.073 259.683 61.8521C257.676 61.5865 255.18 61.2501 253.393 61.0199C251.673 62.5604 243.393 69.9621 241.741 71.4318C240.088 70.8475 237.744 70.0152 236.311 69.5017C235.704 69.9444 225.148 77.6471 224.507 78.0898L225.097 78.9752L236.463 70.6881C238.149 71.2902 240.358 72.0693 241.96 72.6359C243.343 71.3964 252.448 63.251 253.713 62.1354C255.72 62.401 258.199 62.7375 260.02 62.9854C260.475 62.5604 267.777 55.6545 268.063 55.3889C269.193 55.4951 272.92 55.867 274.589 56.0264C274.876 54.7337 275.55 51.6349 275.685 50.9974L283.779 47.1018L283.155 50.0235L289.412 44.4103Z" fill="#ECB2CD"/>
<path d="M112.134 158.559H107.699V194.328H112.134V158.559Z" fill="#56585E"/>
<path d="M112.826 194.646H107.075V189.228V184.872H112.826V194.646Z" fill="#0A2126"/>
<path d="M85.8455 201.108L107.076 189.227V194.645L91.8486 201.108V202.295H85.8455V201.108Z" fill="#0A2126"/>
<path d="M134.039 201.108L112.826 189.227V194.645L128.036 201.108V202.295H134.039V201.108Z" fill="#0A2126"/>
<path d="M108.02 189.227V202.295H106.586V203.216H112.826V202.295H111.51L111.915 189.227H108.02Z" fill="#0A2126"/>
<path d="M112.859 156.539H107.143V163.905H112.859V156.539Z" fill="#303030"/>
<path d="M95.2713 119.812L88.2227 123.902L93.9054 150.977L96.6709 150.428L93.4164 125.283L97.2442 123.548L95.2713 119.812Z" fill="#282859"/>
<path d="M121.527 119.812L128.946 125.921L127.715 151.597L124.714 150.924L125.759 128.79L119.824 124.664L121.527 119.812Z" fill="#282859"/>
<path d="M119.233 138.51H98.1378L92.337 100.846C91.2915 94.082 96.266 87.9375 102.792 87.9375H114.562C121.088 87.9375 126.062 94.082 125.017 100.846L119.233 138.51Z" fill="#56548C"/>
<path d="M130.278 153.651H90.8025C90.8025 151.385 92.5562 149.543 94.7146 149.543H126.366C128.524 149.543 130.278 151.385 130.278 153.651Z" fill="#56548C"/>
<path d="M121.054 92.3455L123.027 90.9466C123.027 90.9466 117.851 82.022 118.39 74.3193C118.677 70.2643 112.336 64.2792 110.65 65.2C110.549 65.1646 105.018 65.3239 104.529 78.5868L103.349 94.1162L109.318 99.6764C109.318 99.6764 113.078 92.8944 117.867 95.8693C122.656 98.8441 120.852 97.5692 120.852 97.5692C120.852 97.5692 121.054 93.7621 121.054 92.3455Z" fill="#002B32"/>
<path d="M99.4873 92.7006C99.4873 92.7006 99.4367 107.486 100.87 110.621C102.303 113.755 101.663 132.436 101.663 132.436L118.121 132.95C118.121 132.95 120.228 115.526 120.228 110.762C120.228 105.999 121.881 92.6475 121.881 92.6475C121.881 92.6475 110.684 89.6372 99.4873 92.7006Z" fill="#746C87"/>
<path d="M115.54 82.1658C115.793 82.4314 114.781 89.5321 115.759 91.6039C115.759 91.6039 113.129 106.903 111.358 107.133C109.824 107.328 108.997 94.3131 108.677 92.8257C108.256 90.8248 109.166 80.8555 109.166 80.8555L115.54 82.1658Z" fill="#FFC8AF"/>
<path d="M115.439 85.2823C113.078 87.5135 110.734 86.4687 108.947 83.6532C108.981 82.2367 109.166 80.944 109.183 80.8555L115.54 82.1658C115.641 82.2721 115.54 83.6001 115.439 85.2823Z" fill="#FFBC9D"/>
<path d="M114.596 65.7313C114.596 65.7313 117.496 66.3156 117.834 68.9186C118.171 71.5216 118.66 73.6996 118.171 76.7453C117.682 79.791 115.962 83.846 113.129 84.5011C110.296 85.1563 107.328 80.2336 107.328 77.5421C107.328 74.8683 106.299 70.3706 108.222 67.6082C110.195 64.8636 114.596 65.7313 114.596 65.7313Z" fill="#FFC8AF"/>
<path d="M103.719 131.409L100.616 132.932C100.616 132.932 97.1089 137.023 96.3332 144.229C95.5575 151.454 104.883 154.978 104.883 154.978L123.297 153.614C123.297 153.614 130.109 134.03 118.794 131.675C107.952 129.444 103.719 131.409 103.719 131.409Z" fill="#001542"/>
<path d="M114.09 142.212C114.09 142.212 114.191 145.629 114.36 145.7C115.911 146.338 122.673 145.541 123.415 149.596C124.242 154.129 110.532 187.189 111.443 192.094C112.353 196.999 113.584 201.231 114.326 202.01C115.068 202.789 115.085 203.462 114.444 204.135C113.804 204.808 111.038 204.029 110.262 203.214C109.487 202.4 108.559 196.078 107.16 194.608C105.76 193.139 105.22 192.218 106.839 188.747C108.458 185.276 112.674 158.379 113.196 155.599C113.719 152.801 112.876 151.579 112.876 151.579L106.451 147.294L114.09 142.212Z" fill="#FFC8AF"/>
<path d="M119.284 139.216C119.284 139.216 116.889 137.516 112.083 139.216C107.278 140.916 104.04 145.13 103.517 147.113C102.994 149.079 100.853 187.415 98.003 193.684C95.1532 199.952 94.9846 200.306 93.7199 201.634C92.4721 202.945 93.0454 206.203 93.7199 206.911C94.4113 207.62 99.6893 206.168 100.296 203.99C100.903 201.812 102.202 196.729 102.725 195.189C103.247 193.648 106.907 179.057 110.38 172.152C113.871 165.246 115.001 150 115.001 148.725C115.001 147.45 121.122 146.972 121.122 146.972C121.122 146.972 122.437 139.959 119.284 139.216Z" fill="#FFC8AF"/>
<path d="M121.88 92.6482C121.88 92.6482 124.123 94.0117 124.427 95.747C125.691 102.706 126.804 120.325 126.282 124.787C125.641 130.365 123.567 130.365 123.567 130.365L98.7954 127.249L99.8409 120.307C99.8409 120.307 116.704 121.405 118.39 121.405C120.076 121.405 120.194 107.965 120.194 107.965L121.88 92.6482Z" fill="#4D475B"/>
<path d="M99.487 92.6987C99.487 92.6987 93.6019 92.6456 92.3035 100.543C91.0051 108.441 91.7807 130.345 94.5125 130.345C97.2274 130.345 112.286 121.172 114.36 121.172C113.803 121.048 113.382 120.57 113.281 119.986L112.573 115.772C112.573 115.772 100.87 115.913 98.7956 118.091C98.7956 118.091 101.005 109.521 101.005 106.387C101.005 103.27 103.129 92.6987 99.487 92.6987Z" fill="#998DB6"/>
<path d="M119.537 118.323C119.537 118.323 112.977 116.021 112.792 117.101C112.32 119.97 113.854 121.28 113.854 121.28C113.854 121.28 118.306 121.988 119.014 121.227C119.722 120.483 119.537 118.323 119.537 118.323Z" fill="#FFC8AF"/>
<path d="M175.42 118.803L175.083 129.905C175.083 129.905 180.091 130.897 181.473 130.348C182.232 130.047 182.384 124.505 182.148 118.112C179.517 117.882 177.899 117.864 175.42 118.803Z" fill="#FFBC9D"/>
<path d="M182.148 118.111C181.945 112.975 181.507 107.291 180.934 103.289C179.635 94.294 174.458 89.637 174.458 89.637L174.307 117.296L174.425 119.138C176.903 118.199 179.517 117.88 182.148 118.111Z" fill="white"/>
<path d="M155.791 90.1707C155.791 93.8008 156.381 111.915 157.427 117.706C158.472 123.496 150.193 133.572 150.193 138.441C150.193 143.328 156.247 150.411 156.247 150.411H176.482C176.482 150.411 182.704 138.512 180.461 132.934C178.219 127.356 175.099 131.535 176.65 123.532C178.202 115.546 178.354 104.602 177.494 96.9704C176.634 89.3385 172.705 87.0188 165.959 87.0188C159.198 87.0542 155.791 86.5407 155.791 90.1707Z" fill="#FBD15B"/>
<path d="M174.307 135.073C174.307 135.073 164.779 132.009 160.21 136.79C155.657 141.571 156.23 150.407 156.23 150.407H176.465C176.465 150.425 183.042 140.704 174.307 135.073Z" fill="#D29F10"/>
<path d="M170.108 141.465C168.692 137.835 167.123 137.145 165.825 137.145C163.464 137.145 159.738 138.508 158.136 142.811C156.433 147.362 149.873 175.162 148.726 180.298C147.9 183.963 146.298 186.495 144.595 188.585C141.003 194.269 142.049 197.917 144.477 200.626C144.477 200.962 147.091 201.67 150.008 193.153C150.665 191.258 150.952 190.09 151.745 185.964C152.503 181.838 171.525 145.095 170.108 141.465Z" fill="#FFBC9D"/>
<path d="M149.67 194.092C148.709 194.729 146.416 196.181 145.488 196.181C144.594 196.181 143.363 193.419 142.841 192.109C141.525 195.969 142.571 198.837 144.476 200.945C144.831 201.387 146.888 201.635 149.67 194.092Z" fill="#292959"/>
<path d="M179.737 143.61C179.821 139.643 177.477 138.793 175.639 138.457C173.312 138.014 170.277 140.812 167.764 144.938C165.252 149.064 159.501 177.289 158.355 182.425C157.545 186.09 155.926 188.622 154.223 190.712C150.632 196.396 151.677 200.114 154.105 202.824C154.105 203.16 156.719 203.815 159.636 195.298C160.294 193.403 160.581 192.235 161.373 188.109C162.149 183.983 179.669 147.541 179.737 143.61Z" fill="#FFC8AF"/>
<path d="M158.844 197.422C157.697 197.829 156.516 198.095 155.572 197.936C153.717 197.617 153.38 194.376 153.38 192.181C150.834 197.086 151.896 200.609 154.122 203.088C154.51 203.336 156.264 203.744 158.844 197.422Z" fill="#292959"/>
<path d="M168.422 119.385L173.008 128.274C173.042 128.345 173.025 128.434 172.958 128.469C172.89 128.505 172.806 128.487 172.772 128.416L167.916 119.686C167.831 119.545 167.882 119.35 168.017 119.261C168.169 119.173 168.337 119.226 168.422 119.385C168.422 119.368 168.422 119.368 168.422 119.385Z" fill="#99CEDC"/>
<path d="M170.765 122.273C169.77 121.228 168.253 122.645 166.87 123.105C165.487 123.566 152.52 123.459 150.699 123.017C150.024 122.857 150.345 120.679 151.019 117.74C148.911 117.014 146.618 116.801 144.476 117.067C143.768 124.221 143.532 130.56 144.476 131.197C146.55 132.632 163.818 126.735 165.555 126.735C167.292 126.735 166.432 127.585 169.028 127.585C170.563 127.585 171.625 127.284 172.232 127.036C172.603 126.895 172.789 126.452 172.637 126.062C172.266 125.018 171.474 123.034 170.765 122.273Z" fill="#FFC8AF"/>
<path d="M150.783 118.8C150.851 118.464 150.935 118.092 151.02 117.72C148.912 116.994 146.618 116.782 144.477 117.047C144.392 117.951 144.308 118.836 144.241 119.686C145.522 119.438 148.709 118.836 150.783 118.8Z" fill="#FFBC9D"/>
<path d="M151.019 117.739C153.178 112.799 156.668 104.529 156.955 101.218C157.393 95.959 156.297 87.9375 156.297 87.9375C156.297 87.9375 150.395 91.78 148.49 96.2246C147.444 98.6505 144.224 109.08 143.364 117.739C145.522 117.474 148.911 116.995 151.019 117.739Z" fill="white"/>
<path d="M164.189 129.619H176.634C176.634 129.619 168.084 126.715 164.189 129.619Z" fill="#CEF2FA"/>
<path d="M188.556 129.619H176.617C176.617 129.619 181.22 128.609 184.323 128.609C187.426 128.609 188.556 129.619 188.556 129.619Z" fill="#5DB9F4"/>
<path d="M186.448 125.583C186.448 125.583 180.647 125.406 176.634 129.62C176.634 129.62 178.54 128.186 181.659 127.354C184.779 126.504 186.903 126.557 186.903 126.557L186.448 125.583Z" fill="#5DB9F4"/>
<path d="M163.363 129.617H176.634L164.088 129.316L163.363 129.617Z" fill="#00485C"/>
<path d="M187.022 115.08C186.094 108.741 186.853 101.339 186.853 101.339C186.853 101.339 188.472 99.8696 190.63 100.472C192.789 101.074 193.936 101.446 193.716 100.808C193.514 100.171 190.698 99.1436 190.698 99.1436C190.698 99.1436 193.396 99.1082 194.779 99.8519C196.161 100.596 196.482 99.1613 192.637 98.4353C188.792 97.727 190.057 97.3375 190.698 97.1073C191.339 96.8771 195.183 97.9218 196.195 97.1604C197.139 96.4521 191.001 95.7438 189.197 95.974C197.055 93.6366 194.61 92.6096 187.157 95.3011C185.015 96.0625 183.11 99.427 183.059 99.4978C182.874 99.7634 180.766 109.998 180.648 117.807C182.671 116.816 185.15 116.32 187.022 115.08Z" fill="#FFBC9D"/>
<path d="M181.811 102.207C181.237 102.809 174.577 128.945 178.371 129.99C182.165 131.035 186.802 126.041 186.802 126.041L187.713 104.473L181.811 102.207Z" fill="#333A6A"/>
<path d="M234.54 100.936C235.316 99.0767 238.587 98.5986 239.633 98.2444C240.678 97.8903 241.64 95.6946 242.348 95.4644C243.039 95.2342 242.837 97.6955 241.775 98.333C240.712 98.9704 242.078 99.9443 242.887 99.9443C243.714 99.9443 246.698 99.7141 247.373 98.0851C248.064 96.456 249.329 95.4998 249.498 96.0664C249.666 96.633 247.913 99.0944 247.913 99.0944C247.913 99.0944 250.745 96.3851 250.948 97.058C251.15 97.7309 248.57 99.6787 248.57 99.6787C248.57 99.6787 250.307 98.8465 250.813 99.1475C251.319 99.4662 246.682 102.477 245.754 102.778C244.844 103.079 241.218 102.884 239.431 102.689C238.689 102.6 238.301 106.478 237.019 111.543C236.362 110.303 233.175 109.241 232.264 108.214C233.798 104.778 234.22 101.68 234.54 100.936Z" fill="#FFC8AF"/>
<path d="M232.348 104.651L226.497 130.504C226.497 130.504 231.994 131.354 234.304 130.504C236.614 129.654 239.498 112.513 239.498 105.023L232.348 104.651Z" fill="#333A6A"/>
<path d="M277.743 152.358L265.518 154.837L257.761 151.596L265.518 143.167L277.743 152.358Z" fill="#47405C"/>
<path d="M283.578 94.8594C283.578 94.8594 281.588 96.1166 279.21 102.208C276.832 108.299 276.832 120.907 274.505 122.058C272.465 123.067 256.108 125.174 252.061 125.67C251.488 125.741 250.982 126.078 250.678 126.591L248.571 130.133L259.548 130.504C259.548 130.504 272.027 137.038 275.214 134.807C278.401 132.576 287.658 114.143 288.856 108.707C290.053 103.27 283.578 94.8594 283.578 94.8594Z" fill="#28288A"/>
<path d="M259.531 120.288C259.009 120.288 253.832 119.013 253.832 119.013L252.618 124.644L257.98 126.999L259.531 120.288Z" fill="white"/>
<path d="M249.16 196.165C249.16 196.165 247.339 201.973 242.23 203.425C240.308 203.974 231.539 208.507 233.175 208.507C233.799 208.507 251.977 208.578 251.977 208.578C251.977 208.578 253.326 206.063 252.82 203.797C252.297 201.53 254.809 196.165 254.809 196.165H249.16Z" fill="#292959"/>
<path d="M47.1794 62.4922C47.1794 62.4922 48.714 72.1073 53.503 78.5705C57.0947 83.4047 64.5986 88.7877 64.5986 88.7877L60.3492 93.675L48.6296 83.5286L47.1794 62.4922Z" fill="#FFCF52"/>
<path d="M40.7551 53.4954H31.3625L31.6661 85.9531L44.1445 86.8385L40.7551 53.4954Z" fill="#260E0D"/>
<path d="M51.2944 209.002C56.5893 209.002 56.4544 211.286 56.4544 211.286H40.9575C40.9575 211.286 41.7332 204.256 41.8512 202.609H45.4936C45.8983 204.628 47.2304 209.002 51.2944 209.002Z" fill="#292959"/>
<path d="M25.3926 209.832C30.2154 209.832 31.1934 203.705 31.3283 202.59H34.802C34.802 202.891 34.802 203.086 34.802 203.121C34.802 203.882 35.7126 212.116 35.7126 212.116C35.7126 212.116 31.8342 212.116 29.2542 212.116C26.6742 212.116 20.2158 212.116 20.2158 212.116C20.2158 212.116 20.0978 209.832 25.3926 209.832Z" fill="#292959"/>
<path d="M26.7765 165.654L21.8357 121.739L23.2353 108.742H50.4686L50.6709 120.199L53.5207 164.839C53.5207 164.839 46.4215 202.007 46.5396 202.609H41.3796C41.3964 202.468 42.8298 161.865 42.8298 161.865L36.9616 125.67L34.6682 163.635C34.6682 163.635 35.7137 197.864 35.7306 202.592H30.891C30.9078 202.485 26.7765 165.654 26.7765 165.654Z" fill="#2F1954"/>
<path d="M23.0491 110.442L23.2346 108.742H50.4679L50.5016 110.247L44.7851 112.284C40.131 113.948 35.1734 114.072 30.4518 112.673L23.0491 110.442Z" fill="#0E0E0E"/>
<path d="M21.3455 62.136C24.3133 58.6476 31.1596 53.0698 38.7141 54.4156L46.6058 58.0987L48.9329 75.9832L50.9901 110.052L22.8462 110.389L20.1819 77.2228C20.1819 77.2228 18.3776 65.6244 21.3455 62.136Z" fill="white"/>
<path d="M39.6589 46.3769C39.6589 46.3769 39.7432 53.3714 40.384 56.9306C40.6369 58.3117 40.0298 59.7106 38.9169 60.2241C38.0906 60.596 37.0114 60.8262 35.6455 60.5429C32.1044 59.8346 31.9863 55.6556 31.9863 55.6556L33.1836 42.9062L39.6589 46.3769Z" fill="#FFC8AF"/>
<path d="M33.1832 42.9216L39.6753 46.3923C39.6753 46.3923 39.7091 48.9776 39.8777 51.7931C38.1914 51.8816 36.0498 50.8723 33.8071 47.8266C33.4699 47.3662 33.1663 46.9235 32.8628 46.4808L33.1832 42.9216Z" fill="#FFBC9D"/>
<path d="M39.2376 28.4734C39.2376 28.4734 41.4634 30.4567 42.4246 33.7857C43.3858 37.1147 44.2289 39.5229 44.2289 39.5229L43.2003 40.2312C43.2003 40.2312 44.0097 44.8705 43.3858 46.4642C42.4246 48.8724 38.3776 50.8202 33.774 45.4018C29.1874 39.9656 28.7995 35.2023 29.5752 32.8649C30.3678 30.5275 37.4501 27.2693 39.2376 28.4734Z" fill="#FFC8AF"/>
<path d="M32.3401 33.6442C32.3401 33.6442 34.3805 31.661 37.3146 32.5109C40.2487 33.3609 41.2436 32.0505 40.6702 31.3776C40.6702 31.3776 43.2502 31.4485 44.2114 28.9694C45.1726 26.4904 44.9365 18.9824 40.3667 20.399C35.7969 21.8156 36.7244 25.2154 36.7244 25.2154C36.7244 25.2154 35.2573 23.5864 33.8746 24.4363C32.4918 25.2863 32.6773 26.4904 32.6773 26.4904C32.6773 26.4904 31.4126 29.2527 29.6758 29.6069C27.9389 29.961 28.1075 34.0692 28.1075 34.0692C28.1075 34.0692 27.0789 34.9191 27.804 37.894C28.5291 40.8688 32.7616 45.4905 32.7616 46.9071C32.7616 46.9071 33.8071 45.0478 32.964 42.1438C32.1208 39.2397 32.1208 37.5398 33.0314 37.5398C33.9589 37.5398 32.3401 33.6442 32.3401 33.6442Z" fill="#121841"/>
<path d="M33.6385 39.4707C33.6385 39.4707 33.3518 37.0271 32.6942 37.0271C32.0365 37.0271 31.4295 37.2927 31.5981 38.6739C31.7498 40.0551 32.4244 41.5956 33.2844 40.9582C34.1275 40.3207 33.6385 39.4707 33.6385 39.4707Z" fill="#FFC8AF"/>
<path d="M25.9159 33.8375C25.9834 33.6251 26.1351 33.4126 26.3206 33.3063C26.9277 33.0053 27.7539 33.6605 28.2767 34.1209L28.361 33.9969C27.99 33.5542 27.619 33.1115 27.0794 32.8282C26.2869 32.4387 25.5787 32.8282 25.292 33.5896L25.9159 33.8375Z" fill="#121841"/>
<path d="M25.8651 36.9936C25.8145 36.6395 25.8145 36.2322 25.8819 35.8604C26.2698 34.0188 28.1753 34.1782 28.2596 34.125V34.0188C28.209 34.0365 25.5109 33.4167 25.1231 36.3916C25.0894 36.6572 25.0725 36.8697 25.0894 37.1884L25.8651 36.9936Z" fill="#121841"/>
<path d="M41.6987 54.7351L43.7897 120.872H56.8415L52.9968 90.8406L50.4673 72.5842C50.4673 72.5842 49.2364 60.2952 46.5889 58.1172C43.9415 55.9038 41.6987 54.7351 41.6987 54.7351Z" fill="#F9C53F"/>
<path d="M31.2278 54.3828L32.6106 120.874H18.6145C18.6145 120.874 18.0918 68.1769 19.6431 62.6699C21.1776 57.1452 31.2278 54.3828 31.2278 54.3828Z" fill="#F9C53F"/>
<path d="M46.7754 57.1962L40.7554 53.4954L42.7114 86.3781L45.9997 67.7321L44.8361 66.8822L46.7754 57.1962Z" fill="#FFCF52"/>
<path d="M31.8853 86.0593L31.3626 53.4954L26.0002 56.0629L28.9175 66.8645L28.1924 67.4665L31.8853 86.0593Z" fill="#FFCF52"/>
<path d="M56.4541 95.7278L75.8462 80.1629L55.3074 78.1797L39.7937 95.7278H56.4541Z" fill="#1E3340"/>
<path d="M45.6617 89.1206C45.6617 89.1206 43.5539 89.6341 42.7782 90.5195C41.7833 91.6528 39.4225 93.512 38.4276 93.512C37.4327 93.512 33.217 93.9547 33.217 93.9547L32.5088 98.9305C32.5088 98.9305 48.2586 95.0703 49.0005 94.2026C49.7425 93.3527 45.3076 94.8401 45.3076 94.4505C45.3076 94.0787 50.6531 93.636 50.3664 92.6798C50.0966 91.7236 45.4425 93.9724 45.0209 93.4943C44.6162 93.0162 50.6362 92.2371 50.6362 91.2101C50.6362 90.2008 44.6331 92.6798 44.6331 92.6798C44.6331 92.6798 44.5151 92.1663 46.1507 91.3517C47.7696 90.5372 49.3547 89.8643 48.9837 89.457C48.6296 89.0498 44.4645 91.6705 43.9249 91.033L45.6617 89.1206Z" fill="#FFC8AF"/>
<path d="M23.4875 61.3755C23.4875 61.3755 25.7809 65.8732 25.3256 72.3364C24.8703 78.7996 24.0946 88.7158 25.3762 91.9563C26.6577 95.1967 36.0503 91.9563 36.0503 91.9563V99.6059C36.0503 99.6059 22.4421 105.538 18.4962 103.59C14.5334 101.642 14.9213 84.9441 14.9213 76.7456C14.9213 68.5647 20.975 55.4966 23.4875 61.3755Z" fill="#FFCF52"/>
<path d="M62.1706 88.9256C62.1706 88.9256 62.4404 89.2797 62.8789 90.3776C63.3004 91.44 62.1201 92.5379 61.9008 92.7681C61.4624 93.2108 60.6699 93.7951 60.1808 94.0961C59.6918 94.3972 59.3714 94.5565 58.8993 94.6628C58.2079 94.8221 56.6565 92.1837 56.8758 91.9181C57.0275 91.741 57.1962 91.6171 57.3479 91.6702C57.5165 91.7233 59.2365 93.1754 59.2365 93.1754C59.2365 93.1754 57.6852 91.0859 57.8538 90.4661C58.0224 89.8464 58.3597 89.9172 58.4946 90.0766C58.6295 90.2359 60.6024 92.1837 60.6024 92.1837C60.6024 92.1837 59.2703 89.7047 59.3883 89.2974C59.5063 88.8902 60.0459 88.6068 60.653 89.6162C60.9903 90.1828 61.9008 91.0859 61.9008 91.0859C61.9008 91.0859 61.1589 89.2089 61.3275 88.6068C61.513 88.0225 62.1706 88.9256 62.1706 88.9256Z" fill="#FFC8AF"/>
<path d="M210.258 203.691C210.258 203.691 210.308 203.939 210.426 204.329C210.797 205.498 211.809 207.906 214.153 208.508C217.273 209.305 219.735 208.437 220.291 209.039C220.848 209.623 221.067 211.465 221.067 211.465L202.332 212.386L203.445 204.347L210.258 203.691Z" fill="#292959"/>
<path d="M195.031 155.296L202.215 206.258L211.843 204.646L210.275 154.941L195.031 155.296Z" fill="#EC827D"/>
<path d="M201.253 201.902C201.253 201.902 198.876 204.027 198.876 206.258L190.647 212.633H187.746C187.746 212.633 193.817 204.665 195.031 202.664C196.245 200.663 196.296 198.715 196.296 198.715L201.253 201.902Z" fill="#4C3D65"/>
<path d="M227.273 154.145C224.609 145.699 217.256 149.612 217.256 149.612C212.67 150.515 205.857 167.125 204.896 172.313C204.205 176.049 197.443 193.048 193.733 202.239C196.313 200.769 199.719 201.619 201.203 204.169C209.078 190.498 228.15 156.925 227.273 154.145Z" fill="#EC827D"/>
<path d="M195.857 203.229C195.857 203.229 198.1 203.92 198.825 205.478C199.55 207.036 195.857 210.082 195.857 211.463C195.857 212.844 196.835 214.013 195.857 214.526C194.879 215.04 186.903 215.128 187.342 213.446C187.78 211.764 190.917 209.887 192.198 207.78C193.48 205.69 194.609 202.662 195.857 203.229Z" fill="#292959"/>
<path d="M218.352 152.354C218.352 152.354 230.409 148.707 226.497 157.348C225.738 159.012 190.984 161.527 190.984 158.481C190.984 155.418 193.193 152.372 193.193 152.372H218.352V152.354Z" fill="#EC827D"/>
<path d="M191.76 97.6561C191.76 97.6561 195.857 95.903 200.815 95.4603C203.53 95.2124 206.245 96.1332 209.314 96.1332C217.964 96.1332 226.295 98.5414 227.205 102.951C228.116 107.377 216.734 150.424 219.33 153.151C221.927 155.878 196.431 157.596 193.227 154.231C190.04 150.867 182.435 101.463 191.76 97.6561Z" fill="#000945"/>
<path d="M203.412 87.2437L200.832 96.3985C200.832 96.3985 207.594 99.1962 212.13 96.3985L210.697 86.2344L203.412 87.2437Z" fill="#FFC8AF"/>
<path d="M191.76 97.6559C191.76 97.6559 184.492 107.908 182.94 112.796C181.389 117.701 177.14 126.023 177.494 128.184C177.848 130.344 180.377 132.486 184.61 131.424C188.842 130.362 188.539 126.059 188.539 126.059L191.76 97.6559Z" fill="#000945"/>
<path d="M226.986 102.207C226.986 102.207 236.109 128.609 234.305 130.503C232.5 132.398 226.497 130.503 226.497 130.503L219.904 117.01L226.986 102.207Z" fill="#000945"/>
<path d="M281.925 64.7598C281.925 64.7598 278.535 69.4346 278.013 72.6219C277.49 75.8978 276.849 81.1215 276.849 81.1215H278.232C278.232 81.1215 279.379 84.0255 279.379 85.9556C279.379 87.8858 282.296 86.6816 283.982 86.6816C285.668 86.6816 289.429 85.1588 290.896 79.5987C292.363 74.0208 295.061 64.1224 281.925 64.7598Z" fill="#FFC8AF"/>
<path d="M285.922 91.214L283.848 92.8254L283.123 95.7648L286.074 94.3482L285.922 91.214Z" fill="#28288A"/>
<path d="M289.378 79.5078L294.521 91.9207C294.521 91.9207 284.657 95.3383 285.163 94.8247C285.668 94.2935 284.522 85.1565 284.522 85.1565L289.378 79.5078Z" fill="#FFC8AF"/>
<path d="M277.321 61.375C277.17 61.6583 274.505 67.3424 279.092 69.5205C283.695 71.6985 284.825 68.5642 286.056 70.4944C287.287 72.4245 284.994 75.5587 285.989 77.3294L287.523 77.6305C287.523 77.6305 287.827 76.6743 288.451 76.6743C289.075 76.6743 289.243 81.5615 290.221 81.5615C291.216 81.5615 293.122 77.4003 294.049 75.4702C294.977 73.54 296.882 67.006 293.358 65.3238C289.833 63.6239 288.299 64.9165 288.299 63.3051C288.299 61.6938 286.764 63.3937 286.764 63.3937C286.764 63.3937 285.921 62.1896 286.461 60.8084C287 59.4449 282.701 58.9491 281.706 61.6938C280.711 64.4384 279.024 58.4002 277.321 61.375Z" fill="#2D1175"/>
<path d="M296.697 172.312H292.262V206.771H296.697V172.312Z" fill="#56585E"/>
<path d="M297.388 207.055H291.638V201.849V197.653H297.388V207.055Z" fill="#0A2126"/>
<path d="M270.424 213.287L291.638 201.848V207.054L276.427 213.287V214.42H270.424V213.287Z" fill="#0A2126"/>
<path d="M318.618 213.287L297.388 201.848V207.054L312.615 213.287V214.42H318.618V213.287Z" fill="#0A2126"/>
<path d="M292.582 201.848V214.42H291.166V215.306H297.388V214.42H296.073L296.494 201.848H292.582Z" fill="#0A2126"/>
<path d="M297.32 165.02H291.638V177.061H297.32V165.02Z" fill="#303030"/>
<path d="M233.579 174.281C233.579 174.281 229.448 178.637 228.065 180.089C226.682 181.541 218.959 182.285 220.493 183.896C222.028 185.508 225.991 187.597 227.795 187.597C229.599 187.597 236.513 185.968 236.513 185.968C236.513 185.968 237.306 178.69 238.25 177.699L233.579 174.281Z" fill="#292959"/>
<path d="M257.98 136.863C252.094 136.863 231.522 172.278 231.522 172.278L233.579 174.279L239.11 178.6C240.055 177.608 261.571 149.613 261.571 149.613C261.571 149.613 269.918 153.19 276.326 153.19C282.717 153.19 290.39 139.307 290.39 139.307C289.648 138.528 263.848 136.863 257.98 136.863Z" fill="#28288A"/>
<path d="M300.575 136.541C300.591 136.417 300.591 136.293 300.608 136.17C301.047 130.91 302.396 89.1562 295.398 89.1562C295.398 89.1562 287.32 90.6791 282.177 97.5496C281.317 98.7006 281.149 99.7453 280.778 101.321C278.215 111.857 276.528 131.371 276.764 138.773C284.639 142.066 293.492 141.854 300.575 136.541Z" fill="white"/>
<path d="M292.7 85.5632C292.009 85.5632 284.943 92.717 284.943 92.717L284.336 96.8252L295.398 91.4067L292.7 85.5632Z" fill="white"/>
<path d="M284.859 93.2151L283.139 93.9588L281.335 97.8899L282.363 97.5534L284.454 95.9066L284.859 93.2151Z" fill="#EC827D"/>
<path d="M282.363 97.5547C282.363 97.5547 278.181 119.848 277.203 139.45L274.505 141.983C274.505 141.983 274.843 138.902 274.843 134.457C274.843 130.012 279.227 101.096 281.335 97.8911L282.363 97.5547Z" fill="#EC827D"/>
<path d="M295.381 89.1415C295.381 89.1415 293.274 89.5487 290.508 90.8414C289.732 94.135 285.399 101.714 283.476 109.824C282.043 115.88 278.671 123.777 278.114 128.806C277.642 133.145 276.866 136.845 276.58 139.395C275.922 145.522 273.258 155.952 273.258 155.952L298.417 152.339C298.417 152.339 300.154 141.414 300.575 136.155C301.03 130.913 302.396 89.1415 295.381 89.1415Z" fill="#28288A"/>
<path d="M292.144 146.85L287.254 146.266C285.365 146.036 283.999 144.247 284.218 142.264L285.298 132.312L297.051 133.711L295.972 143.663C295.752 145.664 294.032 147.08 292.144 146.85Z" fill="#3C3C6D"/>
<path d="M291.841 88.043L285.129 94.0281L278.384 128.257C278.384 128.257 286.107 114.055 285.905 112.585C285.703 111.116 284.505 109.823 284.505 109.823C284.505 109.823 291.841 90.5751 291.841 88.043Z" fill="#28288A"/>
<path d="M294.1 86.3789L291.84 88.0434L290.997 91.5495L296.342 89.4423L294.1 86.3789Z" fill="#28288A"/>
<path d="M296.764 165.404H291.334C289.884 165.404 288.704 164.164 288.704 162.642V157.152H299.395V162.642C299.395 164.164 298.231 165.404 296.764 165.404Z" fill="#303030"/>
<path d="M303.02 131.356C303.02 131.356 278.35 131.179 277.574 132.985C276.799 134.792 277.962 155.97 277.962 155.97L280.896 155.421C280.896 155.421 279.682 137.465 281.503 135.553C283.324 133.641 303.29 136.545 303.543 136.261C303.796 135.996 303.02 131.356 303.02 131.356Z" fill="#282859"/>
<path d="M277.254 132.433C275.938 133.885 277.507 149.609 277.743 151.575C277.928 142.685 277.675 135.248 278.097 133.283C279.463 132.397 289.766 132.026 298.113 131.353C295.263 131.176 279.21 130.574 277.254 132.433ZM278.08 133.265C278.08 133.247 278.08 133.247 278.08 133.265C278.097 133.247 278.097 133.247 278.08 133.265Z" fill="#282859"/>
<path d="M314.436 157.314H270.526C270.526 154.57 272.633 152.356 275.247 152.356H314.436V157.314V157.314Z" fill="#56548C"/>
<path d="M310.288 99.2156C310.288 99.2156 299.918 104.439 299.918 121.793C299.918 139.146 305.971 152.338 305.971 152.338H314.437C314.437 152.338 303.543 127.884 308.551 117.437C313.56 107.025 322.042 101.217 310.288 99.2156Z" fill="#56548C"/>
<path d="M308.551 117.474C313.34 107.504 321.282 101.767 311.755 99.5359C318.804 102.033 311.519 107.681 307.017 117.031C302.008 127.461 312.902 151.932 312.902 151.932V156.89H270.542C270.526 157.032 270.526 157.191 270.526 157.333H314.436V152.375C314.436 152.357 303.543 127.903 308.551 117.474Z" fill="#084F60"/>
<path d="M293.021 92.4895C289.884 93.2686 286.141 95.6768 284.084 102.211C282.026 108.745 279.935 117.847 277.17 119.175C274.404 120.503 256.412 118.997 256.412 118.997L255.957 127.479C255.957 127.479 275.585 133.535 280.846 132.933C286.107 132.331 295.348 112.694 298.164 105.611C303.594 91.9405 296.326 91.6749 293.021 92.4895Z" fill="#28288A"/>
<path d="M265.113 159.371C262.735 171.376 255.333 199.425 255.333 199.425L246.311 196.68C246.311 196.68 251.943 151.721 256.513 146.94C261.066 142.159 267.491 147.383 265.113 159.371Z" fill="#28288A"/>
<path d="M252.196 126.557C252.196 126.557 254.692 126.15 255.973 127.513C257.255 128.859 257.778 130.435 257.778 130.435L248.571 130.152C248.554 130.134 249.987 126.451 252.196 126.557Z" fill="#313B3D"/>
<path d="M248.553 130.134C248.553 130.134 249.987 126.433 252.179 126.539C252.179 126.539 254.675 126.132 255.956 127.495C256.175 127.726 256.378 127.973 256.563 128.221C256.327 127.814 256.057 127.389 255.737 126.982C254.455 125.353 252.82 125.76 251.96 125.831C249.768 126.043 248.334 130.169 248.334 130.169L248.553 130.134Z" fill="white"/>
<path d="M252.078 126.557C252.078 126.557 250.83 126.433 250.375 126.893C249.919 127.354 249.633 127.69 249.481 127.849C249.329 127.991 249.464 129.886 251.538 130.364C253.612 130.842 253.241 129.815 253.848 130.063C254.439 130.328 255.13 130.736 255.417 130.417C255.72 130.116 256.108 130.86 256.547 130.417C256.985 129.974 255.788 127.177 255.113 126.486C254.439 125.795 253.933 126.043 253.393 126.043C252.837 126.043 252.078 126.557 252.078 126.557Z" fill="#FFC8AF"/>
<path d="M258.772 134.773H256.344V209.799H258.772V134.773Z" fill="#3C3C6D"/>
<path d="M67.7856 134.312H65.3574V209.339H67.7856V134.312Z" fill="#3C3C6D"/>
<path d="M90.3811 132.438H87.9529V207.464H90.3811V132.438Z" fill="#3C3C6D"/>
<path d="M267.238 129.621H58.4602V134.827H267.238V129.621Z" fill="#878CF0"/>
<path d="M215.435 160.041H188.034L180.496 116.977C179.147 109.239 185.605 102.227 194.087 102.227H209.365C217.847 102.227 218.488 112.621 218.066 120.961L216.919 137.996L215.435 160.041Z" fill="#46467C"/>
<path d="M183.345 120.658C181.996 112.92 188.455 105.908 196.937 105.908H212.214C214.002 105.908 215.435 106.368 216.582 107.165C215.3 104.208 213.091 102.207 209.381 102.207H194.104C185.622 102.207 179.163 109.219 180.512 116.957L188.033 160.039H190.225L183.345 120.658Z" fill="#56548C"/>
<path d="M207.863 167.125H203.428V212.243H207.863V167.125Z" fill="#666E9E"/>
<path d="M208.555 212.58H202.805V206.648V201.867H208.555V212.58Z" fill="#371C45"/>
<path d="M181.591 219.682L202.805 206.649V212.581L187.594 219.682V220.992H181.591V219.682Z" fill="#371C45"/>
<path d="M229.785 219.682L208.555 206.649V212.581L223.782 219.682V220.992H229.785V219.682Z" fill="#371C45"/>
<path d="M203.749 206.649V220.992H202.332V222.001H208.555V220.992H207.239L207.661 206.649H203.749Z" fill="#371C45"/>
<path d="M208.504 163.141H202.788V167.727H208.504V163.141Z" fill="#303030"/>
<path d="M230.409 163.14H180.968C180.968 159.935 183.447 157.332 186.499 157.332H224.861C227.93 157.314 230.409 159.917 230.409 163.14Z" fill="#3C3C6D"/>
<path d="M200.478 93.3711C200.478 93.3711 208.437 96.7001 212.113 93.619L213.226 96.3105C213.226 96.3105 211.962 98.6302 206.852 99.0375C201.743 99.4448 199.247 95.6377 199.247 95.6377L200.478 93.3711Z" fill="#333A6A"/>
<path d="M201.557 80.3594C201.557 80.3594 199.736 78.9074 199.736 79.9698C199.736 81.05 199.534 84.8394 201.237 83.7769C202.94 82.7322 201.557 80.3594 201.557 80.3594Z" fill="#FFC8AF"/>
<path d="M203.648 69.7502C203.648 69.7502 200.191 68.5638 199.247 72.2469C198.302 75.9301 200.815 79.7195 200.815 81.561C200.815 83.4026 201.759 85.5098 203.395 87.2451C205.047 88.9805 208.892 90.7866 208.892 90.7866C208.892 90.7866 213.175 88.0065 214.642 84.9432C216.109 81.8798 215.233 79.8257 215.806 75.2395C216.396 70.6355 213.395 69.1127 212.113 69.1127C210.848 69.095 206.464 64.1015 203.648 69.7502Z" fill="#170053"/>
<path d="M231.522 141.979L216.969 137.375L216.699 141.359L226.497 143.661L224.102 157.509L226.885 157.721L231.522 141.979Z" fill="#282859"/>
<path d="M171.036 88.3257C171.036 87.2101 170.193 86.856 169.164 86.6081C165.623 85.7758 161.053 85.6342 161.39 86.9268C161.829 88.609 165.218 90.9287 167.545 90.9287C169.856 90.9287 170.952 88.9455 170.952 88.9455L171.036 88.3257Z" fill="#4B2847"/>
<path d="M168.422 83.084L169.164 92.044C169.164 92.044 166.061 93.6553 162.199 91.7606L163.751 77.0635L168.422 83.084Z" fill="#FFC8AF"/>
<path d="M168.422 83.0851L168.742 86.9453C168.388 86.9276 168.034 86.8214 167.663 86.6266C164.695 84.9444 164.257 80.3227 164.206 77.6843L168.422 83.0851Z" fill="#FFBC9D"/>
<path d="M173.767 67.6458C173.767 67.6458 175.133 68.7614 175.437 70.7978C175.74 72.8341 174.459 75.1007 174.459 76.8183C174.459 78.5359 171.44 86.6813 167.663 84.7512C163.903 82.8211 164.206 76.6235 164.206 75.2423C164.206 73.8611 166.044 69.0447 168.27 67.9291C170.513 66.7959 173.767 67.6458 173.767 67.6458Z" fill="#FFC8AF"/>
<path opacity="0.53" d="M173.767 67.6409C173.767 67.6409 175.133 68.7564 175.436 70.7928C175.74 72.8291 176.06 76.4946 174.458 76.8133C173.531 76.9904 170.31 71.3948 171.221 67.3398C172.62 67.3398 173.767 67.6409 173.767 67.6409Z" fill="#FFBC9D"/>
<path d="M161.39 86.9258L160.446 91.3172C161.525 93.088 167.039 102.207 168.506 104.651C169.417 106.174 170.445 95.9035 171.036 88.3247C167.005 89.6704 164.746 90.3433 161.39 86.9258Z" fill="white"/>
<path d="M287.135 74.9212C287.135 74.9212 287.068 78.1085 287.793 78.1085C288.518 78.1085 290.12 76.3023 289.85 74.3899C289.58 72.4598 287.472 72.69 287.135 74.9212Z" fill="#FFC8AF"/>
<path d="M287.642 74.5645C287.642 74.5645 287.271 75.8217 287.827 76.4061C288.367 76.9727 289.429 75.6093 288.856 74.5645C288.266 73.5375 287.76 73.8385 287.642 74.5645Z" fill="#FFBC9D"/>
<path d="M275.298 67.1833C275.264 67.449 275.517 67.9094 275.669 68.1218C276.478 69.2197 278.047 69.3791 279.092 69.5207C278.957 69.5207 277.558 69.8218 276.377 69.4676C275.113 69.1135 274.354 68.2458 274.135 67.3604L275.298 67.1833Z" fill="#2D1175"/>
<path d="M95.9123 204.45C95.2715 204.45 94.8162 201.953 94.6139 200.59C94.3609 200.944 94.0911 201.245 93.737 201.599C92.4892 202.91 93.0625 206.168 93.737 206.876C94.4284 207.584 99.7064 206.132 100.313 203.954C100.398 203.636 100.499 203.281 100.617 202.856C99.2511 203.423 96.5531 204.45 95.9123 204.45Z" fill="#292959"/>
<path d="M107.075 188.02C107.075 188.02 105.153 191.366 105.153 192.924C105.153 194.5 106.114 203.336 106.114 203.336L107.396 203.39C107.396 203.39 106.451 197.334 107.261 197.121C108.07 196.891 109.385 205.16 109.385 205.16L115.996 205.638C115.996 205.638 116.114 203.336 114.073 201.707C112.05 200.078 111.948 200.61 110.97 197.121C110.026 193.633 107.075 188.02 107.075 188.02Z" fill="#292959"/>
<path d="M105.642 148.603C105.642 148.603 105.49 150.94 106.148 151.631C106.805 152.322 110.009 151.879 110.009 150.108C110.009 148.355 106.637 147.558 105.642 148.603Z" fill="#FFC8AF"/>
<path d="M172.064 143.45C169.468 144.495 172.655 147.54 174.695 147.186C176.735 146.814 175.268 142.139 172.064 143.45Z" fill="#FFC8AF"/>
<path d="M164.577 142.263C164.577 142.263 163.447 141.112 161.12 141.448C158.776 141.785 162.789 145.946 164.628 145.486C166.466 145.025 164.577 142.263 164.577 142.263Z" fill="#FFC8AF"/>
<path d="M146.584 127.479C147.529 127.372 148.625 127.39 148.625 128.045C148.625 129.196 145.202 130.046 145.202 129.125C145.219 129.055 145.235 127.62 146.584 127.479Z" fill="#FFC8AF"/>
<path d="M102.353 116.714C102.353 116.714 101.999 113.279 101.611 112.819C101.207 112.358 97.6824 107.772 97.244 108.268C96.8056 108.764 99.8577 112.394 99.8577 112.394C99.8577 112.394 96.2491 108.852 96.0636 109.649C95.8613 110.464 99.3687 113.846 99.3687 113.846C99.3687 113.846 95.6758 110.906 95.6758 111.544C95.6758 111.544 99.1326 115.333 99.2507 115.475C99.3687 115.616 99.6891 117.511 99.6891 117.511L102.353 116.714Z" fill="#FFC8AF"/>
<path d="M99.6219 108.707C99.6219 108.707 101.325 109.557 101.325 110.23C101.325 110.903 101.831 114.072 101.831 114.072L100.364 113.417L100.651 110.566C100.667 110.584 99.0317 108.707 99.6219 108.707Z" fill="#FFC8AF"/>
<path d="M112.05 63.5349C109.942 63.7828 106.586 63.2515 105.035 66.8639C104.108 68.9179 102.236 72.8844 102.236 79.9319C102.236 90.4325 92.5903 95.0718 92.5903 95.0718L96.8229 97.2144L99.3523 95.0718L97.6323 98.932L104.563 99.658L104.866 94.6291L106.3 100.349L109.504 99.6403C109.504 99.6403 108.222 82.4641 108.087 75.9832C108.104 76.0186 108.121 76.0186 108.121 76.0186C108.121 76.0186 108.087 75.1864 108.087 74.1062C108.104 73.7875 108.104 73.4687 108.087 73.1323C108.104 72.1053 108.155 71.0074 108.29 70.2814C108.593 68.5106 109.217 67.6076 110.735 66.8461C112.252 66.0847 117.682 68.245 117.682 68.245C117.513 64.9692 114.158 63.2692 112.05 63.5349Z" fill="#1B2B80"/>
<path d="M114.866 64.1222C117.53 64.742 118.323 69.0272 120.498 71.3114C122.673 73.5957 122.117 76.8893 121.088 79.0673C120.06 81.2453 118.39 79.8287 118.39 79.8287C118.39 79.8287 119.25 80.3422 119.807 78.5184C120.363 76.7122 119.385 75.2956 116.468 74.2863C113.534 73.2769 110.735 66.8669 110.735 66.8669C110.667 65.6096 112.218 63.5201 114.866 64.1222Z" fill="#2F499F"/>
<path d="M118.391 79.8251C119.402 80.4449 120.819 77.8596 119.79 76.1597C119.031 74.8493 117.379 74.3004 116.064 73.7338C113.973 72.4765 111.966 68.9882 110.735 66.8633C111.612 69.3954 113.483 72.9192 115.743 74.3358L116.283 74.5837C116.839 74.8139 118.542 75.292 119.369 76.4607C120.026 77.3815 119.723 78.7804 119.267 79.4533C119.099 79.7366 118.762 79.9668 118.391 79.8251Z" fill="#023135"/>
<path d="M108.677 76.3528C108.677 76.3528 107.935 72.9884 106.704 73.803C105.473 74.6175 106.788 78.3361 107.935 78.3361C109.082 78.3361 108.677 76.3528 108.677 76.3528Z" fill="#FFC8AF"/>
<path d="M174.037 67.8398C177.056 68.6367 178.236 71.7355 176.735 74.126C176.482 74.5333 176.128 74.9051 175.673 74.9405V74.2499C175.842 74.2854 176.162 73.9135 176.263 73.7718C177.764 71.7709 176.837 68.8315 174.037 67.8398Z" fill="#606BF1"/>
<path d="M171.811 65.6758C171.811 65.6758 173.935 65.6758 175.487 67.3226C177.055 68.9694 176.583 75.4326 175.487 76.3888C174.391 77.345 178.269 78.2481 175.942 78.2481C173.632 78.2658 169.737 65.906 171.811 65.6758Z" fill="#606BF1"/>
<path d="M174.509 68.6527C174.543 68.5465 173.312 65.0758 170.31 64.5623C166.719 63.9425 162.469 66.758 161.171 70.5651C159.872 74.3722 158.709 78.7106 155.151 79.7907C151.593 80.8709 150.952 86.3602 152.065 89.8131C153.178 93.2661 156.584 92.3807 156.584 92.3807C156.584 92.3807 154.51 90.486 155.049 89.9017C155.049 89.9017 156.635 93.1244 158.422 92.487C160.209 91.8495 160.935 90.8047 160.935 90.8047C160.935 90.8047 157.849 90.3089 159.872 88.5028C161.289 87.2455 162.014 86.0946 163.683 83.9697C165.285 81.9333 164.442 76.4971 165.842 72.6015C166.027 72.7609 166.297 72.9025 166.719 72.9379C168.624 73.1504 167.747 71.6984 169.568 69.5204C172.688 67.6788 174.307 68.6704 174.509 68.6527Z" fill="#606BF1"/>
<path d="M162.031 72.9766C162.52 74.4463 162.874 76.3764 162.806 77.8815C162.57 82.6802 157.714 80.1835 156.365 80.272C155.539 80.3074 154.83 81.1043 155.134 82.2021C155.37 83.0875 155.926 83.3708 156.213 83.725C156.651 84.2739 156.415 84.9291 155.909 85.177C154.915 85.7082 153.667 84.5041 153.279 85.9384C152.975 86.93 153.262 88.1164 154.021 88.8778C153.178 88.2227 152.739 86.9831 152.975 85.8499C153.228 84.6812 153.987 84.7343 155.066 84.8228C155.724 84.876 155.96 84.5395 155.909 84.327C155.859 83.9021 154.948 83.7427 154.56 82.3969C154.24 81.423 154.611 80.396 155.454 79.8825C157.68 78.5367 162.638 83.3885 162.435 76.2524C162.402 75.1369 162.233 74.0567 162.031 72.9766Z" fill="#606BF1"/>
<path d="M166.196 73.985C166.196 73.985 166.264 72.1435 165.353 72.2851C164.442 72.4445 163.785 73.7017 164.24 74.9412C164.679 76.1807 166.314 75.6318 166.196 73.985Z" fill="#FFC8AF"/>
<path d="M84.408 35.5938H88.3142C88.1892 37.0833 87.7725 38.4115 87.0642 39.5781C86.3559 40.7344 85.3611 41.6458 84.0798 42.3125C82.7986 42.9792 81.2413 43.3125 79.408 43.3125C78.0017 43.3125 76.7361 43.0625 75.6111 42.5625C74.4861 42.0521 73.5225 41.3333 72.7205 40.4062C71.9184 39.4688 71.3038 38.3385 70.8767 37.0156C70.46 35.6927 70.2517 34.2135 70.2517 32.5781V30.6875C70.2517 29.0521 70.4653 27.5729 70.8923 26.25C71.3298 24.9271 71.9548 23.7969 72.7673 22.8594C73.5798 21.9115 74.5538 21.1875 75.6892 20.6875C76.835 20.1875 78.1215 19.9375 79.5486 19.9375C81.3611 19.9375 82.8923 20.2708 84.1423 20.9375C85.3923 21.6042 86.3611 22.526 87.0486 23.7031C87.7465 24.8802 88.1736 26.2292 88.3298 27.75H84.4236C84.3194 26.7708 84.0903 25.9323 83.7361 25.2344C83.3923 24.5365 82.8819 24.0052 82.2048 23.6406C81.5278 23.2656 80.6423 23.0781 79.5486 23.0781C78.6528 23.0781 77.8715 23.2448 77.2048 23.5781C76.5382 23.9115 75.9809 24.401 75.533 25.0469C75.085 25.6927 74.7465 26.4896 74.5173 27.4375C74.2986 28.375 74.1892 29.4479 74.1892 30.6562V32.5781C74.1892 33.724 74.2882 34.7656 74.4861 35.7031C74.6944 36.6302 75.0069 37.4271 75.4236 38.0938C75.8507 38.7604 76.3923 39.276 77.0486 39.6406C77.7048 40.0052 78.4913 40.1875 79.408 40.1875C80.5225 40.1875 81.4236 40.0104 82.1111 39.6562C82.809 39.3021 83.335 38.7865 83.6892 38.1094C84.0538 37.4219 84.2934 36.5833 84.408 35.5938ZM102.314 39.0156V26.0938H106.095V43H102.532L102.314 39.0156ZM102.845 35.5L104.11 35.4688C104.11 36.6042 103.985 37.651 103.735 38.6094C103.485 39.5573 103.1 40.3854 102.579 41.0938C102.058 41.7917 101.392 42.3385 100.579 42.7344C99.7667 43.1198 98.7928 43.3125 97.6573 43.3125C96.8344 43.3125 96.0792 43.1927 95.3917 42.9531C94.7042 42.7135 94.1105 42.3438 93.6105 41.8438C93.1209 41.3438 92.7407 40.6927 92.4698 39.8906C92.199 39.0885 92.0636 38.1302 92.0636 37.0156V26.0938H95.8292V37.0469C95.8292 37.6615 95.9021 38.1771 96.048 38.5938C96.1938 39 96.3917 39.3281 96.6417 39.5781C96.8917 39.8281 97.1834 40.0052 97.5167 40.1094C97.85 40.2135 98.2042 40.2656 98.5792 40.2656C99.6521 40.2656 100.496 40.0573 101.11 39.6406C101.735 39.2135 102.178 38.6406 102.439 37.9219C102.709 37.2031 102.845 36.3958 102.845 35.5ZM120.079 38.4219C120.079 38.0469 119.985 37.7083 119.797 37.4062C119.61 37.0938 119.25 36.8125 118.719 36.5625C118.198 36.3125 117.428 36.0833 116.407 35.875C115.511 35.6771 114.688 35.4427 113.938 35.1719C113.198 34.8906 112.563 34.5521 112.032 34.1562C111.5 33.7604 111.089 33.2917 110.797 32.75C110.506 32.2083 110.36 31.5833 110.36 30.875C110.36 30.1875 110.511 29.5365 110.813 28.9219C111.115 28.3073 111.547 27.7656 112.11 27.2969C112.672 26.8281 113.355 26.4583 114.157 26.1875C114.969 25.9167 115.875 25.7812 116.875 25.7812C118.292 25.7812 119.506 26.0208 120.516 26.5C121.537 26.9688 122.318 27.6094 122.86 28.4219C123.401 29.224 123.672 30.1302 123.672 31.1406H119.907C119.907 30.6927 119.792 30.276 119.563 29.8906C119.344 29.4948 119.011 29.1771 118.563 28.9375C118.115 28.6875 117.553 28.5625 116.875 28.5625C116.23 28.5625 115.693 28.6667 115.266 28.875C114.849 29.0729 114.537 29.3333 114.329 29.6562C114.131 29.9792 114.032 30.3333 114.032 30.7188C114.032 31 114.084 31.2552 114.188 31.4844C114.303 31.7031 114.49 31.9062 114.75 32.0938C115.011 32.2708 115.365 32.4375 115.813 32.5938C116.271 32.75 116.844 32.901 117.532 33.0469C118.823 33.3177 119.933 33.6667 120.86 34.0938C121.797 34.5104 122.516 35.0521 123.016 35.7188C123.516 36.375 123.766 37.2083 123.766 38.2188C123.766 38.9688 123.605 39.6562 123.282 40.2812C122.969 40.8958 122.511 41.4323 121.907 41.8906C121.303 42.3385 120.579 42.6875 119.735 42.9375C118.901 43.1875 117.964 43.3125 116.922 43.3125C115.391 43.3125 114.094 43.0417 113.032 42.5C111.969 41.9479 111.162 41.2448 110.61 40.3906C110.068 39.526 109.797 38.6302 109.797 37.7031H113.438C113.48 38.401 113.672 38.9583 114.016 39.375C114.37 39.7812 114.808 40.0781 115.329 40.2656C115.86 40.4427 116.407 40.5312 116.969 40.5312C117.646 40.5312 118.214 40.4427 118.672 40.2656C119.131 40.0781 119.48 39.8281 119.719 39.5156C119.959 39.1927 120.079 38.8281 120.079 38.4219ZM135.453 26.0938V28.8438H125.922V26.0938H135.453ZM128.672 21.9531H132.437V38.3281C132.437 38.849 132.51 39.25 132.656 39.5312C132.812 39.8021 133.026 39.9844 133.297 40.0781C133.568 40.1719 133.885 40.2188 134.25 40.2188C134.51 40.2188 134.76 40.2031 135 40.1719C135.239 40.1406 135.432 40.1094 135.578 40.0781L135.594 42.9531C135.281 43.0469 134.916 43.1302 134.5 43.2031C134.094 43.276 133.625 43.3125 133.094 43.3125C132.229 43.3125 131.463 43.1615 130.797 42.8594C130.13 42.5469 129.609 42.0417 129.234 41.3438C128.859 40.6458 128.672 39.7188 128.672 38.5625V21.9531ZM145.984 43H141.124L141.155 39.8906H145.984C147.39 39.8906 148.567 39.5833 149.515 38.9688C150.473 38.3542 151.192 37.474 151.671 36.3281C152.161 35.1823 152.405 33.8177 152.405 32.2344V31C152.405 29.7708 152.265 28.6823 151.984 27.7344C151.713 26.7865 151.306 25.9896 150.765 25.3438C150.234 24.6979 149.577 24.2083 148.796 23.875C148.025 23.5417 147.135 23.375 146.124 23.375H141.03V20.25H146.124C147.635 20.25 149.015 20.5052 150.265 21.0156C151.515 21.5156 152.593 22.2396 153.499 23.1875C154.416 24.1354 155.119 25.2708 155.609 26.5938C156.098 27.9167 156.343 29.3958 156.343 31.0312V32.2344C156.343 33.8698 156.098 35.349 155.609 36.6719C155.119 37.9948 154.416 39.1302 153.499 40.0781C152.583 41.0156 151.489 41.7396 150.218 42.25C148.958 42.75 147.546 43 145.984 43ZM143.296 20.25V43H139.374V20.25H143.296ZM167.999 43.3125C166.749 43.3125 165.618 43.1094 164.608 42.7031C163.608 42.2865 162.754 41.7083 162.045 40.9688C161.348 40.2292 160.811 39.3594 160.436 38.3594C160.061 37.3594 159.874 36.2812 159.874 35.125V34.5C159.874 33.1771 160.066 31.9792 160.452 30.9062C160.837 29.8333 161.374 28.9167 162.061 28.1562C162.749 27.3854 163.561 26.7969 164.499 26.3906C165.436 25.9844 166.452 25.7812 167.545 25.7812C168.754 25.7812 169.811 25.9844 170.717 26.3906C171.624 26.7969 172.374 27.3698 172.967 28.1094C173.571 28.8385 174.019 29.7083 174.311 30.7188C174.613 31.7292 174.764 32.8438 174.764 34.0625V35.6719H161.702V32.9688H171.045V32.6719C171.025 31.9948 170.889 31.3594 170.639 30.7656C170.4 30.1719 170.03 29.6927 169.53 29.3281C169.03 28.9635 168.363 28.7812 167.53 28.7812C166.905 28.7812 166.348 28.9167 165.858 29.1875C165.379 29.4479 164.978 29.8281 164.655 30.3281C164.332 30.8281 164.082 31.4323 163.905 32.1406C163.738 32.8385 163.655 33.625 163.655 34.5V35.125C163.655 35.8646 163.754 36.5521 163.952 37.1875C164.16 37.8125 164.462 38.3594 164.858 38.8281C165.254 39.2969 165.733 39.6667 166.295 39.9375C166.858 40.1979 167.499 40.3281 168.217 40.3281C169.124 40.3281 169.931 40.1458 170.639 39.7812C171.348 39.4167 171.962 38.901 172.483 38.2344L174.467 40.1562C174.103 40.6875 173.629 41.1979 173.045 41.6875C172.462 42.1667 171.749 42.5573 170.905 42.8594C170.071 43.1615 169.103 43.3125 167.999 43.3125ZM183.623 40.0156L187.764 26.0938H191.67L185.795 43H183.357L183.623 40.0156ZM180.451 26.0938L184.67 40.0781L184.873 43H182.435L176.529 26.0938H180.451Z" fill="#F7707C"/>
<path d="M234.217 26.9375H238.33V38.082C238.33 39.4102 238.052 40.5352 237.498 41.457C236.943 42.3711 236.166 43.0625 235.166 43.5312C234.166 44 232.99 44.2344 231.638 44.2344C230.302 44.2344 229.127 44 228.111 43.5312C227.103 43.0625 226.314 42.3711 225.744 41.457C225.181 40.5352 224.9 39.4102 224.9 38.082V26.9375H229.025V38.082C229.025 38.7852 229.127 39.3594 229.33 39.8047C229.533 40.2422 229.83 40.5625 230.22 40.7656C230.611 40.9688 231.084 41.0703 231.638 41.0703C232.201 41.0703 232.674 40.9688 233.056 40.7656C233.439 40.5625 233.728 40.2422 233.924 39.8047C234.119 39.3594 234.217 38.7852 234.217 38.082V26.9375ZM255.65 26.9375V44H251.548L245.513 33.3828V44H241.4V26.9375H245.513L251.548 37.5547V26.9375H255.65ZM263.102 26.9375V44H259.001V26.9375H263.102ZM274.387 26.9375V44H270.274V26.9375H274.387ZM279.52 26.9375V30.1133H265.258V26.9375H279.52Z" fill="#3362CC"/>
</svg>
