<svg width="33" height="48" viewBox="0 0 33 48" fill="none" xmlns="http://www.w3.org/2000/svg">
<path d="M29.2241 40.837L21.9889 37.5496C21.7951 37.4616 21.5957 37.3939 21.3923 37.3446V33.497C27.549 31.4052 32 25.4783 32 18.5116C32 11.9027 27.9315 5.96901 21.8584 3.68968C21.3511 2.12928 19.9065 1 18.207 1H14.7929C13.0933 1 11.6486 2.12946 11.1415 3.69004C8.20826 4.79093 5.69531 6.74708 3.87168 9.35267C1.99302 12.0369 1 15.204 1 18.5115C1 25.4782 5.451 31.4051 11.6077 33.4969V37.3445C11.4043 37.3938 11.2049 37.4615 11.011 37.5495L8.21476 38.82C7.42813 39.1775 7.97196 40.4197 8.75868 40.0626L11.5549 38.7921C11.8197 38.6718 12.101 38.6109 12.3909 38.6109H20.6091C20.899 38.6109 21.1803 38.6718 21.445 38.7921L28.6801 42.0794C30.646 42.9726 29.9948 46.0803 27.8442 46.0803H5.15575C3.00812 46.0803 2.35067 42.974 4.31988 42.0794L5.46444 41.5594C6.25107 41.202 5.70715 39.9597 4.92043 40.3169L3.77587 40.8369C0.519116 42.3168 1.59725 47.441 5.15575 47.441H27.8442C31.398 47.441 32.4856 42.3189 29.2241 40.837ZM23.2936 18.766C23.2936 22.5827 20.246 25.6879 16.5 25.6879C12.754 25.6879 9.70638 22.5827 9.70638 18.766C9.70638 14.9492 12.754 11.8442 16.5 11.8442C20.246 11.8442 23.2936 14.9493 23.2936 18.766ZM2.33554 18.5116C2.33554 15.4889 3.24273 12.595 4.95907 10.1426C6.48826 7.95772 8.54793 6.27396 10.9467 5.23357V12.7215C10.9467 12.7221 10.9468 12.7227 10.9468 12.7234C9.36252 14.2356 8.37075 16.385 8.37075 18.7661C8.37075 23.3331 12.0175 27.0485 16.4999 27.0485C20.9823 27.0485 24.6291 23.3331 24.6291 18.7661C24.6291 16.385 23.6373 14.2356 22.053 12.7234C22.053 12.7227 22.0531 12.7221 22.0531 12.7215V10.8869C22.0531 10.0093 20.7175 10.0093 20.7175 10.8869V11.688C19.4872 10.9241 18.0431 10.4837 16.4998 10.4837C14.9566 10.4837 13.5125 10.9241 12.2821 11.688V4.91864C12.2821 3.50809 13.4084 2.36058 14.7927 2.36058H18.2068C19.5912 2.36058 20.7175 3.50809 20.7175 4.91864V7.16795C20.7175 8.04552 22.053 8.04552 22.053 7.16795V5.2313C27.2376 7.48315 30.6642 12.7131 30.6642 18.5116C30.6642 26.4691 24.3101 32.9432 16.4997 32.9432C8.68941 32.9432 2.33554 26.4691 2.33554 18.5116ZM16.5 34.3037C17.7235 34.3037 18.9142 34.1578 20.0568 33.8834V37.2504H12.9432V33.8834C14.0858 34.1578 15.2765 34.3037 16.5 34.3037V34.3037Z" fill="white" stroke="white" stroke-width="0.4"/>
<path d="M12.1018 19.0272C12.1018 21.4982 14.0749 23.5085 16.5003 23.5085C18.9256 23.5085 20.8987 21.4982 20.8987 19.0272C20.8987 16.5562 18.9256 14.5459 16.5003 14.5459C14.0749 14.5459 12.1018 16.5562 12.1018 19.0272ZM19.5632 19.0272C19.5632 20.748 18.1891 22.1479 16.5003 22.1479C14.8114 22.1479 13.4373 20.7479 13.4373 19.0272C13.4373 17.3065 14.8114 15.9065 16.5003 15.9065C18.1891 15.9065 19.5632 17.3065 19.5632 19.0272Z" fill="white" stroke="white" stroke-width="0.4"/>
</svg>
