<svg width="279" height="280" viewBox="0 0 279 280" fill="none" xmlns="http://www.w3.org/2000/svg">
<path fill-rule="evenodd" clip-rule="evenodd" d="M41.2548 205.558C34.8552 194.407 32.3938 181.299 33.4768 168.582C34.0675 161.93 35.6428 155.181 38.3011 149.116C40.861 143.345 44.3069 137.964 44.0115 131.41C43.7162 124.954 39.8764 118.498 41.944 112.433C45.7837 101.184 63.0135 100.891 72.1699 96.4886C85.2645 90.3259 88.3166 77.9027 95.2085 66.5556C102.1 55.2084 112.537 45.8176 125.041 41.3179C137.544 36.8182 152.116 37.4051 163.734 43.8612C169.444 47.0893 173.087 51.0021 175.942 56.7735C178.108 61.1754 180.274 65.8708 184.311 68.512C189.332 71.9357 195.633 70.8597 201.344 71.3488C214.34 72.4248 227.336 77.0223 237.083 85.7284C241.809 89.9346 245.55 95.1191 248.11 100.891C250.571 106.564 251.851 113.02 255.593 118.205C259.236 123.096 264.946 126.128 268.392 131.215C272.822 137.867 269.081 145.105 270.066 152.344C271.641 163.887 281.191 179.929 272.921 190.885C269.573 195.287 264.749 194.896 259.728 194.798C253.131 194.798 246.043 194.309 239.741 192.255C234.326 190.494 229.01 188.342 223.299 188.146C219.066 187.951 214.832 187.657 210.599 187.559C207.842 187.559 205.085 188.342 202.328 188.538C196.618 189.125 190.809 189.711 185.098 190.298C172.299 191.668 159.598 192.94 146.799 194.309C122.481 196.852 98.1621 199.396 73.7451 201.939C65.8687 202.722 57.9922 203.602 50.1158 204.385C49.4266 204.678 41.5501 206.047 41.2548 205.558Z" fill="#F1F3F7"/>
<path fill-rule="evenodd" clip-rule="evenodd" d="M228.813 242.633C221.626 245.568 214.143 248.111 207.251 251.828C198.587 256.524 191.4 262.589 181.554 265.132C174.958 266.795 167.869 266.795 161.075 267.675C153.691 268.653 146.209 269.925 138.726 270.414C138.234 270.414 137.84 270.512 137.348 270.512C134.985 270.61 132.72 270.708 130.357 270.805C129.865 270.805 129.471 270.805 128.979 270.805C128.487 270.805 128.093 270.805 127.6 270.805C127.108 270.805 126.616 270.805 126.124 270.805C97.3745 270.903 67.0502 265.621 43.5193 248.307C40.0733 245.763 36.6274 242.829 34.7567 239.014C33.1814 235.786 32.7876 232.069 32 228.449C31.1139 224.341 29.4401 220.721 26.1911 217.982C21.7606 214.363 19.693 212.505 22.056 206.537C29.3417 187.756 43.2239 171.811 59.666 160.073C82.6062 143.737 110.666 134.444 138.332 129.846C153.79 127.303 169.444 126.325 185.099 127.107C188.84 127.303 192.581 127.596 196.322 127.988C199.867 128.379 203.411 129.259 206.956 129.162C215.817 128.868 225.268 130.531 233.834 133.074C239.446 134.737 247.913 136.498 250.375 142.661C251.162 144.617 252.048 146.378 253.427 148.139C255.396 150.682 258.645 150.975 261.205 152.443C264.06 154.106 266.62 156.356 268.589 158.997C271.444 162.812 273.019 167.409 273.807 172.105C275.185 179.441 275.776 187.854 273.906 195.092C272.035 202.429 268.392 209.276 263.863 215.341C255.888 226.004 245.747 234.808 233.637 240.383C232.16 241.264 230.487 241.948 228.813 242.633Z" fill="#F1F3F7"/>
<path fill-rule="evenodd" clip-rule="evenodd" d="M210.5 194.602C209.811 193.917 207.842 194.504 203.903 193.428C199.965 192.352 195.928 193.037 195.338 194.015C194.648 194.993 199.67 198.613 201.54 198.906C203.411 199.2 204.593 201.841 207.152 201.743C209.712 201.743 210.992 199.689 210.992 199.689L210.5 194.602Z" fill="#3C3C6D"/>
<path fill-rule="evenodd" clip-rule="evenodd" d="M99.7375 230.892C99.7375 230.892 107.319 232.653 109.78 232.653C112.241 232.653 114.309 234.414 112.832 236.077C111.257 237.74 108.5 239.109 105.054 239.305C101.608 239.5 96.7838 239.892 94.7163 239.598C93.4363 237.348 93.3379 232.653 93.3379 232.653L99.7375 230.892Z" fill="#3C3C6D"/>
<path fill-rule="evenodd" clip-rule="evenodd" d="M189.923 203.895C189.923 203.895 182.342 205.656 179.88 205.656C177.419 205.656 175.351 207.417 176.828 209.08C178.403 210.742 181.16 212.112 184.606 212.308C188.052 212.503 192.876 212.895 194.944 212.601C196.224 210.351 196.322 205.656 196.322 205.656L189.923 203.895Z" fill="#3C3C6D"/>
<path fill-rule="evenodd" clip-rule="evenodd" d="M78.668 225.317C79.3572 224.633 81.3263 225.22 85.2645 224.144C89.2027 223.068 93.2394 223.752 93.9286 224.731C94.6178 225.709 89.5966 229.328 87.7259 229.622C85.8553 229.915 84.6738 232.556 82.1139 232.458C79.5541 232.458 78.2742 230.404 78.2742 230.404L78.668 225.317Z" fill="#3C3C6D"/>
<path fill-rule="evenodd" clip-rule="evenodd" d="M77.1909 239.502C77.1909 239.698 77.0925 239.894 76.8956 240.089C76.6002 240.383 76.3048 240.578 75.8126 240.676C75.2218 240.872 74.4342 240.872 73.745 240.676L65.0809 238.426C63.604 238.035 62.0288 238.524 61.6349 239.405L59.7643 244.687C59.5674 245.372 58.4844 245.763 57.4013 245.763C57.3029 245.763 57.106 245.763 57.0075 245.763C56.2199 245.665 55.6291 245.469 55.2353 245.078C55.0384 244.883 54.94 244.687 54.94 244.491C54.94 244.393 54.94 244.296 54.94 244.198L55.6291 240.481L55.9245 238.818C56.1214 237.937 54.743 237.155 53.1678 237.253L43.6176 237.839C43.5191 237.839 43.4206 237.839 43.3222 237.839C42.9284 237.839 42.5345 237.742 42.2392 237.644C41.55 237.448 41.0577 237.057 40.9592 236.568C40.7623 235.785 41.55 235.1 42.8299 235.003L52.1832 233.927C52.577 233.927 52.9708 233.731 53.2662 233.633C54.0538 233.242 54.4477 232.557 53.9554 231.97L50.6079 227.862L49.9187 226.981C49.8203 226.786 49.7218 226.688 49.7218 226.492V226.394C49.7218 225.905 50.2141 225.416 51.0017 225.123C52.1832 224.829 53.5616 225.025 54.2508 225.71L58.9766 230.503C59.7643 231.285 61.6349 231.481 62.7179 230.894L69.7083 227.177C70.2006 226.884 70.7913 226.786 71.382 226.786C71.9728 226.786 72.662 226.884 73.1542 227.177C73.6465 227.47 73.9419 227.862 73.8434 228.253C73.8434 228.546 73.6465 228.84 73.2527 229.133L72.662 229.525L66.8531 233.242C65.7701 233.927 66.0654 234.905 67.4438 235.394C67.4438 235.394 67.4438 235.394 67.5423 235.394L75.8126 238.133C76.7971 238.622 77.1909 239.013 77.1909 239.502Z" fill="#3C3C6D"/>
<path fill-rule="evenodd" clip-rule="evenodd" d="M53.4634 233.926L50.1159 229.818C50.0174 229.622 49.9189 229.524 49.9189 229.329V226.883C49.9189 227.079 50.0174 227.177 50.1159 227.372L50.805 228.253L54.1525 232.361C54.6448 232.85 54.251 233.535 53.4634 233.926Z" fill="#3C3C6D"/>
<path fill-rule="evenodd" clip-rule="evenodd" d="M56.1218 239.012L55.8264 240.675C55.3341 240.186 54.448 239.893 53.4634 239.991L43.9133 240.578C43.8148 240.578 43.7163 240.578 43.6179 240.578C42.4364 240.578 41.3534 240.088 41.1565 239.404V236.86C41.2549 237.349 41.7472 237.643 42.4364 237.936C42.7318 238.034 43.1256 238.132 43.5194 238.132C43.6179 238.132 43.7163 238.132 43.8148 238.132L53.365 237.545C54.9403 237.349 56.3187 238.132 56.1218 239.012Z" fill="#3C3C6D"/>
<path fill-rule="evenodd" clip-rule="evenodd" d="M77.1914 239.502V242.045C77.1914 242.241 77.0929 242.436 76.896 242.632C76.3053 243.317 74.9269 243.61 73.7455 243.317L65.0814 241.067C63.6045 240.676 62.0292 241.165 61.6354 242.045L59.7648 247.327C59.5678 248.012 58.4848 248.403 57.4018 248.403C57.3034 248.403 57.1065 248.403 57.008 248.403C55.8265 248.306 55.0389 247.816 54.9404 247.132C54.9404 247.132 54.9404 247.034 54.9404 246.838V244.588C54.9404 244.784 55.1373 244.98 55.2358 245.175C55.6296 245.567 56.2204 245.762 57.008 245.86C57.1065 245.86 57.3034 245.86 57.4018 245.86C58.5833 245.86 59.5678 245.371 59.7648 244.784L61.6354 239.502C61.9308 238.621 63.6045 238.132 65.0814 238.524L73.7455 240.773C74.4346 240.969 75.2223 240.969 75.813 240.773C76.3053 240.676 76.6007 240.48 76.896 240.187C77.1914 239.991 77.1914 239.795 77.1914 239.502Z" fill="#3C3C6D"/>
<path fill-rule="evenodd" clip-rule="evenodd" d="M74.1389 228.545V230.991C74.1389 231.284 73.942 231.676 73.5482 231.969L67.7393 235.588C66.4594 235.099 66.164 234.121 67.1485 233.436L72.9574 229.719L73.5482 229.328C73.8435 229.132 74.1389 228.839 74.1389 228.545Z" fill="#3C3C6D"/>
<path fill-rule="evenodd" clip-rule="evenodd" d="M77.0926 244.1C76.9942 245.274 76.0096 246.154 74.7297 246.056C73.5482 245.959 72.6621 244.98 72.6621 243.807C72.7606 242.633 73.7451 241.752 75.025 241.85C76.2065 241.948 77.1911 242.926 77.0926 244.1Z" fill="#3C3C6D"/>
<path fill-rule="evenodd" clip-rule="evenodd" d="M59.6654 249.478C59.5669 250.652 58.5823 251.533 57.3024 251.435C56.121 251.337 55.2349 250.359 55.2349 249.185C55.3333 248.011 56.3179 247.131 57.5978 247.229C58.8777 247.326 59.7638 248.305 59.6654 249.478Z" fill="#3C3C6D"/>
<path fill-rule="evenodd" clip-rule="evenodd" d="M45.4881 241.751C45.3897 242.925 44.4051 243.805 43.1252 243.707C41.9437 243.61 41.0576 242.631 41.0576 241.457C41.1561 240.284 42.1406 239.403 43.4206 239.501C44.7005 239.501 45.5866 240.577 45.4881 241.751Z" fill="#3C3C6D"/>
<path fill-rule="evenodd" clip-rule="evenodd" d="M53.4632 232.654C53.3648 233.828 52.3802 234.709 51.1003 234.611C49.9188 234.513 49.0327 233.535 49.0327 232.361C49.1312 231.187 50.1157 230.307 51.3957 230.404C52.6756 230.404 53.5617 231.48 53.4632 232.654Z" fill="#3C3C6D"/>
<path fill-rule="evenodd" clip-rule="evenodd" d="M74.9264 233.632C74.8279 234.806 73.8433 235.686 72.5634 235.588C71.3819 235.49 70.4958 234.512 70.4958 233.338C70.5943 232.165 71.5789 231.284 72.8588 231.382C74.0403 231.382 74.9264 232.458 74.9264 233.632Z" fill="#3C3C6D"/>
<path fill-rule="evenodd" clip-rule="evenodd" d="M62.718 236.86C62.718 239.697 56.6138 239.11 56.6138 236.86V217.003H62.718V236.86Z" fill="#56548C"/>
<path fill-rule="evenodd" clip-rule="evenodd" d="M55.2355 199.003C55.2355 199.003 72.7606 193.036 80.2432 193.916C87.6274 194.797 86.0521 226.686 86.0521 226.686C86.0521 226.686 82.1139 227.371 78.1756 226.686C76.5019 217.784 73.8436 208.1 73.8436 208.1C73.8436 208.1 57.6969 212.698 55.3339 210.448C52.8725 208.1 55.2355 199.003 55.2355 199.003Z" fill="#3C3C6D"/>
<path fill-rule="evenodd" clip-rule="evenodd" d="M55.2355 199.003C55.2355 199.003 72.7606 193.036 80.2432 193.916C87.6274 194.797 86.0521 226.686 86.0521 226.686C85.4614 227.86 80.637 230.403 78.1756 226.686C76.5019 217.784 73.8436 208.1 73.8436 208.1C73.8436 208.1 57.6969 212.698 55.3339 210.448C52.8725 208.1 55.2355 199.003 55.2355 199.003Z" fill="#3C3C6D"/>
<path fill-rule="evenodd" clip-rule="evenodd" d="M83.8861 216.905C82.3108 218.372 63.7027 228.643 60.1583 230.502C59.7645 230.697 59.1738 230.795 58.78 230.502C56.8108 229.23 55.8263 224.926 59.5676 222.187C60.6506 221.404 80.5386 208.101 83.6892 208.981H83.7877C83.8861 208.981 83.9846 209.079 84.083 209.177C85.7568 210.351 85.5599 215.34 83.8861 216.905Z" fill="#56548C"/>
<path fill-rule="evenodd" clip-rule="evenodd" d="M83.7879 208.883C80.6373 208.003 60.7493 221.306 59.6663 222.089C55.925 224.828 56.9095 229.23 58.8786 230.404L36.8246 217.687L36.0369 217.296C34.2647 215.828 33.5755 211.818 37.2184 209.177C38.3014 208.394 58.6817 194.797 61.4385 196.069L61.6354 196.167L83.7879 208.883Z" fill="#3C3C6D"/>
<path fill-rule="evenodd" clip-rule="evenodd" d="M132.819 118.694C132.228 113.999 130.062 85.7286 125.828 82.5005C125.828 82.5005 122.973 79.4681 121.693 80.7398L101.017 92.576L102.002 105.39L110.961 134.639L131.046 123.096C132.326 122.9 133.114 121.14 132.819 118.694Z" fill="#3C3C6D"/>
<path fill-rule="evenodd" clip-rule="evenodd" d="M104.956 94.5321C109.091 97.7602 111.355 126.03 111.946 130.726C112.537 135.421 109.189 137.28 106.137 132.486C103.085 127.693 100.328 100.793 100.328 95.119C100.23 89.5432 104.956 94.5321 104.956 94.5321Z" fill="#46467C"/>
<path fill-rule="evenodd" clip-rule="evenodd" d="M138.529 79.077C132.72 78.7835 122.875 85.631 118.444 91.2067C114.014 96.7825 116.77 102.847 118.247 108.814C119.724 114.781 117.459 129.748 117.459 131.215C124.253 135.813 140.793 136.4 142.664 129.748C143.452 122.411 138.037 114.684 138.037 110.38C138.234 100.989 146.11 81.816 138.529 79.077Z" fill="#F9FBFC"/>
<path fill-rule="evenodd" clip-rule="evenodd" d="M133.409 80.3465C136.461 93.3567 135.477 107.443 134.787 112.921C134.098 118.399 134 136.789 134 136.789C138.43 134.539 140.596 130.431 140.695 128.474C140.793 126.616 139.021 110.671 139.218 109.399C139.316 108.128 141.581 95.8022 141.384 89.1504C141.187 82.4986 138.627 81.5204 138.627 81.5204L132.917 78.9771L133.409 80.3465Z" fill="#FBD15B"/>
<path fill-rule="evenodd" clip-rule="evenodd" d="M133.901 83.6729L134.689 83.9663C134.591 84.3576 134.492 84.7489 134.492 85.238C134.492 85.1401 134.492 85.0423 134.394 85.0423L133.901 83.6729Z" fill="#FBD15B"/>
<path fill-rule="evenodd" clip-rule="evenodd" d="M125.04 81.7183C129.471 91.2068 127.305 99.9129 127.108 107.641C126.911 115.466 122.874 137.28 122.874 137.28C115.096 135.324 114.112 130.139 112.635 127.498C108.992 109.304 113.62 94.5327 116.967 89.0548C119.625 84.7507 125.04 81.7183 125.04 81.7183Z" fill="#FBD15B"/>
<path fill-rule="evenodd" clip-rule="evenodd" d="M120.118 93.7478C112.93 91.987 116.573 108.91 120.118 115.562C121.89 118.985 123.367 120.942 125.533 122.018C126.222 117.42 126.911 112.725 127.108 109.497C125.237 103.432 123.859 95.6064 120.118 93.7478Z" fill="#EABD4E"/>
<path d="M90.384 155.375L94.4207 152.539H95.7991L95.2084 153.419L90.8763 156.354L90.384 155.375Z" fill="#3C3C6D"/>
<path fill-rule="evenodd" clip-rule="evenodd" d="M83.9843 142.072C83.3935 137.377 81.2275 109.107 76.9939 105.879C76.9939 105.879 74.1387 102.847 72.8588 104.118L52.1831 116.052L53.1677 128.867L62.1271 158.115L82.2121 146.572C83.492 146.279 84.2796 144.616 83.9843 142.072Z" fill="#3C3C6D"/>
<path fill-rule="evenodd" clip-rule="evenodd" d="M56.023 118.01C60.1581 121.238 62.4226 149.508 63.0133 154.203C63.6041 158.899 60.2566 160.757 57.2044 155.964C54.1523 151.171 51.3956 124.27 51.3956 118.597C51.2971 113.021 56.023 118.01 56.023 118.01Z" fill="#46467C"/>
<path fill-rule="evenodd" clip-rule="evenodd" d="M213.946 47.1855C209.121 49.5332 200.26 68.9017 201.737 73.4992C203.214 77.999 207.349 75.5535 210.204 71.5428C214.044 66.0649 217.982 54.1308 217.49 51.0984C216.998 48.0659 213.946 47.1855 213.946 47.1855Z" fill="#3C3C6D"/>
<path fill-rule="evenodd" clip-rule="evenodd" d="M215.128 147.648C215.128 147.648 207.645 156.257 205.676 156.844C203.707 157.43 205.479 159.485 207.054 159.583C208.63 159.68 213.454 159.485 214.832 158.115C216.211 156.746 220.247 155.278 220.247 155.278C220.247 150.779 219.164 147.942 219.164 147.942L215.128 147.648Z" fill="#56548C"/>
<path fill-rule="evenodd" clip-rule="evenodd" d="M212.47 86.5107C212.47 86.5107 211.485 105.683 211.879 111.944C212.273 118.204 213.75 149.409 213.75 149.409C217.786 150.29 220.445 149.409 220.445 149.409C221.823 125.541 221.724 118.596 222.118 115.074C222.512 111.553 223.004 101.184 223.004 101.184C225.86 95.3145 222.906 87.5867 221.429 85.7281C220.051 83.8695 212.47 86.5107 212.47 86.5107Z" fill="#3C3C6D"/>
<path fill-rule="evenodd" clip-rule="evenodd" d="M227.238 155.866C226.943 159.388 225.761 163.496 225.367 165.55C224.974 167.605 225.761 168.876 226.253 169.561C226.746 170.246 232.653 168.289 233.539 166.039C234.327 163.79 232.653 161.735 232.555 157.529C230.684 154.007 227.238 155.866 227.238 155.866Z" fill="#56548C"/>
<path fill-rule="evenodd" clip-rule="evenodd" d="M218.672 87.9785C218.672 87.9785 219.656 105.391 221.33 111.26C222.905 117.031 224.382 134.052 225.071 137.084C225.761 140.019 226.647 158.409 226.647 158.409C230.388 159.29 233.243 158.409 233.243 158.409C233.145 141.193 233.539 127.302 233.243 122.607C232.948 117.912 233.342 103.923 233.342 103.923C234.917 97.467 235.016 96.5867 233.342 92.2826C231.766 87.8806 224.776 84.4569 218.672 87.9785Z" fill="#3C3C6D"/>
<path fill-rule="evenodd" clip-rule="evenodd" d="M215.325 46.6006C220.74 46.405 233.145 49.144 237.28 54.3284C241.416 59.5129 235.41 68.708 234.031 74.2838C232.653 79.8596 234.721 93.7501 234.721 95.0217C228.321 99.228 212.962 99.7171 211.288 93.4566C210.599 86.6092 212.174 78.5879 212.273 74.5773C211.879 66.0669 208.138 49.144 215.325 46.6006Z" fill="#F9FBFC"/>
<path fill-rule="evenodd" clip-rule="evenodd" d="M219.952 47.8713C216.506 59.9032 215.718 73.5002 216.014 78.5869C216.309 83.6735 216.506 100.303 216.506 100.303C212.469 98.151 210.697 94.336 210.697 92.5752C210.697 90.8144 212.174 75.8479 212.174 74.5762C212.174 73.4024 210.106 59.6097 210.697 53.447C211.288 47.2844 215.325 46.5996 215.325 46.5996H220.543L219.952 47.8713Z" fill="#3C3C6D"/>
<path fill-rule="evenodd" clip-rule="evenodd" d="M216.605 33.2979C214.242 34.0804 216.605 39.3627 216.605 39.3627V33.2979Z" fill="#3C3C6D"/>
<path fill-rule="evenodd" clip-rule="evenodd" d="M216.408 33.9822C216.408 33.9822 215.522 37.1125 215.817 39.558C216.112 42.0035 216.408 46.7967 218.574 48.3618C220.74 49.9269 223.89 48.0684 225.958 46.4054C228.025 44.6446 230.191 41.4166 230.29 37.6016C230.29 33.6888 228.813 28.9934 223.201 29.189C217.491 29.4825 216.408 33.9822 216.408 33.9822Z" fill="#FFC8AF"/>
<path fill-rule="evenodd" clip-rule="evenodd" d="M227.336 42.98C227.336 42.98 226.942 47.9688 228.222 49.8274C228.321 51.0991 224.776 56.2836 221.232 55.4032C219.164 54.9141 219.46 52.4686 219.46 52.4686C219.657 50.61 219.46 46.3059 219.46 46.3059L227.336 42.98Z" fill="#FFC8AF"/>
<path fill-rule="evenodd" clip-rule="evenodd" d="M215.029 29.8729C214.242 32.7097 215.128 33.7857 217.589 34.5683C220.051 35.3509 226.549 33.4923 226.549 33.4923C226.155 36.5247 227.041 38.1877 227.041 38.1877C228.124 35.1552 229.108 36.7204 229.207 39.1659C229.305 41.6114 227.927 41.5136 227.927 41.5136C228.025 43.5678 228.715 44.2525 228.715 44.2525C231.373 42.4918 234.917 30.4598 230.191 30.1664C230.093 25.9601 216.801 23.7102 215.029 29.8729Z" fill="#3C3C6D"/>
<path fill-rule="evenodd" clip-rule="evenodd" d="M228.517 49.0449C224.284 57.8488 222.118 65.7722 222.315 73.0109C222.413 80.2496 223.988 101.281 223.988 101.281C231.274 99.5203 236.197 97.466 237.575 95.0205C234.425 86.9014 233.342 81.4235 233.932 79.0758C234.523 76.7281 240.037 59.1204 237.181 53.8381C234.425 51.0013 228.517 49.0449 228.517 49.0449Z" fill="#3C3C6D"/>
<path fill-rule="evenodd" clip-rule="evenodd" d="M227.533 47.8721C227.533 48.0677 228.419 49.0459 228.419 49.0459C228.419 49.0459 226.647 52.9587 225.958 54.7195C225.269 56.4803 223.595 57.9476 223.595 57.9476L221.232 55.4042C224.481 53.6435 227.533 47.8721 227.533 47.8721Z" fill="#F9FBFC"/>
<path fill-rule="evenodd" clip-rule="evenodd" d="M219.755 49.1433C219.952 48.8499 220.444 54.0343 221.232 55.4038C219.755 56.7733 218.869 57.1646 218.869 57.1646C218.869 57.1646 217.983 51.2954 219.755 49.1433Z" fill="#F9FBFC"/>
<path fill-rule="evenodd" clip-rule="evenodd" d="M221.527 55.209L219.558 56.4807C220.05 58.0458 220.05 59.1218 220.05 59.1218H221.921L223.299 57.1654L221.527 55.209Z" fill="#EC827D"/>
<path fill-rule="evenodd" clip-rule="evenodd" d="M219.952 59.1213C217.195 73.5009 217.49 82.4026 217.49 82.4026L218.869 86.4132L221.921 82.0113C221.921 82.0113 219.656 65.0884 221.822 59.2191C220.641 58.3388 219.952 59.1213 219.952 59.1213Z" fill="#EC827D"/>
<path fill-rule="evenodd" clip-rule="evenodd" d="M89.5962 102.457C83.7873 102.163 71.0866 106.174 66.6561 111.749C62.2256 117.325 67.8375 126.227 69.3144 132.194C70.7912 138.161 68.5267 153.128 68.5267 154.595C75.3202 159.192 91.8607 159.779 93.7314 153.128C94.519 145.791 89.1039 138.063 89.1039 133.759C89.3993 124.466 97.2758 105.195 89.5962 102.457Z" fill="#F9FBFC"/>
<path fill-rule="evenodd" clip-rule="evenodd" d="M84.5756 103.727C87.6277 116.737 86.6432 130.823 85.954 136.301C85.2648 141.779 85.1663 160.169 85.1663 160.169C89.5968 157.919 91.7629 153.811 91.8613 151.855C91.9598 149.996 90.1876 134.051 90.3845 132.78C90.4829 131.508 94.4212 116.444 94.2243 109.792C94.0273 103.14 89.5968 102.357 89.5968 102.357H83.9849L84.5756 103.727Z" fill="#56548C"/>
<path fill-rule="evenodd" clip-rule="evenodd" d="M89.7936 88.9559C89.7936 88.9559 90.2858 92.2818 90.3843 94.9229C90.4828 99.227 89.6951 102.749 87.4306 104.412C85.0677 106.074 80.7356 104.998 78.5696 103.14C76.4036 101.281 75.0252 96.8793 74.9268 92.7709C74.9268 88.5646 76.6005 83.478 82.6063 83.7714C88.7106 84.0649 89.7936 88.9559 89.7936 88.9559Z" fill="#FFC8AF"/>
<path fill-rule="evenodd" clip-rule="evenodd" d="M76.6 98.4453C76.6 98.4453 77.0923 103.825 75.6154 105.782C75.517 107.151 79.2583 112.727 83.0981 111.749C85.3625 111.162 85.0672 108.619 85.0672 108.619C84.8703 106.662 85.0672 101.967 85.0672 101.967L76.6 98.4453Z" fill="#FFC8AF"/>
<path fill-rule="evenodd" clip-rule="evenodd" d="M89.3007 84.6526C85.9532 79.9573 73.4493 83.8701 74.5323 88.272C69.708 89.8371 72.8586 102.26 78.569 103.141C78.569 103.141 81.2273 100.5 81.0304 99.8148C80.4397 100.108 79.7505 100.01 79.4551 98.5431C78.8644 95.9998 80.5381 94.3369 82.4088 97.1737C82.4088 97.1737 82.7042 94.9238 81.4242 91.7935C81.4242 91.7935 87.9223 91.2066 89.9899 89.348C91.0729 88.4676 91.1713 87.2938 89.3007 84.6526Z" fill="#3C3C6D"/>
<path fill-rule="evenodd" clip-rule="evenodd" d="M75.4189 104.9C79.8494 114.388 78.4711 123.192 78.2741 131.018C78.0772 138.844 74.0406 160.658 74.0406 160.658C66.2626 158.701 65.278 153.517 63.8012 150.876C60.1583 132.681 62.5212 116.051 65.9672 110.573C68.6255 106.367 75.4189 104.9 75.4189 104.9Z" fill="#56548C"/>
<path fill-rule="evenodd" clip-rule="evenodd" d="M78.1757 133.074C75.9112 126.618 73.9421 117.716 70.1024 115.858C62.9151 114.097 65.0811 131.998 68.6255 138.747C70.7915 142.856 72.9576 145.106 76.502 146.084C77.2896 141.486 77.9788 136.595 78.1757 133.074Z" fill="#3C3C6D"/>
<path fill-rule="evenodd" clip-rule="evenodd" d="M76.4035 103.727C76.4035 103.922 75.4189 104.998 75.4189 104.998C75.4189 104.998 77.3881 109.302 78.0772 111.161C78.7664 113.019 80.6371 114.585 80.6371 114.585L83.1969 111.846C79.6525 109.987 76.4035 103.727 76.4035 103.727Z" fill="#F9FBFC"/>
<path fill-rule="evenodd" clip-rule="evenodd" d="M84.7721 105.096C84.5752 104.803 83.9845 110.378 83.0984 111.846C84.6737 113.411 85.6582 113.802 85.6582 113.802C85.6582 113.802 86.7412 107.542 84.7721 105.096Z" fill="#F9FBFC"/>
<path d="M75.0256 154.104L139.317 190.982L218.869 145.3L154.578 108.421L75.0256 154.104Z" fill="#83C9FF"/>
<path d="M79.8496 155.178C78.7666 155.765 76.9944 155.765 75.9114 155.178C74.8284 154.591 74.8284 153.515 75.9114 152.928C76.9944 152.341 78.7666 152.341 79.8496 152.928C80.9326 153.613 80.9326 154.591 79.8496 155.178Z" fill="#83C9FF"/>
<path d="M217.983 146.473C216.9 147.06 215.128 147.06 214.045 146.473C212.962 145.886 212.962 144.81 214.045 144.223C215.128 143.636 216.9 143.636 217.983 144.223C219.066 144.81 219.066 145.788 217.983 146.473Z" fill="#83C9FF"/>
<path d="M217.49 206.438C216.703 206.928 215.423 206.928 214.635 206.438C213.848 205.949 213.848 205.265 214.635 204.776C215.423 204.286 216.703 204.286 217.49 204.776C218.278 205.265 218.278 205.949 217.49 206.438Z" fill="#878CF0"/>
<path d="M213.257 145.299L214.044 205.556H218.081L218.869 145.299H213.257Z" fill="#878CF0"/>
<path d="M141.089 190.297C140.006 190.883 138.234 190.883 137.151 190.297C136.068 189.71 136.068 188.634 137.151 188.047C138.234 187.46 140.006 187.46 141.089 188.047C142.172 188.731 142.172 189.71 141.089 190.297Z" fill="#83C9FF"/>
<path d="M140.498 250.359C139.711 250.848 138.431 250.848 137.643 250.359C136.856 249.87 136.856 249.186 137.643 248.696C138.431 248.207 139.711 248.207 140.498 248.696C141.286 249.088 141.286 249.87 140.498 250.359Z" fill="#878CF0"/>
<path d="M136.364 189.222L137.053 249.48H141.089L141.877 189.222H136.364Z" fill="#878CF0"/>
<path d="M156.448 111.161C155.365 111.748 153.593 111.748 152.51 111.161C151.427 110.574 151.427 109.498 152.51 108.911C153.593 108.324 155.365 108.324 156.448 108.911C157.531 109.596 157.531 110.574 156.448 111.161Z" fill="#83C9FF"/>
<path d="M155.956 171.223C155.169 171.712 153.889 171.712 153.101 171.223C152.313 170.734 152.313 170.049 153.101 169.56C153.889 169.071 155.169 169.071 155.956 169.56C156.744 169.951 156.744 170.734 155.956 171.223Z" fill="#83C9FF"/>
<path d="M151.723 110.086L152.511 170.343H156.547L157.236 110.086H151.723Z" fill="#83C9FF"/>
<path d="M239.545 131.41C239.545 138.355 235.311 144.909 226.746 149.8L147.193 195.384C128.191 206.242 95.0119 204.873 73.0563 192.352C61.34 185.602 55.1373 176.994 54.9404 168.777V172.396C55.1373 180.613 61.34 189.222 73.0563 195.971C95.0119 208.59 128.191 209.959 147.193 199.004L226.746 153.419C235.311 148.528 239.545 141.876 239.545 134.931V131.41Z" fill="#A8B0F4"/>
<path d="M73.1553 192.45C95.1109 205.068 128.29 206.438 147.292 195.482L226.845 149.898C235.41 145.007 239.644 138.355 239.644 131.507C239.644 123.095 233.54 114.291 221.528 107.346C199.572 94.727 166.393 93.3575 147.391 104.313L67.8387 149.898C58.9776 154.984 54.8425 161.832 55.0394 168.875C55.2363 177.092 61.3406 185.7 73.1553 192.45Z" fill="#878CF0"/>
<path fill-rule="evenodd" clip-rule="evenodd" d="M215.324 144.712L203.313 137.864L183.129 149.505L181.554 149.701V150.092C181.554 150.287 181.653 150.385 181.751 150.483L193.96 157.526C194.353 157.722 194.944 157.722 195.436 157.428L215.718 145.788C216.014 145.592 216.112 145.396 216.112 145.299V144.614L215.324 144.712Z" fill="#3C3C6D"/>
<path fill-rule="evenodd" clip-rule="evenodd" d="M203.313 137.181L181.554 149.702L176.434 133.659C176.238 133.17 176.434 132.583 176.828 132.388L197.405 120.552C197.799 120.356 198.193 120.552 198.39 121.041L203.313 137.181Z" fill="#56548C"/>
<path fill-rule="evenodd" clip-rule="evenodd" d="M202.131 136.592L182.046 148.135L177.419 133.951L197.799 122.311L202.131 136.592Z" fill="#BEE1F4"/>
<path fill-rule="evenodd" clip-rule="evenodd" d="M215.62 145.202L195.338 156.843C194.944 157.136 194.255 157.136 193.861 156.941L181.456 149.8L203.214 137.279L215.62 144.42C216.112 144.518 216.112 144.909 215.62 145.202Z" fill="#56548C"/>
<path fill-rule="evenodd" clip-rule="evenodd" d="M215.62 145.202L195.338 156.843C194.944 157.136 194.255 157.136 193.861 156.941L181.456 149.8L203.214 137.279L215.62 144.42C216.112 144.518 216.112 144.909 215.62 145.202Z" fill="#56548C"/>
<path fill-rule="evenodd" clip-rule="evenodd" d="M209.319 141.877L189.628 153.127L183.72 149.801L203.411 138.454L209.319 141.877Z" fill="#112B46"/>
<path fill-rule="evenodd" clip-rule="evenodd" d="M206.562 148.92L201.836 151.659C201.541 151.854 201.147 151.854 200.95 151.659L198.685 150.387C198.488 150.289 198.488 149.996 198.784 149.898L203.51 147.159C203.805 146.963 204.199 146.963 204.396 147.159L206.66 148.431C206.857 148.528 206.857 148.724 206.562 148.92Z" fill="#3C3C6D"/>
<path d="M68.9211 179.831C69.4134 178.852 78.7667 161.44 78.7667 161.44L92.6489 165.94C92.6489 165.94 84.4771 187.363 83.3941 186.874C82.3111 186.482 68.9211 179.831 68.9211 179.831Z" fill="#F9FBFC"/>
<path d="M98.1624 142.952L109.583 134.344L130.259 136.203L118.346 145.007L98.1624 142.952Z" fill="#F9FBFC"/>
<path d="M112.045 176.307H111.848C111.848 176.307 111.749 176.307 111.749 176.209L102.199 170.731C101.805 170.535 101.116 170.535 100.722 170.829L87.8247 178.165C87.7263 178.165 87.7263 178.263 87.6278 178.263H87.4309V178.557C87.4309 178.655 87.5294 178.85 87.7263 178.948L97.2765 184.426C97.6703 184.622 98.3595 184.622 98.7533 184.328L111.651 176.992C111.848 176.894 112.045 176.698 112.045 176.502V176.307Z" fill="#A5B7C6"/>
<path d="M97.3749 184.231L87.8247 178.753C87.4309 178.557 87.5293 178.166 87.9231 177.872L100.821 170.536C101.215 170.242 101.904 170.242 102.298 170.438L111.848 175.916C112.242 176.112 112.143 176.503 111.749 176.796L98.8517 184.133C98.4579 184.426 97.7687 184.426 97.3749 184.231Z" fill="#56548C"/>
<path d="M98.3597 183.645L88.908 178.265L101.707 170.928L111.06 176.308L98.3597 183.645Z" fill="#FBD15B"/>
<path fill-rule="evenodd" clip-rule="evenodd" d="M91.2699 103.141C96.6849 105.586 95.405 119.868 99.5401 123.487C101.903 125.542 113.422 128.183 116.573 128.183C117.853 130.726 115.588 133.563 115.588 133.563C95.8973 131.998 94.5189 131.509 89.9899 123.683C86.6425 117.52 84.0826 101.478 91.2699 103.141Z" fill="#56548C"/>
<path d="M116.081 129.062C116.081 129.062 121.398 128.475 122.382 128.866C123.367 129.356 125.631 130.725 126.32 131.312C126.911 131.997 128.979 133.66 127.305 134.051C126.813 134.149 123.859 133.268 123.071 132.975C122.284 132.584 120.807 132.192 120.807 132.584C120.807 132.975 124.548 133.953 124.056 134.736C123.564 135.518 122.678 134.931 120.019 134.051C117.361 133.171 114.801 132.779 114.801 132.779C114.21 130.823 114.801 129.649 116.081 129.062Z" fill="#FFC8AF"/>
<path d="M107.614 132.095L103.774 136.888C103.675 136.986 103.675 137.279 103.872 137.377C103.971 137.475 104.266 137.475 104.365 137.279L108.204 132.486C108.303 132.388 108.303 132.095 108.106 131.997C107.909 131.899 107.712 131.899 107.614 132.095Z" fill="#3C3C6D"/>
<path fill-rule="evenodd" clip-rule="evenodd" d="M100.525 134.54C102.199 135.42 105.054 134.833 105.054 135.225C105.054 135.518 104.463 136.496 103.282 136.496C102.1 136.399 100.525 134.54 100.525 134.54Z" fill="#FFC8AF"/>
<path fill-rule="evenodd" clip-rule="evenodd" d="M95.7991 137.083C96.7836 136.007 99.245 133.562 101.313 134.833C103.282 136.105 104.66 136.105 105.251 136.301C105.94 135.322 106.925 136.105 107.515 137.474C108.106 138.844 103.971 140.605 103.282 141.094C102.593 141.681 95.7991 140.507 95.7991 140.507V137.083Z" fill="#FFC8AF"/>
<path fill-rule="evenodd" clip-rule="evenodd" d="M70.102 111.846C75.5171 114.487 77.0924 131.117 81.2275 135.03C83.5905 137.28 92.9438 135.519 96.0943 135.519C97.3743 138.356 95.6021 141.681 95.6021 141.681C77.5847 143.834 72.9573 143.344 68.4283 134.736C65.0808 127.987 62.9148 109.988 70.102 111.846Z" fill="#56548C"/>
<path fill-rule="evenodd" clip-rule="evenodd" d="M221.724 70.8581C221.232 69.0974 220.149 67.4344 218.672 66.4562C218.278 66.1627 217.786 65.9671 217.392 65.7715C217.195 65.6736 216.998 65.5758 216.801 65.5758C216.604 65.5758 216.309 65.478 216.112 65.5758C216.013 65.6736 216.013 65.7715 216.112 65.8693C216.309 66.2606 216.703 66.554 217.096 66.7497C217.786 67.1409 218.081 67.7279 218.278 68.4126C217.589 67.7279 216.998 67.0431 216.21 66.4562C215.423 65.9671 214.537 65.5758 213.651 65.2824C213.257 65.1845 212.863 64.9889 212.469 65.0867C211.977 65.1845 211.78 65.5758 212.075 65.8693C212.371 66.1627 212.764 66.3584 213.158 66.554C213.651 66.8475 214.044 67.1409 214.537 67.5322C214.734 67.7279 214.93 67.9235 215.127 68.1192C215.226 68.3148 215.324 68.6083 215.521 68.7061C215.029 68.5104 214.537 68.217 214.044 68.0213C213.651 67.8257 213.158 67.7279 212.764 67.4344C212.371 67.2388 212.075 66.9453 211.681 66.7497C211.485 66.6518 211.288 66.554 211.091 66.6518C210.992 66.7497 210.894 66.9453 210.894 67.0431C210.894 67.2388 210.992 67.3366 211.091 67.5322C211.288 67.9235 211.583 68.1192 211.977 68.3148C212.272 68.5104 212.568 68.7061 212.863 68.9017C213.257 69.1952 213.651 69.3908 213.946 69.6843C214.143 69.7821 214.34 69.9777 214.438 70.1734C214.537 70.2712 214.734 70.5647 214.93 70.6625C214.143 70.2712 213.454 69.7821 212.764 69.3908C212.469 69.1952 212.174 68.9995 211.977 68.8039C211.681 68.5104 211.386 68.3148 210.992 68.3148C210.894 68.3148 210.795 68.3148 210.697 68.3148C210.598 68.4126 210.598 68.5104 210.598 68.6083C210.598 68.7061 210.697 68.8039 210.795 68.9017C211.189 69.4886 211.681 70.0756 212.272 70.5647C212.764 70.9559 213.454 71.6407 214.044 71.7385C213.158 71.5429 212.371 71.1516 211.681 70.5647C211.386 70.2712 210.992 69.9777 210.598 69.8799C210.5 69.8799 210.303 69.8799 210.205 69.9777C210.106 70.0756 210.205 70.2712 210.303 70.369C210.795 71.1516 211.485 72.1298 212.371 72.5211C212.863 72.7167 213.257 73.108 213.749 73.4015C214.241 73.6949 214.734 73.9884 215.226 74.2818C216.407 74.9666 217.786 75.6513 219.066 76.0426C219.459 76.1404 219.853 76.2382 220.247 76.1404C220.641 76.1404 220.838 76.0426 221.133 75.7491C221.625 75.26 222.019 74.6731 222.216 73.9884C222.413 73.2058 222.315 72.3254 222.118 71.5429C221.921 71.5429 221.822 71.1516 221.724 70.8581Z" fill="#FFC8AF"/>
<path fill-rule="evenodd" clip-rule="evenodd" d="M209.811 71.545C209.417 69.393 208.925 66.8497 207.546 65.0889C207.448 64.9911 207.448 64.8932 207.349 64.8932C207.152 64.7954 206.956 65.0889 206.956 65.2845C206.857 65.8714 207.152 66.5562 207.349 67.1431C207.546 67.8279 207.546 68.6104 207.448 69.2952C207.448 69.1973 207.349 69.1973 207.349 69.0995C206.266 67.6322 205.676 65.6758 204.986 64.0129C204.888 63.8172 204.79 63.6216 204.593 63.6216C204.297 63.6216 204.199 64.0129 204.199 64.3063C204.199 65.6758 204.494 66.7518 205.085 68.0235C204.494 67.1431 204.002 66.1649 203.608 65.1867C203.51 64.9911 203.411 64.6976 203.116 64.5998C202.033 64.502 203.411 68.5126 203.608 69.0995C203.017 68.317 202.722 67.5344 202.525 66.5562C202.525 66.3606 202.427 66.1649 202.328 66.0671C202.23 65.8715 201.934 65.6758 201.737 65.8715C201.639 66.0671 201.54 66.4584 201.54 66.654C201.442 67.2409 201.639 67.8279 201.836 68.4148C202.131 69.1973 202.624 69.9799 202.919 70.7625C202.427 70.1756 202.033 69.5886 201.54 69.0995C201.442 69.0017 201.344 68.8061 201.147 68.9039C200.95 68.9039 200.851 69.1973 200.95 69.393C201.344 70.6647 202.033 71.9363 202.919 72.9145C203.411 73.4036 203.903 73.7949 204.297 74.284C204.691 74.7731 205.282 75.1644 205.971 75.4579C206.66 75.7513 207.349 75.8491 208.039 75.8491C208.629 75.8491 208.925 75.6535 209.22 75.2622C209.515 74.8709 209.811 74.4796 209.811 73.9905C209.909 73.208 209.909 72.4254 209.811 71.545Z" fill="#FFC8AF"/>
<path fill-rule="evenodd" clip-rule="evenodd" d="M222.118 70.4673L231.077 73.4997C230.191 61.8591 232.259 49.5337 237.182 53.9357C240.037 56.479 240.135 78.1951 237.969 81.4232C235.803 84.6513 226.45 80.0537 219.952 76.7278C219.755 73.9889 222.118 70.4673 222.118 70.4673Z" fill="#3C3C6D"/>
<path fill-rule="evenodd" clip-rule="evenodd" d="M63.2105 135.616C65.475 135.225 68.4287 135.225 70.5947 135.812C74.2375 136.888 76.2067 139.138 76.9943 142.561C77.8804 145.985 78.1758 151.659 76.1082 154.887C74.8283 156.843 72.17 156.55 70.2009 155.963C67.8379 155.376 64.6873 154.3 62.8167 152.832C60.0599 150.778 58.6815 146.376 58.4846 143.148C58.3862 140.409 59.7646 136.203 63.2105 135.616Z" fill="#FFC8AF"/>
<path fill-rule="evenodd" clip-rule="evenodd" d="M60.3552 136.204C58.1892 137.672 58.3861 140.9 58.4846 143.15C58.6815 146.378 60.0599 150.78 62.8166 152.834C64.2934 153.91 64.3919 154.106 66.361 154.693C66.5579 154.595 66.9517 154.301 67.5425 153.91C68.6255 153.127 69.2162 151.66 68.8224 150.388C68.4286 149.117 68.3301 147.552 69.1178 147.16C70.2992 146.476 71.0869 148.823 71.0869 148.823C71.7761 148.53 72.8591 147.747 72.2683 146.378C71.6776 145.008 72.2683 143.541 72.2683 143.541C74.4344 143.541 75.4189 140.704 76.1081 140.313C77.585 139.53 78.0772 139.139 77.7819 137.867C77.585 136.987 77.2896 136.107 76.6004 135.422C75.8128 134.737 73.3514 133.759 72.2683 133.466C66.361 131.998 61.7336 133.074 60.3552 136.204Z" fill="#56548C"/>
<path fill-rule="evenodd" clip-rule="evenodd" d="M73.6467 157.626C68.3301 155.67 62.1274 152.149 53.4633 158.996C44.7992 165.843 47.1621 193.722 49.3281 200.081C51.4942 206.439 65.7702 206.928 70.1023 206.439C74.4343 205.95 70.2007 198.515 71.5791 193.624C72.9575 188.733 84.2799 161.539 73.6467 157.626Z" fill="#56548C"/>
<path fill-rule="evenodd" clip-rule="evenodd" d="M76.502 158.703C78.7665 160.073 84.5753 176.996 84.5753 176.996L86.6429 163.692C86.6429 163.692 91.4672 161.442 94.224 164.475C92.3533 177.387 91.2703 190.593 86.6429 191.375C82.0155 192.158 74.4344 179.93 70.2993 173.963C66.1641 167.898 69.6101 154.595 76.502 158.703Z" fill="#56548C"/>
<path d="M90.5811 155.767L94.9131 152.539L95.9961 152.246L95.5038 152.93L90.8764 156.354L90.5811 155.767Z" fill="#3C3C6D"/>
<path fill-rule="evenodd" clip-rule="evenodd" d="M87.6273 164.473C87.6273 164.081 85.9536 159.973 86.6428 158.506C87.332 157.038 88.1196 156.06 88.1196 156.06C88.8088 153.712 90.7779 154.006 92.3532 155.473C93.9285 157.038 96.0945 160.756 93.2393 163.886C90.3841 166.429 87.6273 164.473 87.6273 164.473Z" fill="#FFC8AF"/>
<path fill-rule="evenodd" clip-rule="evenodd" d="M32.4922 168.484C32.4922 168.484 32.4922 168.582 32.4922 168.68C30.8184 168.484 28.8493 169.951 28.0616 172.005C26.6833 175.625 28.5539 214.851 31.9014 213.97C32.9844 215.046 56.5153 228.056 56.5153 228.056L57.8937 182.961C57.8937 183.059 41.2547 168.68 32.4922 168.484Z" fill="#46467C"/>
<path fill-rule="evenodd" clip-rule="evenodd" d="M56.5158 228.056C53.1683 228.936 51.1992 189.71 52.676 186.091C54.1528 182.472 59.1741 180.711 60.0602 186.678C60.9463 192.645 65.4752 225.904 56.5158 228.056Z" fill="#EC827D"/>
<path fill-rule="evenodd" clip-rule="evenodd" d="M149.359 111.065C151.033 111.945 153.888 111.358 153.888 111.75C153.888 112.141 153.297 113.021 152.116 113.021C150.934 113.021 149.359 111.065 149.359 111.065Z" fill="#FFC8AF"/>
<path fill-rule="evenodd" clip-rule="evenodd" d="M144.633 113.707C145.618 112.631 148.079 110.185 150.147 111.457C152.116 112.728 153.494 112.728 154.085 112.924C154.774 111.946 155.759 112.728 156.349 114.098C156.94 115.467 152.805 117.228 152.116 117.717C151.426 118.206 144.633 117.13 144.633 117.13V113.707V113.707Z" fill="#FFC8AF"/>
<path fill-rule="evenodd" clip-rule="evenodd" d="M233.046 169.364C233.046 169.364 215.521 163.397 208.038 164.277C200.654 165.158 202.23 197.047 202.23 197.047C202.23 197.047 206.168 197.732 210.106 197.047C211.78 188.145 214.438 178.461 214.438 178.461C214.438 178.461 230.585 183.059 232.948 180.809C235.508 178.461 233.046 169.364 233.046 169.364Z" fill="#3C3C6D"/>
<path fill-rule="evenodd" clip-rule="evenodd" d="M211.091 209.861C211.091 210.057 211.189 210.253 211.386 210.448C211.681 210.742 211.977 210.937 212.469 211.035C213.06 211.231 213.847 211.231 214.537 211.035L223.201 208.785C224.677 208.394 226.253 208.883 226.647 209.763L228.517 215.046C228.714 215.73 229.797 216.122 230.88 216.122C230.979 216.122 231.176 216.122 231.274 216.122C232.062 216.024 232.652 215.828 233.046 215.437C233.243 215.241 233.342 215.046 233.342 214.85C233.342 214.752 233.342 214.654 233.342 214.557L232.652 210.839L232.357 209.177C232.16 208.296 233.538 207.514 235.114 207.611L244.664 208.198C244.762 208.198 244.861 208.198 244.959 208.198C245.353 208.198 245.747 208.1 246.042 208.003C246.732 207.807 247.224 207.416 247.322 206.927C247.519 206.144 246.732 205.459 245.452 205.362L236.098 204.285C235.704 204.285 235.311 204.09 235.015 203.992C234.228 203.601 233.834 202.916 234.326 202.329L237.674 198.221L238.363 197.34C238.461 197.145 238.56 197.047 238.56 196.851V196.753C238.56 196.264 238.067 195.775 237.28 195.482C236.098 195.188 234.72 195.384 234.031 196.069L229.305 200.862C228.517 201.644 226.647 201.84 225.564 201.253L218.573 197.536C218.081 197.242 217.49 197.145 216.899 197.145C216.309 197.145 215.62 197.242 215.127 197.536C214.635 197.829 214.34 198.221 214.438 198.612C214.438 198.905 214.635 199.199 215.029 199.492L215.62 199.884L221.428 203.601C222.511 204.285 222.216 205.264 220.838 205.753C220.838 205.753 220.838 205.753 220.739 205.753L212.469 208.492C211.583 208.883 211.091 209.372 211.091 209.861Z" fill="#3C3C6D"/>
<path fill-rule="evenodd" clip-rule="evenodd" d="M234.818 204.189L238.166 200.08C238.264 199.884 238.363 199.787 238.363 199.591V197.146C238.363 197.341 238.264 197.439 238.166 197.635L237.477 198.515L234.129 202.623C233.735 203.21 234.031 203.797 234.818 204.189Z" fill="#3C3C6D"/>
<path fill-rule="evenodd" clip-rule="evenodd" d="M232.259 209.275L232.554 210.938C233.046 210.448 233.933 210.155 234.917 210.253L244.467 210.84C244.566 210.84 244.664 210.84 244.763 210.84C245.944 210.84 247.027 210.351 247.224 209.666V207.123C247.126 207.612 246.633 207.905 245.944 208.199C245.649 208.296 245.255 208.394 244.861 208.394C244.763 208.394 244.664 208.394 244.566 208.394L235.016 207.807C233.342 207.709 232.062 208.394 232.259 209.275Z" fill="#3C3C6D"/>
<path fill-rule="evenodd" clip-rule="evenodd" d="M227.238 214.068V214.557C227.336 214.362 227.336 214.166 227.238 214.068Z" fill="#3C3C6D"/>
<path fill-rule="evenodd" clip-rule="evenodd" d="M211.091 209.863V212.406C211.091 212.602 211.189 212.797 211.386 212.993C211.977 213.678 213.355 213.971 214.537 213.678L223.201 211.428C224.677 211.036 226.253 211.526 226.647 212.406L228.517 217.688C228.714 218.373 229.797 218.764 230.88 218.764C230.979 218.764 231.176 218.764 231.274 218.764C232.455 218.666 233.243 218.177 233.342 217.493C233.342 217.493 233.342 217.395 233.342 217.199V214.949C233.342 215.145 233.145 215.341 233.046 215.536C232.652 215.927 232.062 216.123 231.274 216.221C231.176 216.221 230.979 216.221 230.88 216.221C229.699 216.221 228.714 215.732 228.517 215.145L226.647 209.863C226.351 208.982 224.677 208.493 223.201 208.884L214.537 211.134C213.847 211.33 213.06 211.33 212.469 211.134C211.977 211.036 211.681 210.841 211.386 210.547C211.189 210.254 211.091 210.058 211.091 209.863Z" fill="#3C3C6D"/>
<path fill-rule="evenodd" clip-rule="evenodd" d="M214.241 198.907V201.352C214.241 201.646 214.438 202.037 214.832 202.33L220.641 205.95C221.921 205.461 222.216 204.483 221.232 203.798L215.423 200.081L214.832 199.689C214.438 199.494 214.241 199.2 214.241 198.907Z" fill="#3C3C6D"/>
<path fill-rule="evenodd" clip-rule="evenodd" d="M211.287 214.459C211.386 215.633 212.37 216.513 213.65 216.415C214.832 216.318 215.718 215.339 215.718 214.165C215.62 212.992 214.635 212.111 213.355 212.209C212.075 212.209 211.189 213.285 211.287 214.459Z" fill="#3C3C6D"/>
<path fill-rule="evenodd" clip-rule="evenodd" d="M228.616 219.839C228.714 221.013 229.699 221.894 230.979 221.796C232.16 221.698 233.046 220.72 233.046 219.546C232.948 218.372 231.963 217.492 230.683 217.589C229.403 217.589 228.517 218.665 228.616 219.839Z" fill="#3C3C6D"/>
<path fill-rule="evenodd" clip-rule="evenodd" d="M242.794 212.013C242.892 213.187 243.877 214.067 245.157 213.97C246.338 213.872 247.224 212.894 247.224 211.72C247.126 210.546 246.141 209.665 244.861 209.763C243.68 209.861 242.695 210.839 242.794 212.013Z" fill="#3C3C6D"/>
<path fill-rule="evenodd" clip-rule="evenodd" d="M234.819 203.016C234.917 204.189 235.902 205.07 237.182 204.972C238.363 204.874 239.249 203.896 239.249 202.722C239.151 201.548 238.166 200.668 236.886 200.766C235.606 200.864 234.819 201.744 234.819 203.016Z" fill="#3C3C6D"/>
<path fill-rule="evenodd" clip-rule="evenodd" d="M213.454 203.896C213.552 205.07 214.537 205.95 215.816 205.852C216.998 205.755 217.884 204.776 217.884 203.603C217.786 202.429 216.801 201.548 215.521 201.646C214.241 201.744 213.355 202.722 213.454 203.896Z" fill="#3C3C6D"/>
<path fill-rule="evenodd" clip-rule="evenodd" d="M225.563 207.221C225.563 210.058 231.668 209.471 231.668 207.221V187.364H225.563V207.221Z" fill="#56548C"/>
<path fill-rule="evenodd" clip-rule="evenodd" d="M204.396 187.166C205.971 188.634 224.579 198.905 228.124 200.763C228.517 200.959 229.108 201.057 229.502 200.763C231.471 199.492 232.456 195.188 228.714 192.449C227.631 191.666 207.743 178.363 204.593 179.243H204.494C204.396 179.243 204.297 179.341 204.199 179.439C202.624 180.71 202.722 185.699 204.396 187.166Z" fill="#56548C"/>
<path fill-rule="evenodd" clip-rule="evenodd" d="M204.494 179.244C207.645 178.363 227.533 191.569 228.616 192.449C232.357 195.188 231.373 199.59 229.404 200.764L251.458 188.047L252.245 187.656C254.018 186.189 254.707 182.178 251.064 179.537C249.981 178.754 229.601 165.157 226.844 166.429L226.647 166.527L204.494 179.244Z" fill="#3C3C6D"/>
<path fill-rule="evenodd" clip-rule="evenodd" d="M193.467 148.822C193.467 148.822 192.975 147.355 191.892 146.572C190.809 145.79 189.332 144.714 188.545 145.105C187.855 145.496 190.218 147.355 190.218 147.355C187.659 146.377 185.197 146.181 184.114 146.083C183.031 145.985 179.782 147.257 180.471 148.235C181.062 149.213 183.622 150.583 184.803 151.17C185.886 151.757 189.431 152.931 191.892 152.637C194.452 152.246 193.467 148.822 193.467 148.822Z" fill="#FFC8AF"/>
<path fill-rule="evenodd" clip-rule="evenodd" d="M233.046 171.711C233.834 183.45 220.444 189.025 201.245 183.743C201.245 183.743 199.965 189.123 196.224 205.459C190.907 206.242 187.56 205.459 187.56 205.459C187.56 205.459 186.969 173.57 196.224 172.2C205.479 170.831 223.89 170.635 223.89 170.146L233.046 171.711Z" fill="#56548C"/>
<path fill-rule="evenodd" clip-rule="evenodd" d="M225.169 105.976C222.905 105.585 219.951 105.585 217.785 106.171C214.142 107.247 212.173 109.497 211.386 112.921C210.5 116.345 210.204 122.018 212.272 125.246C213.552 127.203 216.21 126.909 218.179 126.322C220.542 125.736 223.693 124.66 225.563 123.192C228.32 121.138 229.698 116.736 229.895 113.508C229.994 110.671 228.517 106.465 225.169 105.976Z" fill="#FFC8AF"/>
<path fill-rule="evenodd" clip-rule="evenodd" d="M227.927 106.563C230.093 108.03 229.896 111.258 229.797 113.508C229.6 116.736 228.222 121.138 225.465 123.192C223.988 124.268 223.89 124.464 221.921 125.051C221.724 124.953 221.33 124.66 220.739 124.268C219.656 123.486 219.066 122.018 219.46 120.747C219.853 119.475 219.952 117.91 219.164 117.519C217.983 116.834 217.195 119.182 217.195 119.182C216.506 118.888 215.423 118.106 216.014 116.736C216.604 115.367 216.014 113.899 216.014 113.899C213.848 113.899 212.863 111.063 212.174 110.671C210.697 109.889 210.205 109.497 210.5 108.226C210.697 107.345 210.992 106.465 211.681 105.78C212.469 105.095 214.931 104.117 216.014 103.922C222.019 102.357 226.548 103.433 227.927 106.563Z" fill="#EC827D"/>
<path fill-rule="evenodd" clip-rule="evenodd" d="M213.749 127.889C218.377 124.661 224.481 120.455 233.046 127.302C241.711 134.15 241.021 164.083 238.954 170.441C236.788 176.8 222.512 177.289 218.18 176.8C213.946 176.213 218.081 168.876 216.703 163.985C215.324 159.094 204.494 134.345 213.749 127.889Z" fill="#F9FBFC"/>
<path fill-rule="evenodd" clip-rule="evenodd" d="M211.879 134.344C211.386 134.637 210.796 135.615 210.106 136.985C210.008 142.854 212.076 149.995 213.946 155.571C215.423 153.517 216.801 151.267 218.081 149.506C222.118 143.539 218.672 130.235 211.879 134.344Z" fill="#DCE6EA"/>
<path fill-rule="evenodd" clip-rule="evenodd" d="M255.888 138.845C255.888 138.845 255.888 138.943 255.888 139.041C257.562 138.845 259.531 140.313 260.318 142.367C261.697 145.986 259.826 185.212 256.479 184.332C255.396 185.408 231.865 198.418 231.865 198.418L230.486 153.323C230.388 153.323 247.027 139.041 255.888 138.845Z" fill="#46467C"/>
<path fill-rule="evenodd" clip-rule="evenodd" d="M231.766 198.417C235.114 199.297 237.083 160.071 235.606 156.452C234.129 152.833 229.108 151.072 228.222 157.039C227.434 162.908 222.807 196.167 231.766 198.417Z" fill="#56548C"/>
<path fill-rule="evenodd" clip-rule="evenodd" d="M212.272 129.845C210.008 131.214 203.608 150.289 203.608 150.289L193.861 147.453C192.581 147.453 189.726 149.702 190.317 152.441C196.421 157.039 199.768 158.702 204.396 159.484C209.023 160.267 214.34 150.974 218.475 145.007C222.61 139.04 219.164 125.639 212.272 129.845Z" fill="#F9FBFC"/>
<path fill-rule="evenodd" clip-rule="evenodd" d="M168.656 171.613L156.645 164.765L136.461 176.406L134.886 176.601V176.993C134.886 177.188 134.984 177.286 135.083 177.384L147.291 184.427C147.685 184.623 148.276 184.623 148.768 184.329L169.05 172.689C169.345 172.493 169.444 172.297 169.444 172.199V171.515L168.656 171.613Z" fill="#3C3C6D"/>
<path fill-rule="evenodd" clip-rule="evenodd" d="M156.645 164.082L134.886 176.603L129.766 160.56C129.57 160.071 129.766 159.484 130.16 159.289L150.738 147.452C151.131 147.257 151.525 147.452 151.722 147.942L156.645 164.082Z" fill="#56548C"/>
<path fill-rule="evenodd" clip-rule="evenodd" d="M155.463 163.397L135.378 174.94L130.751 160.854L151.131 149.213L155.463 163.397Z" fill="#EC827D"/>
<path fill-rule="evenodd" clip-rule="evenodd" d="M168.951 172.006L148.669 183.647C148.276 183.94 147.586 183.94 147.193 183.744L134.787 176.604L156.546 164.083L168.951 171.223C169.443 171.419 169.345 171.81 168.951 172.006Z" fill="#56548C"/>
<path fill-rule="evenodd" clip-rule="evenodd" d="M168.951 172.006L148.669 183.647C148.276 183.94 147.586 183.94 147.193 183.744L134.787 176.604L156.546 164.083L168.951 171.223C169.443 171.419 169.345 171.81 168.951 172.006Z" fill="#56548C"/>
<path fill-rule="evenodd" clip-rule="evenodd" d="M162.65 168.681L142.959 180.028L137.052 176.702L156.743 165.355L162.65 168.681Z" fill="#112B46"/>
<path fill-rule="evenodd" clip-rule="evenodd" d="M159.893 175.722L155.167 178.461C154.872 178.657 154.478 178.657 154.281 178.461L152.017 177.189C151.82 177.091 151.82 176.798 152.115 176.7L156.841 173.961C157.136 173.766 157.53 173.766 157.727 173.961L159.992 175.233C160.188 175.428 160.188 175.624 159.893 175.722Z" fill="#3C3C6D"/>
<path fill-rule="evenodd" clip-rule="evenodd" d="M55.4319 202.135C54.6443 213.873 68.0342 219.449 87.2331 214.167C87.2331 214.167 88.513 219.547 92.2543 235.883C97.5709 236.665 100.722 232.068 100.722 232.068C100.722 232.068 101.509 203.993 92.2543 202.526C82.9995 201.156 64.5883 200.961 64.5883 200.472L55.4319 202.135Z" fill="#3C3C6D"/>
<path fill-rule="evenodd" clip-rule="evenodd" d="M63.2105 135.616C65.475 135.225 68.4287 135.225 70.5947 135.812C74.2375 136.888 76.2067 139.138 76.9943 142.561C77.8804 145.985 78.1758 151.659 76.1082 154.887C74.8283 156.843 72.17 156.55 70.2009 155.963C67.8379 155.376 64.6873 154.3 62.8167 152.832C60.0599 150.778 58.6815 146.376 58.4846 143.148C58.3862 140.409 59.7646 136.203 63.2105 135.616Z" fill="#FFC8AF"/>
<path fill-rule="evenodd" clip-rule="evenodd" d="M60.3552 136.204C58.1892 137.672 58.1892 140.998 58.2877 143.248C58.4846 146.476 60.0599 150.78 62.8166 152.834C64.2935 153.91 64.3919 154.106 66.361 154.693C66.5579 154.595 66.9518 154.301 67.5425 153.91C68.6255 153.127 69.2162 151.66 68.8224 150.388C68.4286 149.117 68.3301 147.552 69.1178 147.16C70.2993 146.476 71.0869 148.823 71.0869 148.823C71.7761 148.53 72.8591 147.747 72.2684 146.378C71.6776 145.008 72.2684 143.541 72.2684 143.541C74.4344 143.541 75.419 140.704 76.1081 140.313C77.585 139.53 78.0773 139.139 77.7819 137.867C77.585 136.987 77.2896 136.107 76.6004 135.422C75.8128 134.737 73.3514 133.759 72.2684 133.466C66.361 131.998 61.7336 133.074 60.3552 136.204Z" fill="#3C3C6D"/>
<path fill-rule="evenodd" clip-rule="evenodd" d="M73.6467 157.626C68.3301 155.67 62.1274 152.149 53.4633 158.996C44.7992 165.843 47.1621 193.722 49.3281 200.081C51.4942 206.439 65.7702 206.928 70.1023 206.439C74.4343 205.95 70.2007 198.515 71.5791 193.624C72.9575 188.733 84.2799 161.539 73.6467 157.626Z" fill="#DD6F6F"/>
<path fill-rule="evenodd" clip-rule="evenodd" d="M76.502 158.703C78.7665 160.073 84.5753 176.996 84.5753 176.996L86.6429 163.692C86.6429 163.692 91.4672 161.442 94.224 164.475C92.3533 177.387 91.2703 190.593 86.6429 191.375C82.0155 192.158 74.4344 179.93 70.2993 173.963C66.1641 167.898 69.6101 154.595 76.502 158.703Z" fill="#EC827D"/>
<path d="M90.5811 155.767L94.9131 152.539L95.9961 152.246L95.5038 152.93L90.8764 156.354L90.5811 155.767Z" fill="#3C3C6D"/>
<path fill-rule="evenodd" clip-rule="evenodd" d="M87.6273 164.473C87.6273 164.081 85.9536 159.973 86.6428 158.506C87.332 157.038 88.1196 156.06 88.1196 156.06C88.8088 153.712 90.7779 154.006 92.3532 155.473C93.9285 157.038 96.0945 160.756 93.2393 163.886C90.3841 166.429 87.6273 164.473 87.6273 164.473Z" fill="#FFC8AF"/>
<path fill-rule="evenodd" clip-rule="evenodd" d="M32.4922 168.484C32.4922 168.484 32.4922 168.582 32.4922 168.68C30.8184 168.484 28.8493 169.951 28.0616 172.005C26.6833 175.625 28.5539 214.851 31.9014 213.97C32.9844 215.046 56.5153 228.056 56.5153 228.056L57.8937 182.961C57.8937 183.059 41.2547 168.68 32.4922 168.484Z" fill="#46467C"/>
<path fill-rule="evenodd" clip-rule="evenodd" d="M56.5158 228.056C53.1683 228.936 51.1992 189.71 52.676 186.091C54.1528 182.472 59.1741 180.711 60.0602 186.678C60.9463 192.645 65.4752 225.904 56.5158 228.056Z" fill="#56548C"/>
<path fill-rule="evenodd" clip-rule="evenodd" d="M194.255 248.987L186.772 248.303C186.772 248.303 181.948 249.672 179.191 250.064C176.336 250.455 174.367 249.966 173.678 251.042C173.579 251.237 173.481 251.433 173.481 251.726C173.382 253.194 174.662 254.563 175.352 255.15C176.828 256.226 178.404 256.813 182.834 256.52C184.016 256.031 185.985 255.737 186.772 256.911C187.954 257.4 192.286 258.085 194.255 256.911V255.933C195.437 254.661 194.255 248.987 194.255 248.987Z" fill="#56548C"/>
<path fill-rule="evenodd" clip-rule="evenodd" d="M197.504 180.708C199.966 193.327 191.105 207.12 191.892 217.391C192.877 231.379 193.369 237.444 194.846 248.889C194.846 248.889 189.135 252.215 184.902 248.4C180.57 226.097 178.699 222.086 179.29 181.295L197.504 180.708Z" fill="#D66565"/>
<path fill-rule="evenodd" clip-rule="evenodd" d="M162.75 122.505C160.19 125.44 162.356 137.472 165.9 140.406C169.445 143.341 172.398 142.265 175.451 139.722C178.503 137.081 180.275 130.624 179.586 125.831C178.601 119.082 169.937 114.191 162.75 122.505Z" fill="#FFC8AF"/>
<path fill-rule="evenodd" clip-rule="evenodd" d="M161.863 123.778C161.863 123.778 161.371 125.05 161.666 127.202C161.962 129.354 162.749 130.528 163.143 131.506C163.537 132.484 163.439 133.169 163.832 133.56C164.226 133.951 164.226 130.821 165.211 130.038C166.195 129.256 167.672 132.68 165.605 134.734C165.309 136.788 168.066 140.31 169.051 140.897C170.035 141.483 174.17 140.799 176.73 138.353C179.29 135.81 179.881 131.799 180.471 126.615C181.062 121.43 177.124 119.67 177.124 119.67C177.025 116.344 165.9 117.224 161.863 118.985C159.402 120.159 161.863 123.778 161.863 123.778Z" fill="#56548C"/>
<path fill-rule="evenodd" clip-rule="evenodd" d="M146.504 187.654C146.504 187.654 145.815 187.85 144.141 188.534C142.467 189.219 139.021 189.415 136.855 189.121C134.689 188.73 131.637 188.241 132.228 187.458C132.819 186.676 143.846 183.937 144.338 184.133C144.83 184.426 146.504 187.654 146.504 187.654Z" fill="#FFC8AF"/>
<path fill-rule="evenodd" clip-rule="evenodd" d="M179.979 255.737L172.496 255.053C172.496 255.053 167.672 256.422 164.915 256.813C162.06 257.205 160.091 256.716 159.401 257.792C159.303 257.987 159.205 258.183 159.205 258.476C159.106 259.944 160.386 261.313 161.075 261.9C162.552 262.976 164.127 263.563 168.558 263.27C169.739 262.781 171.708 262.487 172.496 263.661C173.678 264.15 178.01 264.835 179.979 263.661V262.683C181.062 261.411 179.979 255.737 179.979 255.737Z" fill="#56548C"/>
<path fill-rule="evenodd" clip-rule="evenodd" d="M191.892 183.841C192.68 196.753 182.047 210.839 181.456 221.208C180.57 235.49 180.57 245.566 180.57 257.206C180.57 257.206 171.02 261.706 170.626 254.761C169.247 231.968 167.672 226.001 173.678 184.428L191.892 183.841Z" fill="#EC827D"/>
<path fill-rule="evenodd" clip-rule="evenodd" d="M166.884 142.559C172.201 139.918 180.865 132.679 187.954 142.168C194.55 151.07 197.307 177.677 198.095 183.057C199.079 190.296 178.896 194.111 174.465 193.915C173.481 193.915 172.792 193.426 172.496 192.448C172.102 191.176 173.185 190.198 172.89 189.024C172.693 188.339 172.299 187.752 171.807 187.165C171.413 186.578 170.921 185.992 170.823 185.307C170.626 184.133 171.413 183.057 171.512 181.981C171.61 181.1 171.413 180.318 171.118 179.535C169.247 172.786 166.097 166.525 164.324 159.678C163.143 155.08 161.371 147.744 165.211 143.929C165.703 143.244 166.294 142.657 166.884 142.559Z" fill="#3C3C6D"/>
<path fill-rule="evenodd" clip-rule="evenodd" d="M163.635 146.081C159.402 159.482 159.008 166.232 154.774 171.514C154.479 171.905 142.959 184.231 142.959 184.231C142.959 184.231 144.535 186.97 148.571 187.752C154.971 185.013 162.355 174.938 164.226 172.786C165.309 171.514 171.709 159.971 172.693 154.004C173.579 148.135 165.407 140.798 163.635 146.081Z" fill="#3C3C6D"/>
<path fill-rule="evenodd" clip-rule="evenodd" d="M170.33 112.434L158.319 105.587L138.135 117.228L136.56 117.423V117.814C136.56 118.01 136.658 118.108 136.757 118.206L148.965 125.249C149.359 125.444 149.95 125.444 150.442 125.151L170.724 113.51C171.019 113.315 171.118 113.119 171.118 113.021V112.337L170.33 112.434Z" fill="#3C3C6D"/>
<path fill-rule="evenodd" clip-rule="evenodd" d="M170.625 112.922L150.343 124.563C149.95 124.857 149.26 124.857 148.867 124.661L136.461 117.52L158.22 104.999L170.625 112.14C171.118 112.238 171.118 112.629 170.625 112.922Z" fill="#56548C"/>
<path fill-rule="evenodd" clip-rule="evenodd" d="M170.625 112.922L150.343 124.563C149.95 124.857 149.26 124.857 148.867 124.661L136.461 117.52L158.22 104.999L170.625 112.14C171.118 112.238 171.118 112.629 170.625 112.922Z" fill="#56548C"/>
<path fill-rule="evenodd" clip-rule="evenodd" d="M169.542 112.726L149.851 123.976L143.944 120.65L163.635 109.303L169.542 112.726Z" fill="#3C3C6D"/>
<path fill-rule="evenodd" clip-rule="evenodd" d="M155.463 112.238L150.737 114.977C150.442 115.172 150.048 115.172 149.851 114.977L147.587 113.705C147.39 113.607 147.39 113.314 147.685 113.216L152.411 110.477C152.706 110.281 153.1 110.281 153.297 110.477L155.562 111.748C155.759 111.846 155.759 112.14 155.463 112.238Z" fill="#3C3C6D"/>
<path fill-rule="evenodd" clip-rule="evenodd" d="M120.118 89.2491C125.533 91.8902 126.025 107.639 130.16 111.65C132.523 113.9 141.877 112.139 145.027 112.139C146.307 114.976 144.535 118.302 144.535 118.302C126.714 119.182 124.548 119.671 120.019 111.063C116.573 104.313 112.931 87.3905 120.118 89.2491Z" fill="#FBD15B"/>
<path fill-rule="evenodd" clip-rule="evenodd" d="M156.054 107.639C151.328 105.291 150.245 103.432 147.882 101.378C143.747 97.7587 142.073 83.3791 138.627 81.6183C136.363 81.1292 135.181 82.2052 134.689 84.0638C134.591 84.4551 134.492 84.8464 134.492 85.3355C134.295 87.6832 134.886 90.8134 135.87 93.8459C136.658 96.3892 137.84 98.7369 138.923 100.498C139.809 101.867 140.695 103.139 141.679 104.313C144.042 107.149 147.094 109.399 153.789 111.943C153.888 111.747 157.235 110.182 156.054 107.639Z" fill="#FBD15B"/>
<path fill-rule="evenodd" clip-rule="evenodd" d="M154.084 111.257C154.183 111.551 155.167 112.529 155.955 113.507C156.743 114.485 158.121 116.051 158.515 115.659C158.909 115.268 158.121 113.703 158.121 113.703C158.121 113.703 160.583 116.051 160.976 116.735C161.37 117.518 161.173 115.268 160.583 114.29C162.158 116.637 162.552 117.224 162.65 116.637C162.749 116.051 161.469 112.822 161.666 113.116C163.438 115.855 164.127 116.148 163.93 114.975C163.733 113.703 161.961 111.649 160.878 111.062C164.028 113.116 164.225 112.822 163.438 111.942C162.65 111.062 159.795 108.812 155.857 108.323C153.494 110.475 154.084 111.257 154.084 111.257Z" fill="#FFC8AF"/>
<path fill-rule="evenodd" clip-rule="evenodd" d="M156.153 116.149C155.168 114.584 153.691 112.823 151.82 112.334C150.541 111.943 149.162 112.236 147.882 112.628C146.898 112.921 145.421 113.117 144.338 113.508C143.846 114.682 143.649 115.758 143.649 116.834C143.846 116.932 144.043 116.932 144.338 117.03C145.421 117.127 146.504 117.519 147.587 117.519C148.276 117.519 149.458 117.714 150.147 117.519C149.851 117.616 149.556 117.714 149.556 118.008C149.556 118.203 149.753 118.497 149.95 118.497C151.525 118.888 152.904 116.932 153.888 116.051C153.79 116.247 157.432 118.203 156.153 116.149Z" fill="#FFC8AF"/>
<path fill-rule="evenodd" clip-rule="evenodd" d="M139.317 65.7733C139.317 65.7733 139.317 65.8711 139.415 65.8711C140.104 66.9471 140.203 68.3166 140.104 69.5883C139.907 71.9359 138.431 74.7727 139.514 76.9248C140.006 77.903 140.99 78.5877 141.286 79.5659C141.68 80.9354 140.695 82.4027 139.415 83.1853C137.84 84.1635 135.871 84.5548 134.197 83.9679C132.425 83.3809 131.046 81.8158 130.849 80.055C130.554 77.903 131.932 75.8488 133.212 73.9902C133.902 72.9142 134.886 71.5447 134.985 70.273C135.083 69.0992 134.394 68.0231 134.689 66.7515C134.886 65.8711 135.378 64.8929 136.265 64.5994C137.249 64.1103 138.627 64.7951 139.317 65.7733Z" fill="#606BF1"/>
<path fill-rule="evenodd" clip-rule="evenodd" d="M126.32 75.9458C126.32 75.9458 127.797 80.9346 124.45 82.9889C124.351 84.1627 127.797 89.3472 131.243 88.4668C133.212 87.9777 134.295 85.1409 134.295 85.1409C134.098 83.3802 133.114 79.5652 133.114 79.5652L126.32 75.9458Z" fill="#FFC8AF"/>
<path fill-rule="evenodd" clip-rule="evenodd" d="M138.037 65.8694C138.037 65.8694 138.923 68.9997 138.628 71.4452C138.332 73.8907 138.037 78.6839 135.871 80.249C133.705 81.8142 130.554 79.9556 128.487 78.2926C126.419 76.5319 124.253 73.3038 124.155 69.4888C124.155 65.576 125.631 60.8806 131.243 61.0762C136.954 61.3697 138.037 65.8694 138.037 65.8694Z" fill="#FFC8AF"/>
<path fill-rule="evenodd" clip-rule="evenodd" d="M134.098 63.5232C135.575 65.284 134.886 67.4361 133.015 68.8055C132.129 69.3925 131.145 69.7837 130.259 70.4685C129.373 71.0554 128.683 72.1314 128.88 73.1096C128.979 74.0878 129.865 74.9682 129.668 75.8486C129.471 76.6312 128.585 77.1203 128.486 77.9028C128.29 78.6854 128.979 79.3701 129.373 80.0549C129.963 81.2287 130.062 82.696 129.471 83.8699C128.191 86.6089 124.844 86.4132 122.382 85.2394C119.822 84.0655 118.149 81.2287 118.936 78.4898C119.33 77.0225 120.315 75.7508 120.807 74.3813C121.398 72.5227 121.299 70.5663 121.398 68.7077C121.595 65.0884 124.351 60.9799 128.191 60.393C130.652 60.0995 132.523 61.6647 134.098 63.5232Z" fill="#606BF1"/>
<path fill-rule="evenodd" clip-rule="evenodd" d="M135.969 61.3715C134.787 60.589 130.357 59.2195 130.357 61.4694C130.357 63.7192 133.704 65.9691 135.477 67.0451C136.264 67.4364 137.052 67.8277 137.741 68.4146C138.627 69.0993 138.726 70.4688 139.513 71.0558C140.793 69.8819 140.399 66.9473 139.907 65.48C139.316 63.5236 137.643 62.4476 135.969 61.3715Z" fill="#606BF1"/>
<path fill-rule="evenodd" clip-rule="evenodd" d="M170.625 112.922L150.344 124.562L157.531 109.596C157.728 109.107 158.22 108.52 158.614 108.324L177.616 97.3684C178.01 97.1728 178.108 97.3684 177.813 97.8575L170.625 112.922Z" fill="#56548C"/>
<path fill-rule="evenodd" clip-rule="evenodd" d="M70.4959 156.353V155.179C70.4959 155.179 67.5422 153.321 64.4901 153.223C61.438 153.125 59.9611 153.908 59.8627 154.201C59.7642 154.592 59.6658 155.57 59.6658 155.57L70.4959 156.353Z" fill="#DD6F6F"/>
<path fill-rule="evenodd" clip-rule="evenodd" d="M133.508 80.8374C133.508 80.8374 133.212 82.8916 133.311 83.1851C133.409 83.5764 134.099 83.9677 134.099 83.9677H135.477L133.508 80.8374Z" fill="#606BF1"/>
<path fill-rule="evenodd" clip-rule="evenodd" d="M142.467 93.8477C142.369 91.1088 141.876 89.348 141.384 88.272C141.384 88.5654 141.384 88.9567 141.482 89.2502C141.581 92.8695 140.99 98.054 140.399 102.26C140.892 102.945 141.286 103.532 141.778 104.119C142.172 100.5 142.565 96.6845 142.467 93.8477Z" fill="#EABD4E"/>
<path fill-rule="evenodd" clip-rule="evenodd" d="M94.2236 110.477C94.2236 114.585 92.8452 121.335 91.7622 126.323C92.156 127.008 92.6483 127.595 93.0421 128.084C94.0267 123.291 95.0113 117.617 94.9128 114.194C94.9128 112.726 94.6174 111.455 94.2236 110.477Z" fill="#3C3C6D"/>
<path fill-rule="evenodd" clip-rule="evenodd" d="M174.564 66.9457C174.564 65.9675 173.875 64.9893 172.595 64.3046C170.035 62.8373 165.9 62.8373 163.34 64.3046C162.06 65.0871 161.469 65.9675 161.469 66.9457V72.815C161.469 73.7932 162.158 74.7714 163.438 75.4561C165.998 76.9234 170.133 76.9234 172.693 75.4561C173.973 74.6735 174.564 73.7932 174.564 72.815V66.9457Z" fill="#3C3C6D"/>
<path fill-rule="evenodd" clip-rule="evenodd" d="M179.684 53.7406C180.57 52.3711 181.357 50.9038 181.85 49.3387C182.637 47.0888 183.129 44.7411 183.129 42.3934C183.228 37.7959 181.554 33.1983 177.321 30.3615C177.025 30.1659 176.631 29.9702 176.238 29.7746C172.299 27.916 164.324 26.9378 158.319 31.1441C154.971 32.5136 151.525 38.0893 152.707 44.3498C153.396 48.1648 154.873 51.882 157.039 55.2079C159.106 58.436 160.878 61.3706 161.469 65.1856L161.568 65.3812C161.469 66.2616 162.06 67.2398 163.438 67.9245C165.9 69.1962 169.936 69.1962 172.398 67.9245C173.776 67.2398 174.367 66.2616 174.17 65.3812C174.761 62.1531 176.139 59.512 177.813 56.6752C178.502 55.697 179.093 54.7188 179.684 53.7406Z" fill="#FBD15B"/>
<path d="M166.294 64.1092L164.029 43.4691L165.506 45.719C165.703 46.0124 165.998 46.0124 166.294 45.9146L168.164 44.8386L169.74 48.1645C169.838 48.4579 170.133 48.5557 170.429 48.4579L172.398 47.6754L169.543 65.87C169.543 66.1634 169.74 66.4569 170.035 66.5547C170.33 66.5547 170.626 66.3591 170.724 66.0656L173.678 46.8928C173.678 46.6972 173.678 46.5015 173.481 46.4037C173.284 46.3059 173.087 46.2081 172.89 46.3059L170.527 47.1863L168.853 43.8604C168.755 43.7625 168.656 43.5669 168.558 43.5669C168.361 43.5669 168.263 43.5669 168.066 43.5669L166.097 44.6429L163.635 40.7301C163.537 40.5345 163.241 40.4366 162.946 40.5345C162.651 40.6323 162.552 40.8279 162.552 41.1214L165.014 64.207C165.014 64.5005 165.309 64.6961 165.604 64.6961C166.097 64.6961 166.392 64.4027 166.294 64.1092Z" fill="white"/>
<path fill-rule="evenodd" clip-rule="evenodd" d="M121.043 25.9386C118.582 30.1449 120.846 33.9599 125.769 34.2533C130.397 34.5468 135.516 31.0252 137.879 27.2102C139.258 24.9604 140.144 20.8519 137.387 19.189C136.501 18.602 135.418 18.602 134.335 18.6999C129.314 18.8955 123.702 21.4388 121.043 25.9386Z" fill="#EDEEF7"/>
<path fill-rule="evenodd" clip-rule="evenodd" d="M189.726 59.5117C190.12 59.5117 190.513 59.5117 190.907 59.6095C193.762 60.4899 193.172 64.4027 191.104 65.8701C189.923 66.7504 188.643 66.3592 187.658 65.3809C185.689 63.5224 187.166 59.7074 189.726 59.5117Z" fill="#EDEEF7"/>
<path d="M149.753 271.784C149.753 271.784 141.975 266.208 141.286 257.698C140.793 251.242 146.012 248.796 150.934 256.328C150.934 256.328 143.747 244.786 150.344 240.775C155.266 237.743 157.826 246.449 157.826 246.449C157.826 246.449 152.904 231.971 160.091 231.58C165.21 231.286 164.521 239.112 164.521 239.112C164.521 239.112 169.149 227.471 174.564 230.699L149.753 271.784Z" fill="#878CF0"/>
<path d="M174.662 230.797C174.662 230.797 181.653 233.439 172.201 243.514C172.201 243.514 179.191 238.916 181.85 243.318C184.409 247.72 168.853 252.611 168.853 252.611C168.853 252.611 177.222 250.459 178.108 256.133C178.994 261.709 162.257 263.274 162.257 263.274C162.257 263.274 169.05 263.372 169.838 267.284C170.626 271.197 155.66 275.208 149.95 271.784L174.662 230.797Z" fill="#878CF0"/>
<path d="M159.303 268.067C158.122 268.165 156.941 268.067 155.759 267.969C154.873 267.871 153.987 267.774 153.101 267.578L159.008 257.405C160.19 257.6 161.469 257.796 162.749 257.796C164.128 257.894 165.506 257.796 166.885 257.698C168.263 257.6 169.641 257.307 170.921 257.013C172.201 256.72 173.58 256.329 174.859 255.742C173.58 256.231 172.3 256.524 170.921 256.818C169.543 257.111 168.263 257.307 166.885 257.307C165.506 257.405 164.128 257.405 162.848 257.307C161.666 257.209 160.583 257.013 159.402 256.818L164.029 248.894C165.309 248.796 166.688 248.699 167.968 248.405C168.657 248.307 169.346 248.112 169.937 247.916C170.626 247.72 171.217 247.525 171.906 247.329C173.186 246.84 174.466 246.351 175.647 245.764C176.829 245.177 178.01 244.492 179.191 243.71C178.01 244.492 176.829 245.079 175.647 245.666C174.367 246.253 173.186 246.742 171.807 247.133C171.118 247.329 170.527 247.525 169.838 247.623C169.149 247.72 168.558 247.916 167.869 248.014C166.688 248.21 165.506 248.307 164.423 248.307L173.284 233.047L163.832 248.014C163.34 247.036 162.848 245.96 162.454 244.884C161.962 243.612 161.568 242.438 161.273 241.166C160.977 239.895 160.682 238.623 160.485 237.351C160.288 236.08 160.091 234.71 159.993 233.439C159.993 234.71 160.091 236.08 160.288 237.351C160.485 238.623 160.682 239.993 160.977 241.264C161.273 242.536 161.666 243.808 162.06 245.079C162.454 246.253 162.946 247.427 163.537 248.601L158.614 256.426C157.827 255.644 157.039 254.763 156.448 253.883C155.759 252.807 155.07 251.633 154.479 250.459C153.888 249.286 153.396 248.014 153.002 246.742C152.608 245.471 152.215 244.199 152.018 242.927C152.215 244.199 152.51 245.568 152.904 246.84C153.298 248.112 153.691 249.383 154.184 250.557C154.676 251.731 155.365 253.003 156.054 254.079C156.744 255.057 157.433 256.035 158.319 256.916L152.116 266.795C151.427 266.013 150.836 265.23 150.246 264.35C149.458 263.274 148.769 262.198 148.178 261.024C147.489 259.85 146.898 258.774 146.406 257.6C145.815 256.426 145.323 255.253 144.929 253.981C145.323 255.253 145.815 256.426 146.307 257.698C146.8 258.872 147.39 260.046 147.981 261.22C148.572 262.393 149.261 263.469 149.95 264.643C150.541 265.622 151.23 266.502 151.919 267.382L144.634 278.925L146.209 279.805L153.101 267.969C154.085 268.165 155.07 268.263 156.054 268.263C157.236 268.263 158.417 268.263 159.599 268.165C160.78 268.067 161.962 267.871 163.143 267.676C164.325 267.48 165.506 267.187 166.589 266.893C165.408 267.187 164.226 267.382 163.143 267.48C161.666 267.871 160.485 267.969 159.303 268.067Z" fill="#56548C"/>
<path d="M87.1349 272.956C87.1349 272.956 80.44 275.5 74.7295 272.369C70.3975 270.022 71.0867 265.718 77.8801 265.815C77.8801 265.815 67.6407 265.522 67.8376 259.751C67.9361 255.447 74.5326 257.403 74.5326 257.403C74.5326 257.403 63.3087 254.468 66.0654 249.871C68.0345 246.545 72.662 250.262 72.662 250.262C72.662 250.262 67.1484 242.534 71.4805 240.48L87.1349 272.956Z" fill="#878CF0"/>
<path d="M71.4805 240.481C71.4805 240.481 76.0094 237.155 78.4708 247.328C78.4708 247.328 78.4708 241.068 82.3106 241.263C86.1504 241.459 82.8029 253.295 82.8029 253.295C82.8029 253.295 84.9689 247.23 88.8087 248.991C92.7469 250.752 86.7411 261.903 86.7411 261.903C86.7411 261.903 89.5963 257.795 92.4515 258.871C95.2083 259.947 91.6639 271.001 87.0365 273.153L71.4805 240.481Z" fill="#878CF0"/>
<path d="M88.7102 265.425C88.2179 266.208 87.7257 266.893 87.2334 267.578C86.8396 268.067 86.3473 268.654 85.855 269.143L81.9168 261.219C82.5075 260.534 83.1967 259.85 83.689 259.067C84.2797 258.285 84.8704 257.404 85.2643 256.426C85.7565 255.546 86.1504 254.567 86.5442 253.589C86.938 252.611 87.2334 251.633 87.3318 250.655C87.1349 251.633 86.7411 252.611 86.4457 253.589C86.0519 254.567 85.6581 255.448 85.0674 256.328C84.5751 257.209 83.9843 258.089 83.3936 258.871C82.9013 259.556 82.3106 260.241 81.7199 260.828L78.6677 254.665C79.16 253.785 79.6523 252.904 79.9477 252.024C80.1446 251.535 80.3415 251.046 80.4399 250.557C80.5384 250.068 80.7353 249.579 80.8338 249.089C81.1291 248.111 81.326 247.133 81.4245 246.057C81.523 245.079 81.6214 244.003 81.6214 243.025C81.6214 244.003 81.523 245.079 81.326 246.057C81.1291 247.035 80.9322 248.013 80.6369 248.992C80.5384 249.481 80.3415 249.97 80.1446 250.459C79.9477 250.948 79.7508 251.437 79.5538 251.828C79.16 252.611 78.7662 253.394 78.2739 254.176L72.3666 242.34L77.9786 254.372C77.0925 254.274 76.3048 254.176 75.4187 253.98C74.4342 253.785 73.4496 253.491 72.5635 253.198C71.5789 252.904 70.6928 252.513 69.8067 252.122C68.9206 251.731 68.0345 251.241 67.1484 250.752C68.0345 251.241 68.8222 251.731 69.8067 252.22C70.6928 252.611 71.5789 253.1 72.5635 253.394C73.4496 253.785 74.4342 254.078 75.4187 254.274C76.3048 254.567 77.2894 254.665 78.2739 254.763L81.2276 261.024C80.4399 261.219 79.5538 261.317 78.6677 261.317C77.6832 261.317 76.6986 261.219 75.7141 261.121C74.7295 260.926 73.745 260.73 72.7604 260.534C71.7759 260.241 70.8898 259.948 69.9052 259.556C70.7913 259.948 71.7759 260.339 72.662 260.632C73.6465 260.926 74.6311 261.219 75.6156 261.317C76.6002 261.513 77.5847 261.61 78.5693 261.61C79.4554 261.61 80.3415 261.513 81.326 261.317L84.9689 269.338C84.1813 269.436 83.3936 269.534 82.606 269.534C81.6214 269.534 80.6369 269.534 79.6523 269.436C78.6677 269.338 77.6832 269.24 76.6986 269.143C75.7141 269.045 74.7295 268.849 73.8434 268.556C74.828 268.849 75.7141 269.045 76.6986 269.24C77.6832 269.436 78.6677 269.534 79.6523 269.632C80.6369 269.73 81.6214 269.827 82.606 269.827C83.4921 269.827 84.2797 269.827 85.1658 269.73L89.4979 279.023L90.6793 278.436L86.0519 269.24C86.5442 268.654 87.0365 268.164 87.4303 267.48C87.9226 266.795 88.4148 266.012 88.8087 265.23C89.2025 264.447 89.5963 263.665 89.9901 262.882C90.384 262.1 90.6793 261.219 90.9747 260.437C90.6793 261.317 90.2855 262.1 89.8917 262.882C89.5963 263.958 89.104 264.741 88.7102 265.425Z" fill="#56548C"/>
<path d="M266.226 210.647C266.226 210.647 259.038 209.962 255.297 204.679C252.442 200.669 255.002 197.147 261.007 200.082C261.007 200.082 251.95 195.387 254.608 190.202C256.577 186.387 261.598 191.082 261.598 191.082C261.598 191.082 252.836 183.648 257.266 180.616C260.417 178.464 263.075 183.844 263.075 183.844C263.075 183.844 261.598 174.551 266.324 174.551L266.226 210.647Z" fill="#878CF0"/>
<path d="M266.521 174.551C266.521 174.551 272.034 173.573 269.868 183.746C269.868 183.746 272.625 178.17 275.973 179.931C279.32 181.79 271.148 190.887 271.148 190.887C271.148 190.887 275.776 186.289 278.533 189.615C281.289 192.941 270.951 200.278 270.951 200.278C270.951 200.278 275.382 197.832 277.351 199.984C279.419 202.234 271.247 210.549 266.226 210.451L266.521 174.551Z" fill="#878CF0"/>
<path d="M270.952 204.582C270.164 205.071 269.475 205.463 268.687 205.854C268.096 206.147 267.407 206.441 266.817 206.636L266.718 197.833C267.604 197.539 268.49 197.148 269.278 196.659C270.164 196.17 271.05 195.583 271.838 194.996C272.625 194.409 273.413 193.724 274.201 193.039C274.89 192.355 275.678 191.572 276.268 190.79C275.678 191.572 274.89 192.355 274.102 192.942C273.315 193.626 272.527 194.213 271.739 194.8C270.853 195.387 270.066 195.876 269.081 196.365C268.293 196.757 267.506 197.05 266.718 197.344L266.62 190.496C267.407 189.909 268.195 189.322 268.983 188.735C269.376 188.442 269.77 188.051 270.066 187.659C270.459 187.268 270.755 186.877 271.05 186.485C271.739 185.703 272.33 184.92 272.921 184.04C273.512 183.16 274.004 182.279 274.398 181.399C273.905 182.279 273.413 183.16 272.822 184.04C272.232 184.92 271.641 185.703 270.952 186.388C270.656 186.779 270.263 187.072 269.869 187.464C269.475 187.757 269.081 188.148 268.687 188.442C267.998 189.029 267.309 189.518 266.521 190.007L266.423 176.801L266.127 190.105C265.438 189.616 264.651 189.224 264.06 188.638C263.272 188.051 262.583 187.366 261.894 186.681C261.205 185.996 260.515 185.214 259.925 184.529C259.334 183.747 258.645 182.964 258.152 182.181C258.645 183.062 259.235 183.844 259.826 184.627C260.417 185.409 261.106 186.192 261.795 186.877C262.485 187.562 263.174 188.246 263.961 188.931C264.651 189.518 265.438 190.105 266.226 190.594L266.029 197.539C265.241 197.344 264.355 197.05 263.666 196.757C262.78 196.365 261.894 195.876 261.106 195.289C260.318 194.702 259.531 194.115 258.743 193.431C257.956 192.746 257.266 192.061 256.577 191.377C257.168 192.159 257.857 192.844 258.645 193.529C259.334 194.213 260.122 194.898 260.909 195.485C261.697 196.072 262.583 196.561 263.469 197.05C264.257 197.441 265.143 197.735 266.029 198.028L265.832 206.832C265.143 206.539 264.355 206.343 263.666 205.952C262.78 205.56 261.894 205.071 261.008 204.582C260.122 204.093 259.334 203.604 258.546 203.017C257.759 202.43 256.971 201.843 256.183 201.256C256.873 201.941 257.66 202.528 258.448 203.115C259.235 203.702 260.023 204.289 260.909 204.778C261.697 205.267 262.583 205.756 263.469 206.245C264.257 206.636 264.946 206.93 265.734 207.223L265.537 217.495H266.915L266.817 207.223C267.506 206.93 268.195 206.636 268.884 206.245C269.672 205.854 270.459 205.365 271.149 204.778C271.838 204.289 272.625 203.702 273.216 203.115C273.905 202.528 274.595 201.941 275.185 201.256C274.595 201.843 273.905 202.43 273.216 203.017C272.429 203.506 271.641 204.093 270.952 204.582Z" fill="#56548C"/>
<path d="M261.5 223.952C261.5 223.952 256.675 227.18 251.556 225.713C247.716 224.637 247.421 221.115 252.836 219.941C252.836 219.941 244.664 221.604 243.679 216.909C242.99 213.485 248.504 213.876 248.504 213.876C248.504 213.876 239.052 213.583 240.43 209.475C241.316 206.54 245.747 208.594 245.747 208.594C245.747 208.594 240.036 203.508 243.089 201.062L261.5 223.952Z" fill="#878CF0"/>
<path d="M243.089 200.963C243.089 200.963 246.043 197.539 249.882 205.071C249.882 205.071 248.799 200.083 251.851 199.496C254.904 198.909 254.411 208.886 254.411 208.886C254.411 208.886 255.002 203.702 258.448 204.387C261.894 205.071 259.137 214.951 259.137 214.951C259.137 214.951 260.614 211.136 263.075 211.528C265.537 211.919 264.651 221.31 261.402 223.853L243.089 200.963Z" fill="#878CF0"/>
<path d="M261.401 217.689C261.205 218.374 260.909 219.059 260.614 219.646C260.417 220.135 260.122 220.624 259.826 221.113L255.199 215.537C255.593 214.852 255.888 214.168 256.183 213.483C256.479 212.7 256.774 211.918 256.971 211.135C257.168 210.353 257.365 209.472 257.463 208.69C257.562 207.907 257.66 207.027 257.562 206.244C257.562 207.027 257.463 207.907 257.365 208.69C257.266 209.472 257.069 210.353 256.774 211.135C256.577 211.918 256.282 212.7 255.888 213.483C255.593 214.168 255.297 214.755 254.903 215.342L251.359 211.037C251.556 210.255 251.851 209.472 251.95 208.69C252.048 208.298 252.048 207.907 252.147 207.418C252.147 207.027 252.245 206.635 252.245 206.146C252.245 205.364 252.245 204.483 252.147 203.701C252.048 202.918 251.95 202.038 251.753 201.255C251.95 202.038 252.048 202.918 252.048 203.701C252.147 204.483 252.147 205.364 252.048 206.146C252.048 206.538 251.95 206.929 251.95 207.418C251.851 207.809 251.851 208.201 251.753 208.592C251.654 209.277 251.457 209.961 251.162 210.646L244.27 202.331L250.867 210.94C250.177 211.037 249.488 211.135 248.799 211.135C248.011 211.135 247.224 211.135 246.338 211.037C245.55 210.94 244.762 210.842 243.975 210.646C243.187 210.45 242.399 210.255 241.612 210.059C242.399 210.353 243.187 210.548 243.975 210.744C244.762 210.94 245.55 211.037 246.338 211.233C247.125 211.331 247.913 211.429 248.799 211.429C249.587 211.429 250.374 211.429 251.162 211.331L254.608 215.831C254.017 216.124 253.328 216.32 252.639 216.515C251.851 216.711 251.064 216.809 250.276 216.907C249.488 217.004 248.701 217.004 247.815 216.907C247.027 216.907 246.239 216.809 245.353 216.711C246.141 216.907 246.928 217.004 247.815 217.004C248.602 217.102 249.488 217.102 250.276 217.102C251.064 217.102 251.95 217.004 252.737 216.809C253.427 216.613 254.116 216.418 254.805 216.124L259.235 221.798C258.645 221.993 258.054 222.189 257.463 222.385C256.676 222.58 255.888 222.776 255.1 222.874C254.313 222.972 253.525 223.069 252.737 223.167C251.95 223.265 251.162 223.265 250.374 223.265C251.162 223.265 251.95 223.265 252.737 223.265C253.525 223.265 254.313 223.167 255.1 223.069C255.888 222.972 256.676 222.874 257.463 222.678C258.152 222.58 258.743 222.385 259.432 222.091L264.552 228.743L265.438 228.058L260.122 221.602C260.417 221.113 260.712 220.526 260.909 219.939C261.205 219.254 261.401 218.57 261.598 217.885C261.795 217.2 261.992 216.515 262.091 215.733C262.189 215.048 262.288 214.265 262.386 213.581C262.288 214.265 262.189 215.048 261.992 215.733C261.795 216.32 261.598 217.004 261.401 217.689Z" fill="#56548C"/>
<path d="M112.044 225.805C112.832 227.566 115.096 228.74 118.247 229.718C118.837 232.066 119.822 234.316 120.019 236.663C120.216 235.881 120.314 235 120.314 234.218C120.314 232.848 120.117 231.479 119.92 230.207C121.299 230.598 122.776 230.892 124.351 231.283C125.335 233.826 125.631 236.663 125.532 239.402C125.532 241.456 125.237 243.413 124.942 245.369C125.434 244.587 125.926 243.706 126.32 242.924C126.714 242.043 127.108 241.163 127.403 240.283C127.6 239.402 127.698 238.424 127.698 237.544C127.698 235.685 127.501 233.729 127.206 231.87C128.88 232.261 130.652 232.653 132.424 233.044C132.523 233.533 132.621 233.924 132.72 234.413C133.507 239.011 133.015 243.706 131.44 248.01C131.637 247.815 131.735 247.619 131.834 247.424C132.621 246.347 133.31 245.271 134 244.098C134.393 243.315 134.787 242.532 134.984 241.652C135.673 239.109 135.181 236.468 134.886 233.729C136.855 234.316 138.725 235 140.399 235.783C140.399 237.446 140.301 239.109 140.202 240.772C140.104 241.554 140.104 242.239 139.907 243.022C139.71 244 139.316 244.88 139.021 245.761C137.642 249.38 135.969 252.999 133.606 256.032C134.196 255.64 134.689 255.054 135.279 254.564C139.907 249.967 142.565 243.608 143.057 237.055C144.534 237.935 145.913 239.011 146.996 240.283C147.685 241.065 148.276 241.848 148.866 242.63C148.866 244.489 148.669 246.445 148.374 248.304C148.079 249.771 147.783 251.238 147.094 252.51C146.7 253.293 146.11 253.977 145.617 254.662C142.861 258.086 139.415 260.923 135.87 263.564C141.384 261.803 146.503 258.282 149.654 253.488C150.54 252.119 151.328 250.652 152.115 249.282C153.789 254.956 152.903 260.825 148.473 265.325C141.581 272.368 131.834 269.824 131.834 269.824L112.044 225.805Z" fill="#B1B2F3"/>
<path d="M131.637 269.924C131.637 269.924 125.237 280.195 114.702 279.901C109.287 279.804 104.758 275.891 101.903 271.195C102.986 271.684 104.069 272.076 105.152 272.369C108.5 273.347 112.044 273.054 115.392 272.076C117.754 271.391 120.019 270.413 122.185 269.239C119.822 269.532 117.361 269.63 114.899 269.63C113.619 269.63 112.339 269.728 111.059 269.435C109.878 269.239 108.795 268.75 107.712 268.359C106.432 267.869 105.152 267.38 103.971 266.696C101.706 265.424 99.8355 263.663 98.2602 261.609C98.0633 260.435 98.0633 259.359 98.2602 258.381C98.4571 257.011 98.7525 255.74 99.0479 254.37C99.8355 255.055 100.525 255.838 101.312 256.522C102.1 257.305 102.986 258.087 103.872 258.772C104.857 259.457 105.841 260.044 106.924 260.435C110.272 261.902 113.915 262.587 117.558 262.489C115.884 262.098 114.21 261.511 112.635 260.826C111.256 260.239 109.976 259.457 108.598 258.674C107.417 257.99 106.235 257.305 105.054 256.522C103.085 255.153 101.411 253.588 99.8355 251.827C100.426 250.164 101.115 248.599 101.805 247.034C102.789 248.403 103.872 249.577 105.054 250.653C107.318 252.707 110.075 254.175 113.127 254.37C113.619 254.468 114.112 254.468 114.702 254.468C111.946 253.392 109.386 251.925 107.023 250.066C106.334 249.577 105.743 248.99 105.251 248.305C104.266 247.229 103.577 245.958 102.986 244.588C103.774 243.121 104.561 241.654 105.447 240.284C106.629 242.338 108.204 244.099 110.075 245.469C111.552 246.545 113.127 247.327 114.899 247.816C113.521 246.936 112.339 245.762 111.355 244.49C109.583 242.24 108.401 239.599 107.515 236.958C108.106 235.98 108.697 235.002 109.287 234.024C110.272 235.784 111.65 237.252 113.127 238.523C111.749 236.665 110.764 234.708 110.075 232.458C111.749 229.426 112.635 227.078 111.946 225.513L131.637 269.924Z" fill="#B1B2F3"/>
<path d="M141.679 264.152C140.793 264.641 139.907 265.032 139.021 265.424C138.135 265.717 137.15 266.108 136.166 266.304C134.394 266.695 132.523 266.891 130.652 266.793L128.782 262.783C130.849 262 132.818 261.022 134.591 259.848C135.083 259.554 135.575 259.163 136.067 258.87C136.56 258.478 136.954 258.185 137.446 257.794C138.332 257.011 139.12 256.229 139.907 255.348C141.482 253.587 142.664 251.631 143.648 249.577C144.633 247.425 145.322 245.273 145.519 242.925C145.224 245.175 144.535 247.425 143.55 249.479C142.565 251.533 141.286 253.49 139.71 255.153C138.923 256.033 138.135 256.815 137.249 257.5C136.855 257.891 136.363 258.185 135.87 258.576C135.378 258.87 134.886 259.261 134.394 259.554C132.523 260.728 130.554 261.609 128.585 262.391L126.32 257.402L128.388 255.837C129.077 255.25 129.865 254.566 130.554 253.979L131.538 253C131.735 252.805 131.932 252.707 132.031 252.511L132.523 251.924C132.818 251.533 133.114 251.24 133.508 250.848L134.394 249.675C135.477 248.109 136.363 246.349 136.954 244.588C137.544 242.729 137.938 240.871 137.643 238.914C137.741 240.871 137.347 242.729 136.757 244.49C136.067 246.251 135.181 247.914 134.098 249.479L133.212 250.653C132.917 251.044 132.621 251.338 132.228 251.729L131.735 252.218C131.538 252.414 131.342 252.511 131.243 252.707L130.16 253.685C129.471 254.272 128.683 254.859 127.896 255.446L125.828 256.815L124.056 253C124.548 252.414 125.04 251.827 125.533 251.24L126.222 250.261C126.32 250.066 126.517 249.968 126.616 249.772L126.911 249.283L127.6 248.207L128.191 247.131C128.289 246.936 128.388 246.74 128.486 246.544L128.683 245.957C128.782 245.566 128.979 245.175 129.077 244.784C129.668 243.218 129.963 241.653 130.062 239.99C130.16 238.327 130.16 236.762 129.766 235.197C130.062 236.762 130.062 238.425 129.865 239.99C129.668 241.555 129.274 243.121 128.683 244.686C128.585 245.077 128.388 245.468 128.191 245.762L127.994 246.349C127.896 246.544 127.797 246.74 127.699 246.838L127.108 247.914L126.419 248.892L126.123 249.381C126.025 249.577 125.926 249.675 125.73 249.87L124.942 250.848C124.548 251.338 124.056 251.827 123.564 252.316L120.807 246.349H120.905C121.299 245.273 121.594 244.197 121.791 243.121C121.988 242.045 122.185 240.969 122.185 239.795C122.382 237.643 122.382 235.393 122.185 233.241C122.284 235.393 122.185 237.643 121.89 239.795C121.791 240.871 121.594 241.947 121.299 243.023C121.102 243.903 120.807 244.784 120.511 245.566L114.604 232.654L120.314 245.86C119.231 245.762 118.148 245.468 117.065 245.077C115.884 244.588 114.801 244.001 113.816 243.218C112.832 242.436 111.946 241.555 111.06 240.675C110.272 239.697 109.484 238.719 108.795 237.643C109.386 238.719 110.174 239.795 110.961 240.773C111.749 241.751 112.635 242.631 113.62 243.512C114.604 244.294 115.687 244.979 116.869 245.566C118.05 246.153 119.33 246.446 120.61 246.544L123.17 252.511C122.481 252.609 121.693 252.609 121.004 252.609C120.118 252.609 119.33 252.511 118.444 252.316C116.77 252.022 115.096 251.435 113.62 250.751C112.044 250.066 110.567 249.185 109.091 248.305C107.712 247.327 106.334 246.349 105.054 245.175C106.235 246.349 107.614 247.425 108.992 248.501C110.37 249.479 111.847 250.359 113.423 251.142C114.998 251.924 116.672 252.511 118.345 252.805C119.231 253 120.118 253.098 120.905 253.196C121.693 253.196 122.481 253.196 123.367 253.098L125.04 257.011C123.17 257.696 121.201 258.185 119.231 258.185C117.164 258.283 114.998 257.989 112.93 257.402C110.863 256.815 108.894 256.033 107.023 255.055C105.152 254.076 103.38 252.903 101.706 251.533C103.282 252.903 105.054 254.174 106.925 255.25C108.795 256.326 110.764 257.207 112.832 257.794C114.899 258.381 117.065 258.772 119.231 258.772C121.299 258.772 123.367 258.381 125.237 257.696L127.403 262.783C125.434 263.859 123.268 264.837 121.004 265.424C119.822 265.717 118.641 265.913 117.459 266.011C116.278 266.108 114.998 266.108 113.816 266.011C111.355 265.815 108.992 265.228 106.728 264.348C105.645 263.859 104.463 263.369 103.479 262.685C102.396 262.098 101.411 261.315 100.525 260.533C101.411 261.315 102.396 262.098 103.479 262.783C104.562 263.467 105.645 264.054 106.728 264.543C108.992 265.521 111.355 266.206 113.816 266.402C114.998 266.5 116.278 266.5 117.558 266.402C118.838 266.304 120.019 266.108 121.201 265.815C123.465 265.228 125.631 264.445 127.699 263.369L129.471 267.38C128.191 269.043 126.714 270.51 125.04 271.782C124.647 272.173 124.154 272.467 123.662 272.76C123.17 273.054 122.776 273.347 122.284 273.641C121.299 274.228 120.314 274.619 119.231 275.01C117.164 275.793 114.899 276.086 112.733 276.184C110.469 276.184 108.303 275.89 106.137 275.206C108.204 275.988 110.469 276.282 112.733 276.38C114.998 276.38 117.262 276.086 119.33 275.401C120.413 275.01 121.398 274.619 122.481 274.13C122.973 273.934 123.465 273.543 123.957 273.347C124.45 273.054 124.942 272.76 125.336 272.369C127.009 271.195 128.486 269.826 129.766 268.26L134.787 279.999L135.969 279.51L130.652 267.967C132.425 267.967 134.197 267.771 135.969 267.282C136.954 266.989 137.938 266.695 138.824 266.304C139.71 265.913 140.695 265.521 141.482 264.935C143.255 263.956 144.83 262.685 146.208 261.315C147.685 259.946 148.965 258.478 150.048 256.718C148.965 258.381 147.587 259.848 146.11 261.12C145.027 262 143.353 263.174 141.679 264.152Z" fill="#56548C"/>
<path d="M237.772 215.144C238.067 216.122 237.87 217.296 237.87 218.372C237.87 219.546 237.772 220.622 238.264 221.698C238.658 222.676 240.332 222.382 240.529 221.404C240.824 220.133 240.332 218.959 239.84 217.883C239.643 217.394 239.347 216.904 239.052 216.513C238.757 216.024 238.363 215.633 238.067 215.144C237.969 214.85 237.674 214.948 237.772 215.144Z" fill="#B1B2F3"/>
<path d="M231.471 220.229C232.456 220.816 232.751 221.99 233.243 222.968C233.736 223.947 234.425 225.414 235.705 225.609C236.689 225.707 237.378 224.827 236.886 223.947C236.591 223.36 236.099 223.066 235.606 222.675C235.212 222.284 234.819 221.892 234.326 221.403C233.932 221.012 233.44 220.718 232.948 220.425C232.554 220.132 232.062 219.936 231.57 219.74C231.373 219.74 231.274 220.132 231.471 220.229Z" fill="#B1B2F3"/>
<path d="M246.731 215.928C246.239 216.025 245.944 216.221 245.55 216.612C245.156 217.004 244.861 217.493 244.565 217.884C244.27 218.275 243.876 218.764 243.482 219.254C243.088 219.84 242.301 220.427 242.202 221.112C242.005 221.992 242.695 222.971 243.679 222.677C244.959 222.286 245.944 220.525 246.239 219.254C246.338 218.764 246.338 218.275 246.436 217.786C246.534 217.395 246.534 216.612 246.928 216.319C247.125 216.123 246.928 215.83 246.731 215.928Z" fill="#B1B2F3"/>
<path d="M228.812 228.742C229.206 229.035 229.797 229.133 230.191 229.231C230.781 229.427 231.372 229.622 231.963 229.72C233.341 229.916 234.917 229.524 236.098 228.938C236.886 228.546 236.787 227.079 235.803 226.883C234.424 226.688 233.243 227.47 231.865 227.568C231.274 227.568 230.683 227.666 230.092 227.764C229.6 227.862 228.911 227.959 228.615 228.448C228.714 228.448 228.714 228.644 228.812 228.742Z" fill="#B1B2F3"/>
<path d="M249.586 226.297C249.094 226.297 248.503 225.905 248.011 225.71C247.42 225.416 246.928 225.123 246.337 224.927C245.648 224.634 245.254 224.438 244.565 224.145C243.778 223.851 242.793 223.949 242.596 224.927C242.301 226.59 244.861 227.177 246.042 227.177C246.731 227.177 247.322 227.079 248.011 226.981C248.503 226.884 248.996 226.688 249.488 226.492C249.685 226.394 249.685 226.297 249.586 226.297Z" fill="#B1B2F3"/>
<path d="M246.436 231.969C246.239 231.285 245.648 230.6 245.255 229.915C244.861 229.133 244.467 228.154 243.876 227.567C243.089 226.785 241.513 227.567 241.907 228.741C242.301 229.817 243.187 230.502 244.073 231.089C244.664 231.578 245.55 232.165 246.436 232.165C246.436 232.165 246.436 232.067 246.436 231.969Z" fill="#B1B2F3"/>
<path d="M235.606 234.512C235.803 234.219 236.098 234.023 236.394 233.73C236.787 233.339 237.083 232.947 237.477 232.556C238.166 231.773 239.347 230.697 239.15 229.621C238.953 228.937 238.067 228.545 237.477 228.937C236.984 229.23 236.689 229.817 236.394 230.306C236.098 230.795 235.803 231.284 235.508 231.773C235.114 232.556 234.621 233.534 235.114 234.415C235.311 234.61 235.508 234.61 235.606 234.512Z" fill="#B1B2F3"/>
<path d="M248.208 226.393C246.633 226.393 245.255 225.61 243.778 225.219C242.695 224.925 241.415 225.023 240.332 225.317C240.43 225.023 240.627 224.827 240.824 224.632C241.513 223.947 242.104 223.164 242.596 222.382C243.187 221.502 243.778 220.621 244.369 219.741C244.664 219.252 244.959 218.86 245.156 218.371C245.353 217.98 245.452 217.491 245.845 217.197C245.845 217.197 245.845 217.1 245.747 217.1C245.452 217.295 245.353 217.687 245.156 217.98C244.861 218.567 244.565 219.056 244.172 219.545C243.482 220.523 242.793 221.599 242.104 222.578C241.809 223.067 241.415 223.458 241.021 223.947C240.726 224.338 240.332 224.632 240.036 225.023C240.036 225.121 239.938 225.121 239.938 225.219C239.938 225.023 239.938 224.827 239.84 224.632C239.741 223.849 239.544 222.969 239.446 222.186C239.347 221.404 239.249 220.523 239.052 219.741C238.855 218.763 238.461 217.784 238.166 216.806C238.166 216.708 238.067 216.806 238.067 216.806C238.363 217.687 238.658 218.567 238.855 219.447C239.052 220.328 239.052 221.11 239.15 221.991C239.249 222.773 239.446 223.654 239.544 224.436C239.643 224.827 239.643 225.317 239.643 225.708C238.363 225.317 236.984 225.317 235.901 224.534C234.72 223.849 233.834 222.675 233.145 221.502C233.145 221.502 233.046 221.502 233.145 221.502C233.834 222.675 234.621 223.751 235.704 224.534C236.787 225.317 238.166 225.61 239.446 225.903C238.264 226.686 236.886 227.077 235.508 227.469C234.031 227.86 232.455 228.349 230.979 228.545C230.88 228.545 230.979 228.642 230.979 228.642C232.554 228.447 234.129 227.958 235.704 227.566C237.083 227.273 238.363 226.882 239.544 226.197C239.446 226.49 239.446 226.784 239.347 227.077C239.052 227.762 238.658 228.349 238.363 228.936C237.575 230.208 236.787 231.479 236 232.849C236.787 231.577 237.772 230.403 238.461 229.132C238.855 228.545 239.15 227.958 239.446 227.371C239.544 227.175 239.643 226.882 239.741 226.686C239.741 226.882 239.741 226.979 239.741 227.175C239.84 228.349 240.135 229.523 240.332 230.697C240.627 232.555 240.824 234.414 241.021 236.175C241.316 238.033 241.415 239.99 241.513 241.946C241.612 243.805 241.612 245.663 242.104 247.424C242.301 248.207 243.482 247.913 243.286 247.13C242.892 245.272 242.695 243.511 242.596 241.653C242.399 239.794 242.104 238.131 241.809 236.272C241.513 234.512 241.218 232.751 240.824 230.99C240.529 229.621 240.135 228.251 240.036 226.882L240.135 226.784C240.135 226.686 240.135 226.686 240.135 226.588C240.824 227.469 242.006 227.958 242.695 228.74C243.187 229.229 243.581 229.621 243.975 230.208C244.369 230.697 244.664 231.088 245.156 231.479C245.255 231.479 245.255 231.381 245.255 231.381C244.664 230.99 244.27 230.403 243.876 229.914C243.581 229.523 243.187 229.132 242.793 228.74C241.907 227.86 240.824 227.273 240.135 226.197C240.135 226.099 240.135 226.099 240.135 226.001V225.903C241.415 225.414 242.892 225.414 244.172 225.806C245.648 225.903 246.83 226.49 248.208 226.393C248.307 226.393 248.307 226.393 248.208 226.393Z" fill="#56548C"/>
<path d="M270.54 88.7662C270.54 87.3995 267.946 86.2036 264.142 85.6911C263.796 81.9327 262.586 79.3701 261.202 79.3701C259.819 79.3701 258.608 81.9327 258.089 85.6911C254.285 86.0328 251.691 87.2286 251.691 88.5953C251.691 89.962 254.285 91.1579 258.089 91.6704C258.435 95.4288 259.646 97.9914 261.029 97.9914C262.413 97.9914 263.623 95.4288 264.142 91.6704C267.773 91.1579 270.54 90.1329 270.54 88.7662Z" fill="#FFE48F"/>
<path d="M19.9581 103.649C19.9581 102.202 17.2116 100.936 13.1834 100.393C12.8172 96.414 11.5355 93.7007 10.0707 93.7007C8.60593 93.7007 7.32423 96.414 6.77493 100.393C2.74674 100.755 0.000244141 102.021 0.000244141 103.469C0.000244141 104.916 2.74674 106.182 6.77493 106.724C7.14113 110.704 8.42283 113.417 9.88763 113.417C11.3524 113.417 12.6341 110.704 13.1834 106.724C17.0285 106.182 19.9581 105.097 19.9581 103.649Z" fill="#9FADF0"/>
<path d="M208.449 13.265C208.449 11.3355 204.787 9.64727 199.416 8.92372C198.928 3.61772 197.219 0 195.266 0C193.313 0 191.604 3.61772 190.872 8.92372C185.501 9.40608 181.839 11.0943 181.839 13.0238C181.839 14.9533 185.501 16.6415 190.872 17.3651C191.36 22.6711 193.069 26.2888 195.022 26.2888C196.975 26.2888 198.684 22.6711 199.416 17.3651C204.543 16.6415 208.449 15.1945 208.449 13.265Z" fill="#9FADF0"/>
<rect width="11.686" height="11.686" transform="matrix(0.797688 -0.60307 0.797688 0.60307 202.697 134.921)" fill="#E02287" fill-opacity="0.6"/>
</svg>
