<svg width="34" height="34" viewBox="0 0 34 34" fill="none" xmlns="http://www.w3.org/2000/svg">
<g opacity="0.6">
<path fill-rule="evenodd" clip-rule="evenodd" d="M22.6666 15.5835H18.4166V11.3335C18.4166 10.5501 17.7819 9.91683 16.9999 9.91683C16.2179 9.91683 15.5833 10.5501 15.5833 11.3335V17.0002C15.5833 17.7836 16.2179 18.4168 16.9999 18.4168H22.6666C23.45 18.4168 24.0833 17.7836 24.0833 17.0002C24.0833 16.2167 23.45 15.5835 22.6666 15.5835M16.9999 28.3335C10.751 28.3335 5.66659 23.2491 5.66659 17.0002C5.66659 10.7512 10.751 5.66683 16.9999 5.66683C23.2488 5.66683 28.3332 10.7512 28.3332 17.0002C28.3332 23.2491 23.2488 28.3335 16.9999 28.3335M16.9999 2.8335C9.18842 2.8335 2.83325 9.18866 2.83325 17.0002C2.83325 24.8117 9.18842 31.1668 16.9999 31.1668C24.8114 31.1668 31.1666 24.8117 31.1666 17.0002C31.1666 9.18866 24.8114 2.8335 16.9999 2.8335" fill="#231F20"/>
<mask id="mask0_2603_369" style="mask-type:luminance" maskUnits="userSpaceOnUse" x="2" y="2" width="30" height="30">
<path fill-rule="evenodd" clip-rule="evenodd" d="M22.6666 15.5835H18.4166V11.3335C18.4166 10.5501 17.7819 9.91683 16.9999 9.91683C16.2179 9.91683 15.5833 10.5501 15.5833 11.3335V17.0002C15.5833 17.7836 16.2179 18.4168 16.9999 18.4168H22.6666C23.45 18.4168 24.0833 17.7836 24.0833 17.0002C24.0833 16.2167 23.45 15.5835 22.6666 15.5835M16.9999 28.3335C10.751 28.3335 5.66659 23.2491 5.66659 17.0002C5.66659 10.7512 10.751 5.66683 16.9999 5.66683C23.2488 5.66683 28.3332 10.7512 28.3332 17.0002C28.3332 23.2491 23.2488 28.3335 16.9999 28.3335M16.9999 2.8335C9.18842 2.8335 2.83325 9.18866 2.83325 17.0002C2.83325 24.8117 9.18842 31.1668 16.9999 31.1668C24.8114 31.1668 31.1666 24.8117 31.1666 17.0002C31.1666 9.18866 24.8114 2.8335 16.9999 2.8335" fill="white"/>
</mask>
<g mask="url(#mask0_2603_369)">
<rect width="34" height="34" fill="#405CE1"/>
</g>
</g>
</svg>
