<svg width="16" height="20" viewBox="0 0 16 20" fill="none" xmlns="http://www.w3.org/2000/svg">
<path fill-rule="evenodd" clip-rule="evenodd" d="M7.8958 14.1667C7.57516 14.1667 7.26846 13.9726 7.05554 13.6317L4.38585 9.38341C4.06647 8.87425 4.00247 8.15175 4.22172 7.54091C4.415 7.00175 4.79964 6.66675 5.22611 6.66675H10.5655C10.992 6.66675 11.3766 7.00175 11.5699 7.54091C11.7891 8.15175 11.7251 8.87425 11.4064 9.38258L8.73606 13.6317C8.52315 13.9726 8.21644 14.1667 7.8958 14.1667" fill="#231F20"/>
<mask id="mask0_2603_3877" style="mask-type:luminance" maskUnits="userSpaceOnUse" x="4" y="6" width="8" height="9">
<path fill-rule="evenodd" clip-rule="evenodd" d="M7.8958 14.1667C7.57516 14.1667 7.26846 13.9726 7.05554 13.6317L4.38585 9.38341C4.06647 8.87425 4.00247 8.15175 4.22172 7.54091C4.415 7.00175 4.79964 6.66675 5.22611 6.66675H10.5655C10.992 6.66675 11.3766 7.00175 11.5699 7.54091C11.7891 8.15175 11.7251 8.87425 11.4064 9.38258L8.73606 13.6317C8.52315 13.9726 8.21644 14.1667 7.8958 14.1667" fill="white"/>
</mask>
<g mask="url(#mask0_2603_3877)">
<rect x="0.291748" width="15.2083" height="20" fill="white"/>
</g>
</svg>
