<svg width="39" height="50" viewBox="0 0 39 50" fill="none" xmlns="http://www.w3.org/2000/svg">
<path fill-rule="evenodd" clip-rule="evenodd" d="M9.50612 18.7498C9.86415 18.7498 10.2238 18.9081 10.52 19.2331L19.0288 28.5581L27.5232 19.5685C28.2029 18.8456 29.2009 18.9873 29.7506 19.8852C30.2988 20.781 30.191 22.0915 29.5082 22.8144L20.003 32.8727C19.4169 33.4956 18.5757 33.4873 17.9959 32.8498L8.49065 22.4331C7.81895 21.6977 7.72865 20.3831 8.28787 19.4998C8.60154 19.006 9.05145 18.7498 9.50612 18.7498" fill="#231F20"/>
<mask id="mask0_2603_685" style="mask-type:luminance" maskUnits="userSpaceOnUse" x="7" y="18" width="24" height="16">
<path fill-rule="evenodd" clip-rule="evenodd" d="M9.50612 18.7498C9.86415 18.7498 10.2238 18.9081 10.52 19.2331L19.0288 28.5581L27.5232 19.5685C28.2029 18.8456 29.2009 18.9873 29.7506 19.8852C30.2988 20.781 30.191 22.0915 29.5082 22.8144L20.003 32.8727C19.4169 33.4956 18.5757 33.4873 17.9959 32.8498L8.49065 22.4331C7.81895 21.6977 7.72865 20.3831 8.28787 19.4998C8.60154 19.006 9.05145 18.7498 9.50612 18.7498" fill="white"/>
</mask>
<g mask="url(#mask0_2603_685)">
<rect x="38.021" y="50" width="38.0208" height="50" transform="rotate(-180 38.021 50)" fill="#6379E6"/>
</g>
</svg>
