<svg width="40" height="38" viewBox="0 0 40 38" fill="none" xmlns="http://www.w3.org/2000/svg">
<g opacity="0.6">
<path fill-rule="evenodd" clip-rule="evenodd" d="M11.6667 25.3332C11.6667 24.4623 12.4167 23.7498 13.3333 23.7498C14.25 23.7498 15 24.4623 15 25.3332C15 26.204 14.25 26.9165 13.3333 26.9165C12.4167 26.9165 11.6667 26.204 11.6667 25.3332ZM20 23.7498H26.6667C27.5833 23.7498 28.3333 24.4623 28.3333 25.3332C28.3333 26.204 27.5833 26.9165 26.6667 26.9165H20C19.0833 26.9165 18.3333 26.204 18.3333 25.3332C18.3333 24.4623 19.0833 23.7498 20 23.7498ZM30 31.6665H10C9.08167 31.6665 8.33333 30.9556 8.33333 30.0832V20.5832H31.6667V30.0832C31.6667 30.9556 30.9183 31.6665 30 31.6665M10 9.49984H11.6667V11.0832C11.6667 11.954 12.4167 12.6665 13.3333 12.6665C14.25 12.6665 15 11.954 15 11.0832V9.49984H25V11.0832C25 11.954 25.75 12.6665 26.6667 12.6665C27.5833 12.6665 28.3333 11.954 28.3333 11.0832V9.49984H30C30.9183 9.49984 31.6667 10.2108 31.6667 11.0832V17.4165H8.33333V11.0832C8.33333 10.2108 9.08167 9.49984 10 9.49984M30 6.33317H28.3333V4.74984C28.3333 3.879 27.5833 3.1665 26.6667 3.1665C25.75 3.1665 25 3.879 25 4.74984V6.33317H15V4.74984C15 3.879 14.25 3.1665 13.3333 3.1665C12.4167 3.1665 11.6667 3.879 11.6667 4.74984V6.33317H10C7.24333 6.33317 5 8.46434 5 11.0832V30.0832C5 32.702 7.24333 34.8332 10 34.8332H30C32.7567 34.8332 35 32.702 35 30.0832V11.0832C35 8.46434 32.7567 6.33317 30 6.33317" fill="#231F20"/>
<mask id="mask0_2603_370" style="mask-type:luminance" maskUnits="userSpaceOnUse" x="5" y="3" width="30" height="32">
<path fill-rule="evenodd" clip-rule="evenodd" d="M11.6667 25.3332C11.6667 24.4623 12.4167 23.7498 13.3333 23.7498C14.25 23.7498 15 24.4623 15 25.3332C15 26.204 14.25 26.9165 13.3333 26.9165C12.4167 26.9165 11.6667 26.204 11.6667 25.3332ZM20 23.7498H26.6667C27.5833 23.7498 28.3333 24.4623 28.3333 25.3332C28.3333 26.204 27.5833 26.9165 26.6667 26.9165H20C19.0833 26.9165 18.3333 26.204 18.3333 25.3332C18.3333 24.4623 19.0833 23.7498 20 23.7498ZM30 31.6665H10C9.08167 31.6665 8.33333 30.9556 8.33333 30.0832V20.5832H31.6667V30.0832C31.6667 30.9556 30.9183 31.6665 30 31.6665M10 9.49984H11.6667V11.0832C11.6667 11.954 12.4167 12.6665 13.3333 12.6665C14.25 12.6665 15 11.954 15 11.0832V9.49984H25V11.0832C25 11.954 25.75 12.6665 26.6667 12.6665C27.5833 12.6665 28.3333 11.954 28.3333 11.0832V9.49984H30C30.9183 9.49984 31.6667 10.2108 31.6667 11.0832V17.4165H8.33333V11.0832C8.33333 10.2108 9.08167 9.49984 10 9.49984M30 6.33317H28.3333V4.74984C28.3333 3.879 27.5833 3.1665 26.6667 3.1665C25.75 3.1665 25 3.879 25 4.74984V6.33317H15V4.74984C15 3.879 14.25 3.1665 13.3333 3.1665C12.4167 3.1665 11.6667 3.879 11.6667 4.74984V6.33317H10C7.24333 6.33317 5 8.46434 5 11.0832V30.0832C5 32.702 7.24333 34.8332 10 34.8332H30C32.7567 34.8332 35 32.702 35 30.0832V11.0832C35 8.46434 32.7567 6.33317 30 6.33317" fill="white"/>
</mask>
<g mask="url(#mask0_2603_370)">
<rect width="40" height="38" fill="#405CE1"/>
</g>
</g>
</svg>
