<svg width="42" height="42" viewBox="0 0 42 42" fill="none" xmlns="http://www.w3.org/2000/svg">
<path d="M21.0011 9.7998C17.9593 9.7998 17.5776 9.8131 16.3829 9.86747C15.1906 9.92207 14.3767 10.1108 13.6646 10.3878C12.9279 10.6739 12.303 11.0566 11.6805 11.6793C11.0575 12.3019 10.6748 12.9267 10.3878 13.6631C10.1102 14.3755 9.92115 15.1896 9.86748 16.3815C9.81405 17.5762 9.80005 17.9582 9.80005 20.9999C9.80005 24.0417 9.81358 24.4223 9.86772 25.6169C9.92255 26.8093 10.1113 27.6232 10.3881 28.3353C10.6744 29.0719 11.057 29.6968 11.6798 30.3194C12.3021 30.9424 12.927 31.326 13.6632 31.612C14.3758 31.889 15.1899 32.0778 16.382 32.1324C17.5767 32.1867 17.9582 32.2 20.9997 32.2C24.0417 32.2 24.4223 32.1867 25.6169 32.1324C26.8093 32.0778 27.6241 31.889 28.3367 31.612C29.0731 31.326 29.6971 30.9424 30.3194 30.3194C30.9424 29.6968 31.325 29.0719 31.612 28.3355C31.8874 27.6232 32.0764 26.809 32.1324 25.6172C32.186 24.4225 32.2001 24.0417 32.2001 20.9999C32.2001 17.9582 32.186 17.5764 32.1324 16.3817C32.0764 15.1894 31.8874 14.3755 31.612 13.6634C31.325 12.9267 30.9424 12.3019 30.3194 11.6793C29.6964 11.0563 29.0734 10.6736 28.336 10.3878C27.622 10.1108 26.8077 9.92207 25.6153 9.86747C24.4206 9.8131 24.0403 9.7998 20.9976 9.7998H21.0011Z" fill="#CFCFCF"/>
<path fill-rule="evenodd" clip-rule="evenodd" d="M19.9964 11.8182C20.1914 11.8179 20.4013 11.818 20.6278 11.8181L21.0011 11.8182C23.9915 11.8182 24.346 11.829 25.5269 11.8826C26.6189 11.9326 27.2116 12.115 27.6064 12.2683C28.129 12.4713 28.5017 12.714 28.8934 13.106C29.2855 13.498 29.5281 13.8714 29.7316 14.394C29.8849 14.7884 30.0676 15.381 30.1173 16.473C30.171 17.6537 30.1826 18.0084 30.1826 20.9974C30.1826 23.9865 30.171 24.3411 30.1173 25.5218C30.0674 26.6138 29.8849 27.2065 29.7316 27.6008C29.5286 28.1235 29.2855 28.4957 28.8934 28.8874C28.5014 29.2794 28.1293 29.5221 27.6064 29.7251C27.212 29.8791 26.6189 30.0611 25.5269 30.1111C24.3462 30.1647 23.9915 30.1764 21.0011 30.1764C18.0104 30.1764 17.656 30.1647 16.4753 30.1111C15.3833 30.0607 14.7906 29.8782 14.3956 29.7249C13.8729 29.5219 13.4996 29.2792 13.1076 28.8872C12.7156 28.4952 12.4729 28.1228 12.2694 27.5999C12.1161 27.2056 11.9334 26.6129 11.8837 25.5209C11.8301 24.3402 11.8193 23.9855 11.8193 20.9946C11.8193 18.0037 11.8301 17.6509 11.8837 16.4702C11.9337 15.3782 12.1161 14.7856 12.2694 14.3908C12.4724 13.8681 12.7156 13.4947 13.1076 13.1027C13.4996 12.7107 13.8729 12.4681 14.3956 12.2646C14.7904 12.1106 15.3833 11.9286 16.4753 11.8784C17.5085 11.8318 17.9089 11.8178 19.9964 11.8154V11.8182ZM26.9796 13.6779C26.2376 13.6779 25.6356 14.2792 25.6356 15.0215C25.6356 15.7635 26.2376 16.3655 26.9796 16.3655C27.7216 16.3655 28.3236 15.7635 28.3236 15.0215C28.3236 14.2795 27.7216 13.6775 26.9796 13.6775V13.6779ZM15.2494 21C15.2494 17.8237 17.8246 15.2484 21.0009 15.2483C24.1773 15.2483 26.7519 17.8236 26.7519 21C26.7519 24.1764 24.1775 26.7506 21.0011 26.7506C17.8247 26.7506 15.2494 24.1764 15.2494 21Z" fill="#242A34"/>
<path d="M21.0012 17.2666C23.063 17.2666 24.7346 18.938 24.7346 21C24.7346 23.0617 23.063 24.7333 21.0012 24.7333C18.9392 24.7333 17.2678 23.0617 17.2678 21C17.2678 18.938 18.9392 17.2666 21.0012 17.2666V17.2666Z" fill="#242A34"/>
</svg>
