<svg width="12" height="13" viewBox="0 0 12 13" fill="none" xmlns="http://www.w3.org/2000/svg">
<path d="M4.33388 11.7676L4.33385 11.7676L1.09829 7.02025C1.09827 7.02023 1.09826 7.02021 1.09824 7.02019C0.958368 6.81575 0.894808 6.55712 0.900608 6.30559C0.906407 6.05413 0.981757 5.80065 1.13093 5.60741L1.131 5.60731C1.28153 5.4128 1.48316 5.31169 1.69096 5.32065C1.89828 5.32958 2.09311 5.44724 2.23287 5.65251L4.33388 11.7676ZM4.33388 11.7676C4.47373 11.9725 4.67753 12.1 4.90153 12.1L4.90619 12.1L4.90718 12.1C5.13271 12.0978 5.33767 11.9661 5.47593 11.7564C5.47598 11.7563 5.47603 11.7563 5.47607 11.7562L11.5553 2.58968C11.6924 2.38301 11.7535 2.12338 11.7454 1.87196C11.7372 1.62069 11.6597 1.36841 11.5084 1.17786L11.5083 1.17777C11.3557 0.98606 11.1529 0.888361 10.9451 0.901098C10.7378 0.913797 10.5442 1.03508 10.4059 1.24342L10.4059 1.24345L4.89372 9.55478L2.23291 5.65258L4.33388 11.7676Z" fill="#405CE1" stroke="#405CE1" stroke-width="0.2"/>
</svg>
