<svg width="11" height="13" viewBox="0 0 11 13" fill="none" xmlns="http://www.w3.org/2000/svg">
<path d="M4.1044 11.7638L4.10437 11.7637L1.1795 7.01639C1.17948 7.01635 1.17945 7.01631 1.17943 7.01627C1.05337 6.81242 0.996443 6.55535 1.00165 6.30581C1.00684 6.05637 1.07436 5.80424 1.209 5.61129L1.20907 5.61119C1.34481 5.41716 1.53037 5.31131 1.72658 5.32067C1.92189 5.32998 2.10033 5.45215 2.22602 5.65638L4.1044 11.7638ZM4.1044 11.7638C4.23004 11.9674 4.41684 12.1 4.62798 12.1L4.63219 12.1L4.63329 12.1M4.1044 11.7638L4.63329 12.1M4.63329 12.1C4.84582 12.0977 5.03349 11.9609 5.15763 11.7526L4.63329 12.1ZM4.62078 9.54147L2.22606 5.65644L5.15778 11.7523L10.6533 2.58583C10.6533 2.58582 10.6533 2.58582 10.6533 2.58582C10.7768 2.37979 10.8315 2.12173 10.8242 1.87227C10.817 1.62303 10.7475 1.37206 10.6109 1.18173L10.6108 1.18164C10.4731 0.990282 10.2863 0.887832 10.09 0.90114C9.89485 0.914365 9.7177 1.04009 9.5934 1.24727L9.59338 1.2473L4.62078 9.54147Z" fill="#405CE1" stroke="#405CE1" stroke-width="0.2"/>
</svg>
