<svg width="11" height="13" viewBox="0 0 11 13" fill="none" xmlns="http://www.w3.org/2000/svg">
<path d="M3.74953 11.7648L3.74957 11.7648C3.87905 11.9689 4.07045 12.1 4.28495 12.1L4.28928 12.1L4.29035 12.1C4.50635 12.0977 4.69874 11.9623 4.82671 11.7534C4.82672 11.7534 4.82673 11.7534 4.82674 11.7534L10.4786 2.58689C10.6058 2.38066 10.6621 2.12217 10.6546 1.87219C10.6471 1.62241 10.5755 1.37107 10.4349 1.18065L10.4349 1.18056C10.2931 0.989029 10.102 0.88799 9.90269 0.901127C9.70439 0.914197 9.5228 1.03863 9.39471 1.2462L9.39469 1.24623L4.27759 9.54535L1.81161 5.65537C1.68211 5.45074 1.49922 5.32986 1.30074 5.32066C1.10152 5.31143 0.911621 5.41587 0.771874 5.61011L0.771805 5.61021C0.633253 5.80327 0.563655 6.05578 0.558296 6.30575C0.552934 6.55584 0.611636 6.81337 0.741431 7.01741C0.74144 7.01743 0.74145 7.01744 0.741459 7.01746L3.74953 11.7648Z" fill="#405CE1" stroke="#405CE1" stroke-width="0.2"/>
</svg>
