<svg width="12" height="13" viewBox="0 0 12 13" fill="none" xmlns="http://www.w3.org/2000/svg">
<path d="M4.33364 11.7676L4.3336 11.7676L1.09804 7.02025C1.09803 7.02023 1.09801 7.02021 1.098 7.02019C0.958124 6.81575 0.894564 6.55712 0.900364 6.30559C0.906162 6.05413 0.981513 5.80065 1.13068 5.60741L1.13076 5.60731C1.28128 5.4128 1.48292 5.31169 1.69072 5.32065C1.89804 5.32958 2.09287 5.44724 2.23262 5.65251L4.33364 11.7676ZM4.33364 11.7676C4.47349 11.9725 4.67729 12.1 4.90129 12.1L4.90594 12.1L4.90693 12.1C5.13247 12.0978 5.33742 11.9661 5.47569 11.7564C5.47573 11.7563 5.47578 11.7563 5.47583 11.7562L11.5551 2.58968C11.6922 2.38301 11.7532 2.12338 11.7451 1.87196C11.737 1.62069 11.6595 1.36841 11.5082 1.17786L11.5081 1.17777C11.3555 0.98606 11.1527 0.888361 10.9448 0.901098C10.7376 0.913797 10.544 1.03508 10.4057 1.24342L10.4057 1.24345L4.89348 9.55478L2.23267 5.65258L4.33364 11.7676Z" fill="#405CE1" stroke="#405CE1" stroke-width="0.2"/>
</svg>
