<svg width="19" height="24" viewBox="0 0 19 24" fill="none" xmlns="http://www.w3.org/2000/svg">
<mask id="path-1-inside-1_2603_2682" fill="white">
<path fill-rule="evenodd" clip-rule="evenodd" d="M9.09736 10.4995C8.15694 10.4995 7.39163 9.71435 7.39163 8.74951C7.39163 7.78468 8.15694 6.99951 9.09736 6.99951C10.0378 6.99951 10.8031 7.78468 10.8031 8.74951C10.8031 9.71435 10.0378 10.4995 9.09736 10.4995M9.09722 4.66602C6.90252 4.66602 5.11719 6.49768 5.11719 8.74935C5.11719 11.001 6.90252 12.8327 9.09722 12.8327C11.2919 12.8327 13.0773 11.001 13.0773 8.74935C13.0773 6.49768 11.2919 4.66602 9.09722 4.66602M9.09736 20.5872C7.19263 18.7392 2.27444 13.551 2.27444 9.2425C2.27444 5.43333 5.33452 2.3335 9.09736 2.3335C12.8602 2.3335 15.9203 5.43333 15.9203 9.2425C15.9203 13.551 11.0021 18.7392 9.09736 20.5872M9.09722 0C4.08124 0 0 4.14517 0 9.24233C0 15.6298 8.01579 22.7512 8.35693 23.051C8.57072 23.2388 8.8334 23.3333 9.09722 23.3333C9.36104 23.3333 9.62372 23.2388 9.83751 23.051C10.1787 22.7512 18.1944 15.6298 18.1944 9.24233C18.1944 4.14517 14.1132 0 9.09722 0"/>
</mask>
<path fill-rule="evenodd" clip-rule="evenodd" d="M9.09736 10.4995C8.15694 10.4995 7.39163 9.71435 7.39163 8.74951C7.39163 7.78468 8.15694 6.99951 9.09736 6.99951C10.0378 6.99951 10.8031 7.78468 10.8031 8.74951C10.8031 9.71435 10.0378 10.4995 9.09736 10.4995M9.09722 4.66602C6.90252 4.66602 5.11719 6.49768 5.11719 8.74935C5.11719 11.001 6.90252 12.8327 9.09722 12.8327C11.2919 12.8327 13.0773 11.001 13.0773 8.74935C13.0773 6.49768 11.2919 4.66602 9.09722 4.66602M9.09736 20.5872C7.19263 18.7392 2.27444 13.551 2.27444 9.2425C2.27444 5.43333 5.33452 2.3335 9.09736 2.3335C12.8602 2.3335 15.9203 5.43333 15.9203 9.2425C15.9203 13.551 11.0021 18.7392 9.09736 20.5872M9.09722 0C4.08124 0 0 4.14517 0 9.24233C0 15.6298 8.01579 22.7512 8.35693 23.051C8.57072 23.2388 8.8334 23.3333 9.09722 23.3333C9.36104 23.3333 9.62372 23.2388 9.83751 23.051C10.1787 22.7512 18.1944 15.6298 18.1944 9.24233C18.1944 4.14517 14.1132 0 9.09722 0" fill="#CFCFCF"/>
<path d="M8.35693 23.051L8.15889 23.2763L8.15892 23.2764L8.35693 23.051ZM9.83751 23.051L10.0355 23.2764L10.0356 23.2763L9.83751 23.051ZM9.09736 10.1995C8.32982 10.1995 7.69163 9.55595 7.69163 8.74951H7.09163C7.09163 9.87274 7.98405 10.7995 9.09736 10.7995V10.1995ZM7.69163 8.74951C7.69163 7.94307 8.32982 7.29951 9.09736 7.29951V6.69951C7.98405 6.69951 7.09163 7.62629 7.09163 8.74951H7.69163ZM9.09736 7.29951C9.8649 7.29951 10.5031 7.94307 10.5031 8.74951H11.1031C11.1031 7.62629 10.2107 6.69951 9.09736 6.69951V7.29951ZM10.5031 8.74951C10.5031 9.55595 9.8649 10.1995 9.09736 10.1995V10.7995C10.2107 10.7995 11.1031 9.87274 11.1031 8.74951H10.5031ZM9.09722 4.36602C6.72963 4.36602 4.81719 6.33929 4.81719 8.74935H5.41719C5.41719 6.65608 7.0754 4.96602 9.09722 4.96602V4.36602ZM4.81719 8.74935C4.81719 11.1594 6.72963 13.1327 9.09722 13.1327V12.5327C7.0754 12.5327 5.41719 10.8426 5.41719 8.74935H4.81719ZM9.09722 13.1327C11.4648 13.1327 13.3773 11.1594 13.3773 8.74935H12.7773C12.7773 10.8426 11.119 12.5327 9.09722 12.5327V13.1327ZM13.3773 8.74935C13.3773 6.33929 11.4648 4.36602 9.09722 4.36602V4.96602C11.119 4.96602 12.7773 6.65608 12.7773 8.74935H13.3773ZM9.30626 20.3718C8.3601 19.4539 6.66883 17.7093 5.21622 15.6638C3.7553 13.6067 2.57444 11.2981 2.57444 9.2425H1.97444C1.97444 11.4954 3.25268 13.9352 4.72703 16.0112C6.2097 18.099 7.9299 19.8725 8.88846 20.8025L9.30626 20.3718ZM2.57444 9.2425C2.57444 5.59542 5.50378 2.6335 9.09736 2.6335V2.0335C5.16527 2.0335 1.97444 5.27123 1.97444 9.2425H2.57444ZM9.09736 2.6335C12.6909 2.6335 15.6203 5.59542 15.6203 9.2425H16.2203C16.2203 5.27123 13.0295 2.0335 9.09736 2.0335V2.6335ZM15.6203 9.2425C15.6203 11.2981 14.4394 13.6067 12.9785 15.6638C11.5259 17.7093 9.83463 19.4539 8.88846 20.3718L9.30626 20.8025C10.2648 19.8725 11.985 18.099 13.4677 16.0112C14.942 13.9352 16.2203 11.4954 16.2203 9.2425H15.6203ZM9.09722 -0.3C3.91112 -0.3 -0.3 3.98395 -0.3 9.24233H0.3C0.3 4.30638 4.25136 0.3 9.09722 0.3V-0.3ZM-0.3 9.24233C-0.3 12.5441 1.76202 15.9909 3.81425 18.6144C5.87716 21.2515 7.98187 23.1208 8.15889 23.2763L8.55498 22.8257C8.39085 22.6814 6.3171 20.8401 4.28683 18.2447C2.24587 15.6357 0.3 12.3281 0.3 9.24233H-0.3ZM8.15892 23.2764C8.42779 23.5126 8.76097 23.6333 9.09722 23.6333V23.0333C8.90584 23.0333 8.71365 22.9651 8.55495 22.8256L8.15892 23.2764ZM9.09722 23.6333C9.43348 23.6333 9.76666 23.5126 10.0355 23.2764L9.6395 22.8256C9.48079 22.9651 9.28861 23.0333 9.09722 23.0333V23.6333ZM10.0356 23.2763C10.2126 23.1208 12.3173 21.2515 14.3802 18.6144C16.4324 15.9909 18.4944 12.5441 18.4944 9.24233H17.8944C17.8944 12.3281 15.9486 15.6357 13.9076 18.2447C11.8773 20.8401 9.80359 22.6814 9.63946 22.8257L10.0356 23.2763ZM18.4944 9.24233C18.4944 3.98395 14.2833 -0.3 9.09722 -0.3V0.3C13.9431 0.3 17.8944 4.30638 17.8944 9.24233H18.4944Z" fill="#242A34" mask="url(#path-1-inside-1_2603_2682)"/>
</svg>
