<svg width="24" height="19" viewBox="0 0 24 19" fill="none" xmlns="http://www.w3.org/2000/svg">
<mask id="path-1-inside-1_2603_725" fill="white">
<path fill-rule="evenodd" clip-rule="evenodd" d="M20.1817 16.3332H3.5616C2.90748 16.3332 2.37445 15.8105 2.37445 15.1665V3.7915L11.1594 10.2665C11.3707 10.4228 11.6212 10.4998 11.8717 10.4998C12.1222 10.4998 12.3727 10.4228 12.584 10.2665L21.3689 3.7915V15.1665C21.3689 15.8105 20.8359 16.3332 20.1817 16.3332V16.3332ZM19.3897 2.3335L11.8715 7.87516L4.35327 2.3335H19.3897ZM20.1816 0H3.56146C1.59791 0 0 1.57033 0 3.5V15.1667C0 17.0963 1.59791 18.6667 3.56146 18.6667H20.1816C22.1451 18.6667 23.7431 17.0963 23.7431 15.1667V3.5C23.7431 1.57033 22.1451 0 20.1816 0V0Z"/>
</mask>
<path fill-rule="evenodd" clip-rule="evenodd" d="M20.1817 16.3332H3.5616C2.90748 16.3332 2.37445 15.8105 2.37445 15.1665V3.7915L11.1594 10.2665C11.3707 10.4228 11.6212 10.4998 11.8717 10.4998C12.1222 10.4998 12.3727 10.4228 12.584 10.2665L21.3689 3.7915V15.1665C21.3689 15.8105 20.8359 16.3332 20.1817 16.3332V16.3332ZM19.3897 2.3335L11.8715 7.87516L4.35327 2.3335H19.3897ZM20.1816 0H3.56146C1.59791 0 0 1.57033 0 3.5V15.1667C0 17.0963 1.59791 18.6667 3.56146 18.6667H20.1816C22.1451 18.6667 23.7431 17.0963 23.7431 15.1667V3.5C23.7431 1.57033 22.1451 0 20.1816 0V0Z" fill="#CFCFCF"/>
<path d="M2.37445 3.7915L2.55244 3.55001L2.07445 3.1977V3.7915H2.37445ZM11.1594 10.2665L11.3378 10.0253L11.3374 10.025L11.1594 10.2665ZM12.584 10.2665L12.406 10.025L12.4055 10.0253L12.584 10.2665ZM21.3689 3.7915H21.6689V3.1977L21.1909 3.55001L21.3689 3.7915ZM19.3897 2.3335L19.5677 2.57498L20.3024 2.0335H19.3897V2.3335ZM11.8715 7.87516L11.6935 8.11665L11.8715 8.24785L12.0495 8.11665L11.8715 7.87516ZM4.35327 2.3335V2.0335H3.44065L4.17527 2.57498L4.35327 2.3335ZM20.1817 16.0332H3.5616V16.6332H20.1817V16.0332ZM3.5616 16.0332C3.06803 16.0332 2.67445 15.6397 2.67445 15.1665H2.07445C2.07445 15.9813 2.74694 16.6332 3.5616 16.6332V16.0332ZM2.67445 15.1665V3.7915H2.07445V15.1665H2.67445ZM2.19646 4.033L10.9814 10.508L11.3374 10.025L2.55244 3.55001L2.19646 4.033ZM10.981 10.5077C11.2461 10.7039 11.5598 10.7998 11.8717 10.7998V10.1998C11.6826 10.1998 11.4952 10.1418 11.3378 10.0253L10.981 10.5077ZM11.8717 10.7998C12.1836 10.7998 12.4972 10.7039 12.7624 10.5077L12.4055 10.0253C12.2481 10.1418 12.0608 10.1998 11.8717 10.1998V10.7998ZM12.762 10.508L21.5469 4.033L21.1909 3.55001L12.406 10.025L12.762 10.508ZM21.0689 3.7915V15.1665H21.6689V3.7915H21.0689ZM21.0689 15.1665C21.0689 15.6397 20.6753 16.0332 20.1817 16.0332V16.6332C20.9964 16.6332 21.6689 15.9813 21.6689 15.1665H21.0689ZM19.2117 2.09201L11.6935 7.63367L12.0495 8.11665L19.5677 2.57498L19.2117 2.09201ZM12.0495 7.63367L4.53127 2.09201L4.17527 2.57498L11.6935 8.11665L12.0495 7.63367ZM4.35327 2.6335H19.3897V2.0335H4.35327V2.6335ZM20.1816 -0.3H3.56146V0.3H20.1816V-0.3ZM3.56146 -0.3C1.43717 -0.3 -0.3 1.39975 -0.3 3.5H0.3C0.3 1.74092 1.75865 0.3 3.56146 0.3V-0.3ZM-0.3 3.5V15.1667H0.3V3.5H-0.3ZM-0.3 15.1667C-0.3 17.2669 1.43717 18.9667 3.56146 18.9667V18.3667C1.75865 18.3667 0.3 16.9257 0.3 15.1667H-0.3ZM3.56146 18.9667H20.1816V18.3667H3.56146V18.9667ZM20.1816 18.9667C22.3059 18.9667 24.0431 17.2669 24.0431 15.1667H23.4431C23.4431 16.9257 21.9844 18.3667 20.1816 18.3667V18.9667ZM24.0431 15.1667V3.5H23.4431V15.1667H24.0431ZM24.0431 3.5C24.0431 1.39975 22.3059 -0.3 20.1816 -0.3V0.3C21.9844 0.3 23.4431 1.74092 23.4431 3.5H24.0431Z" fill="#242A34" mask="url(#path-1-inside-1_2603_725)"/>
</svg>
