<svg width="23" height="19" viewBox="0 0 23 19" fill="none" xmlns="http://www.w3.org/2000/svg">
<mask id="path-1-inside-1_2603_2655" fill="white">
<path fill-rule="evenodd" clip-rule="evenodd" d="M19.3317 16.3332H3.4116C2.78503 16.3332 2.27444 15.8105 2.27444 15.1665V3.7915L10.6894 10.2665C10.8918 10.4228 11.1317 10.4998 11.3717 10.4998C11.6116 10.4998 11.8515 10.4228 12.054 10.2665L20.4689 3.7915V15.1665C20.4689 15.8105 19.9583 16.3332 19.3317 16.3332V16.3332ZM18.5731 2.3335L11.3715 7.87516L4.16992 2.3335H18.5731ZM19.3316 0H3.41146C1.53061 0 0 1.57033 0 3.5V15.1667C0 17.0963 1.53061 18.6667 3.41146 18.6667H19.3316C21.2124 18.6667 22.7431 17.0963 22.7431 15.1667V3.5C22.7431 1.57033 21.2124 0 19.3316 0V0Z"/>
</mask>
<path fill-rule="evenodd" clip-rule="evenodd" d="M19.3317 16.3332H3.4116C2.78503 16.3332 2.27444 15.8105 2.27444 15.1665V3.7915L10.6894 10.2665C10.8918 10.4228 11.1317 10.4998 11.3717 10.4998C11.6116 10.4998 11.8515 10.4228 12.054 10.2665L20.4689 3.7915V15.1665C20.4689 15.8105 19.9583 16.3332 19.3317 16.3332V16.3332ZM18.5731 2.3335L11.3715 7.87516L4.16992 2.3335H18.5731ZM19.3316 0H3.41146C1.53061 0 0 1.57033 0 3.5V15.1667C0 17.0963 1.53061 18.6667 3.41146 18.6667H19.3316C21.2124 18.6667 22.7431 17.0963 22.7431 15.1667V3.5C22.7431 1.57033 21.2124 0 19.3316 0V0Z" fill="#CFCFCF"/>
<path d="M2.27444 3.7915L2.45739 3.55374L1.97444 3.18213V3.7915H2.27444ZM10.6894 10.2665L10.8728 10.0291L10.8723 10.0287L10.6894 10.2665ZM12.054 10.2665L11.871 10.0287L11.8706 10.0291L12.054 10.2665ZM20.4689 3.7915H20.7689V3.18213L20.2859 3.55374L20.4689 3.7915ZM18.5731 2.3335L18.7561 2.57125L19.4549 2.0335H18.5731V2.3335ZM11.3715 7.87516L11.1886 8.11292L11.3715 8.2537L11.5545 8.11292L11.3715 7.87516ZM4.16992 2.3335V2.0335H3.28813L3.98697 2.57125L4.16992 2.3335ZM19.3317 16.0332H3.4116V16.6332H19.3317V16.0332ZM3.4116 16.0332C2.95772 16.0332 2.57444 15.6519 2.57444 15.1665H1.97444C1.97444 15.9691 2.61233 16.6332 3.4116 16.6332V16.0332ZM2.57444 15.1665V3.7915H1.97444V15.1665H2.57444ZM2.0915 4.02926L10.5064 10.5043L10.8723 10.0287L2.45739 3.55374L2.0915 4.02926ZM10.506 10.5039C10.7623 10.7019 11.0672 10.7998 11.3717 10.7998V10.1998C11.1963 10.1998 11.0212 10.1438 10.8728 10.0291L10.506 10.5039ZM11.3717 10.7998C11.6762 10.7998 11.981 10.7019 12.2373 10.5039L11.8706 10.0291C11.7221 10.1438 11.547 10.1998 11.3717 10.1998V10.7998ZM12.2369 10.5043L20.6518 4.02926L20.2859 3.55374L11.871 10.0287L12.2369 10.5043ZM20.1689 3.7915V15.1665H20.7689V3.7915H20.1689ZM20.1689 15.1665C20.1689 15.6519 19.7856 16.0332 19.3317 16.0332V16.6332C20.131 16.6332 20.7689 15.9691 20.7689 15.1665H20.1689ZM18.3901 2.09574L11.1886 7.63741L11.5545 8.11292L18.7561 2.57125L18.3901 2.09574ZM11.5545 7.63741L4.35287 2.09574L3.98697 2.57125L11.1886 8.11292L11.5545 7.63741ZM4.16992 2.6335H18.5731V2.0335H4.16992V2.6335ZM19.3316 -0.3H3.41146V0.3H19.3316V-0.3ZM3.41146 -0.3C1.35772 -0.3 -0.3 1.41194 -0.3 3.5H0.3C0.3 1.72873 1.70349 0.3 3.41146 0.3V-0.3ZM-0.3 3.5V15.1667H0.3V3.5H-0.3ZM-0.3 15.1667C-0.3 17.2547 1.35772 18.9667 3.41146 18.9667V18.3667C1.70349 18.3667 0.3 16.9379 0.3 15.1667H-0.3ZM3.41146 18.9667H19.3316V18.3667H3.41146V18.9667ZM19.3316 18.9667C21.3853 18.9667 23.0431 17.2547 23.0431 15.1667H22.4431C22.4431 16.9379 21.0396 18.3667 19.3316 18.3667V18.9667ZM23.0431 15.1667V3.5H22.4431V15.1667H23.0431ZM23.0431 3.5C23.0431 1.41194 21.3853 -0.3 19.3316 -0.3V0.3C21.0396 0.3 22.4431 1.72873 22.4431 3.5H23.0431Z" fill="#242A34" mask="url(#path-1-inside-1_2603_2655)"/>
</svg>
