<svg width="11" height="13" viewBox="0 0 11 13" fill="none" xmlns="http://www.w3.org/2000/svg">
<path d="M4.10465 11.7638L4.10461 11.7637L1.17975 7.01639C1.17972 7.01635 1.1797 7.01631 1.17967 7.01627C1.05361 6.81242 0.996688 6.55535 1.00189 6.30581C1.00709 6.05637 1.0746 5.80424 1.20925 5.61129L1.20932 5.61119C1.34505 5.41716 1.53061 5.31131 1.72682 5.32067C1.92213 5.32998 2.10057 5.45215 2.22626 5.65638L4.10465 11.7638ZM4.10465 11.7638C4.23028 11.9674 4.41709 12.1 4.62822 12.1L4.63244 12.1L4.63353 12.1M4.10465 11.7638L4.63353 12.1M4.63353 12.1C4.84606 12.0977 5.03374 11.9609 5.15788 11.7526L4.63353 12.1ZM4.62102 9.54147L2.2263 5.65644L5.15803 11.7523L10.6535 2.58583C10.6535 2.58582 10.6535 2.58582 10.6535 2.58582C10.7771 2.37979 10.8318 2.12173 10.8245 1.87227C10.8172 1.62303 10.7477 1.37206 10.6111 1.18173L10.611 1.18164C10.4733 0.990282 10.2865 0.887832 10.0902 0.90114C9.89509 0.914365 9.71795 1.04009 9.59364 1.24727L9.59362 1.2473L4.62102 9.54147Z" fill="#405CE1" stroke="#405CE1" stroke-width="0.2"/>
</svg>
