<svg width="11" height="13" viewBox="0 0 11 13" fill="none" xmlns="http://www.w3.org/2000/svg">
<path d="M3.54942 11.7645L3.54939 11.7644L0.57064 7.01708C0.570617 7.01705 0.570594 7.01701 0.570571 7.01697L0.570544 7.01693L0.65525 6.96378C0.423092 6.59527 0.435956 6.01502 0.682202 5.66851L3.54942 11.7645ZM3.54942 11.7645C3.67756 11.9684 3.86734 12.1 4.08065 12.1L4.08494 12.1L4.08601 12.1C4.30077 12.0977 4.49149 11.9618 4.61811 11.7532C4.61815 11.7531 4.61818 11.7531 4.61821 11.753L10.215 2.58652C10.3409 2.38036 10.3966 2.12202 10.3892 1.87222C10.3818 1.62263 10.3109 1.37142 10.1717 1.18103L10.1717 1.18094C10.0313 0.98946 9.84175 0.887936 9.64349 0.901132C9.44632 0.914255 9.2663 1.03914 9.13954 1.24658L9.13952 1.2466L4.07334 9.54401M3.54942 11.7645L4.07334 9.54401M4.07334 9.54401L1.63248 5.65575L4.07334 9.54401Z" fill="#405CE1" stroke="#405CE1" stroke-width="0.2"/>
</svg>
