<svg width="18" height="24" viewBox="0 0 18 24" fill="none" xmlns="http://www.w3.org/2000/svg">
<mask id="path-1-inside-1_2603_2668" fill="white">
<path fill-rule="evenodd" clip-rule="evenodd" d="M9.00014 10.4995C8.06976 10.4995 7.31264 9.71435 7.31264 8.74951C7.31264 7.78468 8.06976 6.99951 9.00014 6.99951C9.93051 6.99951 10.6876 7.78468 10.6876 8.74951C10.6876 9.71435 9.93051 10.4995 9.00014 10.4995M9 4.66602C6.82875 4.66602 5.0625 6.49768 5.0625 8.74935C5.0625 11.001 6.82875 12.8327 9 12.8327C11.1713 12.8327 12.9375 11.001 12.9375 8.74935C12.9375 6.49768 11.1713 4.66602 9 4.66602M9.00014 20.5872C7.11576 18.7392 2.25014 13.551 2.25014 9.2425C2.25014 5.43333 5.27751 2.3335 9.00014 2.3335C12.7228 2.3335 15.7501 5.43333 15.7501 9.2425C15.7501 13.551 10.8845 18.7392 9.00014 20.5872M9 0C4.03763 0 0 4.14517 0 9.24233C0 15.6298 7.93012 22.7512 8.26762 23.051C8.47912 23.2388 8.739 23.3333 9 23.3333C9.261 23.3333 9.52088 23.2388 9.73238 23.051C10.0699 22.7512 18 15.6298 18 9.24233C18 4.14517 13.9624 0 9 0"/>
</mask>
<path fill-rule="evenodd" clip-rule="evenodd" d="M9.00014 10.4995C8.06976 10.4995 7.31264 9.71435 7.31264 8.74951C7.31264 7.78468 8.06976 6.99951 9.00014 6.99951C9.93051 6.99951 10.6876 7.78468 10.6876 8.74951C10.6876 9.71435 9.93051 10.4995 9.00014 10.4995M9 4.66602C6.82875 4.66602 5.0625 6.49768 5.0625 8.74935C5.0625 11.001 6.82875 12.8327 9 12.8327C11.1713 12.8327 12.9375 11.001 12.9375 8.74935C12.9375 6.49768 11.1713 4.66602 9 4.66602M9.00014 20.5872C7.11576 18.7392 2.25014 13.551 2.25014 9.2425C2.25014 5.43333 5.27751 2.3335 9.00014 2.3335C12.7228 2.3335 15.7501 5.43333 15.7501 9.2425C15.7501 13.551 10.8845 18.7392 9.00014 20.5872M9 0C4.03763 0 0 4.14517 0 9.24233C0 15.6298 7.93012 22.7512 8.26762 23.051C8.47912 23.2388 8.739 23.3333 9 23.3333C9.261 23.3333 9.52088 23.2388 9.73238 23.051C10.0699 22.7512 18 15.6298 18 9.24233C18 4.14517 13.9624 0 9 0" fill="#CFCFCF"/>
<path d="M8.26762 23.051L8.06838 23.2753L8.06841 23.2753L8.26762 23.051ZM9.73238 23.051L9.93159 23.2753L9.93162 23.2753L9.73238 23.051ZM9.00014 10.1995C8.24564 10.1995 7.61264 9.55904 7.61264 8.74951H7.01264C7.01264 9.86965 7.89389 10.7995 9.00014 10.7995V10.1995ZM7.61264 8.74951C7.61264 7.93999 8.24564 7.29951 9.00014 7.29951V6.69951C7.89389 6.69951 7.01264 7.62937 7.01264 8.74951H7.61264ZM9.00014 7.29951C9.75464 7.29951 10.3876 7.93999 10.3876 8.74951H10.9876C10.9876 7.62937 10.1064 6.69951 9.00014 6.69951V7.29951ZM10.3876 8.74951C10.3876 9.55904 9.75464 10.1995 9.00014 10.1995V10.7995C10.1064 10.7995 10.9876 9.86965 10.9876 8.74951H10.3876ZM9 4.36602C6.65288 4.36602 4.7625 6.34237 4.7625 8.74935H5.3625C5.3625 6.65299 7.00463 4.96602 9 4.96602V4.36602ZM4.7625 8.74935C4.7625 11.1563 6.65288 13.1327 9 13.1327V12.5327C7.00463 12.5327 5.3625 10.8457 5.3625 8.74935H4.7625ZM9 13.1327C11.3471 13.1327 13.2375 11.1563 13.2375 8.74935H12.6375C12.6375 10.8457 10.9954 12.5327 9 12.5327V13.1327ZM13.2375 8.74935C13.2375 6.34237 11.3471 4.36602 9 4.36602V4.96602C10.9954 4.96602 12.6375 6.65299 12.6375 8.74935H13.2375ZM9.21019 20.373C8.27419 19.455 6.60104 17.7105 5.16397 15.6651C3.71882 13.6081 2.55014 11.2991 2.55014 9.2425H1.95014C1.95014 11.4944 3.21427 13.9337 4.67303 16.01C6.13986 18.0978 7.84171 19.8713 8.79008 20.8014L9.21019 20.373ZM2.55014 9.2425C2.55014 5.59236 5.44978 2.6335 9.00014 2.6335V2.0335C5.10525 2.0335 1.95014 5.2743 1.95014 9.2425H2.55014ZM9.00014 2.6335C12.5505 2.6335 15.4501 5.59236 15.4501 9.2425H16.0501C16.0501 5.2743 12.895 2.0335 9.00014 2.0335V2.6335ZM15.4501 9.2425C15.4501 11.2991 14.2815 13.6081 12.8363 15.6651C11.3992 17.7105 9.72609 19.455 8.79008 20.373L9.21019 20.8014C10.1586 19.8713 11.8604 18.0978 13.3273 16.01C14.786 13.9337 16.0501 11.4944 16.0501 9.2425H15.4501ZM9 -0.3C3.8645 -0.3 -0.3 3.98702 -0.3 9.24233H0.3C0.3 4.30331 4.21075 0.3 9 0.3V-0.3ZM-0.3 9.24233C-0.3 12.543 1.73948 15.9894 3.77 18.6132C5.81091 21.2503 7.89319 23.1196 8.06838 23.2753L8.46687 22.8267C8.30456 22.6825 6.25303 20.8413 4.2445 18.2459C2.22559 15.6372 0.3 12.3291 0.3 9.24233H-0.3ZM8.06841 23.2753C8.33486 23.5119 8.66563 23.6333 9 23.6333V23.0333C8.81237 23.0333 8.62339 22.9657 8.46684 22.8267L8.06841 23.2753ZM9 23.6333C9.33437 23.6333 9.66514 23.5119 9.93159 23.2753L9.53316 22.8267C9.37661 22.9657 9.18763 23.0333 9 23.0333V23.6333ZM9.93162 23.2753C10.1068 23.1196 12.1891 21.2503 14.23 18.6132C16.2605 15.9894 18.3 12.543 18.3 9.24233H17.7C17.7 12.3291 15.7744 15.6372 13.7555 18.2459C11.747 20.8413 9.69544 22.6825 9.53313 22.8267L9.93162 23.2753ZM18.3 9.24233C18.3 3.98702 14.1355 -0.3 9 -0.3V0.3C13.7892 0.3 17.7 4.30331 17.7 9.24233H18.3Z" fill="#242A34" mask="url(#path-1-inside-1_2603_2668)"/>
</svg>
