<svg width="18" height="24" viewBox="0 0 18 24" fill="none" xmlns="http://www.w3.org/2000/svg">
<mask id="path-1-inside-1_2603_2652" fill="white">
<path fill-rule="evenodd" clip-rule="evenodd" d="M0 5.36667C0 15.274 6.12845 23.3333 13.6622 23.3333C15.912 23.3333 17.7431 20.9265 17.7431 17.9667C17.7431 17.6657 17.7235 17.367 17.6863 17.0788C17.6499 16.786 17.5949 16.5013 17.5222 16.226C17.4228 15.8468 17.1806 15.5622 16.8834 15.4723L11.5915 13.8752C11.3023 13.7912 10.9954 13.8973 10.7789 14.1703C10.6529 14.329 10.6494 14.3337 10.0727 15.7815C8.1831 14.6498 6.63502 12.621 5.74431 10.0847C6.84438 9.3275 6.84705 9.324 6.9677 9.15833C7.17529 8.87367 7.25957 8.47233 7.19215 8.08967L5.97764 1.13167C5.90932 0.739667 5.69197 0.421167 5.40365 0.289333C5.19251 0.193667 4.97604 0.121333 4.76046 0.0758333C4.53956 0.0256667 4.31156 0 4.0809 0C1.8302 0 0 2.40683 0 5.36667ZM1.52084 5.36732C1.52084 3.69432 2.55526 2.33398 3.82744 2.33398C3.92414 2.33398 4.01995 2.34215 4.11843 2.35848L5.05881 7.74965C4.90533 7.85465 4.73766 7.97015 4.58241 8.07748C3.81768 8.60248 3.21442 9.01782 3.53113 9.93365C4.57354 13.8373 6.96796 16.9873 9.90089 18.3406C10.647 18.7357 10.9399 18.0006 11.3437 16.9876L11.3452 16.9838C11.399 16.847 11.4562 16.7036 11.5123 16.5629C11.5414 16.4901 11.5702 16.418 11.598 16.348L15.6967 17.5846C15.7091 17.7106 15.7153 17.8378 15.7153 17.9673C15.7153 19.6403 14.68 21.0006 13.4087 21.0006C6.85352 21.0006 1.52084 13.9866 1.52084 5.36732Z"/>
</mask>
<path fill-rule="evenodd" clip-rule="evenodd" d="M0 5.36667C0 15.274 6.12845 23.3333 13.6622 23.3333C15.912 23.3333 17.7431 20.9265 17.7431 17.9667C17.7431 17.6657 17.7235 17.367 17.6863 17.0788C17.6499 16.786 17.5949 16.5013 17.5222 16.226C17.4228 15.8468 17.1806 15.5622 16.8834 15.4723L11.5915 13.8752C11.3023 13.7912 10.9954 13.8973 10.7789 14.1703C10.6529 14.329 10.6494 14.3337 10.0727 15.7815C8.1831 14.6498 6.63502 12.621 5.74431 10.0847C6.84438 9.3275 6.84705 9.324 6.9677 9.15833C7.17529 8.87367 7.25957 8.47233 7.19215 8.08967L5.97764 1.13167C5.90932 0.739667 5.69197 0.421167 5.40365 0.289333C5.19251 0.193667 4.97604 0.121333 4.76046 0.0758333C4.53956 0.0256667 4.31156 0 4.0809 0C1.8302 0 0 2.40683 0 5.36667ZM1.52084 5.36732C1.52084 3.69432 2.55526 2.33398 3.82744 2.33398C3.92414 2.33398 4.01995 2.34215 4.11843 2.35848L5.05881 7.74965C4.90533 7.85465 4.73766 7.97015 4.58241 8.07748C3.81768 8.60248 3.21442 9.01782 3.53113 9.93365C4.57354 13.8373 6.96796 16.9873 9.90089 18.3406C10.647 18.7357 10.9399 18.0006 11.3437 16.9876L11.3452 16.9838C11.399 16.847 11.4562 16.7036 11.5123 16.5629C11.5414 16.4901 11.5702 16.418 11.598 16.348L15.6967 17.5846C15.7091 17.7106 15.7153 17.8378 15.7153 17.9673C15.7153 19.6403 14.68 21.0006 13.4087 21.0006C6.85352 21.0006 1.52084 13.9866 1.52084 5.36732Z" fill="#CFCFCF"/>
<path d="M17.6863 17.0788L17.3886 17.1158L17.3888 17.1173L17.6863 17.0788ZM17.5222 16.226L17.232 16.302L17.2321 16.3026L17.5222 16.226ZM16.8834 15.4723L16.9702 15.1852L16.9701 15.1851L16.8834 15.4723ZM11.5915 13.8752L11.6782 13.5879L11.6752 13.5871L11.5915 13.8752ZM10.7789 14.1703L11.0139 14.3569L11.014 14.3567L10.7789 14.1703ZM10.0727 15.7815L9.9186 16.0389L10.221 16.22L10.3514 15.8925L10.0727 15.7815ZM5.74431 10.0847L5.57422 9.83755L5.38525 9.96762L5.46126 10.1841L5.74431 10.0847ZM6.9677 9.15833L6.72531 8.98157L6.72519 8.98172L6.9677 9.15833ZM7.19215 8.08967L6.89662 8.14125L6.8967 8.14172L7.19215 8.08967ZM5.97764 1.13167L5.68209 1.18317L5.6821 1.18325L5.97764 1.13167ZM5.40365 0.289333L5.5284 0.0164994L5.52746 0.0160738L5.40365 0.289333ZM4.76046 0.0758333L4.69402 0.368418L4.69851 0.369367L4.76046 0.0758333ZM4.11843 2.35848L4.41396 2.30693L4.37741 2.09734L4.16752 2.06253L4.11843 2.35848ZM5.05881 7.74965L5.2282 7.99725L5.38752 7.88826L5.35435 7.6981L5.05881 7.74965ZM4.58241 8.07748L4.7522 8.32481L4.75301 8.32425L4.58241 8.07748ZM3.53113 9.93365L3.82098 9.85625L3.81819 9.84581L3.81466 9.8356L3.53113 9.93365ZM9.90089 18.3406L10.0413 18.0755L10.034 18.0717L10.0266 18.0682L9.90089 18.3406ZM11.3437 16.9876L11.065 16.8765L11.065 16.8765L11.3437 16.9876ZM11.3452 16.9838L11.6238 17.0949L11.6244 17.0936L11.3452 16.9838ZM11.5123 16.5629L11.2337 16.4517L11.2337 16.4517L11.5123 16.5629ZM11.598 16.348L11.6847 16.0608L11.421 15.9812L11.3192 16.2372L11.598 16.348ZM15.6967 17.5846L15.9952 17.5552L15.9755 17.3554L15.7833 17.2974L15.6967 17.5846ZM13.6622 23.0333C10.0094 23.0333 6.67542 21.0802 4.24474 17.8837C1.81397 14.687 0.3 10.2605 0.3 5.36667H-0.3C-0.3 10.3802 1.25025 14.937 3.76714 18.2468C6.28411 21.5568 9.7812 23.6333 13.6622 23.6333V23.0333ZM17.4431 17.9667C17.4431 19.3868 17.0034 20.6633 16.3075 21.5783C15.6116 22.4933 14.673 23.0333 13.6622 23.0333V23.6333C14.9012 23.6333 16.0029 22.97 16.7851 21.9415C17.5671 20.9132 18.0431 19.5064 18.0431 17.9667H17.4431ZM17.3888 17.1173C17.4244 17.3927 17.4431 17.6785 17.4431 17.9667H18.0431C18.0431 17.6528 18.0227 17.3413 17.9838 17.0404L17.3888 17.1173ZM17.2321 16.3026C17.3013 16.5647 17.3538 16.8361 17.3886 17.1158L17.984 17.0419C17.946 16.7359 17.8885 16.438 17.8122 16.1494L17.2321 16.3026ZM16.7966 15.7595C16.9677 15.8112 17.1513 15.9943 17.232 16.302L17.8124 16.15C17.6943 15.6994 17.3935 15.3131 16.9702 15.1852L16.7966 15.7595ZM11.5049 14.1624L16.7967 15.7595L16.9701 15.1851L11.6782 13.588L11.5049 14.1624ZM11.014 14.3567C11.1656 14.1655 11.3516 14.1179 11.5079 14.1633L11.6752 13.5871C11.253 13.4645 10.8252 13.6291 10.5438 13.9839L11.014 14.3567ZM10.3514 15.8925C10.641 15.1654 10.7835 14.809 10.8695 14.6131C10.9122 14.516 10.9366 14.4685 10.9542 14.4391C10.9699 14.4127 10.9824 14.3965 11.0139 14.3569L10.544 13.9838C10.5124 14.0235 10.4772 14.0674 10.4389 14.1318C10.4023 14.193 10.3662 14.267 10.3201 14.3718C10.2287 14.58 10.0811 14.9498 9.79403 15.6705L10.3514 15.8925ZM5.46126 10.1841C6.37013 12.7721 7.95698 14.8641 9.9186 16.0389L10.2269 15.5241C8.40921 14.4356 6.8999 12.4699 6.02737 9.98527L5.46126 10.1841ZM6.72519 8.98172C6.69429 9.02415 6.68283 9.03924 6.66504 9.05757C6.64595 9.07724 6.6136 9.10636 6.542 9.16066C6.39582 9.27152 6.12801 9.45638 5.57422 9.83755L5.91441 10.3318C6.46069 9.95579 6.74425 9.76031 6.90457 9.63872C6.98624 9.57679 7.04592 9.52664 7.09564 9.4754C7.14667 9.42282 7.18078 9.37535 7.2102 9.33495L6.72519 8.98172ZM6.8967 8.14172C6.95158 8.45321 6.87964 8.76993 6.72531 8.98157L7.21009 9.3351C7.47094 8.9774 7.56756 8.49146 7.4876 8.03761L6.8967 8.14172ZM5.6821 1.18325L6.89662 8.14125L7.48768 8.03808L6.27317 1.08008L5.6821 1.18325ZM5.2789 0.562166C5.45445 0.642433 5.62593 0.860904 5.68209 1.18317L6.27318 1.08016C6.19272 0.618429 5.9295 0.1999 5.5284 0.016501L5.2789 0.562166ZM4.69851 0.369367C4.89114 0.410023 5.08692 0.475182 5.27984 0.562593L5.52746 0.0160738C5.2981 -0.0878488 5.06094 -0.167357 4.82241 -0.2177L4.69851 0.369367ZM4.0809 0.3C4.28932 0.3 4.49503 0.323193 4.69402 0.368384L4.8269 -0.216717C4.58409 -0.27186 4.3338 -0.3 4.0809 -0.3V0.3ZM0.3 5.36667C0.3 3.94655 0.739422 2.67003 1.43524 1.75498C2.13096 0.840061 3.06962 0.3 4.0809 0.3V-0.3C2.84147 -0.3 1.73969 0.363355 0.957636 1.39181C0.175676 2.42014 -0.3 3.82695 -0.3 5.36667H0.3ZM3.82744 2.03398C3.07728 2.03398 2.41907 2.43571 1.95827 3.04169C1.49757 3.64754 1.22084 4.47102 1.22084 5.36732H1.82084C1.82084 4.59061 2.06132 3.89743 2.43588 3.40486C2.81033 2.91243 3.30542 2.63398 3.82744 2.63398V2.03398ZM4.16752 2.06253C4.05365 2.04364 3.94141 2.03398 3.82744 2.03398V2.63398C3.90687 2.63398 3.98626 2.64066 4.06934 2.65444L4.16752 2.06253ZM5.35435 7.6981L4.41396 2.30693L3.82289 2.41003L4.76327 7.8012L5.35435 7.6981ZM4.75301 8.32425C4.908 8.2171 5.07525 8.10189 5.2282 7.99725L4.88941 7.50205C4.73541 7.60741 4.56732 7.7232 4.4118 7.83071L4.75301 8.32425ZM3.81466 9.8356C3.7475 9.64141 3.73513 9.49168 3.75149 9.37158C3.76769 9.25271 3.8145 9.14439 3.89372 9.03563C4.06384 8.80208 4.356 8.59681 4.7522 8.32481L4.41261 7.83016C4.04409 8.08316 3.65226 8.34805 3.40874 8.68238C3.28114 8.85755 3.18873 9.0576 3.15699 9.29059C3.12541 9.52235 3.15641 9.76798 3.24761 10.0317L3.81466 9.8356ZM10.0266 18.0682C7.19394 16.7612 4.84648 13.6966 3.82098 9.85625L3.24129 10.011C4.30059 13.978 6.74198 17.2134 9.7752 18.613L10.0266 18.0682ZM11.065 16.8765C10.9632 17.1319 10.8725 17.3591 10.781 17.5549C10.6888 17.7522 10.6039 17.8993 10.5199 18.0004C10.4376 18.0995 10.3729 18.1342 10.3225 18.1448C10.2732 18.1551 10.1875 18.153 10.0413 18.0755L9.76051 18.6058C9.98726 18.7258 10.218 18.7799 10.4461 18.7319C10.6731 18.6841 10.8468 18.5458 10.9813 18.3839C11.1144 18.2239 11.225 18.0221 11.3246 17.8089C11.4249 17.5943 11.5223 17.3497 11.6224 17.0986L11.065 16.8765ZM11.0665 16.8727L11.065 16.8765L11.6224 17.0987L11.6238 17.0949L11.0665 16.8727ZM11.2337 16.4517C11.1776 16.5922 11.1201 16.7364 11.066 16.8741L11.6244 17.0936C11.6778 16.9576 11.7348 16.8149 11.791 16.6741L11.2337 16.4517ZM11.3192 16.2372C11.2915 16.307 11.2628 16.3788 11.2337 16.4517L11.791 16.6741C11.82 16.6013 11.8489 16.5291 11.8768 16.4588L11.3192 16.2372ZM15.7833 17.2974L11.6847 16.0608L11.5114 16.6352L15.61 17.8719L15.7833 17.2974ZM16.0153 17.9673C16.0153 17.8282 16.0086 17.6912 15.9952 17.5552L15.3981 17.6141C15.4095 17.7301 15.4153 17.8475 15.4153 17.9673H16.0153ZM13.4087 21.3006C14.1584 21.3006 14.8166 20.8989 15.2775 20.293C15.7383 19.6872 16.0153 18.8637 16.0153 17.9673H15.4153C15.4153 18.744 15.1746 19.4371 14.7999 19.9297C14.4253 20.4222 13.9302 20.7006 13.4087 20.7006V21.3006ZM1.22084 5.36732C1.22084 9.73681 2.57216 13.7103 4.76777 16.5978C6.96347 19.4855 10.017 21.3006 13.4087 21.3006V20.7006C10.2452 20.7006 7.35482 19.0088 5.24538 16.2347C3.13587 13.4603 1.82084 9.61715 1.82084 5.36732H1.22084Z" fill="#242A34" mask="url(#path-1-inside-1_2603_2652)"/>
</svg>
