<svg width="34" height="34" viewBox="0 0 34 34" fill="none" xmlns="http://www.w3.org/2000/svg">
<path fill-rule="evenodd" clip-rule="evenodd" d="M27.7627 11.6384C27.9306 11.1105 27.7627 10.7266 27.0189 10.7266H24.5474C23.9236 10.7266 23.6357 11.0626 23.4677 11.4225C23.4677 11.4225 22.196 14.4937 20.4204 16.4853C19.8446 17.0611 19.5806 17.2531 19.2687 17.2531C19.1007 17.2531 18.8848 17.0611 18.8848 16.5333V11.6144C18.8848 10.9906 18.6928 10.7026 18.1649 10.7026H14.2779C13.894 10.7026 13.654 10.9906 13.654 11.2785C13.654 11.8784 14.5418 12.0223 14.6378 13.7019V17.3491C14.6378 18.1409 14.4938 18.2848 14.1819 18.2848C13.3421 18.2848 11.3026 15.1896 10.0788 11.6624C9.8389 10.9666 9.59896 10.7026 8.97511 10.7026H6.4797C5.75986 10.7026 5.63989 11.0386 5.63989 11.3985C5.63989 12.0463 6.4797 15.3096 9.55097 19.6285C11.5905 22.5798 14.4938 24.1635 17.1092 24.1635C18.6928 24.1635 18.8848 23.8035 18.8848 23.2037V20.9722C18.8848 20.2524 19.0287 20.1324 19.5326 20.1324C19.8925 20.1324 20.5404 20.3244 22.004 21.74C23.6836 23.4196 23.9716 24.1875 24.9074 24.1875H27.3788C28.0986 24.1875 28.4345 23.8275 28.2426 23.1317C28.0266 22.4359 27.2108 21.4281 26.1551 20.2284C25.5792 19.5566 24.7154 18.8127 24.4515 18.4528C24.0916 17.9729 24.1875 17.781 24.4515 17.3491C24.4275 17.3491 27.4508 13.0781 27.7627 11.6384Z" fill="#CFCFCF"/>
</svg>
